<svg xmlns="http://www.w3.org/2000/svg" width="218.344" height="46.236" viewBox="0 0 218.344 46.236">
    <g>
        <g>
            <path d="M345.747 290.39c1.433-2.3 3.395-3.558 6.18-3.209 2.8.352 4.7 1.961 4.806 4.748.2 5.405.109 10.821.154 16.232.008.96-.438 1.243-1.37 1.322-4.135.351-4.2.324-4.2-3.695v-10.151c0-1.582-.137-3.114-2.184-3.3-1.589-.146-2.795 1.231-2.829 3.365-.064 3.834-.169 7.677.031 11.5.122 2.328-1.082 2.356-2.738 2.274-1.527-.075-3.177.464-3.016-2.222.225-3.747.088-7.517.042-11.276-.021-1.661 0-3.615-2.312-3.675-2.206-.058-2.616 1.8-2.671 3.49-.128 3.829-.16 7.666-.075 11.5.036 1.611-.305 2.281-2.088 2.209-4.159-.166-3.4.326-3.428-3.523q-.062-7.895.013-15.79c.011-1.1-.705-2.881 1.531-2.652 1.585.162 4.2-1.263 3.806 2.406 3.721-4.02 7.236-3.831 10.348.447z" transform="translate(-306.708 -278.983) translate(306.708 278.982) translate(-308.045 -279.446)"/>
            <path d="M380.307 304.6a4.955 4.955 0 0 1-.821-3.216c-.008-2.256 0-4.514 0-6.767-.008-5.418-2.383-7.739-7.9-7.724-3.783.01-6.843 1.438-8.069 3.949-.449.919-1.4 2.058-.206 3.029 1.025.836 4.344.212 4.847-.794a3.061 3.061 0 0 1 3.536-1.758c1.654.27 2.05 1.5 2.16 2.975.134 1.8-1.229 1.365-2.138 1.466a16.972 16.972 0 0 0-5.879 1.408 7.1 7.1 0 0 0-3.329 8.855c1.03 2.941 3.977 4.311 7.573 3.561a7 7 0 0 0 3.4-1.64c.779-.723 1.277-.944 2.042.126.615.861 1.529 2.405 2.8.917 1.022-1.195 4.218-1.614 1.984-4.387zm-6.457-3.946a5.828 5.828 0 0 1-1.252 3.788 2.551 2.551 0 0 1-2.939 1.027 2.594 2.594 0 0 1-1.659-2.855c.089-2.362 2.785-4.243 5.181-3.7 1.233.286.402 1.216.669 1.743z" transform="translate(-306.708 -278.983) translate(306.708 278.982) translate(-309.889 -279.437)"/>
            <path d="M325.694 305.708c-2.115-2.36-1.38-5.237-1.5-7.962v-3.382c-.021-4.737-1.947-6.916-6.584-7.447-4.684-.537-8.661 1.455-9.88 4.953-.194.562-.484 1.152-.089 1.713.688.98 4.66.613 5.216-.506a3.085 3.085 0 0 1 3.752-1.725c1.547.33 1.763 1.554 1.827 2.949.07 1.584-1.01 1.387-1.932 1.47a15.73 15.73 0 0 0-6.09 1.444 7.21 7.21 0 0 0-3.231 8.94c1.012 2.776 3.919 4.092 7.474 3.44a5.528 5.528 0 0 0 3.053-1.32c1.131-1.148 1.9-1.378 2.838.232.761 1.307 1.851 1.315 2.929.173.566-.6 1.247-1.083 1.862-1.637.398-.36.831-.802.355-1.335zm-7.289-4.813a5.817 5.817 0 0 1-.466 2.5 3.3 3.3 0 0 1-3.068 2.219 2.111 2.111 0 0 1-1.96-1.594 3.513 3.513 0 0 1 .9-3.907 4.977 4.977 0 0 1 3.75-1.171c1.62.089.447 1.419.845 1.953z" transform="translate(-306.708 -278.983) translate(306.708 278.982) translate(-306.708 -279.434)"/>
            <path d="M431.429 290.226a5.475 5.475 0 0 1 4.847-3.133c3.11-.073 5.39 1.725 5.712 4.842.554 5.386.149 10.8.253 16.2.017.92-.382 1.269-1.339 1.358-4.137.384-4.218.335-4.229-3.848q-.014-5.066-.071-10.131c-.017-1.508-.3-3.059-2.1-3.207-1.973-.161-2.679 1.361-2.936 3.037-.605 3.954-.3 7.941-.257 11.909.019 1.781-.45 2.334-2.255 2.258-3.78-.157-3.267.246-3.279-3.253q-.027-8.108 0-16.214c0-1.215-.419-2.8 1.713-2.518 1.515.2 3.984-1.047 3.648 2.23-.01.095.127.21.293.47z" transform="translate(-306.708 -278.983) translate(306.708 278.982) translate(-313.549 -279.448)"/>
            <path d="M420.722 293.09a8.6 8.6 0 0 0-16.416.075 17.117 17.117 0 0 0-.863 5.322c.11 1.121.154 2.252.35 3.357.827 4.623 4 7.815 7.891 8 4.76.221 8.164-2.362 9.467-7.23a15.86 15.86 0 0 0-.429-9.524zm-5.579 10.127c-.4 1.309-1.146 2.315-2.657 2.3a2.51 2.51 0 0 1-2.435-2.234 20.673 20.673 0 0 1-.1-9.527 2.629 2.629 0 0 1 2.586-2.375c1.592-.009 2.4 1.041 2.649 2.529.206 1.247.353 2.506.517 3.7a20.949 20.949 0 0 1-.559 5.607z" transform="translate(-306.708 -278.983) translate(306.708 278.982) translate(-312.267 -279.448)"/>
            <path fill="#8ace00" d="M355.934 327.185c-8.207-.1-18.866-3.895-28.153-11.5-.348-.285-.674-.6-1.018-.887-.413-.347-.9-.742-.521-1.3.418-.619.972-.137 1.386.092a67.664 67.664 0 0 0 10.658 4.77 66.317 66.317 0 0 0 46.258-.586c1.088-.41 2.663-1.766 3.389-.329.791 1.563-1.272 2.051-2.3 2.705-7.162 4.561-16.44 7.044-29.699 7.035z" transform="translate(-306.708 -278.983) translate(306.708 278.982) translate(-307.823 -280.948)"/>
            <path fill="#010101" d="M392.64 302.133a18.5 18.5 0 0 1 6.468 1.3 2.226 2.226 0 0 1 1.522 1.747c.547 3.274-.1 3.878-3.192 2.83a13.612 13.612 0 0 0-10.489.433c-1.852.874-2.092.289-2.154-1.454a8.552 8.552 0 0 1 1.809-5.817c2.161-2.832 4.1-5.831 6.4-9.128-2.246 0-4.088-.044-5.927.011-2.036.062-1.477-1.4-1.547-2.5s-.146-2.084 1.51-2.05c3.9.078 7.8-.01 11.7.041 1.673.023 2.179 2.593.851 4.618-1.354 2.065-2.824 4.056-4.24 6.08-.851 1.213-1.697 2.43-2.711 3.889z" transform="translate(-306.708 -278.983) translate(306.708 278.982) translate(-311.195 -279.472)"/>
            <path fill="#89ce00" d="M479.8 299.6c2.1.106 4.207.025 6.309.025h3.83c4.85 0 4.85 0 3.654-4.785-1.116-4.458-4-7.057-8.23-7.4a9.532 9.532 0 0 0-10.021 6.085 13.485 13.485 0 0 0 .7 11.738c2 3.669 5.43 4.728 9.361 4.529 3.485-.174 6.208-1.635 7.7-4.927.337-.743 1.128-1.881.033-2.291-1-.378-2.425-.807-3.244.909-1.244 2.6-3.641 3.627-6.536 3.1a6.264 6.264 0 0 1-5.1-5.075c-.233-1.27-.004-1.983 1.544-1.908zm-1.41-4.526a6.024 6.024 0 0 1 11.636-.2c.418 1.256.241 1.815-1.191 1.763-1.569-.06-3.141-.015-4.71-.015-1.5 0-2.992-.041-4.485.013-1.193.046-1.632-.285-1.252-1.558z" transform="translate(-306.708 -278.983) translate(306.708 278.982) translate(-316.341 -279.466)"/>
            <path fill="#89ce01" d="M523.124 290.042a8.186 8.186 0 0 1 6.126-3.087c5.1-.264 7.647 1.838 7.884 6.948.211 4.571.047 9.158.146 13.736.032 1.448-.809 1.34-1.73 1.29-.895-.048-2 .385-1.961-1.3.082-3.978.031-7.959.027-11.938 0-3.811-1.308-5.534-4.262-5.646a5.793 5.793 0 0 0-6.168 5.556c-.149 3.824-.119 7.658-.029 11.485.035 1.48-.405 1.871-1.882 1.906-1.637.038-1.777-.664-1.77-1.989q.068-12.84 0-25.68c-.008-1.386.1-2.155 1.862-2.167 1.9-.013 1.787.994 1.768 2.266-.035 2.695-.011 5.388-.011 8.62z" transform="translate(-306.708 -278.983) translate(306.708 278.982) translate(-318.937 -278.993)"/>
            <path fill="#8ace01" d="M506.837 309.858c-3.944-.172-7.312-.754-8.9-4.579-.353-.851-1.12-2.2.232-2.584.961-.275 2.478-.94 3.173 1.21 1.015 3.147 7.91 3.825 9.926 1.172 1.074-1.414.626-3.211-1.288-4.034a41.407 41.407 0 0 0-5.168-1.495c-1.008-.285-2.02-.557-3.016-.878a5.2 5.2 0 0 1-3.985-4.875 5.394 5.394 0 0 1 3.574-5.471 12.551 12.551 0 0 1 9.851.066 4.838 4.838 0 0 1 2.849 3.03c.271.841 1.186 2.173.159 2.531s-2.638.91-3.565-1.035c-1.25-2.621-5.845-3.262-8.123-1.386-1.342 1.1-1.2 2.675.432 3.715a14.7 14.7 0 0 0 4.251 1.412c1.156.314 2.34.526 3.485.869 3.644 1.091 5.014 2.8 4.885 6.011a6.393 6.393 0 0 1-5.335 5.857c-1.239.268-2.52.344-3.437.464z" transform="translate(-306.708 -278.983) translate(306.708 278.982) translate(-317.667 -279.463)"/>
            <path fill="#8bcf02" d="M450.287 299.9c0-2.4-.046-4.811.017-7.214.036-1.348-.243-2.234-1.844-2-1.349.2-1.843-.333-1.824-1.747.019-1.329.514-1.791 1.733-1.592 1.971.32 2.042-.9 1.914-2.3-.5-5.559 3.383-6.289 6.963-6.01 1.591.124 1.148 1.2 1.245 2.1.127 1.189-.559 1.071-1.389 1.03-2.764-.135-4.232 2-3.2 4.559.412 1.022 1.278.567 1.937.584 1.119.029 1.989-.055 2.021 1.581s-.7 1.965-2.022 1.785c-1.594-.216-2.048.447-2.019 2.014.092 4.808-.028 9.62.069 14.429.031 1.547-.527 1.828-1.935 1.859-1.51.032-1.725-.595-1.683-1.863.074-2.403.018-4.815.017-7.215z" transform="translate(-306.708 -278.983) translate(306.708 278.982) translate(-314.75 -278.982)"/>
            <path fill="#8bce02" d="M465.367 292.048c1.648-2.646 3.409-4.289 6.086-4.567.9-.093 2-.258 1.807 1.187-.129.984.825 2.43-1.317 2.676-4.12.472-5.977 2.452-6.237 6.606-.2 3.219-.171 6.457-.121 9.685.021 1.328-.287 1.833-1.734 1.829-1.463-.006-1.907-.409-1.885-1.894.082-5.784.017-11.571.049-17.356.006-1.068-.554-2.416 1.556-2.453 2.031-.037 1.653 1.176 1.687 2.327.014.449.048.898.109 1.96z" transform="translate(-306.708 -278.983) translate(306.708 278.982) translate(-315.63 -279.468)"/>
            <path fill="#8bce03" d="M384.794 314.388a3.414 3.414 0 0 1 2.256-1.641 15.7 15.7 0 0 1 5.477-1.062c5.224.013 6.013 1.043 4.5 6.02a14.659 14.659 0 0 1-2.925 5.506c-.42.48-.9 1.336-1.592.979-.84-.434-.071-1.167.1-1.746.493-1.646 1.1-3.26 1.526-4.921.557-2.162.006-2.936-2.23-3.041-1.564-.073-3.138.108-4.708.159-.769.026-1.591.485-2.404-.253z" transform="translate(-306.708 -278.983) translate(306.708 278.982) translate(-311.196 -280.862)"/>
        </g>
    </g>
</svg>
