<svg xmlns="http://www.w3.org/2000/svg" width="216.211" height="57.974" viewBox="0 0 216.211 57.974">
    <path fill="#00ccbc" d="M56.187 275.792h4.934l-.837-3.833v-22.775H55.57v10.4a7.386 7.386 0 0 0-5.683-2.6c-4.714 0-8.37 3.921-8.37 9.6 0 5.727 3.656 9.6 8.37 9.6a7.337 7.337 0 0 0 5.771-2.731zm93.216-13.7a4.389 4.389 0 0 1 2.643.837l2.247-5.022a6.4 6.4 0 0 0-3.436-.925 5.688 5.688 0 0 0-5.022 2.775l-.485-2.335h-4.85l.793 3.612v14.8h4.714v-11.76a3.6 3.6 0 0 1 3.393-1.982zm13.789 9.163a4.627 4.627 0 1 1 0-9.251 4.428 4.428 0 0 1 4.758 4.626 4.476 4.476 0 0 1-4.759 4.625zM46.1 266.585a4.451 4.451 0 0 1 4.758-4.626 4.627 4.627 0 1 1 0 9.251 4.451 4.451 0 0 1-4.758-4.625zm138.017 4.67a4.627 4.627 0 1 1 0-9.251 4.428 4.428 0 0 1 4.758 4.626 4.524 4.524 0 0 1-4.759 4.625zM72.574 261.7c2.423 0 4.009 1.145 4.537 3.26h-9.074c.484-2.16 2.114-3.26 4.537-3.26zm56.344 0c2.423 0 4.009 1.145 4.537 3.26h-9.075c.573-2.159 2.159-3.26 4.537-3.26zm-23 14.1h7.582l4.934-18.458h-5.154l-3.568 14.978-3.612-14.942h-5.066zm-12.115 0h4.714v-18.466h-4.709zm-20.529.352a13.774 13.774 0 0 0 7.357-2.115l-1.806-4.053a11.5 11.5 0 0 1-5.507 1.41c-2.467 0-4.185-.969-4.978-2.775h13.3a10.84 10.84 0 0 0 .22-2.159c0-5.727-3.965-9.515-9.207-9.515-5.33 0-9.207 3.877-9.207 9.6-.035 5.855 3.842 9.599 9.833 9.599zm120.132-9.559c0-5.727-3.965-9.6-9.3-9.6-5.374 0-9.3 3.921-9.3 9.6s3.965 9.6 9.3 9.6 9.305-3.881 9.305-9.608zm-63.833 9.6a13.4 13.4 0 0 0 7.357-2.115l-1.806-4.053a11.505 11.505 0 0 1-5.507 1.41c-2.467 0-4.185-.969-4.978-2.775h13.3a10.841 10.841 0 0 0 .22-2.159c0-5.727-3.965-9.515-9.207-9.515-5.33 0-9.207 3.877-9.207 9.6.01 5.902 3.842 9.602 9.834 9.602zm33.612 0c5.374 0 9.3-3.921 9.3-9.6s-3.965-9.6-9.3-9.6c-5.374 0-9.3 3.921-9.3 9.6s3.931 9.595 9.306 9.595zm-78.326-.4h4.714v-26.609h-4.708zm11.322-20.969a3 3 0 1 0-3-3 2.961 2.961 0 0 0 3.006 2.999zM15.174 232.4l-2.687 25.551L7.9 236.409l-14.449 3.04 4.537 21.542L-22.8 265.4l3.7 17.181 36.608 7.8 8.37-18.722 3.965-37.709zM3.588 269.492c-.749.7-1.718.617-2.819.264-1.057-.352-1.5-1.586-1.145-3.172.308-1.145 1.674-1.322 2.423-1.322a1.728 1.728 0 0 1 .793.176c.485.22 1.322.7 1.5 1.41a2.549 2.549 0 0 1-.752 2.644zm10.612 1.146c-.573.969-1.982 1.1-3.436.4a2.558 2.558 0 0 1-.352-3.48 2.306 2.306 0 0 1 1.542-1.013 2.525 2.525 0 0 1 2.247 4.1z" transform="translate(22.8 -232.4)"/>
</svg>
