<svg xmlns="http://www.w3.org/2000/svg" width="232.911" height="84.541" viewBox="0 0 232.911 84.541">
    <defs>
        <clipPath id="clip-path">
            <path id="Rectangle_154" fill="none" d="M0 0H232.911V84.541H0z"/>
        </clipPath>
        <style>
            .cls-5{fill:#53575a}
        </style>
    </defs>
    <g id="Group_332" transform="translate(-651.185 511.561)">
        <g id="Group_331" clip-path="url(#clip-path)" transform="translate(651.185 -511.561)">
            <path id="Path_1752" fill="#a4ac38" d="M695.023-511.56h-37.974a5.278 5.278 0 0 0-5.278 5.276v37.976a5.278 5.278 0 0 0 5.278 5.276H700.3v-43.252a5.276 5.276 0 0 0-5.277-5.276" transform="translate(-634.942 526.987)"/>
            <path id="Path_1753" fill="#fff" d="M687.748-459.865a16.789 16.789 0 0 0 16.856-16.74c.009-2.215-.688-5.1-.693-4.379a10.722 10.722 0 0 1-11.972 10.484A10.342 10.342 0 0 1 683-482.178a9.909 9.909 0 0 1 11.017-8.782c6.751.943 8.195 6.1 6.176 8.539a3.445 3.445 0 0 1-6.22-2.027 3.227 3.227 0 0 1 1.347-2.734c-3.462-1.025-7.028 1.713-7.527 5.316a6.6 6.6 0 0 0 5.613 7.44 8.185 8.185 0 0 0 9.452-8.255c0-5.058-5.358-10.79-15.007-10.79A16.814 16.814 0 0 0 671-476.735a16.821 16.821 0 0 0 16.752 16.87" transform="translate(-646.479 516.131)"/>
            <path id="Path_1754" d="M792.238-363.53a12.418 12.418 0 0 0-12.611 12.565 12.413 12.413 0 0 0 12.611 12.556 12.409 12.409 0 0 0 12.607-12.556 12.414 12.414 0 0 0-12.607-12.565m0 4.339a8.163 8.163 0 0 1 8.072 8.226 8.2 8.2 0 0 1-8.072 8.224 8.193 8.193 0 0 1-8.067-8.224 8.161 8.161 0 0 1 8.067-8.226" class="cls-5" transform="translate(-592.552 394.084)"/>
            <path id="Path_1755" d="M699.435-342.743a8.189 8.189 0 0 1-8.067-8.221 8.159 8.159 0 0 1 8.067-8.225 8.16 8.16 0 0 1 8.072 8.225 8.19 8.19 0 0 1-8.072 8.221m7.991-20.083v2.7h-.164a10.813 10.813 0 0 0-7.95-3.4 12.414 12.414 0 0 0-12.612 12.562 12.411 12.411 0 0 0 12.611 12.556 10.98 10.98 0 0 0 7.95-3.4h.164v2.638h4.537v-23.656z" class="cls-5" transform="translate(-558.098 394.083)"/>
            <path id="Path_1756" d="M745.8-349a8.192 8.192 0 0 1-8.072-8.221 8.162 8.162 0 0 1 8.072-8.226 8.169 8.169 0 0 1 8.079 8.226A8.2 8.2 0 0 1 745.8-349m7.984-31.4v14.019h-.165a10.785 10.785 0 0 0-7.945-3.4 12.413 12.413 0 0 0-12.607 12.563 12.41 12.41 0 0 0 12.607 12.556 10.953 10.953 0 0 0 7.945-3.4h.165v2.638h4.542V-380.4z" class="cls-5" transform="translate(-575.288 400.341)"/>
            <path id="Path_1757" d="M669.268-345.31a7.965 7.965 0 0 1-5.871 2.617 8.191 8.191 0 0 1-8.07-8.221 8.16 8.16 0 0 1 8.07-8.226 7.923 7.923 0 0 1 5.871 2.608l2.2-4.125a12.635 12.635 0 0 0-8.067-2.82 12.41 12.41 0 0 0-12.609 12.563 12.409 12.409 0 0 0 12.608 12.558 12.664 12.664 0 0 0 8.067-2.82z" class="cls-5" transform="translate(-544.782 394.064)"/>
            <path id="Path_1758" d="M617.791-363.53a12.412 12.412 0 0 0-12.6 12.565 12.407 12.407 0 0 0 12.6 12.556 12.414 12.414 0 0 0 12.609-12.556 12.419 12.419 0 0 0-12.612-12.565m0 4.339a8.165 8.165 0 0 1 8.079 8.226 8.2 8.2 0 0 1-8.079 8.224 8.194 8.194 0 0 1-8.067-8.224 8.162 8.162 0 0 1 8.067-8.226" class="cls-5" transform="translate(-527.875 394.084)"/>
            <path id="Path_1759" d="M824.982-357.56a3.1 3.1 0 0 1-1.15-.214 2.951 2.951 0 0 1-.952-.6 2.778 2.778 0 0 1-.651-.922 3.028 3.028 0 0 1-.237-1.212 3.081 3.081 0 0 1 .237-1.221 2.874 2.874 0 0 1 .651-.938 2.894 2.894 0 0 1 .952-.6 3.1 3.1 0 0 1 1.15-.214 3.163 3.163 0 0 1 1.156.214 2.817 2.817 0 0 1 .955.6 2.913 2.913 0 0 1 .639.938 3.041 3.041 0 0 1 .239 1.221 2.988 2.988 0 0 1-.239 1.212 2.814 2.814 0 0 1-.639.922 2.871 2.871 0 0 1-.955.6 3.162 3.162 0 0 1-1.156.214m0-.442a2.475 2.475 0 0 0 .968-.193 2.4 2.4 0 0 0 .788-.517 2.541 2.541 0 0 0 .527-.784 2.534 2.534 0 0 0 .2-1.007 2.577 2.577 0 0 0-.2-1.014 2.656 2.656 0 0 0-.527-.809 2.3 2.3 0 0 0-.788-.534 2.52 2.52 0 0 0-.968-.191 2.493 2.493 0 0 0-.977.191 2.3 2.3 0 0 0-.78.534 2.57 2.57 0 0 0-.527.809 2.568 2.568 0 0 0-.2 1.014 2.526 2.526 0 0 0 .2 1.007 2.46 2.46 0 0 0 .527.784 2.4 2.4 0 0 0 .78.517 2.449 2.449 0 0 0 .977.193m-1.118-4.135H825a2.17 2.17 0 0 1 .466.046 1.182 1.182 0 0 1 .4.159.86.86 0 0 1 .289.3.947.947 0 0 1 .106.472.865.865 0 0 1-.189.535.886.886 0 0 1-.467.32l.8 1.311h-.605l-.639-1.159h-.773V-359h-.527zm1 1.571a1.254 1.254 0 0 0 .607-.128.46.46 0 0 0 .23-.435.548.548 0 0 0-.173-.421.914.914 0 0 0-.616-.159h-.524v1.143z" class="cls-5" transform="translate(-608.26 394.065)"/>
        </g>
    </g>
</svg>
