<svg xmlns="http://www.w3.org/2000/svg" width="174.27" height="50.129" viewBox="0 0 174.27 50.129">
    <defs>
        <style>
            .cls-1,.cls-2{fill:#004995;fill-rule:evenodd}.cls-2{fill:#e30520}
        </style>
    </defs>
    <g id="Group_333" transform="translate(-67.837 -118.741)">
        <path id="Path_1760" d="M81.206 152.937h21.217c.248 0 .248.125 0 .248-2.357 1.116-5.832 4.591-5.832 4.591-2.357 2.358-4.219 3.847-8.313 3.847H67.929c-.124 0-.124-.248 0-.248a33.773 33.773 0 0 0 5.583-4.714 10.61 10.61 0 0 1 7.693-3.723z" class="cls-1" transform="translate(0 7.247)"/>
        <path id="Path_1761" d="M196.262 152.937H217.6c.124 0 .124.125 0 .248-2.482 1.116-5.832 4.591-5.832 4.591-2.481 2.358-4.342 3.847-8.314 3.847H183.11c-.125 0-.125-.248 0-.248a33.827 33.827 0 0 0 5.583-4.714 10.317 10.317 0 0 1 7.568-3.723z" class="cls-1" transform="translate(24.409 7.247)"/>
        <path id="Path_1762" d="M109.973 152.937h21.218c.248 0 .248.125 0 .248-2.357 1.116-5.832 4.591-5.832 4.591-2.357 2.358-4.219 3.847-8.314 3.847H96.821c-.248 0-.248-.248-.124-.248a33.828 33.828 0 0 0 5.583-4.714 10.609 10.609 0 0 1 7.692-3.723z" class="cls-1" transform="translate(6.099 7.247)"/>
        <path id="Path_1763" d="M138.729 152.937h21.218c.247 0 .247.125 0 .248-2.358 1.116-5.833 4.591-5.833 4.591-2.357 2.358-4.218 3.847-8.189 3.847h-20.349c-.124 0-.124-.248-.124-.248 2.357-1.24 5.583-4.714 5.583-4.714a10.612 10.612 0 0 1 7.693-3.723z" class="cls-1" transform="translate(12.21 7.247)"/>
        <path id="Path_1764" d="M167.493 152.937h21.341c.125 0 .125.125-.124.248-2.357 1.116-5.832 4.591-5.832 4.591-2.357 2.358-4.219 3.847-8.189 3.847H154.34c-.124 0-.124-.248 0-.248a33.773 33.773 0 0 0 5.583-4.714 10.088 10.088 0 0 1 7.57-3.723z" class="cls-1" transform="translate(18.312 7.247)"/>
        <path id="Path_1765" d="M173.895 118.741c-13.4 0-22.334 6.949-22.334 17.5 0 9.678 8.189 16.131 20.349 16.131a41.721 41.721 0 0 0 11.539-1.613v-8.065a12.821 12.821 0 0 1-10.05 4.467c-7.2 0-12.159-4.714-12.159-11.664 0-6.824 5.086-11.787 12.283-11.787a12.559 12.559 0 0 1 9.431 4.094v-8.194a49.835 49.835 0 0 0-9.058-.869z" class="cls-2" transform="translate(17.743)"/>
        <path id="Path_1766" d="M91.287 124.254c4.963 0 10.919.993 13.4 3.1v-7.693H69.449v7.693c2.481-2.11 7.817-2.979 13.524-2.979v21.093c0 3.1-.247 3.971-1.488 5.585h11.291c-1.241-1.613-1.489-2.482-1.489-5.585v-21.214z" class="cls-2" transform="translate(.342 .195)"/>
        <path id="Path_1767" d="M120.7 131.822c-1.985.745-5.708.869-7.568.869h-2.978v-8.314h3.97c3.6 0 9.678.745 12.036 2.854v-7.568h-25.689c1.24 1.488 1.488 2.481 1.488 5.46v20.348c0 3.1-.248 3.971-1.365 5.585h27.3v-7.693c-3.722 2.854-10.918 2.854-13.772 2.854h-3.97v-8.809H113a27.85 27.85 0 0 1 7.693.993v-6.577z" class="cls-2" transform="translate(6.916 .195)"/>
        <path id="Path_1768" d="M153.516 120.851a46.571 46.571 0 0 0-13.525-2.11c-7.445 0-14.641 2.358-14.641 10.3 0 13.649 22.335 6.452 22.335 14.89 0 2.73-3.971 3.847-7.2 3.847a24.028 24.028 0 0 1-14.641-4.219v6.948a47.084 47.084 0 0 0 14.269 1.985c7.693 0 14.89-2.232 14.89-10.3 0-14.394-22.21-7.942-22.21-14.89 0-2.854 3.6-3.847 6.7-3.847 5.211 0 10.919 1.613 14.022 4.714v-7.32z" class="cls-2" transform="translate(12.188)"/>
        <path id="Path_1769" d="M199.494 119.151c-12.037 0-20.6 6.948-20.6 16.751 0 9.677 7.693 16.006 18.985 16.006 12.159 0 20.6-6.7 20.6-16.626 0-9.678-7.693-16.131-18.984-16.131zm-.869 28.041c-6.452 0-10.547-5.211-10.547-11.662s4.1-11.665 10.547-11.665c6.327 0 10.546 5.212 10.546 11.665s-4.219 11.662-10.546 11.662z" class="cls-2" transform="translate(23.536 .087)"/>
    </g>
</svg>
