<svg xmlns="http://www.w3.org/2000/svg" width="213.372" height="34.466" viewBox="0 0 213.372 34.466">
    <g>
        <path fill="#05c167" d="M194.32.25h23.732v5.807h-17.321V14.3h16.839v5.609h-16.839V28.3h17.321v5.8H194.32zm89.272 34.463c7.276 0 11.375-3.484 11.375-8.269 0-3.409-2.427-5.952-7.508-7.055l-5.371-1.1c-3.118-.581-4.1-1.161-4.1-2.323 0-1.5 1.5-2.427 4.274-2.427 3 0 5.226.807 5.807 3.583h6.294c-.343-5.226-4.1-8.675-11.718-8.675-6.585 0-11.207 2.718-11.207 7.984 0 3.641 2.543 6.01 8.031 7.165l6 1.388c2.369.465 3 1.1 3 2.085 0 1.562-1.788 2.543-4.68 2.543-3.635 0-5.714-.807-6.521-3.583h-6.329c.923 5.214 4.791 8.681 12.647 8.681zm-14.476-.633H262.3c-4.274 0-6.643-2.659-6.643-6.016v-13.3h-4.791V9.1h4.814V1.986h6.329V9.1h7.1v5.667h-7.1v11.677c0 1.33.923 1.968 2.369 1.968h4.732zM241.825 9.111v2.253a12.287 12.287 0 0 0-7.973-2.9 13.127 13.127 0 1 0 0 26.255 12.252 12.252 0 0 0 7.973-2.906v2.259h6.312V9.1zm-7.45 20.12a7.636 7.636 0 1 1 7.549-7.63 7.549 7.549 0 0 1-7.56 7.618z" transform="translate(-.19 -.25) translate(-81.405)"/>
        <path d="M98.828 13.785c-3.176 0-5.429 2.485-5.429 6.3V34.08H88.55V9.448h4.791v3.008a6.5 6.5 0 0 1 5.772-3.182h1.742v4.512zM85.2 21.764c0-7.345-5.226-12.839-12.3-12.839a12.676 12.676 0 0 0-12.588 12.839A12.722 12.722 0 0 0 73.36 34.655a12.873 12.873 0 0 0 10.626-5.261l-3.519-2.578A8.582 8.582 0 0 1 73.36 30.4a8.257 8.257 0 0 1-8.129-7.049h19.981zM65.335 19.5a7.74 7.74 0 0 1 7.508-6.3 7.637 7.637 0 0 1 7.45 6.3zM44.954 8.925a12.264 12.264 0 0 0-8.71 3.641V.25H31.4v33.83h4.791v-3.124a12.455 12.455 0 0 0 8.78 3.7 12.866 12.866 0 1 0 0-25.732zm-.348 21.4a3.518 3.518 0 1 0 0-.023zm-31.066-.234c4.68 0 8.315-3.589 8.315-8.966V.25h5.023v33.83h-4.965v-3.2a12.333 12.333 0 0 1-8.948 3.757C5.747 34.637.19 29.376.19 21.4V.25h5.116v20.9c0 5.41 3.484 8.941 8.234 8.941z" transform="translate(-.19 -.25)"/>
    </g>
</svg>
