<svg xmlns="http://www.w3.org/2000/svg" width="216.211" height="46.164" viewBox="0 0 216.211 46.164">
    <defs>
        <style>
            .cls-1{fill:#559f3f}
        </style>
    </defs>
    <g id="Group_413" transform="translate(-315.676 -466.219)">
        <path id="Path_2721" d="M518.155 466.6v23.586h13.732v-3.043h-10.345v-7.332h9.689v-3.042h-9.689v-7.127h10.037V466.6z" class="cls-1"/>
        <path id="Path_2722" d="M348.321 466.6l-6.437 16.253-6.571-16.253H332.1l-6.532 16.253-6.507-16.253h-3.386l9.542 23.793h.656l7.817-19.3 7.749 19.3h.657l9.576-23.793z" class="cls-1"/>
        <path id="Rectangle_172" d="M0 0H3.39V23.585H0z" class="cls-1" transform="translate(388.722 466.603)"/>
        <g id="Group_413-2">
            <path id="Path_2723" d="M500.807 480.267l-2.565-1.559a12.567 12.567 0 0 1-3.361-2.875 5.264 5.264 0 0 1-1.14-3.344 5.8 5.8 0 0 1 1.934-4.524 7.32 7.32 0 0 1 5.065-1.718 9.054 9.054 0 0 1 5.419 1.658v3.831a7.814 7.814 0 0 0-5.486-2.451 4.549 4.549 0 0 0-2.719.764 2.351 2.351 0 0 0-1.063 1.975 2.731 2.731 0 0 0 .694 1.909 10.564 10.564 0 0 0 2.609 2.017l2.677 1.527c2.877 1.718 4.215 3.9 4.215 6.56a6.08 6.08 0 0 1-1.918 4.631 6.747 6.747 0 0 1-4.917 1.775 10.457 10.457 0 0 1-6.365-2.173v-4.287a7.887 7.887 0 0 0 6.331 3.414 3.949 3.949 0 0 0 2.641-.833 2.8 2.8 0 0 0 1.086-2.212c0-1.436-1.066-2.8-3.137-4.085" class="cls-1"/>
            <path id="Path_2724" d="M366.21 466.465h2.373l10.577 23.723h-3.46l-3.145-6.99H362.5l-2.948 6.99h-3.472zm4.962 13.728l-3.806-8.544-3.529 8.544z" class="cls-1"/>
            <path id="Path_2725" d="M402.173 466.6h19.767v3h-8.184v20.584h-3.39V469.6h-8.193z" class="cls-1"/>
            <path id="Path_2726" d="M432.091 490.189V466.6h5.978a8.524 8.524 0 0 1 5.681 1.773 5.942 5.942 0 0 1 2.1 4.794 6.146 6.146 0 0 1-1.03 3.563 5.981 5.981 0 0 1-2.892 2.245 10.439 10.439 0 0 1 2.21 2.026 41.974 41.974 0 0 1 3 4.474c.821 1.338 1.515 2.346 2.011 3.021l1.249 1.689h-4.063s-1.085-1.706-1.186-1.842l-1.7-2.652-1.26-1.84a18.95 18.95 0 0 0-1.917-2.345 6.863 6.863 0 0 0-1.5-1.206 5.623 5.623 0 0 0-2.425-.381h-.879v10.266zm4.46-20.715h-1.013v7.444h1.283a9.528 9.528 0 0 0 3.52-.438 3.318 3.318 0 0 0 1.486-1.324 3.86 3.86 0 0 0 .531-2.019 3.624 3.624 0 0 0-.59-2.018 3.173 3.173 0 0 0-1.663-1.274 12.026 12.026 0 0 0-3.554-.371" class="cls-1"/>
            <path id="Path_2727" d="M470.818 466.219a12.685 12.685 0 0 1 9.1 3.462 11.479 11.479 0 0 1 3.635 8.676 11.293 11.293 0 0 1-3.669 8.634 13.039 13.039 0 0 1-9.254 3.419 12.291 12.291 0 0 1-8.88-3.419 11.4 11.4 0 0 1-3.551-8.566 11.652 11.652 0 0 1 3.576-8.744 12.476 12.476 0 0 1 9.041-3.462m.136 3.208a9.146 9.146 0 0 0-6.653 2.532 8.625 8.625 0 0 0-2.607 6.466 8.477 8.477 0 0 0 2.614 6.347 9.705 9.705 0 0 0 13.129-.052 8.626 8.626 0 0 0 2.64-6.431 8.427 8.427 0 0 0-2.64-6.3 8.954 8.954 0 0 0-6.483-2.558" class="cls-1"/>
            <path id="Path_2728" d="M383.254 512.275v-9.461h3.019a3.082 3.082 0 0 1 2.157.731 2.516 2.516 0 0 1 .8 1.961 2.641 2.641 0 0 1-.4 1.476 2.4 2.4 0 0 1-1.14.908 5.237 5.237 0 0 1-2.056.286h-1.024v4.1zm2.782-8.257h-1.423v2.955h1.5c1.016 0 1.718-.453 1.718-1.5q0-1.452-1.8-1.453" class="cls-1"/>
            <path id="Path_2729" d="M397.906 502.773h.951l4.235 9.5h-1.383l-1.26-2.8h-4.031l-1.181 2.8h-1.389zm1.987 5.5l-1.524-3.421-1.414 3.421z" class="cls-1"/>
            <path id="Path_2730" d="M421.724 502.814h7.929v1.2h-3.283v8.257h-1.359v-8.257h-3.287z" class="cls-1"/>
            <path id="Path_2731" d="M443.984 502.828h1.285v9.447h-1.162L437.741 505v7.275h-1.272v-9.447h1.1l6.418 7.338z" class="cls-1"/>
            <path id="Path_2732" d="M452.9 502.828h5.355v1.2h-4v2.88h3.869v1.211h-3.869v2.935h4.132v1.2H452.9z" class="cls-1"/>
            <path id="Path_2733" d="M409.627 512.275v-9.447h2.395a3.409 3.409 0 0 1 2.275.71 2.383 2.383 0 0 1 .843 1.92 2.467 2.467 0 0 1-.413 1.428 2.4 2.4 0 0 1-1.159.9 4.164 4.164 0 0 1 .886.811 16.9 16.9 0 0 1 1.2 1.792c.328.538.607.94.8 1.21l.5.677h-1.627s-.434-.683-.474-.737l-.684-1.062-.5-.738a7.649 7.649 0 0 0-.768-.939 2.782 2.782 0 0 0-.6-.484 2.281 2.281 0 0 0-.971-.152h-.352v4.112zm1.786-8.3h-.406v2.982h.514a3.833 3.833 0 0 0 1.411-.175 1.42 1.42 0 0 0 .808-1.339 1.351 1.351 0 0 0-.9-1.319 4.853 4.853 0 0 0-1.424-.149" class="cls-1"/>
            <path id="Path_2734" d="M465.464 512.275v-9.447h2.4a3.409 3.409 0 0 1 2.275.71 2.38 2.38 0 0 1 .843 1.92 2.467 2.467 0 0 1-.413 1.428 2.406 2.406 0 0 1-1.16.9 4.116 4.116 0 0 1 .886.811 16.585 16.585 0 0 1 1.2 1.792c.33.538.608.94.806 1.21l.5.677h-1.628s-.435-.683-.474-.737l-.684-1.062-.5-.738a7.649 7.649 0 0 0-.768-.939 2.758 2.758 0 0 0-.6-.484 2.281 2.281 0 0 0-.971-.152h-.352v4.112zm1.787-8.3h-.406v2.982h.514a3.826 3.826 0 0 0 1.41-.175 1.416 1.416 0 0 0 .808-1.339 1.35 1.35 0 0 0-.9-1.319 4.853 4.853 0 0 0-1.424-.149" class="cls-1"/>
            <path id="Path_2735" d="M481.73 508.317l-1.028-.625a4.65 4.65 0 0 1-1.377-1.162 2.206 2.206 0 0 1-.408-1.316 2.325 2.325 0 0 1 .773-1.812 2.9 2.9 0 0 1 2.012-.7 3.8 3.8 0 0 1 2.172.665v1.533a3.134 3.134 0 0 0-2.2-.982 1.815 1.815 0 0 0-1.089.307.928.928 0 0 0-.426.784 1.209 1.209 0 0 0 .313.795 3.945 3.945 0 0 0 1.01.778l1.033.611a3.027 3.027 0 0 1 1.729 2.628 2.409 2.409 0 0 1-.761 1.847 2.786 2.786 0 0 1-1.978.71 4.158 4.158 0 0 1-2.55-.86V509.8a3.184 3.184 0 0 0 2.535 1.388 1.6 1.6 0 0 0 1.059-.353 1.112 1.112 0 0 0 .423-.886q0-.863-1.244-1.637" class="cls-1"/>
            <path id="Path_2736" d="M369.736 510.144a8.007 8.007 0 0 0 1.184-2.616h-1.166a8.894 8.894 0 0 1-.791 1.78l-1.707-1.862a3.006 3.006 0 0 0 1.661-2.434 1.972 1.972 0 0 0-.7-1.5 2.5 2.5 0 0 0-1.7-.59 2.367 2.367 0 0 0-1.686.6 1.9 1.9 0 0 0-.614 1.571 3.68 3.68 0 0 0 1.158 2.171 9.01 9.01 0 0 0-.89.6 2.57 2.57 0 0 0-1.128 2.588 2.338 2.338 0 0 0 2.336 1.918 4.188 4.188 0 0 0 3.265-1.2l1.057 1.11h1.708zm-3.17-6.072a1.044 1.044 0 0 1 1.139.8 1.443 1.443 0 0 1-.529 1.244 4.543 4.543 0 0 1-.7.542 3.539 3.539 0 0 1-.714-.862 1.715 1.715 0 0 1-.255-.836.984.984 0 0 1 1.064-.885m1.58 6.264c-.868.993-2.818 1.3-3.277.294-.544-1.186.476-1.961 1.3-2.45 0 0 1.519 1.653 1.979 2.156" class="cls-1"/>
        </g>
    </g>
</svg>
