<svg xmlns="http://www.w3.org/2000/svg" id="Balance" width="144.349" height="21.713" viewBox="0 0 144.349 21.713">
    <defs>
        <style>
            .cls-1{fill:#00bcbb}
        </style>
    </defs>
    <path id="Path_185" d="M732.627 56.895v-.978c0-6.293.013-12.586-.017-18.877 0-.809.215-1.006 1.043-1.093a3.651 3.651 0 0 1 3.711 1.809c2.854 3.95 5.883 7.781 8.847 11.65.2.257.409.5.782.958.03-.535.061-.838.061-1.143 0-4.094.019-8.189-.012-12.284-.006-.752.221-1.029.972-.958a10.088 10.088 0 0 0 1.8 0c.718-.065.919.213.915.921-.031 3.884-.016 7.768-.016 11.652 0 2.529-.017 5.059.011 7.587.007.624-.2.765-.814.838a3.546 3.546 0 0 1-3.658-1.739c-2.954-4.07-6.076-8.007-9.135-12-.2-.26-.412-.508-.809-1v14.657z" class="cls-1" transform="translate(-649.138 -35.616)"/>
    <path id="Path_186" d="M35.313 57.35v-1.06c0-6.265.023-12.529-.024-18.794-.007-.958.286-1.154 1.17-1.13 2.258.06 4.518-.017 6.776.032a5.388 5.388 0 0 1 5.476 6.262c-.211 1.258-.573 1.8-2.222 3.255a.919.919 0 0 0 .217.146c2.614.764 3.872 3.056 3.578 5.852a5.912 5.912 0 0 1-4.85 5.267 21.233 21.233 0 0 1-3.328.168c-2.22.018-4.442.002-6.793.002zm3.772-6.374c0 .752.024 1.5-.008 2.253-.024.558.2.734.741.718 1.232-.028 2.465.023 3.7-.019a3 3 0 0 0 3.046-2.934 2.925 2.925 0 0 0-2.971-2.983c-1.289-.063-2.583 0-3.875-.023-.469-.007-.643.187-.632.642.014.784-.001 1.564-.001 2.346zm0-8.712c0 .661-.04 1.324.024 1.978.019.2.317.529.5.535a27.27 27.27 0 0 0 3.325-.031 2.476 2.476 0 0 0-.016-4.916 11.237 11.237 0 0 0-1.354-.037c-2.477-.007-2.477 0-2.477 2.472z" class="cls-1" transform="translate(-35.289 -36.011)"/>
    <path id="Path_187" d="M1127.3 57.351v-1.07c0-6.259.023-12.52-.025-18.779-.007-.958.286-1.146 1.171-1.135 3.761.047 7.524.037 11.286 0 .733 0 1.035.182.976.958s-.013 1.556-.013 2.419c-.414.019-.736.044-1.057.045-2.588 0-5.177.018-7.765-.008-.624 0-.854.192-.831.826.041 1.112.042 2.228 0 3.34-.024.639.206.828.831.821 2.377-.03 4.755-.012 7.132-.012h1.077c0 1.064.038 2.019-.037 2.966-.013.166-.505.417-.778.42-2.377.034-4.757.057-7.133 0-.875-.022-1.147.239-1.1 1.111.069 1.29.047 2.589 0 3.882-.019.638.206.827.831.821 2.708-.026 5.418.012 8.126-.026.718-.01.917.233.918.929.007 2.495.03 2.495-2.5 2.495H1127.3z" class="cls-1" transform="translate(-996.563 -36.013)"/>
    <path id="Path_188" d="M206.661 57.3c-1.3 0-2.443.034-3.577-.029-.229-.012-.524-.35-.642-.6-.439-.958-.838-1.932-1.208-2.918a.848.848 0 0 0-.941-.62c-2.649.022-5.3.028-7.948 0a.956.956 0 0 0-1.044.749c-.359.958-.742 1.909-1.173 2.836a1.046 1.046 0 0 1-.667.564c-1.107.06-2.219.026-3.471.026.12-.373.193-.652.3-.915 2.633-6.3 5.287-12.6 7.892-18.913a1.509 1.509 0 0 1 1.7-1.16c2.017.091 2.027.024 2.811 1.9q3.752 8.953 7.494 17.908c.135.315.263.647.474 1.172zm-6.9-7.361c-1.153-2.814-2.258-5.506-3.461-8.444l-3.451 8.444z" class="cls-1" transform="translate(-167.95 -35.964)"/>
    <path id="Path_189" d="M542.8 57.385c-1.265 0-2.375.032-3.48-.025a1.032 1.032 0 0 1-.684-.546c-.444-.958-.838-1.934-1.21-2.918a.914.914 0 0 0-1-.686q-3.975.041-7.951 0a.9.9 0 0 0-.986.691c-.359.958-.786 1.891-1.149 2.848a.831.831 0 0 1-.917.651c-1.05-.041-2.1-.012-3.255-.012a7.5 7.5 0 0 1 .218-.742c2.705-6.472 5.425-12.938 8.108-19.42a1.147 1.147 0 0 1 1.277-.818c2.288.025 2.3 0 3.154 2.048q3.767 9 7.523 18c.104.244.189.493.352.929zm-10.22-15.5l-.239-.012c-1.1 2.692-2.2 5.387-3.339 8.158h6.914c-1.139-2.793-2.238-5.471-3.337-8.15z" class="cls-1" transform="translate(-463.888 -36.049)"/>
    <path id="Path_190" d="M945.533 37.239l-2.453 2.1a7.853 7.853 0 0 0-7.238-2.394 6.943 6.943 0 0 0-4.4 2.62 7.737 7.737 0 0 0 .359 9.816 7.271 7.271 0 0 0 5.674 2.317 7.7 7.7 0 0 0 5.638-2.592l2.414 2.08c-1.392 2.352-5.942 4.788-10.872 3.644a10.811 10.811 0 0 1-.971-20.886c4.67-1.457 9.546.205 11.849 3.295z" class="cls-1" transform="translate(-819.491 -33.41)"/>
    <path id="Path_191" d="M397.086 36.569c1.111 0 2.132.011 3.153 0 .688-.01.564.479.565.88q.007 4.926 0 9.849c0 1.987.024 3.975-.013 5.962-.012.666.183.893.867.88 2.138-.038 4.277-.013 6.415-.013h1.077c0 1.067.019 2.022-.02 2.973a.615.615 0 0 1-.438.409c-3.847.023-7.7.018-11.611.018z" class="cls-1" transform="translate(-353.772 -36.191)"/>
</svg>
