<?xml version="1.0" encoding="utf-8"?>
<!-- Generator: Adobe Illustrator 16.0.0, SVG Export Plug-In . SVG Version: 6.00 Build 0)  -->
<!DOCTYPE svg PUBLIC "-//W3C//DTD SVG 1.1//EN" "http://www.w3.org/Graphics/SVG/1.1/DTD/svg11.dtd">
<svg version="1.1" id="Layer_1" xmlns="http://www.w3.org/2000/svg" xmlns:xlink="http://www.w3.org/1999/xlink" x="0px" y="0px"
	 width="53px" height="51px" viewBox="0 0 53 51" enable-background="new 0 0 53 51" xml:space="preserve">
<g id="Group_703" transform="translate(-52.126 -1257.648)">
	<g id="Group_702" transform="translate(57 1257.648)">
		<path id="Path_2181" fill="#EE1E5A" d="M21.035,4.641c11.962,0,21.66,9.697,21.66,21.66c0,11.963-9.697,21.66-21.66,21.66
			c-11.962,0-21.659-9.697-21.659-21.66C-0.624,14.338,9.073,4.641,21.035,4.641L21.035,4.641z"/>
		<g id="Group_183">
			<g id="Group_178" transform="translate(27.596)">
				<path id="Path_889" fill="#010101" d="M-15.528,26.924c-1.727,0.117-3.032,1.612-2.915,3.339
					c0.117,1.728,1.612,3.032,3.339,2.915c1.64-0.111,2.914-1.469,2.922-3.111c-0.03-1.768-1.487-3.176-3.254-3.146
					C-15.467,26.922-15.498,26.922-15.528,26.924z"/>
				<path id="Path_890" fill="#010101" d="M-15.527,23.433c1.104,0.021,2.017-0.857,2.038-1.961c0.001-0.044,0-0.089-0.002-0.134
					c0.05-1.125-0.821-2.076-1.946-2.126c-1.124-0.05-2.076,0.822-2.126,1.946c-0.003,0.06-0.003,0.12,0,0.18
					c-0.053,1.104,0.799,2.041,1.902,2.093C-15.616,23.433-15.572,23.434-15.527,23.433z"/>
				<path id="Path_891" fill="#EE1E5A" d="M0.977,1.303C-12.365-3.111-26.761,4.127-31.176,17.47
					c-4.414,13.343,2.824,27.739,16.168,32.153c13.336,4.412,27.727-2.816,32.147-16.15c4.428-13.333-2.791-27.73-16.125-32.157
					C1.003,1.311,0.991,1.307,0.977,1.303z M-15.528,36.668c-4.072,0-7.271-2.908-7.271-6.6c-0.003-2.115,1.114-4.075,2.938-5.148
					c-1.045-0.894-1.641-2.204-1.628-3.579c0.195-3.293,3.023-5.805,6.317-5.609c3.021,0.179,5.431,2.589,5.609,5.609
					c0.013,1.375-0.584,2.686-1.63,3.579c1.823,1.074,2.941,3.033,2.938,5.148C-8.255,33.76-11.455,36.668-15.528,36.668z
					 M0.524,36.668c-2.33,0.021-4.564-0.926-6.168-2.618l2.676-2.5c0.893,0.997,2.154,1.586,3.49,1.63
					c0.902,0.006,1.773-0.326,2.443-0.932c0.73-0.674,1.143-1.625,1.135-2.618c0.012-1.061-0.447-2.071-1.252-2.763
					c-0.699-0.561-1.576-0.85-2.471-0.815c-1.098,0.018-2.154,0.407-3,1.104l-2.443-0.348l1.309-10.793H7.007v3.492h-7.564
					l-0.318,3.2c0.518-0.098,1.043-0.146,1.57-0.144c1.713-0.05,3.389,0.495,4.742,1.541c1.648,1.36,2.6,3.39,2.588,5.527
					c-0.102,3.99-3.42,7.143-7.41,7.04C0.583,36.67,0.553,36.669,0.524,36.668L0.524,36.668z"/>
			</g>
		</g>
	</g>
	<circle id="Ellipse_308" fill="#EE1E5A" cx="77.648" cy="1282.978" r="22.82"/>
	<text transform="matrix(1 0 0 1 68.6675 1292.5347)" fill="#FFFFFF" font-family="'Arial-BoldMT'" font-size="24">85</text>
	<text transform="matrix(1 0 0 1 56.3482 1291.5347)" fill="#FFFFFF" font-family="'ArialMT'" font-size="21">&lt;</text>
</g>
</svg>
