<?xml version="1.0" encoding="utf-8"?>
<!-- Generator: Adobe Illustrator 23.0.1, SVG Export Plug-In . SVG Version: 6.00 Build 0)  -->
<svg version="1.1" id="Layer_1" xmlns="http://www.w3.org/2000/svg" xmlns:xlink="http://www.w3.org/1999/xlink" x="0px" y="0px"
	 viewBox="0 0 33.3 41.7" style="enable-background:new 0 0 33.3 41.7;" xml:space="preserve">
<style type="text/css">
	.st0{fill:#70CDE2;}
	.st1{fill:#01CCE9;}
</style>
<g>
	<g>
		<g>
			<g>
				<g>
					<path class="st0" d="M33.3,1.7V40c0,0.9-0.8,1.7-1.7,1.7H1.7C0.8,41.7,0,41,0,40V1.7c0-0.4,0.1-0.8,0.4-1.1
						C0.7,0.2,1.2,0,1.7,0h29.9C32.5,0,33.3,0.8,33.3,1.7z"/>
					<path class="st1" d="M33.3,1.8v29.1h-0.1c-4.4-0.1-8.8-1-13-2.6C2.2,21.3,0.4,1.6,0.3,0.7C0.6,0.3,1.1,0,1.6,0h30
						C32.5,0,33.3,0.9,33.3,1.8z"/>
				</g>
			</g>
		</g>
	</g>
</g>
</svg>
