<svg xmlns="http://www.w3.org/2000/svg" width="177.366" height="177.366" viewBox="0 0 177.366 177.366">
    <defs>
        <clipPath id="clip-path">
            <circle id="Ellipse_315" cx="72.409" cy="72.409" r="72.409" fill="#fff" stroke="#707070" transform="translate(684.937 673.937)"/>
        </clipPath>
        <style>
            .cls-3{fill:#fff}
        </style>
    </defs>
    <g id="Mask_Group_107" clip-path="url(#clip-path)" transform="rotate(-74.99 -5.395 853.261)">
        <g id="Group_721" transform="translate(629.093 659.56)">
            <path id="Path_3465" d="M121.251 650.608a5.887 5.887 0 0 1-.323-.62 3.312 3.312 0 0 0-1.07-1.22 1.062 1.062 0 0 0-.78-.194 2.545 2.545 0 0 0 1.09 2.2 2.026 2.026 0 0 1 .76 1.845c-.091 1.116-.184 2.231-.287 3.345-.051.54-.108 1.076-.183 1.611a4.086 4.086 0 0 1-.2.9 4.033 4.033 0 0 0-.267 1.238 9.937 9.937 0 0 1-1.112 3.512c-.188.424-.47.8-.664 1.222a2.279 2.279 0 0 1-1.515 1.353 2.888 2.888 0 0 1-1.638-.731c-.116.458.222.687.457.964a1.079 1.079 0 0 1-1.215 0 2.023 2.023 0 0 0-.754-.3c-.46-.09-.93-.119-1.395-.186a4.207 4.207 0 0 1-1.031-.207c-.749-.334-1.481-.711-2.2-1.106a5.117 5.117 0 0 1-1.375-1.083 10.56 10.56 0 0 1-2.678-5.226 3.625 3.625 0 0 1 .1-2.274 2.192 2.192 0 0 0 .137-.566 9.1 9.1 0 0 1 3.567-5.446 2.232 2.232 0 0 1 .4-.246c.83-.439 1.644-.905 2.517-1.266a6.8 6.8 0 0 1 4.6-.277 6.375 6.375 0 0 1 .9.263 2.975 2.975 0 0 0 1.722.183c.055-.057.116-.108.166-.168.276-.339.29-.543.086-.822a2.655 2.655 0 0 0-.9-.731 17.267 17.267 0 0 0-3.014-1.316 5.12 5.12 0 0 0-3.578-.191 11.67 11.67 0 0 0-4.741 1.961c-.313.233-.636.457-.933.706a10.944 10.944 0 0 0-3.1 3.759 39.284 39.284 0 0 0-1.693 4.213 9.619 9.619 0 0 0-.422 4.143 8.871 8.871 0 0 0 .714 2.45 5.832 5.832 0 0 0 .542.9c.281.417.775.652.987 1.13a.481.481 0 0 0 .16.17 20.247 20.247 0 0 1 1.944 1.677 6.157 6.157 0 0 1 .84.809 1.9 1.9 0 0 0 1.072.669c.486.14.956.344 1.437.5a8.2 8.2 0 0 0 1.466.413c1.09.127 2.184.2 3.282.25a4.838 4.838 0 0 0 1.279-.135 8.806 8.806 0 0 0 3.021-1.258 8.9 8.9 0 0 1 1.119-.639 1.963 1.963 0 0 0 .682-.612 13.955 13.955 0 0 0 1.45-2.652 3.739 3.739 0 0 0 .277-1.122 17.548 17.548 0 0 1 .61-3.313 6.263 6.263 0 0 0 .316-2.181c-.013-1.245-.007-2.487.026-3.73a4.655 4.655 0 0 0-.659-2.561" class="cls-3" transform="translate(51.96 -504.55)"/>
            <path id="Path_3466" d="M132.851 633.878a7.778 7.778 0 0 0 2.257 4.006c.323.285.623.59.93.892a3.739 3.739 0 0 0 1.274.824 10.267 10.267 0 0 0 5.642.75 4.564 4.564 0 0 1 1.636-.039 5.413 5.413 0 0 0 2.21-.121c.577-.119 1.145-.274 1.714-.424a3.991 3.991 0 0 0 1.916-1.083c.3-.31.6-.615.92-.905a3.782 3.782 0 0 0 1.125-2.13 5.436 5.436 0 0 1 .168-.8 5.99 5.99 0 0 0 .334-2.407c-.1-1.393-.192-2.786-.3-4.177a3.423 3.423 0 0 0-.095-.455 17.121 17.121 0 0 0-1.4-3.939 4.6 4.6 0 0 0-2.34-2.35c-.683-.3-1.385-.561-2.039-.909a4.941 4.941 0 0 0-2.4-.38 10.967 10.967 0 0 0-1.866.214c-.809.134-1.626.266-2.42.471a3.747 3.747 0 0 0-1.272.581 16.71 16.71 0 0 0-3.518 3.407 7.439 7.439 0 0 0-1.471 3.5 1.6 1.6 0 0 1-.351.848 4.709 4.709 0 0 0-.892 1.76 2.394 2.394 0 0 0-.111.912 13.343 13.343 0 0 0 .349 1.947m1.318-4c.447-.69.791-1.432 1.189-2.143a4.819 4.819 0 0 1 .75-1.032q1.184-1.216 2.429-2.378c.511-.475 1.073-.9 1.615-1.347a1.082 1.082 0 0 1 .3-.175 12.422 12.422 0 0 1 4.8-.993 1.946 1.946 0 0 1 1.7.86 5.149 5.149 0 0 0 .62.7 2.716 2.716 0 0 1 .758 1.9 4.822 4.822 0 0 1-.026.812 1.7 1.7 0 0 0 .184 1.01 2.078 2.078 0 0 1 .215.775 11.094 11.094 0 0 1-.383 3.805c-.178.6-.375 1.188-.587 1.771a6.522 6.522 0 0 1-1.608 2.549 5.337 5.337 0 0 1-2.613 1.486 10.176 10.176 0 0 1-2.455.193c-.354 0-.706.01-1.06 0a7.154 7.154 0 0 1-4.952-2.365 4.526 4.526 0 0 1-1.094-2.169 11.827 11.827 0 0 1-.267-1.607 2.593 2.593 0 0 1 .478-1.654" class="cls-3" transform="translate(72.069 -520.071)"/>
            <path id="Path_3467" d="M102.288 577.859a3.515 3.515 0 0 0-.586.865 7.926 7.926 0 0 0-.514 1.546 17.141 17.141 0 0 1-.468 2.042 1.154 1.154 0 0 0 .039.8 42.34 42.34 0 0 1 1.212 4.25 13.8 13.8 0 0 0 .709 2.093 5.04 5.04 0 0 0 1.929 2.44 8.094 8.094 0 0 1 .626.525 7.014 7.014 0 0 0 .961.667c.829.44 1.675.855 2.525 1.257a8.266 8.266 0 0 0 2.507.6 6.032 6.032 0 0 1 2.217.061 2.488 2.488 0 0 0 1.6-.263 10.906 10.906 0 0 0 2.675-2.08 2.819 2.819 0 0 0 .612-1.114c.243-.82.47-1.646.786-2.44a15.1 15.1 0 0 0 .754-2.809 5.293 5.293 0 0 0 .033-1.742c-.108-.69-.25-1.377-.369-2.063a5.922 5.922 0 0 0-1.22-2.742 2.889 2.889 0 0 1-.6-1.122 4.854 4.854 0 0 0-.847-1.654 10.677 10.677 0 0 0-3.011-2.57 1.364 1.364 0 0 0-.559-.173c-.776-.1-1.554-.183-2.332-.271-1.06-.134-1.96.607-3 .532a1.094 1.094 0 0 0-.447.134c-.861.37-1.722.744-2.577 1.124a2.734 2.734 0 0 0-.512.282 11.979 11.979 0 0 0-2.138 1.822m1.484 1.815c.416-.214.816-.461 1.225-.69a4.045 4.045 0 0 1 1.419-.538 6.448 6.448 0 0 0 .8-.181 6.849 6.849 0 0 1 2.244-.294 4.248 4.248 0 0 1 3.849 1.735c.419.458.827.936 1.2 1.43a4.7 4.7 0 0 1 .576 1.011 7.654 7.654 0 0 1 .634 2.587 1.745 1.745 0 0 0 .039.463 5.806 5.806 0 0 1-.083 2.877 4.838 4.838 0 0 1-1 2.327c-.354.411-.641.879-.982 1.3a4.308 4.308 0 0 1-2.058 1.476 2.9 2.9 0 0 1-2.279-.191 33.611 33.611 0 0 1-3.208-1.7 6.971 6.971 0 0 1-2.416-2.494 12.165 12.165 0 0 1-1.127-3.042c-.147-.6-.21-1.227-.375-1.825a4.632 4.632 0 0 1 .08-2.406 2.685 2.685 0 0 1 1.463-1.856" class="cls-3" transform="translate(51.988 -549.276)"/>
            <path id="Path_3468" d="M164.323 635.494a13.814 13.814 0 0 0 2.657-2.773 6.246 6.246 0 0 0 1.321-2.949 5.121 5.121 0 0 0 .078-2.536c-.057-.225-.062-.463-.1-.69-.1-.574-.2-1.147-.334-1.714a2.451 2.451 0 0 0-.333-.739c-.3-.453-.623-.9-.967-1.32a4.04 4.04 0 0 0-2.272-1.566 4.945 4.945 0 0 1-1.231-.388 10.4 10.4 0 0 0-1.672-.553 9.158 9.158 0 0 0-3.386-.095c-.654.429-1.432.615-2.086 1.023a2.021 2.021 0 0 0-.621.83 13.869 13.869 0 0 1-1.135 1.77 6.917 6.917 0 0 0-1.246 6.17c.064.223.152.442.23.661.157.437.315.874.463 1.279-.062.113-.078.2-.134.241a.525.525 0 0 0-.2.617 5.441 5.441 0 0 0 .817 1.669 7.084 7.084 0 0 0 3.484 2.484 4.754 4.754 0 0 0 2.429.232 14.359 14.359 0 0 0 3.348-1.1 3.654 3.654 0 0 0 .9-.556m-1.812-3.06a5.359 5.359 0 0 1-2.132 1.781 1.175 1.175 0 0 1-.551.189 6.078 6.078 0 0 1-2.74-.486 7.29 7.29 0 0 1-1.432-1.015 2.378 2.378 0 0 0-.887-.553 2.929 2.929 0 0 1-.422-.24 3.509 3.509 0 0 0 .17-.683 5.01 5.01 0 0 0-.086-.69 3.856 3.856 0 0 1 .31-1.589c.113-.329.29-.643.372-.979a10.621 10.621 0 0 1 2.013-3.655 1.757 1.757 0 0 1 .424-.4.926.926 0 0 1 1.288-.031c.253.186.517.357.757.558.781.647 1.549 1.306 2.331 1.957a2.706 2.706 0 0 1 .953 1.558 11.622 11.622 0 0 1 .219 2.665 2.807 2.807 0 0 1-.584 1.61" class="cls-3" transform="translate(84.832 -520.181)"/>
            <path id="Path_3469" d="M7.888 572.964a4.817 4.817 0 0 0 .2.788 7.26 7.26 0 0 1 .584 1.887.843.843 0 0 0 .2.414 2.26 2.26 0 0 1 .373.845 1.489 1.489 0 0 0 .261.514 6.722 6.722 0 0 0 3.029 2.655 2.737 2.737 0 0 0 2.14.36c.584-.077 1.171-.126 1.757-.157a3.158 3.158 0 0 0 1.259-.243 11.37 11.37 0 0 0 3.565-.685c.385-.078.762-.176 1.151-.227a3.5 3.5 0 0 0 2.478-1.165 1.264 1.264 0 0 1 .783-.484 2.621 2.621 0 0 0 1.952-1.688 7.9 7.9 0 0 0 .678-2.58 16 16 0 0 1 .166-2.086 1.923 1.923 0 0 0-.026-.577c-.044-.424-.1-.848-.148-1.271a6.544 6.544 0 0 0-2.1-4.3 13.116 13.116 0 0 0-5.29-2.924 5.4 5.4 0 0 0-1.629-.217c-.509.008-1.021-.02-1.528.007a6.6 6.6 0 0 0-3.962 1.235c-.338.269-.709.485-1.052.75a.915.915 0 0 1-.754.233 1.272 1.272 0 0 0-.884.253 8.309 8.309 0 0 0-1.62 1.344 7.066 7.066 0 0 0-2.045 4.221 2.218 2.218 0 0 0 .018.579q.213 1.26.445 2.52m3.989-2.445a4.781 4.781 0 0 1 1.81-2.919c.424-.341.838-.7 1.235-1.073a5.269 5.269 0 0 1 1.933-1.077 3.561 3.561 0 0 1 .928-.117 8.847 8.847 0 0 0 1.288-.087 3.8 3.8 0 0 1 1.848.148 8.163 8.163 0 0 1 3.086 1.621 2.156 2.156 0 0 0 .272.219 4.316 4.316 0 0 1 1.716 2.156 11.727 11.727 0 0 1 .869 3.6 3.2 3.2 0 0 1-.367 1.687.956.956 0 0 1-.279.37 9.971 9.971 0 0 1-1.267.833c-.175.09-.449-.008-.68-.021-.023.055-.085.132-.07.188a1.17 1.17 0 0 1-.615 1.382c-.93.574-1.882 1.117-2.822 1.673a17.626 17.626 0 0 1-3.474.54c-.106 0-.214.091-.321.142a6.675 6.675 0 0 1-1.993-.664 2.057 2.057 0 0 1-.661-.478 8.569 8.569 0 0 1-2.419-4.19 10.413 10.413 0 0 1-.018-3.937" class="cls-3" transform="translate(-6.855 -556.931)"/>
            <path id="Path_3470" d="M66.9 571.225c-.245.307-.463.628-.711.931a2.945 2.945 0 0 0-.574 1.256 10.753 10.753 0 0 1-.922 2.877 1.466 1.466 0 0 0-.137 1.016c.144.762.277 1.525.432 2.282a1.475 1.475 0 0 0 .238.532 20.5 20.5 0 0 1 1.378 2.828 15.08 15.08 0 0 0 1.196 1.993 5.753 5.753 0 0 0 2.142 1.778 2.422 2.422 0 0 0 1.355.318c.155.16.31.316.465.475a2.111 2.111 0 0 0 .44.375 9.394 9.394 0 0 0 4.431 1.006 13.556 13.556 0 0 0 3.135-.458 4.4 4.4 0 0 0 2.724-2.081c.192-.338.36-.692.574-1.015a7.113 7.113 0 0 0 .99-2.354 10.862 10.862 0 0 0 .282-3.349 13.426 13.426 0 0 0-.32-2.068 16.712 16.712 0 0 0-.375-1.7 26.665 26.665 0 0 0-2.143-4.782 1.955 1.955 0 0 0-.418-.558 7.872 7.872 0 0 0-3.8-1.98 10.691 10.691 0 0 0-1.631-.086 14.393 14.393 0 0 0-1.983.127 1.609 1.609 0 0 1-.235.008 14.651 14.651 0 0 0-1.758.13 7.521 7.521 0 0 0-4.774 2.5m1 2.743a1.711 1.711 0 0 1 .8-.455 4.582 4.582 0 0 1 .569-.14 29.4 29.4 0 0 0 3.1-.672 8.813 8.813 0 0 1 2.34-.114 5.212 5.212 0 0 1 1.874.656 5.062 5.062 0 0 1 2.748 3.025 5.8 5.8 0 0 1 1.093 2.386c.026.165.22.307.336.46a3.331 3.331 0 0 1 .444 1.9c-.016.387-.008.775 0 1.163a5.322 5.322 0 0 1-2.034 4.267 5.389 5.389 0 0 1-1.7 1.019 3.588 3.588 0 0 1-2.076.189 3.06 3.06 0 0 0-.7-.1 14.574 14.574 0 0 1-2.447-.285l-.935-.466c-.129-.135-.237-.349-.395-.395a3.789 3.789 0 0 1-1.6-1.133c-.377-.4-.749-.794-1.112-1.2a1.3 1.3 0 0 1-.333-.471c-.215-.871-.822-1.589-.977-2.482a1.129 1.129 0 0 0-.158-.437 4.6 4.6 0 0 1-.558-1.988 5.143 5.143 0 0 1 1.721-4.719" class="cls-3" transform="translate(29.183 -552.743)"/>
            <path id="Path_3471" d="M28.342 577.656a3.384 3.384 0 0 0 .84 2.132 6.252 6.252 0 0 0 1.448 1.512c.486.326.918.731 1.381 1.09a6.2 6.2 0 0 0 1.752.936 8.749 8.749 0 0 0 2.311.4 8.409 8.409 0 0 0 3.836-.279c.145-.055.31-.062.458-.108a8.327 8.327 0 0 0 2.879-1.287 3.246 3.246 0 0 1 .6-.367 3.614 3.614 0 0 0 1.442-1.341c.189-.3.4-.576.594-.871a5.834 5.834 0 0 0 .964-2.357 9.135 9.135 0 0 1 .232-1.142 8.417 8.417 0 0 0-.608-5.35 7.379 7.379 0 0 0-3.251-3.577 7.1 7.1 0 0 0-3.518-1.215 4 4 0 0 1-.926-.163 7.585 7.585 0 0 0-2.69-.253 9.947 9.947 0 0 0-2.916.263 4.479 4.479 0 0 0-3.531 2.445 4.813 4.813 0 0 0-.783 1.551 10.611 10.611 0 0 1-.475 1.559 16.133 16.133 0 0 0-.522 2.849 1.03 1.03 0 0 0 .021.232 14.285 14.285 0 0 0 .463 3.334m3.808-2.9c.08-.377.165-.758.236-1.138a6.174 6.174 0 0 1 1.934-3.259 2.08 2.08 0 0 1 .891-.548c.227-.064.447-.139.677-.2a22.776 22.776 0 0 1 3.371-.46 5.57 5.57 0 0 1 3.247.861 4.367 4.367 0 0 1 1.114 1.021 8.631 8.631 0 0 1 2.111 3.976 5.569 5.569 0 0 1-1.29 4.89 3.019 3.019 0 0 1-.625.524c-.481.334-.987.638-1.465.974a3.764 3.764 0 0 1-1.2.462c-.688.2-.685.2-1.083.975a3.081 3.081 0 0 1-1.592-.08 10.2 10.2 0 0 0-2.75-.585 2.744 2.744 0 0 1-1.2-.45.586.586 0 0 0-.177-.712c-.171-.152-.36-.287-.541-.427-.206-.168-.424-.325-.621-.5a1.541 1.541 0 0 0-.793-.434v-.232a1.683 1.683 0 0 0-.468-.938 17.03 17.03 0 0 1 .22-3.711" class="cls-3" transform="translate(6.042 -554.677)"/>
            <path id="Path_3472" d="M175.583 601.656a8.268 8.268 0 0 0-2.311-4.368 8.544 8.544 0 0 0-2.153-1.4 3.9 3.9 0 0 0-2.822-.417 7.839 7.839 0 0 0-2.225.734 9.275 9.275 0 0 1-3.291 1.2 3.118 3.118 0 0 0-1.695.993.165.165 0 0 0-.057.1 1.163 1.163 0 0 0 0 .32c.007.025.148.052.206.026a6.58 6.58 0 0 1 1.548-.543 19.3 19.3 0 0 0 3.112-.649 12.594 12.594 0 0 1 2.44-.385 1.618 1.618 0 0 1 1.329.343 4.838 4.838 0 0 1 1.284 1.792 3.4 3.4 0 0 1 .181 2.5 8.957 8.957 0 0 0-.276 1.132c-.189.835-.375 1.669-.568 2.5a2.066 2.066 0 0 1-1.132 1.417c-.315.161-.628.32-.938.491a5.631 5.631 0 0 1-3.3.661 4.872 4.872 0 0 1-2.977-1.258 10 10 0 0 1-2.3-2.923 6.035 6.035 0 0 1-.46-1.672 1.049 1.049 0 0 1 .1-.563c.173-.346.387-.67.589-1 .08-.132.178-.253.261-.383a.312.312 0 0 0-.142-.4.385.385 0 0 0-.321.026c-.2.189-.32.46-.533.613a5.531 5.531 0 0 0-1.445 1.815 5.264 5.264 0 0 0-.462 3.174.863.863 0 0 0 .117.328q.394.783.8 1.556a7.043 7.043 0 0 0 1.931 2.323 10.427 10.427 0 0 0 2.535 1.476 5.744 5.744 0 0 0 1.241.356c.732.116 1.478.171 2.026.233a10.278 10.278 0 0 0 1.6-.085c1.227-.276 2.443-.6 3.65-.935a8.974 8.974 0 0 0 3.7-2.422 2.044 2.044 0 0 0 .281-.375 9.774 9.774 0 0 0 1.065-2.579 2.343 2.343 0 0 0-.07-1.489 12.659 12.659 0 0 1-.524-2.264" class="cls-3" transform="translate(87.653 -535.764)"/>
            <path id="Path_3473" d="M44.263 648.482a4.236 4.236 0 0 0-1.734-2.551 2.788 2.788 0 0 1-1.158-1.134.769.769 0 0 0-.444-.352c-.907-.253-1.737-.726-2.67-.889-.541-.1-1.08-.207-1.624-.273a7.4 7.4 0 0 0-3.358.39c-.555.2-1.1.421-1.633.661a7.53 7.53 0 0 0-1.137.608 14.813 14.813 0 0 0-2.336 2.285.41.41 0 0 0-.065.095 10.516 10.516 0 0 0-1.223 3.383 1.6 1.6 0 0 0 .042.69.8.8 0 0 0 .636.618.767.767 0 0 0 .783-.406 5.154 5.154 0 0 0 .225-.535 10.784 10.784 0 0 1 1.334-2.455 8.7 8.7 0 0 1 1.458-1.664 6.78 6.78 0 0 1 3.879-1.515 2.1 2.1 0 0 1 1.991.77 5.652 5.652 0 0 0 1.453 1.338 2.958 2.958 0 0 1 1.386 2.556v1.4c0 .506.028 1.011 0 1.514a4.155 4.155 0 0 1-1.825 3.479c-.228.148-.432.339-.657.489a4.588 4.588 0 0 1-2.771.835 21.229 21.229 0 0 1-2.443-.351 2.017 2.017 0 0 1-.853-.365c-.778-.523-1.566-1.034-2.349-1.544a4.283 4.283 0 0 1-1.877-2.018 1.432 1.432 0 0 0-.612-.68.428.428 0 0 0-.331-.021.351.351 0 0 0-.168.269 8.29 8.29 0 0 0 .192 1.259 6.623 6.623 0 0 0 2.748 4.325 1.408 1.408 0 0 1 .176.153 5.369 5.369 0 0 0 1.933 1.088c.515.179 1.062.274 1.6.411a6.371 6.371 0 0 0 2.69.088c1.042-.173 2.068-.448 3.1-.687a1.1 1.1 0 0 0 .321-.137c.873-.524 1.744-1.05 2.616-1.572a1.418 1.418 0 0 0 .674-.775.87.87 0 0 1 .786-.607.69.69 0 0 0 .39-.228 3.892 3.892 0 0 0 .612-.846 12.033 12.033 0 0 0 .886-2.526 3.955 3.955 0 0 0 .047-1.618 27.377 27.377 0 0 0-.68-2.952" class="cls-3" transform="translate(4.984 -505.558)"/>
            <path id="Path_3474" d="M160.131 618.666a4.471 4.471 0 0 1 .515-1.535 1.3 1.3 0 0 0 .155-.44 27.871 27.871 0 0 0 .44-2.758 5.241 5.241 0 0 0-.222-1.837 12.272 12.272 0 0 0-.879-2.032 4.529 4.529 0 0 0-.745-1.041 8.662 8.662 0 0 0-3.123-2.023 1.572 1.572 0 0 0-.688-.142 4.146 4.146 0 0 1-1.822-.408 3.39 3.39 0 0 0-2.047-.277 10.534 10.534 0 0 1-1.287.02 12.91 12.91 0 0 0-3.735 1.018 3.1 3.1 0 0 0-2.145 2.3 6.518 6.518 0 0 0-.163.679 10.1 10.1 0 0 1-.347 1.354 10.26 10.26 0 0 0-.538 4.823 3.268 3.268 0 0 0 1.554 2.5.553.553 0 0 0 .75-.036 1.592 1.592 0 0 1-.431-.812c-.09-.418-.178-.833-.277-1.248a4.3 4.3 0 0 1 .052-2.634 1.71 1.71 0 0 0 .08-.455 9.863 9.863 0 0 1 1.145-3.4c.052-.1.1-.209.165-.307a2.758 2.758 0 0 1 3.437-1.277 5.493 5.493 0 0 1 2.447 1.337 1.943 1.943 0 0 0 .46.359 9.839 9.839 0 0 1 2.784 2.623 11.708 11.708 0 0 1 1.09 1.652A2.14 2.14 0 0 1 157 616a7.688 7.688 0 0 1-.714 2.678 5.523 5.523 0 0 1-3.375 2.877 5.991 5.991 0 0 1-2.435.3 5.361 5.361 0 0 1-1.028-.207 9.52 9.52 0 0 1-.985-.38 3.537 3.537 0 0 1-1.732-1.337 3.763 3.763 0 0 0-.665-.639c-.232.028-.47.041-.7.088-.373.073-.493.269-.341.574a5.111 5.111 0 0 0 2.23 2.479c.7.359 1.4.713 2.112 1.031.5.224 1.026.391 1.546.566a3.213 3.213 0 0 0 1.633.108 9.25 9.25 0 0 0 5.2-2.528 16.532 16.532 0 0 0 1.665-1.8 1.5 1.5 0 0 0 .726-1.147" class="cls-3" transform="translate(78.975 -528.985)"/>
            <path id="Path_3475" d="M58.606 564.107a6.526 6.526 0 0 0-2.151-1.367c-.515-.178-1.039-.343-1.554-.525a3.706 3.706 0 0 0-1.613-.142 9.376 9.376 0 0 0-2.706.744 3.678 3.678 0 0 0-.905.524 9.968 9.968 0 0 0-2 1.947 7.673 7.673 0 0 0-1.285 1.926 1.369 1.369 0 0 1-.266.38 6.243 6.243 0 0 0-1.2 2.99q-.12.687-.192 1.383a1.815 1.815 0 0 0 .008.69 16.848 16.848 0 0 0 .586 1.766 4.975 4.975 0 0 0 .881 1.5 8.532 8.532 0 0 0 2.352 1.913 14.465 14.465 0 0 1 2.049 1.125 7.36 7.36 0 0 0 3.122 1.29 5.788 5.788 0 0 0 4-.5 1.892 1.892 0 0 1 .532-.238 10.371 10.371 0 0 0 2.376-1 5.652 5.652 0 0 0 2.96-3.585 7.371 7.371 0 0 0 .184-2.212 8.092 8.092 0 0 0-.179-2.06c-.188-.551-.359-1.109-.559-1.656a2.738 2.738 0 0 0-.356-.731 15.8 15.8 0 0 0-1.652-1.967c-.8-.749-1.6-1.483-2.425-2.2m2.024 13.2a2.413 2.413 0 0 1-1.328 1.253 12.736 12.736 0 0 1-1.316.506 3.269 3.269 0 0 1-.809.108c-.352.02-.708 0-1.06 0h-1.06a3.118 3.118 0 0 1-1.15-.2 6.167 6.167 0 0 0-.9-.272 10.354 10.354 0 0 1-4.444-2.282c-.181-.148-.349-.316-.54-.449a2.131 2.131 0 0 1-.78-1 7.711 7.711 0 0 1-.465-2.269 1.23 1.23 0 0 1 .349-.961 4.127 4.127 0 0 1 .582-.576c.721-.533 1.447-1.067 2.2-1.553.395-.256.773-.522 1.145-.81.553-.434 1.151-.806 1.735-1.2a1.539 1.539 0 0 1 .206-.108 5.746 5.746 0 0 1 3.456.037 11.382 11.382 0 0 1 3.684 2.853 5.312 5.312 0 0 1 1.272 3.549 9.063 9.063 0 0 1-.776 3.379" class="cls-3" transform="translate(16.671 -556.787)"/>
            <path id="Path_3476" d="M138.66 652.554a8.439 8.439 0 0 0 1.947-4.051 2.6 2.6 0 0 0 .054-.922 6.044 6.044 0 0 0-.693-2.208 2.809 2.809 0 0 1-.449-1.189 8.043 8.043 0 0 0-.891-2.391 2.5 2.5 0 0 0-.979-1.139c-.4-.5-.785-1.014-1.2-1.505a6.784 6.784 0 0 0-.661-.618 8.347 8.347 0 0 0-4.2-2.838 4.5 4.5 0 0 0-2.884.059 6.628 6.628 0 0 1-1.82.462 5.525 5.525 0 0 0-3.42 1.889 10.762 10.762 0 0 0-2.425 4.221 2.815 2.815 0 0 0-.126.685 12.015 12.015 0 0 0 .507 4.6c.139.4.294.8.44 1.2a2.008 2.008 0 0 0 .667.969 9.219 9.219 0 0 0 .584 1 31.025 31.025 0 0 0 2.954 2.978 1.818 1.818 0 0 0 .39.254c.377.209.76.4 1.132.62a4.047 4.047 0 0 1 .768.52 4.944 4.944 0 0 0 2.22 1.006 2.216 2.216 0 0 0 1.908-.325 10.033 10.033 0 0 1 1.566-.8c.889-.4 1.786-.793 2.667-1.215a13.308 13.308 0 0 0 1.324-.752 2.7 2.7 0 0 0 .623-.522m-.856-2.874a2.9 2.9 0 0 1-.662.8 8.822 8.822 0 0 1-2.256 1.461 3.435 3.435 0 0 1-2.626.14 9.769 9.769 0 0 0-1.6-.382 6 6 0 0 1-3.875-2.432 1.556 1.556 0 0 0-.219-.274 8.27 8.27 0 0 1-2.008-3.115 7.012 7.012 0 0 1-.528-1.9 3.067 3.067 0 0 1 .626-2.419 20.227 20.227 0 0 0 1.564-2.318c.085-.132.16-.267.237-.4a3.468 3.468 0 0 1 1.465-1.473 4.664 4.664 0 0 0 .5-.334 2.731 2.731 0 0 0 .577 0 9.138 9.138 0 0 1 3.83.36 8.334 8.334 0 0 1 2.205 1.077c.173.095.331.21.5.32.269.313.532.633.809.943.351.4.709.784 1.065 1.178.158.31.3.63.476.928a2.922 2.922 0 0 1 .476 1.654 3.253 3.253 0 0 0 .437 1.789 1.7 1.7 0 0 1 .144 1.235 10.065 10.065 0 0 1-1.134 3.166" class="cls-3" transform="translate(64.742 -510.448)"/>
            <path id="Path_3477" d="M110.094 569.812a6.86 6.86 0 0 0 .137.917 32 32 0 0 1 .877 3.494 2.059 2.059 0 0 0 .16.439 4.606 4.606 0 0 0 2.016 2.355 6.323 6.323 0 0 0 4.484.995 7.147 7.147 0 0 1 .819-.049 4.071 4.071 0 0 0 .817-.1c.825-.258 1.651-.512 2.45-.837a5.907 5.907 0 0 0 1.946-1.292 13.6 13.6 0 0 0 2.378-2.73 3.33 3.33 0 0 1 .349-.468 7.774 7.774 0 0 0 1.757-4.007 6.521 6.521 0 0 0 .008-1.843 2.683 2.683 0 0 0-1.37-2.053 2.017 2.017 0 0 1-.641-.661c-.669-.956-1.346-1.908-2.055-2.841a3.4 3.4 0 0 0-.856-.789 10.386 10.386 0 0 0-1.856-1.006 5.443 5.443 0 0 0-3.1-.432 5.023 5.023 0 0 1-.727.077 5.985 5.985 0 0 0-2.173.166.542.542 0 0 0-.308.158 7.024 7.024 0 0 1-1.44 1 2.5 2.5 0 0 0-.6.55 15.415 15.415 0 0 0-1.026 1.276 19.09 19.09 0 0 0-1.6 2.973 2.99 2.99 0 0 0-.153.563c-.095.457-.183.915-.277 1.372a4.115 4.115 0 0 0-.06 1.957 5.141 5.141 0 0 1 .046.814m1.359-2.582c.135-.566.205-1.145.316-1.716a3.781 3.781 0 0 1 .212-.781c.352-.822.718-1.639 1.1-2.447a1.827 1.827 0 0 1 .484-.646 8.613 8.613 0 0 1 2.1-1.276 6.939 6.939 0 0 1 3.6-.3 4.244 4.244 0 0 1 2.688 1.549 7.317 7.317 0 0 1 2.011 3.763 6.918 6.918 0 0 1 .186 3 5.3 5.3 0 0 1-.734 2.186 9.78 9.78 0 0 0-.59 1.14 3.346 3.346 0 0 1-1.422 1.51 4.914 4.914 0 0 1-2.784.8c-.352-.023-.708-.008-1.06-.008a4.824 4.824 0 0 1-1.5-.266 17.1 17.1 0 0 0-2.349-.755.92.92 0 0 1-.758-.925 6.078 6.078 0 0 1 .047-.925c.013-.188.1-.4-.127-.511-.2-.1-.378.028-.545.132s-.318.2-.566.365a2.791 2.791 0 0 1-.447-1.334 8.476 8.476 0 0 1 .137-2.549" class="cls-3" transform="translate(57.847 -558.822)"/>
            <path id="Path_3478" d="M83.916 647.578a2.555 2.555 0 0 0 1.165 0c.305-.059.623-.062.933-.1a2.753 2.753 0 0 0 .806-.139 6.585 6.585 0 0 1 1.7-.422 1.591 1.591 0 0 0 .555-.176c.829-.514 1.66-1.028 2.468-1.58A7.522 7.522 0 0 0 93 644c.387-.444.8-.85 1.22-1.257a1.934 1.934 0 0 0 .868-1.8c.018-.194.02-.388.028-.582.034-.579.075-1.16.1-1.74a3.689 3.689 0 0 0-.235-1.6 12.327 12.327 0 0 0-.964-1.859 8.465 8.465 0 0 1-.977-2.234 4.323 4.323 0 0 0-1.807-2.357 11.464 11.464 0 0 0-2.386-1.246 2.852 2.852 0 0 0-2.053-.054c-.706.237-1.427.426-2.143.636a7.5 7.5 0 0 0-1.85.739 1.66 1.66 0 0 1-.528.246 2.176 2.176 0 0 0-1.456.9.926.926 0 0 1-.385.259 3.178 3.178 0 0 0-1.5 1.861.373.373 0 0 0 .064.318c.062.078.2.1.3.15a4.785 4.785 0 0 1 1.532-1.417c.382-.277.755-.555 1.134-.834.155-.114.3-.249.466-.352a9.085 9.085 0 0 1 4.751-1.072 1.44 1.44 0 0 1 .235.028 1.543 1.543 0 0 1 1.13.745 6.119 6.119 0 0 1 1.107 2.546c.068.262.13.528.2.789a3.723 3.723 0 0 1 .113 2.176 2.829 2.829 0 0 0-.047.581c-.091 1-.179 2.008-.284 3.011-.021.23-.1.455-.145.683a1.691 1.691 0 0 1-.553 1c-.439.386-.907.737-1.334 1.138a5.708 5.708 0 0 1-1.69 1.041 4.53 4.53 0 0 1-3.321.248 9.479 9.479 0 0 1-3.2-1.92 4.261 4.261 0 0 1-1.548-2.274 4.519 4.519 0 0 0-.222-.54 2.578 2.578 0 0 1-.114-1.6 4.814 4.814 0 0 1 1.067-2.3c.06-.341.124-.682.179-1.026 0-.026-.037-.069-.067-.088a.155.155 0 0 0-.109-.016.645.645 0 0 0-.2.1 6.182 6.182 0 0 0-1.853 3.924 1.574 1.574 0 0 0 .031.579 7.188 7.188 0 0 1 .153 1.967 3.4 3.4 0 0 0 .457 1.783 6.067 6.067 0 0 0 .964 1.311 12.355 12.355 0 0 0 2.168 1.781 5.985 5.985 0 0 0 3.275 1.16 1.416 1.416 0 0 1 .347.057" class="cls-3" transform="translate(36.743 -514.478)"/>
            <path id="Path_3479" d="M178.528 582.5a11.393 11.393 0 0 0-1.1-4.02 15.015 15.015 0 0 0-1.724-2.634 5.533 5.533 0 0 0-2.164-1.571 8.317 8.317 0 0 1-1.063-.481 1.5 1.5 0 0 0-1.355-.077 23.153 23.153 0 0 1-2.246.692 12.107 12.107 0 0 0-4.056 1.807 3.246 3.246 0 0 0-1.22 1.384 3.227 3.227 0 0 1-1.357 1.554 2.467 2.467 0 0 0-1.028 1.243 4.814 4.814 0 0 0-.339 3.288c.13.408.267.812.4 1.215a6.72 6.72 0 0 0 3.363 3.74 11.625 11.625 0 0 0 3.428 1.214c.613.116 1.235.2 1.853.294a7.942 7.942 0 0 0 3.094-.713 13.1 13.1 0 0 0 2.538-1.217 1.72 1.72 0 0 1 .542-.225 1.6 1.6 0 0 0 .9-.716 6.77 6.77 0 0 0 1.435-3.391 12.154 12.154 0 0 0 .1-1.386m-5.477.781c-.32.622-.626 1.251-.952 1.871a3.648 3.648 0 0 1-1.967 1.752 11.69 11.69 0 0 1-1.448.484 4.465 4.465 0 0 1-3.981-.851c-.365-.292-.719-.6-1.085-.891a3.39 3.39 0 0 1-1.315-2.505 6.439 6.439 0 0 1 .013-1.279 2.506 2.506 0 0 1 1.336-2.053 1.373 1.373 0 0 0 .3-.184c.53-.512 1.054-1.032 1.58-1.551.137-.135.276-.272.413-.411a4.264 4.264 0 0 1 2.137-1.145 5.276 5.276 0 0 0 1.566-.493 1.514 1.514 0 0 1 1.029-.122c.349.059.69.144 1.034.219a.872.872 0 0 1 .683.718.734.734 0 0 1 .036.228 3.5 3.5 0 0 0 .378 1.452 12.046 12.046 0 0 1 .6 3.184 3.227 3.227 0 0 1-.352 1.579" class="cls-3" transform="translate(89.874 -549.5)"/>
            <path id="Path_3480" d="M156.752 641.782a3.264 3.264 0 0 0-.5-.912 10.893 10.893 0 0 0-1.337-1.308 4.118 4.118 0 0 0-1.31-.762 5.783 5.783 0 0 0-3.564-.38 4.321 4.321 0 0 1-.468.046 10.4 10.4 0 0 0-2.518.546 1.455 1.455 0 0 1-.455.118 3.859 3.859 0 0 0-2.327 1.261q-.609.631-1.274 1.205a9.052 9.052 0 0 0-1.856 2.388.668.668 0 0 0-.078.333.327.327 0 0 0 .253.346 2.268 2.268 0 0 0 .351.036 26.98 26.98 0 0 1 2.722-2.738 4.748 4.748 0 0 1 2.363-1.227 1.515 1.515 0 0 0 .445-.145 3.566 3.566 0 0 1 1.61-.3 13.059 13.059 0 0 0 2.583-.145.942.942 0 0 1 .773.2 4.954 4.954 0 0 1 1.186 1.125 1.456 1.456 0 0 1 .281.506 9.792 9.792 0 0 1 .277 2.773 8.951 8.951 0 0 1-1.5 4.368 3.934 3.934 0 0 0-.253.393A5.976 5.976 0 0 1 149.6 652a9.771 9.771 0 0 1-3.864.864 1.52 1.52 0 0 1-.352-.037 6.979 6.979 0 0 1-4.668-2.884 1.9 1.9 0 0 1-.421-.949 4.9 4.9 0 0 1 .137-2.079c.135-.4.2-.825.3-1.24a3.636 3.636 0 0 0-1.427 2.2 2.448 2.448 0 0 0-.113.913 5.454 5.454 0 0 0 .659 2.1c.53.861 1.086 1.711 1.646 2.551a3.687 3.687 0 0 0 1.393 1.23 8.212 8.212 0 0 0 3.458 1.055 3.365 3.365 0 0 1 .584.07 8.333 8.333 0 0 0 2.464.106 5.265 5.265 0 0 0 2.69-.734c1.1-.344 1.952-1.147 3.009-1.572a2.459 2.459 0 0 0 .572-.4 5.6 5.6 0 0 0 1.967-3.971c.111-1 .07-2.016.091-3.024a3.572 3.572 0 0 0-.034-.816 18.335 18.335 0 0 0-.936-3.6" class="cls-3" transform="translate(76.288 -508.699)"/>
            <path id="Path_3481" d="M147.037 655.481a1.676 1.676 0 0 0-.206-.416c-.406-.573-.815-1.142-1.243-1.7a2.254 2.254 0 0 0-.5-.488 23.667 23.667 0 0 0-4.045-2.363 3.942 3.942 0 0 0-.778-.266 18.176 18.176 0 0 0-4.692-.268 1.385 1.385 0 0 0-1.036.484c-.285.32-.563.649-.873.946a4.54 4.54 0 0 0-.864 1.241 15.308 15.308 0 0 0-1.23 3.4 6.058 6.058 0 0 0-.065 2.2 4.646 4.646 0 0 0 1.807 2.773c.124.119.3.031.4-.114a1.574 1.574 0 0 0 .1-.214.6.6 0 0 1-.111-.2 8.6 8.6 0 0 1 .838-6.511 6.177 6.177 0 0 1 1.094-1.2 1.055 1.055 0 0 1 .535-.212c.421-.075.851-.1 1.275-.175a1.162 1.162 0 0 1 .886.217c.447.313.891.634 1.326.966a2.377 2.377 0 0 1 .411.408c.51.639 1.011 1.282 1.512 1.928a3.9 3.9 0 0 1 .765 2.034 7.821 7.821 0 0 1-.281 3.1 2.827 2.827 0 0 1-.864 1.355 5.164 5.164 0 0 1-3.18 1.334c-.393.024-.785.031-1.173.08a2.331 2.331 0 0 1-2.37-1.179 6.3 6.3 0 0 1-.431-.954c-.2-.023-.391-.054-.586-.065-.165-.008-.334.14-.313.28a3.047 3.047 0 0 0 .161.786 5.9 5.9 0 0 0 2.456 2.6 6.473 6.473 0 0 0 4.438.712 11.85 11.85 0 0 0 5.156-2.181 5.3 5.3 0 0 0 2.1-3.272c.174-.718.266-1.453.408-2.176a1.454 1.454 0 0 0-.065-.8c-.256-.695-.5-1.391-.757-2.086" class="cls-3" transform="translate(71.403 -501.324)"/>
            <path id="Path_3482" d="M27.064 587.6a2.551 2.551 0 0 1-.378-.843 4.844 4.844 0 0 0-1.212-2.484 3.079 3.079 0 0 1-.32-.489 1.351 1.351 0 0 0-.693-.6 2.427 2.427 0 0 1-1.124-.821 2.449 2.449 0 0 0-1.714-.918c-.775-.126-1.556-.214-2.337-.276-.625-.049-1.258-.036-1.885-.034a2.034 2.034 0 0 0-.7.09 12.706 12.706 0 0 0-1.5.662 3.584 3.584 0 0 1-.943.458 1.161 1.161 0 0 0-.419.2 13.465 13.465 0 0 0-2.854 2.589c-.359.46-.723.918-1.085 1.377a4.264 4.264 0 0 0-.956 2.1 3.042 3.042 0 0 1-.264.884 1.473 1.473 0 0 0-.07 1.018 14.533 14.533 0 0 0 1.758 3.924 2.854 2.854 0 0 0 .612.7 13.337 13.337 0 0 0 1.644 1.316 8.625 8.625 0 0 0 4.882 1.486 13.986 13.986 0 0 0 3.37-.466c1.09-.343 2.055-.957 3.115-1.368a17.225 17.225 0 0 1 2.091-1.295 3.624 3.624 0 0 0 1.758-2.637 13.5 13.5 0 0 0 .179-1.846 2.5 2.5 0 0 0-.158-.907 9.667 9.667 0 0 0-.8-1.815M23 589.48c-.052.385-.093.77-.153 1.153a4.7 4.7 0 0 1-3.026 3.849 10.212 10.212 0 0 1-2.208.789 6.073 6.073 0 0 1-2.908-.13c-.559-.183-1.121-.364-1.667-.574a9.712 9.712 0 0 1-3.249-2.257.737.737 0 0 1-.139-.186 2.839 2.839 0 0 1-.108-.282 3.409 3.409 0 0 0 .36-1.859 2.458 2.458 0 0 1 .409-1.545 7.607 7.607 0 0 0 .383-.723 7.414 7.414 0 0 1 1.566-2.021c.378-.336.718-.716 1.088-1.06a2.963 2.963 0 0 1 .727-.584 21.552 21.552 0 0 1 2.809-1.194 3.272 3.272 0 0 1 1.965-.028c.409.134.827.256 1.231.4a1.721 1.721 0 0 1 1.054 1.008 18.415 18.415 0 0 0 1.244 2.238A4.331 4.331 0 0 1 23 589.48" class="cls-3" transform="translate(-6.136 -544.746)"/>
            <path id="Path_3483" d="M58.812 580.714a.853.853 0 0 0-.339-.091 4.943 4.943 0 0 1-1.244-.341 1.61 1.61 0 0 0-.8-.113 6.408 6.408 0 0 0-2.035.538 3.016 3.016 0 0 1-.763.3 2.406 2.406 0 0 0-1.158.763c-.812.842-1.613 1.695-2.419 2.543a9.875 9.875 0 0 0-2.04 3.107 4.593 4.593 0 0 0-.445 2.148 16.4 16.4 0 0 0 .39 2.523 7.147 7.147 0 0 0 1.09 2.683 2.4 2.4 0 0 1 .272.517 4.6 4.6 0 0 0 1.52 1.892 11.024 11.024 0 0 0 2.363 2.375 1.683 1.683 0 0 0 .633.272c.153.041.307-.028.312-.254-.356-.274-.736-.535-1.083-.838-.377-.334-.718-.706-1.08-1.055-.279-.267-.568-.527-.851-.791a7.338 7.338 0 0 0-.457-.938 4.407 4.407 0 0 1-.618-1.5c-.155-.641-.294-1.288-.507-1.911a12.632 12.632 0 0 1-.623-3.181 4.591 4.591 0 0 1 .545-2.464 11.412 11.412 0 0 1 2.507-3.05 2.837 2.837 0 0 1 .59-.372 4.3 4.3 0 0 0 .623-.323 4.941 4.941 0 0 1 2.283-.843 2.642 2.642 0 0 1 1.6.188 10.519 10.519 0 0 1 2.587 1.589 8.287 8.287 0 0 1 2.053 2.371c.422.786.788 1.6 1.173 2.406.17.351.323.7.483 1.058a2.8 2.8 0 0 1-.36 1.66 1.918 1.918 0 0 0-.135.672c.085.078.17.158.254.238.008-.073.013-.148.028-.22a.286.286 0 0 1 .054-.09c.042.036.116.068.124.113.028.142.034.294.049.439a2.728 2.728 0 0 1-.263 1.151.823.823 0 0 1-.157-.74c.052-.219.108-.435.165-.652l-.254-.238a3.716 3.716 0 0 0-.219 2.566 1.571 1.571 0 0 0-.471.938c-.282.264-.555.54-.855.786a4.066 4.066 0 0 0-1.028 1.1 2.814 2.814 0 0 1-1.478.659 7.217 7.217 0 0 0-3.766 1.76c-.173.148-.341.3-.548.48a2.986 2.986 0 0 0 .387.484c.236.2.511.357.762.542a3.789 3.789 0 0 0 3.236.6l.457-.1a2.992 2.992 0 0 0 1.651-.476c.325-.15.656-.294.975-.458.088-.044.134-.163.2-.248s.161-.153.24-.23a.3.3 0 0 0 .414-.086 4.637 4.637 0 0 0 .3-.6l.232-.237a2.574 2.574 0 0 0 1.29-1.093 4.2 4.2 0 0 1 .354-.45 2.027 2.027 0 0 0 .473-1.261l-.245-.246c.039-.039.072-.07.1-.1-.033.028-.065.059-.1.1l.245.246.47-.245.246-.918a1.023 1.023 0 0 0 .22-.706 6.806 6.806 0 0 0 .336-2.678 1.077 1.077 0 0 1 .142-.267 1.974 1.974 0 0 0 .551-1.815c-.044-.346-.059-.7-.106-1.042a3.635 3.635 0 0 0-.749-1.925 5 5 0 0 0-1.137-1.163 1.426 1.426 0 0 1-.442-.378 6.309 6.309 0 0 0-1.523-1.435 3.416 3.416 0 0 1-.528-.458 20.194 20.194 0 0 0-2.362-2.1 9.546 9.546 0 0 0-1.8-1.081m4.255 13.668a1.977 1.977 0 0 1-.108.3 1.977 1.977 0 0 0 .108-.3m-.4.709c.042-.042.08-.085.117-.13-.038.046-.075.088-.117.13a1.521 1.521 0 0 1-.062.466 1.521 1.521 0 0 0 .062-.466" class="cls-3" transform="translate(18.475 -545.362)"/>
            <path id="Path_3484" d="M144.647 574.114a8.023 8.023 0 0 0 .964 2.851c.21.374.409.749.586 1.137a3.8 3.8 0 0 0 .659.961 10.058 10.058 0 0 0 4.162 2.561 4.6 4.6 0 0 0 2.435.267 10.807 10.807 0 0 0 2.138-.644c1.1-.453 1.967-1.275 3.017-1.8.269-.331.533-.669.816-.99a2.167 2.167 0 0 1 .373-.279.955.955 0 0 0 .413-.8 4.045 4.045 0 0 1 .042-.417c.077-.049.106-.086.14-.086.15-.01.346.052.44-.018a.9.9 0 0 0 .305-.471 2.107 2.107 0 0 0 .039-.807 3.862 3.862 0 0 1 .17-1.832 5.807 5.807 0 0 0 .351-2.292c-.049-.463-.137-.922-.212-1.38a8 8 0 0 0-.868-2.525 12.432 12.432 0 0 0-2.239-2.676 2.1 2.1 0 0 0-.494-.315c-.238-.132-.494-.241-.726-.383a6.173 6.173 0 0 0-2.771-.9 15.084 15.084 0 0 0-1.757-.081 10.565 10.565 0 0 0-3.021.416c-.67.228-1.328.479-1.993.726a2.841 2.841 0 0 0-1.357 1.067 10.445 10.445 0 0 0-1.161 2.282 7.782 7.782 0 0 0-.634 3.179 30.18 30.18 0 0 0 .183 3.251m1.062-.882a14.229 14.229 0 0 0 .21-2.2 8.211 8.211 0 0 1 1.928-4.666 3.467 3.467 0 0 1 2.756-1.059 7.254 7.254 0 0 1 .931.116 1.116 1.116 0 0 1 .736.338 4.946 4.946 0 0 0 1.244.868c.431.267.868.533 1.28.83a6.258 6.258 0 0 1 2.285 2.748 12.07 12.07 0 0 1 .693 1.972 4.9 4.9 0 0 1-.148 2.525 10.356 10.356 0 0 1-1.9 3.459 3.694 3.694 0 0 1-.683.639 8.217 8.217 0 0 1-2.6 1.334 10.577 10.577 0 0 1-1.062.219 4.347 4.347 0 0 1-3.021-1.016 15.885 15.885 0 0 1-1.22-1.259 2.174 2.174 0 0 1-.543-1.019 2.967 2.967 0 0 0-.233-.656 10.118 10.118 0 0 1-.659-2.826.858.858 0 0 1 0-.347" class="cls-3" transform="translate(79.622 -556.067)"/>
            <path id="Path_3485" d="M81.993 632.353a16.675 16.675 0 0 1 2.557-2.027 2.256 2.256 0 0 0 .851-.938c.114-.246.24-.489.334-.744a2.422 2.422 0 0 1 .6-.987 1.427 1.427 0 0 0 .357-.584 5.665 5.665 0 0 0 .343-1.695 6.158 6.158 0 0 0-.041-1.84 1.008 1.008 0 0 1-.015-.233 1.028 1.028 0 0 1 .431-1.016.817.817 0 0 0 .4-.794 4.477 4.477 0 0 0-1.168-2.853 17.26 17.26 0 0 1-1.732-2.042 4.132 4.132 0 0 0-1.727-1.357 4.24 4.24 0 0 1-1.041-.532.964.964 0 0 0-.767-.232 1.681 1.681 0 0 1-1-.261 3.35 3.35 0 0 0-2.283-.311 11.758 11.758 0 0 1-1.388.243 4.54 4.54 0 0 0-1.846.716 13.487 13.487 0 0 0-2.473 1.962c-.5.5-1.052.92-1.109 1.706a3.023 3.023 0 0 1-.326.741 6.526 6.526 0 0 0-.54 3.293 3.55 3.55 0 0 1 .023.7 9.32 9.32 0 0 0 .758 3.978 11.978 11.978 0 0 0 .817 1.536c.021.039.137.036.21.036.021 0 .057-.057.067-.091a2.034 2.034 0 0 0-.095-1.031 17.345 17.345 0 0 1-.512-2.5c-.1-.807-.261-1.608-.422-2.406a2.993 2.993 0 0 1 .175-1.709 10.565 10.565 0 0 1 1.463-2.376 16.534 16.534 0 0 1 1.3-1.342 2.532 2.532 0 0 1 2.1-.851c.119.008.238 0 .356 0 .157 0 .313.006.471 0a2.634 2.634 0 0 1 1.761.535c.313.233.662.417.985.636a8.939 8.939 0 0 1 3.143 3.242 9.491 9.491 0 0 1 .837 4.294 2.14 2.14 0 0 1-.042.227 11.8 11.8 0 0 1-.805 2.179 4.548 4.548 0 0 1-3.024 2.4c-.794.215-1.6.395-2.4.6a3.171 3.171 0 0 1-1.856-.029c-.3-.1-.59-.2-.892-.284s-.605-.161-.91-.223a1.065 1.065 0 0 0-.349.021.36.36 0 0 0-.261.533 6.2 6.2 0 0 0 2.823 2.189 7.522 7.522 0 0 0 5.079.013 1.978 1.978 0 0 0 .783-.491" class="cls-3" transform="translate(32.866 -524.119)"/>
            <path id="Path_3486" d="M84.8 601.727a3.268 3.268 0 0 1-1.509 1.422 1.923 1.923 0 0 1-.672.178c-.313.034-.626.018-.943.025-.282.207-.571.408-.842.633a.417.417 0 0 0-.073.3c0 .049.1.126.166.139.54.093 1.081.2 1.624.254a4.307 4.307 0 0 0 2.608-.566 6.741 6.741 0 0 0 2.906-3.412 5.326 5.326 0 0 1 .638-1.372 1.226 1.226 0 0 0 .148-.55 7.194 7.194 0 0 1 .219-1.377 2.76 2.76 0 0 0 .02-1.825 17.125 17.125 0 0 1-.4-1.7 5.729 5.729 0 0 0-1.055-2.442c-.639-.838-1.241-1.7-1.879-2.539a1.649 1.649 0 0 0-.535-.445 8.5 8.5 0 0 0-1.176-.524 12.569 12.569 0 0 0-3.246-.537 1.793 1.793 0 0 0-.468.021c-.877.2-1.776.287-2.644.546a4.231 4.231 0 0 0-2.053 1.073 5.548 5.548 0 0 1-.556.429 9.925 9.925 0 0 0-2.308 2.627 2.316 2.316 0 0 0-.313.987 10.413 10.413 0 0 0 .246 3.009 5.272 5.272 0 0 0 .528 1.538 23.63 23.63 0 0 0 1.491 2.233 18.29 18.29 0 0 0 2.566 2.559 4.584 4.584 0 0 0 3.037 1.075.726.726 0 0 0 .225-.057.367.367 0 0 0 .179-.567c-.158-.168-.347-.31-.524-.465a1.746 1.746 0 0 1-1.285-.468c-.794-.69-1.652-1.308-2.422-2.021a5.873 5.873 0 0 1-1.476-7.387 1.881 1.881 0 0 1 1.571-1.083c.351-.024.7-.083 1.049-.126a1.462 1.462 0 0 1 .351-.036 16.7 16.7 0 0 1 3.471.582 2.669 2.669 0 0 1 1.028.545A21.314 21.314 0 0 1 84.05 594a6 6 0 0 1 1.373 3.761c.01.581 0 1.163 0 1.747a4.835 4.835 0 0 1-.618 2.221" class="cls-3" transform="translate(34.172 -540.796)"/>
            <path id="Path_3487" d="M62.353 647.184c-.039-.346-.095-.69-.13-1.036-.086-.86-.556-1.612-.706-2.46a1.537 1.537 0 0 0-.4-.7 6.976 6.976 0 0 0-.933-.889 18.621 18.621 0 0 0-3.3-2.026 2.508 2.508 0 0 0-2.143-.248 1.068 1.068 0 0 1-.347.054 5.439 5.439 0 0 0-2.016.612c-.675.316-1.362.6-2.04.905a6.78 6.78 0 0 0-.739.369 10.276 10.276 0 0 0-2.443 1.983 5.591 5.591 0 0 0-1.328 2.176l.243.483c.471-.62.959-1.23 1.408-1.867a6.375 6.375 0 0 1 3.1-2.223c.3-.111.6-.183.891-.31a8.456 8.456 0 0 1 3.583-.471 4.513 4.513 0 0 1 2.306.811.93.93 0 0 1 .473.767 3.705 3.705 0 0 0 .455 1.554 2.619 2.619 0 0 1 .269 1.243c0 .66.034 1.323.007 1.983a13.412 13.412 0 0 1-.194 1.5 12.707 12.707 0 0 1-.9 2.892 4.964 4.964 0 0 1-3.047 2.74 6.061 6.061 0 0 0-.776.271 6.919 6.919 0 0 1-3.771.678 3.586 3.586 0 0 1-2.142-.878 11.114 11.114 0 0 1-2.929-3.608 3.065 3.065 0 0 1-.374-1.563c.119-.24.245-.476.352-.719a15.316 15.316 0 0 1 1.194-2.471 1.225 1.225 0 0 0 .1-.328l-.243-.483c-.338.6-.69 1.2-1.011 1.809a4.707 4.707 0 0 0-.626 1.482 2.409 2.409 0 0 0-.25 1.127c0 .7-.041 1.4.007 2.1a6.706 6.706 0 0 0 2.29 4.461 3.449 3.449 0 0 0 .695.437 8.753 8.753 0 0 0 2.2.835 8.146 8.146 0 0 0 4.307.132 2.742 2.742 0 0 1 1.393-.14.7.7 0 0 0 .453-.057 5.506 5.506 0 0 1 1.24-.35 4.49 4.49 0 0 0 1.205-.457 8.577 8.577 0 0 1 1.688-.817 3.814 3.814 0 0 0 2.114-2.234 15.664 15.664 0 0 0 .582-1.647 3.454 3.454 0 0 0 .2-.907 14.58 14.58 0 0 0 .049-4.05 3.981 3.981 0 0 1-.015-.465" class="cls-3" transform="translate(16.186 -507.801)"/>
            <path id="Path_3488" d="M139.056 614.157a10.426 10.426 0 0 0 6.485-3.22c.543-.561 1.055-1.147 1.569-1.736a4.942 4.942 0 0 0 .625-.84 13.323 13.323 0 0 0 1.166-4.006 2.028 2.028 0 0 0-.018-.463c-.013-.31-.044-.62-.038-.93a7.788 7.788 0 0 0-.652-3.055 3.6 3.6 0 0 0-.55-1.148c-.758-.819-1.173-1.962-2.3-2.433a.275.275 0 0 1-.086-.077 7.538 7.538 0 0 0-2.295-1.58 4.744 4.744 0 0 0-2.965-.445c-.889.137-1.76.388-2.644.573a5.177 5.177 0 0 0-3 1.925c-.1.121-.2.243-.3.362-.281.325-.555.652-.842.97a6.694 6.694 0 0 0-1.82 2.941 2.455 2.455 0 0 1-.163.439 12.088 12.088 0 0 0-.783 4.322c0 .233-.013.468 0 .7a4.327 4.327 0 0 0 .877 2.823 4.582 4.582 0 0 1 .442.82 5.155 5.155 0 0 0 1.2 1.566c.607.491 1.225.967 1.851 1.437a5.99 5.99 0 0 0 4.234 1.055m-6.049-4.98c-.5-.548-.961-1.124-1.4-1.714a1.263 1.263 0 0 1-.2-.656 7.633 7.633 0 0 1 .338-3.331c.31-.754.546-1.536.817-2.306a1.7 1.7 0 0 0 .124-.326 3.62 3.62 0 0 1 1.013-1.912 15.377 15.377 0 0 0 1.677-2.093 1.836 1.836 0 0 1 1.279-.762c.61-.139 1.238-.2 1.851-.325a2.7 2.7 0 0 1 1.5.116c.517.184 1.041.352 1.566.514a3.289 3.289 0 0 1 1.894 1.647c.442.776.829 1.584 1.267 2.363a2.8 2.8 0 0 1 .364 1.091c.078.732.178 1.458.269 2.189a8.517 8.517 0 0 1-1.019 4.04 2.4 2.4 0 0 1-.391.574c-.5.493-1.01.975-1.527 1.448a6.633 6.633 0 0 1-2.812 1.4 8.131 8.131 0 0 1-1.158.214 1.729 1.729 0 0 1-.7 0 16.977 16.977 0 0 1-3.921-1.53 3.445 3.445 0 0 1-.83-.638" class="cls-3" transform="translate(70.775 -536.526)"/>
            <path id="Path_3489" d="M95.406 648.094a4.783 4.783 0 0 1-1.235-1.23 13.526 13.526 0 0 0-1.179-1.448 7.111 7.111 0 0 0-1.145-1 7.368 7.368 0 0 0-3.525-1.171 5.546 5.546 0 0 0-4.384.83c-.139.072-.279.147-.409.227a6.662 6.662 0 0 0-2.122 1.991c-.367.553-.767 1.086-1.1 1.655a6.841 6.841 0 0 0-1.121 2.794 2.821 2.821 0 0 0-.225 1.652v1.626a1.409 1.409 0 0 0 .23.944c.1.535.188 1.073.308 1.6a1.927 1.927 0 0 0 .282.634 15.537 15.537 0 0 0 2.21 2.566 11.328 11.328 0 0 0 3.342 1.921 11.939 11.939 0 0 0 2.975.682 1.766 1.766 0 0 0 1.031-.181 7.186 7.186 0 0 0 .8-.1.772.772 0 0 0 .628-.6h.463c.111.033.232.119.328.095a1.636 1.636 0 0 0 1.386-1.106c.042-.148.106-.294.158-.44-.225.109-.452.214-.685.3.233-.086.46-.191.685-.3.082-.143.16-.29.241-.437l.726-.918a.935.935 0 0 0 1.068-.7c.179-.551.38-1.093.573-1.641.083-.377.152-.762.253-1.135a3.34 3.34 0 0 1 .8-1.892.463.463 0 0 0 .111-.2 4.43 4.43 0 0 0-1.461-5.03m-3.243 6.878c-.391.077-.563.378-.718.695-.227.4-.457.8-.685 1.2a3.564 3.564 0 0 1-1.722 1.347 2.318 2.318 0 0 1-1.153.129c-.308-.051-.62-.1-.923-.163-.92-.2-1.835-.409-2.756-.6a6.857 6.857 0 0 1-2.378-.951 2.649 2.649 0 0 0-1.168-.515.855.855 0 0 1-.7-.558c-.191-.424-.359-.858-.537-1.288l-.007-2.334c.175-.675.347-1.351.524-2.026a.775.775 0 0 1 .088-.215 17.41 17.41 0 0 1 1.189-1.727 14.912 14.912 0 0 1 1.752-1.719 3.6 3.6 0 0 1 2.215-.962 18.3 18.3 0 0 0 2.091-.3 2.294 2.294 0 0 1 1.483.246 6.846 6.846 0 0 1 2.836 2.546c.292.5.589 1.006.881 1.512a3.331 3.331 0 0 1 .411 1.677c.008.775-.068 1.546-.078 2.323a1.959 1.959 0 0 1-.643 1.682" class="cls-3" transform="translate(38.279 -505.616)"/>
            <path id="Path_3490" d="M129.436 583.582a5.4 5.4 0 0 0 .148 1.151 9.238 9.238 0 0 0 3.117 4.826 5.983 5.983 0 0 1 .646.5 5.355 5.355 0 0 0 2.3 1.357 4.9 4.9 0 0 0 3.224.16 3.519 3.519 0 0 0 1.745-.905 8 8 0 0 0 2.915-2.97 12.546 12.546 0 0 0 1.217-3.143 6.992 6.992 0 0 0 .236-2.639c0-.406.024-.8-.007-1.181a3.7 3.7 0 0 0-.188-1.028 7.865 7.865 0 0 0-2.5-3.459 1.689 1.689 0 0 0-.517-.272 6.731 6.731 0 0 1-1.683-.82 1.14 1.14 0 0 0-.894-.178 1.348 1.348 0 0 1-.92-.1 4.519 4.519 0 0 0-2.06-.378 4.144 4.144 0 0 0-3.458 1.132 5.811 5.811 0 0 1-1.262.85 2.909 2.909 0 0 0-1.642 2.008 10.069 10.069 0 0 0-.439 2.986c.015.7-.007 1.4.02 2.1m.956-.564c.01-.157 0-.311 0-.467h.046c0-.388-.02-.776 0-1.163a4.424 4.424 0 0 1 2.146-3.671 2.447 2.447 0 0 1 1-.276 4.077 4.077 0 0 1 2.681.661c.576.331 1.155.656 1.75.954a3.981 3.981 0 0 1 1.491 1.292 6.681 6.681 0 0 1 1.045 2.566 6.864 6.864 0 0 1-.9 4.806 2.561 2.561 0 0 1-1.375 1.2 9.151 9.151 0 0 1-2.628.582c-.393.033-.788.034-1.178.057a1.875 1.875 0 0 1-2.05-1.363 4.252 4.252 0 0 0-.967-1.836 4.364 4.364 0 0 1-1.068-3.345" class="cls-3" transform="translate(70.128 -548.926)"/>
            <path id="Path_3491" d="M126.971 590.951a6.607 6.607 0 0 0 .31.877 3.757 3.757 0 0 1 .254.768 5.708 5.708 0 0 1-1.165 4.389 6.28 6.28 0 0 0-.7.933 2.87 2.87 0 0 1-1.386 1.214c-.488.243-.977.5-1.479.713a12.611 12.611 0 0 1-1.222.409 1.085 1.085 0 0 1-.9-.168 2.686 2.686 0 0 1-.943-1.019c-.391-.675-.8-1.337-1.212-2a10.85 10.85 0 0 1-1.2-2.779 5.6 5.6 0 0 1-.134-2.422 3.4 3.4 0 0 1 .76-1.682 6.907 6.907 0 0 1 1.471-1.334 9.7 9.7 0 0 1 3.642-1.271 1.885 1.885 0 0 1 .7.018c1.349.287 1.517.062 2.61 1.168.026.028.057.065.091.069a.761.761 0 0 0 .31 0c.046-.011.07-.13.077-.2a1.329 1.329 0 0 0-.24-.767 5.284 5.284 0 0 0-5.037-2.378c-.468.06-.936.121-1.395.219a7.912 7.912 0 0 0-2.429.878 4.188 4.188 0 0 0-1.812 1.437 1.732 1.732 0 0 1-.533.449 4.478 4.478 0 0 0-1.018.961 2.937 2.937 0 0 1-1.091 1.036 1.051 1.051 0 0 0-.424.535 6.012 6.012 0 0 0-.493 4.513c.122.367.21.747.331 1.116a5.031 5.031 0 0 0 1.634 2.5 8.022 8.022 0 0 1 1.646 1.66 1.91 1.91 0 0 0 .709.6c.556.292 1.1.6 1.665.878a2.141 2.141 0 0 0 .675.168 5.989 5.989 0 0 0 .706.007v.031c.586-.057 1.169-.145 1.758-.16a2.27 2.27 0 0 0 1.006-.271c.556-.287 1.1-.605 1.678-.84a4.833 4.833 0 0 0 2.171-1.734c.584-.825 1.173-1.649 1.68-2.533a8.841 8.841 0 0 0 .9-2.99 2.51 2.51 0 0 0-.021-.93 7.91 7.91 0 0 0-.864-2.409 1.483 1.483 0 0 0-.3-.349.5.5 0 0 0-.714.142 1.055 1.055 0 0 0-.095.558" class="cls-3" transform="translate(59.229 -542.025)"/>
            <path id="Path_3492" d="M172.951 653.207a.993.993 0 0 0-.3-.359c-.432-.4-.856-.8-1.308-1.174a3.729 3.729 0 0 0-1.546-.817 4.52 4.52 0 0 1-1.295-.54 3.531 3.531 0 0 0-1.685-.478 10.06 10.06 0 0 0-2.815.139c-.227.057-.47.044-.7.078-.506.077-1.008.15-1.507.249a2.885 2.885 0 0 0-1.737 1.125c-.308.4-.621.8-.894 1.228a5.291 5.291 0 0 0-.532 1.039c-.219.581-.369 1.186-.571 1.775a13.332 13.332 0 0 0-.3 1.951 8.705 8.705 0 0 0-.007 2.546 8.4 8.4 0 0 0 1.447 3.525 5.905 5.905 0 0 0 2.285 1.969 6.56 6.56 0 0 0 3.4.918 6.135 6.135 0 0 0 3-.8c.486-.25.957-.532 1.429-.814a5.428 5.428 0 0 0 2.515-2.83 6.062 6.062 0 0 1 .866-1.634 3.1 3.1 0 0 0 .729-1.691 6.045 6.045 0 0 0 .233-3.2 12.117 12.117 0 0 0-.719-2.2m-3.65 6.33a6.008 6.008 0 0 1-1.6 2.805c-.285.267-.542.559-.833.82a3.191 3.191 0 0 1-2.233.889 5 5 0 0 1-4-1.341c-.354-.3-.683-.634-1.057-.98a3.079 3.079 0 0 0-.447-1.391 5.688 5.688 0 0 1-.284-2.862c.139-.724.281-1.447.457-2.161a4.747 4.747 0 0 1 1.853-2.875 3.158 3.158 0 0 1 3.326-.173c.582.323 1.165.646 1.722 1.006a7.509 7.509 0 0 1 3.073 3.854 3.884 3.884 0 0 1 .02 2.409" class="cls-3" transform="translate(87.958 -501.409)"/>
            <path id="Path_3493" d="M124 608.554c-.592.2-1.2.349-1.812.5a2.252 2.252 0 0 0-1.047.506 10.016 10.016 0 0 0-1.4 1.244 1.375 1.375 0 0 1-.475.326 7.96 7.96 0 0 0-1.918 1.7.463.463 0 0 0-.119.2 20.007 20.007 0 0 0-1.018 3.213 5 5 0 0 0 1.381 4.495c.5.489.964 1.016 1.445 1.523a9.63 9.63 0 0 0 .864.786 11.11 11.11 0 0 0 4.506 2.172 6.091 6.091 0 0 0 2.794.052c.8-.176 1.6-.383 2.414-.507a4.3 4.3 0 0 0 2.549-1.551 6.449 6.449 0 0 0 1.205-2.368 7.518 7.518 0 0 0-.737-6.609 5.906 5.906 0 0 0-1.7-1.747c-.109-.077-.341.033-.388.166a.808.808 0 0 0 .1.776c.354.514.726 1.013 1.1 1.517a8.342 8.342 0 0 1 1.194 2.26 2.846 2.846 0 0 1 0 1.83c-.083.259-.2.509-.269.771a3.938 3.938 0 0 1-1.669 2.439c-.132.083-.236.2-.364.3a6.27 6.27 0 0 1-3.636 1.171 1.172 1.172 0 0 1-.465-.06 1.275 1.275 0 0 1-.6-.334 3.729 3.729 0 0 0-1.269-1.016 5.984 5.984 0 0 1-1.667-1.623 23.322 23.322 0 0 1-1.421-2.414 3.778 3.778 0 0 1-.527-2.194 4.63 4.63 0 0 1 .39-2.2 5.73 5.73 0 0 1 2.326-2.566 3.832 3.832 0 0 1 2.59-.6 5.964 5.964 0 0 1 2.241.679 4.555 4.555 0 0 0 .982.38.91.91 0 0 0 .794-.062c.127-.085.042-.39-.225-.713a5.271 5.271 0 0 0-.636-.683 11.811 11.811 0 0 0-1.474-1.161 4.586 4.586 0 0 0-4.043-.6" class="cls-3" transform="translate(61.759 -527.589)"/>
            <path id="Path_3494" d="M113.65 614.963a10.006 10.006 0 0 0 1.85-.259 10.143 10.143 0 0 0 1.66-.846 4.239 4.239 0 0 0 .512-.287 1.454 1.454 0 0 0 .424-.39 7.375 7.375 0 0 0 .907-1.613 3.6 3.6 0 0 1 .853-.607 2.244 2.244 0 0 0 1.36-1.191 1.191 1.191 0 0 1 .215-.274 4.321 4.321 0 0 0 1.129-2.616 6.51 6.51 0 0 0 .011-2.186 5.648 5.648 0 0 1-.031-.928 4.9 4.9 0 0 0-.072-.806 1.6 1.6 0 0 0-.577-.984.6.6 0 0 0-.664-.013.454.454 0 0 0-.191.506 8.852 8.852 0 0 1 .289 1.24 10.833 10.833 0 0 1-.259 3.918 9.671 9.671 0 0 1-1.106 2.274 11.858 11.858 0 0 1-1.2 1.426 7.434 7.434 0 0 0-.97.421 1.639 1.639 0 0 1-1.889-.077 7.381 7.381 0 0 0-2.12-.99 12.2 12.2 0 0 1-2.564-1.4 3.119 3.119 0 0 1-.612-.545 1.96 1.96 0 0 1-.568-1.249 7.625 7.625 0 0 1 2.967-6.889 4.025 4.025 0 0 1 1.47-.718 10.5 10.5 0 0 1 3.393-.186 2.075 2.075 0 0 1 .462.1 4.536 4.536 0 0 1 1.874.939 1.526 1.526 0 0 0 .827.418.342.342 0 0 0 .388-.189.4.4 0 0 0-.007-.326 2.84 2.84 0 0 0-1-.964c-.6-.373-1.186-.765-1.8-1.109a8.492 8.492 0 0 0-2.587-1.1 6.436 6.436 0 0 0-4.464.5c-.277.152-.569.269-.843.421a7.251 7.251 0 0 0-1.952 1.487c-.491.555-.972 1.12-1.458 1.678a.868.868 0 0 0-.258.747 1.828 1.828 0 0 1-.155 1.019c-.179.493-.158 1.089-.775 1.336a5.529 5.529 0 0 0-.907 2.973 8.316 8.316 0 0 0 .13 1.391 4.039 4.039 0 0 0 .987 2.451 15.383 15.383 0 0 0 2.991 2.417.973.973 0 0 0 .711.228 14.114 14.114 0 0 1 2.352.7 2.54 2.54 0 0 0 1.267.153" class="cls-3" transform="translate(54.855 -534.55)"/>
            <path id="Path_3495" d="M80.964 561.919c-.5.925-1 1.845-1.5 2.771a2.126 2.126 0 0 0-.163.437 47.168 47.168 0 0 0-1.032 5.141 1.491 1.491 0 0 0 .16 1.016 8.453 8.453 0 0 0 5.7 4.18 4.96 4.96 0 0 0 2.107.008 2.338 2.338 0 0 0 .656-.251.317.317 0 0 0 .168-.395c-.06-.127-.183-.29-.3-.315a1.817 1.817 0 0 0-.69.011 3.72 3.72 0 0 1-2.187-.307 6.478 6.478 0 0 1-3.353-3.441.7.7 0 0 1 .034-.669 7.59 7.59 0 0 1 1.5-1.939 17.107 17.107 0 0 1 3.034-2.2 1.346 1.346 0 0 1 .432-.186 11.334 11.334 0 0 1 2.45-.3 2.451 2.451 0 0 1 1.324.426 5.554 5.554 0 0 1 2.086 2.613 4.379 4.379 0 0 1-.341 3.709 3.365 3.365 0 0 1-1.633 1.621 1.765 1.765 0 0 0-.925.86.7.7 0 0 0-.041.442c.049.171.233.193.393.161a3.424 3.424 0 0 0 .791-.209 10.632 10.632 0 0 0 2.924-1.928 4.59 4.59 0 0 0 1.468-3.565 7.269 7.269 0 0 0-.3-2.058 6.088 6.088 0 0 0-1.28-2.722 6.781 6.781 0 0 1-.939-1.474 2.452 2.452 0 0 0-1-1.114q-.252-.149-.494-.318a7.226 7.226 0 0 0-3.722-1.321 2.792 2.792 0 0 1-.466-.055 6.2 6.2 0 0 0-4 .6 1.772 1.772 0 0 0-.858.768" class="cls-3" transform="translate(37.839 -557.806)"/>
            <path id="Path_3496" d="M9.458 616.809a5.441 5.441 0 0 0 2.768 1.885 7.7 7.7 0 0 0 3.363.429 15.5 15.5 0 0 0 1.863-.277 6.575 6.575 0 0 0 3.042-1.458 10.424 10.424 0 0 0 3.4-5.328c.02-.077.042-.152.069-.223a7.317 7.317 0 0 0 .3-3.451c-.08-.654-.176-1.308-.277-1.959a3.051 3.051 0 0 0-.186-.674 8.656 8.656 0 0 0-1.78-2.853 4.057 4.057 0 0 0-.913-.719 6.761 6.761 0 0 0-3.88-1.006h-.525a4.386 4.386 0 0 0-2.389.494 4.665 4.665 0 0 1-.881.323 2.339 2.339 0 0 0-1.253.824 2.341 2.341 0 0 1-.912.716 4.87 4.87 0 0 0-1.9 1.7 7.4 7.4 0 0 1-.6.863c-.923.982-1.14 2.282-1.621 3.463a.978.978 0 0 0-.051.344 15.1 15.1 0 0 0 .065 2.675 2.012 2.012 0 0 1 .085.69 3.226 3.226 0 0 0 .329 1.691 1.379 1.379 0 0 0 .742.86 2.915 2.915 0 0 1 1.138.992m-1.218-4.7a5.986 5.986 0 0 0-.119-.69 1.218 1.218 0 0 1-.059-.343 11.348 11.348 0 0 1 .489-2.972.951.951 0 0 1 .657-.613 1.763 1.763 0 0 0 1.132-.956 2.889 2.889 0 0 1 .848-.954 2.966 2.966 0 0 0 .512-.478 8.164 8.164 0 0 1 2.186-1.564 1.876 1.876 0 0 1 1.019-.246 1.149 1.149 0 0 1 1.031.453 2.477 2.477 0 0 0 1.1.845.687.687 0 0 0 .1.054 6.873 6.873 0 0 1 3.381 3.72 6.449 6.449 0 0 1-.471 5.508c-.263.434-.533.86-.8 1.293a2.582 2.582 0 0 1-1.138.98 8.24 8.24 0 0 1-3.508.9c-.432.005-.864 0-1.3 0-.55 0-1.1.008-1.652 0a2.3 2.3 0 0 1-1.6-.641c-.17-.16-.359-.3-.524-.465a.955.955 0 0 1-.276-.37 18.228 18.228 0 0 1-1.018-3.459" class="cls-3" transform="translate(-7.072 -532.114)"/>
            <path id="Path_3497" d="M75.877 618.6a8.41 8.41 0 0 1 .816-.666 2.829 2.829 0 0 0 .734-.742 15.487 15.487 0 0 1 1.094-1.652 5.594 5.594 0 0 0 1.042-2.928c.008-.23.082-.458.108-.69a4.121 4.121 0 0 0 .077-.923c-.07-.771-.08-1.544-.158-2.318a5.518 5.518 0 0 0-.8-2.287 10.341 10.341 0 0 0-1.275-1.669 4.346 4.346 0 0 0-2.15-1.349 1.7 1.7 0 0 1-.621-.3 9.923 9.923 0 0 0-2.947-1.425 4.4 4.4 0 0 0-4.431.685c-.122.1-.253.186-.369.292a2.878 2.878 0 0 1-.988.613 3.306 3.306 0 0 0-1.246.858 7.274 7.274 0 0 1-.68.649 2.353 2.353 0 0 0-.75 1.023c-.109.289-.289.554-.388.846a12.589 12.589 0 0 0-.556 1.9 15.579 15.579 0 0 0-.072 1.975 9.668 9.668 0 0 0 .883 3.708 2.038 2.038 0 0 0 .24.4 15.767 15.767 0 0 0 1.8 2.151 10.608 10.608 0 0 0 1.078.905.955.955 0 0 0 .781.163.393.393 0 0 0 .3-.533c-.106-.2-.245-.395-.372-.59-.434-.39-.863-.788-1.306-1.168a8.224 8.224 0 0 1-1.822-2.548 3.243 3.243 0 0 1-.362-1.1 4.91 4.91 0 0 1-.1-2.3 1.472 1.472 0 0 0 0-.463 5.62 5.62 0 0 1 4.089-5.368 1.783 1.783 0 0 1 .807-.069 3.64 3.64 0 0 1 1.427.512c.493.316.988.626 1.46.971a12.806 12.806 0 0 1 3.967 4.221 5.988 5.988 0 0 1 .827 2.751 9.084 9.084 0 0 1-1.1 4.585 3.154 3.154 0 0 1-1.461 1.463 6.443 6.443 0 0 1-2 .651 4.837 4.837 0 0 1-3.469-.721 4.752 4.752 0 0 0-.571.1.273.273 0 0 0-.113.393 1.662 1.662 0 0 0 .334.318 8.591 8.591 0 0 0 5.061 1.254 4.054 4.054 0 0 0 1.244-.318 5.3 5.3 0 0 0 1.949-1.271" class="cls-3" transform="translate(27.787 -531.994)"/>
            <path id="Path_3498" d="M44.535 589c-.054-.078-.2-.1-.318-.129a3.658 3.658 0 0 1-1.354-.68 8.266 8.266 0 0 0-4.379-1.531c-.47-.037-.938-.088-1.4-.168a2.374 2.374 0 0 0-.928.039 10.321 10.321 0 0 0-3.311 1.724 1.286 1.286 0 0 0-.313.343c-.434.6-.9 1.184-1.284 1.815a7.144 7.144 0 0 0-1.008 2.468 18.4 18.4 0 0 0-.137 4.18 2.856 2.856 0 0 0 .316.99c.207.458.46.9.68 1.326a.8.8 0 0 1-.059.246.628.628 0 0 0-.033.85 5.223 5.223 0 0 0 .8 1c.682.533 1.256 1.173 1.884 1.757a4.585 4.585 0 0 0 2.889 1.147 8.125 8.125 0 0 0 3.252-.387c.338-.113.675-.217 1.018-.3a5.253 5.253 0 0 0 1.721-.737c.812-.543 1.589-1.135 2.352-1.747a6.473 6.473 0 0 0 1.52-1.915c.248-.44.524-.866.752-1.319a4.11 4.11 0 0 0 .607-2.893 9.415 9.415 0 0 1-.057-1.277 3.1 3.1 0 0 0-.209-1.016 10.932 10.932 0 0 0-1.287-2.213c-.5-.621-1.249-.931-1.716-1.569m-1.213 6.338a6.85 6.85 0 0 1-3.79 6.575 7.63 7.63 0 0 1-1.517.625 3.782 3.782 0 0 1-2.637-.223 13.557 13.557 0 0 1-1.993-1 9.7 9.7 0 0 1-1.419-1.21.766.766 0 0 1-.206-.52 6.439 6.439 0 0 0-.4-2.045 5.134 5.134 0 0 1-.194-2.752c.16-.674.127-1.385.281-2.071a5.272 5.272 0 0 1 .709-1.835c.13-.193.235-.4.347-.607a5.309 5.309 0 0 1 2.177-2.067 3.1 3.1 0 0 1 2.494-.241c.414.121.833.22 1.244.343a3.34 3.34 0 0 1 2.016 1.318 2.138 2.138 0 0 0 .357.462 9.748 9.748 0 0 1 1.766 2.59 4.992 4.992 0 0 1 .767 2.66" class="cls-3" transform="translate(7.428 -541.378)"/>
            <path id="Path_3499" d="M76.768 644.441c-.316-.75-.709-1.468-1.1-2.186a3.568 3.568 0 0 0-1.272-1.347 11.209 11.209 0 0 0-3.82-1.453 2.4 2.4 0 0 0-.933-.008c-.762.171-1.51.4-2.265.612a3.466 3.466 0 0 0-1.657.227 2.6 2.6 0 0 0-1.2.7 1.147 1.147 0 0 0 .434.008c.344-.13.674-.307 1.008-.466.343 0 .687-.007 1.031-.007a1.559 1.559 0 0 0 .873-.22 2.665 2.665 0 0 0 1.373.225 4.009 4.009 0 0 1 1.39.178 2.611 2.611 0 0 1 1.587 1.442 5.829 5.829 0 0 1 .612 2.46 2.915 2.915 0 0 0 .095.572 15.67 15.67 0 0 1 .042 3.937 4.19 4.19 0 0 1-.217.9 2.246 2.246 0 0 1-.785 1.135 9.071 9.071 0 0 1-3.644 1.8 4.536 4.536 0 0 1-3.779-.76c-.16-.465-.555-.463-.944-.468-.161-.065-.323-.134-.484-.2-.142-.561-.16-.573-.682-.507a8.672 8.672 0 0 1-.555-1.015c-.248-.646-.416-1.321-.67-1.964a1.9 1.9 0 0 1 .036-1.566c.266-.6.561-1.184.824-1.783.37-.846.723-1.7 1.081-2.551a.906.906 0 0 0-.675.416 24.137 24.137 0 0 0-1.75 3.011 4.145 4.145 0 0 0-.313 2.822 4.369 4.369 0 0 1 .129 1.266c0 .349-.018.7-.011 1.045a4.406 4.406 0 0 0 1.236 3.052 7.5 7.5 0 0 0 1.427 1.2 3.841 3.841 0 0 0 1.626.626c.465.056.93.134 1.39.225a3.7 3.7 0 0 0 1.163.011c.969-.116 1.941-.217 2.916-.263a3.927 3.927 0 0 0 2.049-.718c.484-.326.941-.691 1.409-1.037.241.377.365.426.579.161a2.184 2.184 0 0 1 1.014-.724.875.875 0 0 0 .541-.561 5.114 5.114 0 0 0 1.726-2.306 4.233 4.233 0 0 0 .24-2.73 19.385 19.385 0 0 0-1.073-3.193" class="cls-3" transform="translate(26.504 -507.974)"/>
            <path id="Path_3500" d="M174.092 644.777a4.979 4.979 0 0 1-.246-.771 9.33 9.33 0 0 0-1.346-2.955 1.576 1.576 0 0 0-.4-.418 5.063 5.063 0 0 1-.553-.432 4.76 4.76 0 0 0-2.091-1.254c-.219-.082-.442-.168-.662-.243a8.1 8.1 0 0 0-4.745-.011 2 2 0 0 0-.323.14 8.756 8.756 0 0 0-3.728 3.1c-.235.357-.421.747-.661 1.1a2.392 2.392 0 0 0-.359 1.783c.054.344.126.687.189 1.032a9.05 9.05 0 0 0 .233 2.094 1.77 1.77 0 0 1 .232 1.169 1.239 1.239 0 0 0 .232.719 1.316 1.316 0 0 0 .387.949 4.8 4.8 0 0 0 .877.775 8.823 8.823 0 0 0 5.218 1.543 5.718 5.718 0 0 0 3.892-1.349 3.144 3.144 0 0 1 .494-.315c.359-.235.736-.453 1.07-.719a6.653 6.653 0 0 0 2.018-2.389c.2-.424.357-.865.527-1.3a1.913 1.913 0 0 0 .064-1.261c-.1-.333-.206-.664-.315-.995m-5.312 3.247a13.428 13.428 0 0 1-1.3 1.337 3.135 3.135 0 0 1-1.85.669 7.047 7.047 0 0 1-1.993-.09 17.065 17.065 0 0 1-2.176-.481 2.447 2.447 0 0 1-1.365-1.039 1.377 1.377 0 0 0-.08-.333 4.036 4.036 0 0 1-.393-2 2.725 2.725 0 0 0 .537-1.15 5.433 5.433 0 0 1 2.385-3.334 11.959 11.959 0 0 1 1.686-1.052 4.293 4.293 0 0 1 2.761-.2 2 2 0 0 1 1.28.964 4.646 4.646 0 0 1 .8 2.4c.015.582.007 1.166.015 1.748a7.074 7.074 0 0 0 .054 1.276 1.429 1.429 0 0 1-.364 1.292" class="cls-3" transform="translate(88.758 -508.645)"/>
            <path id="Path_3501" d="M24.659 640.022a6.406 6.406 0 0 0-3.084-4.72c-.2-.116-.365-.3-.564-.419a7.274 7.274 0 0 0-.913-.524 11.181 11.181 0 0 0-2.827-.784 1.148 1.148 0 0 0-.577.041 4.822 4.822 0 0 1-1.6.342 2.2 2.2 0 0 0-.675.184c-.589.219-1.166.465-1.755.682a2.432 2.432 0 0 0-1.187.915 1.508 1.508 0 0 0-.2.536.463.463 0 0 0 .493.517 1.819 1.819 0 0 0 .946-.427 4.985 4.985 0 0 1 2.8-1.076 8.5 8.5 0 0 1 2.329.056 1.558 1.558 0 0 0 .233.015 4.28 4.28 0 0 1 2.65 1.148 2.122 2.122 0 0 1 .783 2.081c-.135.724-.246 1.455-.351 2.185a7.784 7.784 0 0 1-1.346 3.321c-.31.449-.586.922-.851 1.4a4.551 4.551 0 0 1-4.126 2.448c-.391.008-.788-.031-1.178.008a2.749 2.749 0 0 1-2.052-.719 4.452 4.452 0 0 1-1.323-1.616c-.142-.32-.325-.62-.463-.943a6.4 6.4 0 0 1-.67-2.341 12.148 12.148 0 0 1 .225-3.706 3.683 3.683 0 0 0 1.151-1.248.223.223 0 0 0-.031-.2.2.2 0 0 0-.194-.026 4.119 4.119 0 0 0-1.172 1.228 5.6 5.6 0 0 0-1.2 3.691 6.243 6.243 0 0 0 .155 1.732c.214.628.4 1.262.639 1.88a5.894 5.894 0 0 0 1.786 2.557 8.439 8.439 0 0 0 3.8 2.008c.577.111 1.137.289 1.716.388a7 7 0 0 0 2.218-.117 7.583 7.583 0 0 0 3.74-1.541 6.8 6.8 0 0 0 2.194-2.673 6.58 6.58 0 0 0 .522-1.9c.044-.461.1-.925.168-1.385a5.793 5.793 0 0 0-.031-1.97c-.067-.342-.109-.688-.173-1.032" class="cls-3" transform="translate(-6.536 -511.664)"/>
            <path id="Path_3502" d="M86.844 577.272a7.575 7.575 0 0 0-1.817 2.111 1.019 1.019 0 0 0-.134.323 12.14 12.14 0 0 0-.528 3.549 2.337 2.337 0 0 0 .439 1.3c.608.812 1.213 1.623 1.828 2.425a1.767 1.767 0 0 0 .419.406 8.376 8.376 0 0 0 3.864 1.6c.581.051 1.173.008 1.841.008.3.248.533.537.935.494a8.57 8.57 0 0 0 2.3-.411 7.08 7.08 0 0 0 2.8-1.879 6.01 6.01 0 0 0 1.321-2.559 7.745 7.745 0 0 0-.246-3.671 6.378 6.378 0 0 0-.709-1.717 17.985 17.985 0 0 0-2.567-3.311 5.42 5.42 0 0 0-1.507-1.091 2.419 2.419 0 0 0-1.807-.276c-.45.124-.912.222-1.359.354-.489.143-.964.336-1.453.466a5.455 5.455 0 0 0-1.624.659c-.651.424-1.36.771-2 1.218m4.948 1.73c.338.064.838.15 1.333.259.227.051.444.152.669.215a4.828 4.828 0 0 1 3.123 2.937c.095.212.147.444.243.656.576 1.259.028 2.243-.8 3.159a4.665 4.665 0 0 1-1.432 1 8.552 8.552 0 0 0-1.582.75 1.273 1.273 0 0 1-.793.122 16.245 16.245 0 0 1-2.448-.253 8.11 8.11 0 0 1-1.952-.78 2.554 2.554 0 0 1-1.016-1.1 13.48 13.48 0 0 1-1.013-2.721 1.62 1.62 0 0 1 .491-1.8c.269-.222.514-.478.762-.726A6.292 6.292 0 0 1 91.788 579" class="cls-3" transform="translate(41.693 -548.93)"/>
            <path id="Path_3503" d="M101.018 625.141c-.033-.152-.047-.307-.07-.46l.055-.008c-.1-.651-.214-1.3-.281-1.952a1.849 1.849 0 0 0-.7-1.293 2.591 2.591 0 0 1-.856-1.227 1.535 1.535 0 0 0-.636-.812 3.3 3.3 0 0 1-.455-.369 4.759 4.759 0 0 0-2.279-1.158c-.877-.194-1.771-.32-2.659-.468a2.071 2.071 0 0 0-1.248.25 4.922 4.922 0 0 0-.7.429 12.354 12.354 0 0 1-1.3.794 6.182 6.182 0 0 0-2.862 3.285 7.25 7.25 0 0 0-.453 4.67c.031.111.049.227.083.339a2.018 2.018 0 0 1 .033 1.15 3.7 3.7 0 0 0 2.306 4.2 5.738 5.738 0 0 0 2.768.395 11.986 11.986 0 0 0 3.508-1.251 1.726 1.726 0 0 0 .184-.142 14.513 14.513 0 0 1 1.673-1.073 4.2 4.2 0 0 0 1.463-1.153 25.683 25.683 0 0 0 2.217-3.145 1.337 1.337 0 0 0 .207-1m-5.8 3.017a.786.786 0 0 1-.429.528 3.876 3.876 0 0 0-1.207.918 3.489 3.489 0 0 1-1.287.794 2.692 2.692 0 0 1-2.681-.318c-.095-.07-.2-.125-.292-.2-1.318-1-1.277-.873-1.58-2.68-.072-.419-.139-.842-.178-1.264a7.853 7.853 0 0 1 .113-3.009 3.28 3.28 0 0 1 1.752-2.225 13.533 13.533 0 0 1 3.061-1.189 2.257 2.257 0 0 1 .579-.072.733.733 0 0 1 .426.163 3.518 3.518 0 0 1 .541.612 10.773 10.773 0 0 1 1.579 3.237 9.661 9.661 0 0 1 .183 1.734 7.987 7.987 0 0 1-.579 2.965" class="cls-3" transform="translate(42.962 -521.876)"/>
            <path id="Path_3504" d="M100.139 624.569a6.558 6.558 0 0 0 5.183 2.125 4.812 4.812 0 0 0 2.044-.356 14.189 14.189 0 0 1 2.412-.922 1.8 1.8 0 0 0 .413-.219 16.979 16.979 0 0 0 1.747-1.178 7.135 7.135 0 0 0 1.455-1.32 3.925 3.925 0 0 0 .972-3.347c-.093-.535-.183-1.073-.31-1.6a1.436 1.436 0 0 0-.316-.612 5.767 5.767 0 0 1-1.12-1.9 6.694 6.694 0 0 0-2.133-2.727 3.126 3.126 0 0 0-2.528-.716c-1.21.165-2.339.631-3.52.905a1.259 1.259 0 0 0-.31.163c-.669.4-1.334.807-2 1.217a2.042 2.042 0 0 0-.267.225 15.285 15.285 0 0 0-1.16 1.16 7.722 7.722 0 0 0-2.089 5.417 5.631 5.631 0 0 0 1.53 3.686m.522-6.062a4.786 4.786 0 0 1 .5-1.171 8.841 8.841 0 0 1 2.086-2.354 1.6 1.6 0 0 0 .718-.889.633.633 0 0 1 .422-.356 5.549 5.549 0 0 0 1.815-.8 1.385 1.385 0 0 1 1.35-.034 1.788 1.788 0 0 1 1.13 1.243c.3 1.085.654 2.155.868 3.264a3.262 3.262 0 0 1 .044 1.153 10.357 10.357 0 0 0-.1 1.507 3.274 3.274 0 0 1-.956 2.318 7.875 7.875 0 0 1-1.624 1.339 5.334 5.334 0 0 1-1.931.6 4.006 4.006 0 0 1-3.675-2.425 11.729 11.729 0 0 1-.7-2.587 1.82 1.82 0 0 1 .051-.8" class="cls-3" transform="translate(50.682 -525.416)"/>
            <path id="Path_3505" d="M34.532 640.735a2.92 2.92 0 0 0 .545-.435 13.115 13.115 0 0 0 2.138-2.468c.225-.364.546-.372.941-.365a2.714 2.714 0 0 0 .569-1.354c.013-.427.038-.855.059-1.279a4 4 0 0 0-.545-2.349 2.328 2.328 0 0 1-.38-1.328 7.663 7.663 0 0 0-.277-1.838 2.537 2.537 0 0 0-.343-.856 4.732 4.732 0 0 0-.8-1 12.449 12.449 0 0 1-1.029-1.111 2.2 2.2 0 0 0-.8-.664 6.6 6.6 0 0 0-3.885-.618 4.288 4.288 0 0 1-.822.047c-.315.008-.628.007-.943.01a2.868 2.868 0 0 0-1.571.413 1.589 1.589 0 0 1-.644.266 4.3 4.3 0 0 0-2.244 1.205 10.132 10.132 0 0 0-2.081 3.075 1.524 1.524 0 0 0-.06 1.251.377.377 0 0 0 .251.206.452.452 0 0 0 .323-.088.6.6 0 0 0 .2-.279 4.2 4.2 0 0 0 .119-.569 4.349 4.349 0 0 1 1.505-2.7c.263-.233.511-.485.762-.729a1.58 1.58 0 0 1 .825-.418c.846-.168 1.693-.336 2.531-.538a6.162 6.162 0 0 1 3.8.465 2.559 2.559 0 0 1 1.717 1.786 5.078 5.078 0 0 0 .264.646 10.91 10.91 0 0 1 .564 4.82 2.513 2.513 0 0 1-.227.78 10.32 10.32 0 0 1-2.292 3.358 3.72 3.72 0 0 1-3.543 1.067 4.788 4.788 0 0 1-.692-.137 4.214 4.214 0 0 1-1.518-.59 1.807 1.807 0 0 0-.535-.219c-.328-.125-.654-.253-.983-.373a1.731 1.731 0 0 1-.99-.939 6.606 6.606 0 0 0-.621-.984 5.865 5.865 0 0 1-1.109-2.417 2.962 2.962 0 0 0-.3-.745c-.023-.049-.132-.062-.2-.077a.1.1 0 0 0-.086.057 3.661 3.661 0 0 0-.2 1.936c.073.3.1.613.147.92a17.644 17.644 0 0 0 .63 2.6 2.914 2.914 0 0 0 1.143 1.58 15.44 15.44 0 0 0 3.024 1.779 14.438 14.438 0 0 0 2.864.581 10.179 10.179 0 0 0 4.816-1.381" class="cls-3" transform="translate(2.249 -517.087)"/>
            <path id="Path_3506" d="M56.258 608.6a6.275 6.275 0 0 1-1.122 2.288 3.079 3.079 0 0 1-.661.649c-1.76 1.23-1.649 1.138-3.58 1.106a8.358 8.358 0 0 1-4.175-1.406 2.147 2.147 0 0 1-.4-.422c-.264-.163-.527-.324-.788-.493-.13-.085-.245-.194-.378-.268a.235.235 0 0 0-.206.034.252.252 0 0 0-.085.2 1.39 1.39 0 0 0 .137.439c.4.716.794 1.429 1.207 2.135a5.693 5.693 0 0 0 2.373 2.2 9.753 9.753 0 0 0 3.407.822 1.668 1.668 0 0 0 .584-.067 11.147 11.147 0 0 0 4.353-1.957 3.792 3.792 0 0 1 .8-.489 2.262 2.262 0 0 0 .992-.8 13.7 13.7 0 0 0 1.572-2.592c.626-1.47.6-1.9-.2-3.171a3.9 3.9 0 0 1-.612-1.5 10.175 10.175 0 0 0-.709-2.208 3.32 3.32 0 0 0-1.014-1.541 3.144 3.144 0 0 1-.829-.8 2.379 2.379 0 0 0-.581-.561 11.868 11.868 0 0 0-1.08-.711 4.6 4.6 0 0 0-2.946-.566 12.455 12.455 0 0 1-1.4.2 6.352 6.352 0 0 0-2.184.806 5.777 5.777 0 0 0-1.094.675 1.5 1.5 0 0 0-.328.331 23.254 23.254 0 0 0-2.066 2.968 2.2 2.2 0 0 0-.261.641 12.66 12.66 0 0 1-.615 2.244 1.507 1.507 0 0 0-.083.683 4.492 4.492 0 0 0 .515 1.659 2.113 2.113 0 0 0 .212.281.451.451 0 0 0 .758-.155 1.769 1.769 0 0 0 .064-.343 4.368 4.368 0 0 1-.334-3.163 4 4 0 0 1 1.036-2.3 7.964 7.964 0 0 0 1.054-1.391 3.787 3.787 0 0 1 2.786-1.744 8.874 8.874 0 0 1 1.993.028 1.935 1.935 0 0 1 1.435.71 6.506 6.506 0 0 0 1.244 1.225 1.291 1.291 0 0 1 .31.349c.922 1.528 1.61 3.11 1.129 4.953-.09.338-.145.683-.232 1.021" class="cls-3" transform="translate(16.406 -533.544)"/>
            <path id="Path_3507" d="M80.468 613.1a6.186 6.186 0 0 0 .551 2.244 7.874 7.874 0 0 0 2.719 3.295 2.17 2.17 0 0 0 .62.328 8.228 8.228 0 0 0 3.275.666 4.2 4.2 0 0 0 2-.317 1.458 1.458 0 0 1 .452-.117 8.541 8.541 0 0 0 2.029-.592c.587-.212 1.169-.445 1.753-.674a1.311 1.311 0 0 0 .31-.157 18.359 18.359 0 0 0 2.964-2.647 2.947 2.947 0 0 0 .333-.478 9.1 9.1 0 0 0 .871-3.472 1.124 1.124 0 0 0-.024-.23 11.552 11.552 0 0 0-.219-1.724 8.564 8.564 0 0 0-.713-1.587 26.419 26.419 0 0 0-1.721-3.308 3.451 3.451 0 0 0-2.774-1.5 5.055 5.055 0 0 1-.935-.085 3.785 3.785 0 0 0-2.745.331 19.156 19.156 0 0 0-3.283 1.807c-.493.382-1.07.652-1.571 1.023a5.448 5.448 0 0 1-1.37.889 1.4 1.4 0 0 0-.453.354c-.307.3-.605.61-.884.936a3.492 3.492 0 0 0-.533.763c-.243.525-.445 1.073-.656 1.62a3.043 3.043 0 0 0-.132 1.831 3.316 3.316 0 0 1 .132.8m1.967-4.381a7.656 7.656 0 0 1 1.783-1.672 24.068 24.068 0 0 1 2.425-1.417c.941-.473 1.885-.941 2.823-1.419a14.6 14.6 0 0 1 1.505-.651 1.413 1.413 0 0 1 1.442.206 2.432 2.432 0 0 0 .3.194 4.023 4.023 0 0 1 1.934 3.034 9.627 9.627 0 0 1 .22 2.672 8.349 8.349 0 0 1-.251 2.522 6.051 6.051 0 0 1-1.822 3.319 4.358 4.358 0 0 1-.936.693c-.737.359-1.5.657-2.262.974a.913.913 0 0 1-.341.078 12.441 12.441 0 0 1-3.622-.2 2.906 2.906 0 0 1-1.318-.728 7.288 7.288 0 0 0-.8-.688 3.074 3.074 0 0 1-1.142-1.438 2.764 2.764 0 0 0-.323-.62 2.411 2.411 0 0 1-.4-1.434c.01-.426.008-.855 0-1.279a3.269 3.269 0 0 1 .788-2.143" class="cls-3" transform="translate(39.106 -531.187)"/>
            <path id="Path_3508" d="M109.384 643.208c.021-.191.06-.383.095-.576a7.244 7.244 0 0 0-.59-4.432c-.168-.352-.338-.7-.493-1.062a6.34 6.34 0 0 0-1.347-1.9 10.369 10.369 0 0 0-1.688-1.246 1.579 1.579 0 0 0-.566-.14 8.031 8.031 0 0 1-2.138-.633 3.471 3.471 0 0 0-.905-.243 10.319 10.319 0 0 1-1.045-.174 2.635 2.635 0 0 0-1.618.07 9.013 9.013 0 0 0-2.487 1.3 2.027 2.027 0 0 0-.393.431 11.5 11.5 0 0 0-1.572 2.316 2.3 2.3 0 0 0-.637 1.928 2.387 2.387 0 0 1-.024.581 2.941 2.941 0 0 0 .2 1.484 10.849 10.849 0 0 1 .515 1.672 7.653 7.653 0 0 0 1.191 2.642c.052.091.171.145.263.215a5.753 5.753 0 0 0 1.9 2.446 8.3 8.3 0 0 0 5.85 2.032 3.93 3.93 0 0 0 2.639-1.093 9.451 9.451 0 0 0 2.858-5.619m-5.126 4.065a5.708 5.708 0 0 1-3.735.643 4.785 4.785 0 0 0-.811-.117 2.654 2.654 0 0 1-2.04-1 7.121 7.121 0 0 1-.59-.861l-.935-.494a3.958 3.958 0 0 0-.25-1.628 2.214 2.214 0 0 1-.129-.44 13.853 13.853 0 0 0-.4-2.287 5.3 5.3 0 0 1 .116-3.306 3.094 3.094 0 0 1 .449-.809 11.105 11.105 0 0 1 .887-.93 2.216 2.216 0 0 1 1.238-.622c1.541-.236 1.541-.559 3.6.483a10.261 10.261 0 0 1 3.166 2.373 5.01 5.01 0 0 1 .62.843 7.722 7.722 0 0 1 1.093 4.343 4.293 4.293 0 0 1-2.274 3.812" class="cls-3" transform="translate(47.746 -512.202)"/>
            <path id="Path_3509" d="M48.037 641.089a1.338 1.338 0 0 0 .331.119c.375.107.749.227 1.129.318a1.707 1.707 0 0 0 .69.075 2.923 2.923 0 0 1 2.249.39c.028.018.077.01.184.018.155-.072.357-.189.576-.267a2.47 2.47 0 0 1 .788-.21 2.843 2.843 0 0 0 2.1-.891c.163-.165.383-.271.553-.431a3.88 3.88 0 0 0 .548-.6 8.048 8.048 0 0 0 .612-1 2.317 2.317 0 0 0 .3-.871 20.2 20.2 0 0 1 .289-2.075 2.4 2.4 0 0 0 .024-.692c-.113-.807-.222-1.616-.385-2.414a9.744 9.744 0 0 0-.465-1.44 2.08 2.08 0 0 0-.393-.71 17.068 17.068 0 0 0-1.794-1.675c-.809-.612-1.7-1.114-2.541-1.68a1.715 1.715 0 0 0-.884-.274 8.455 8.455 0 0 0-2.913.3 3.778 3.778 0 0 0-1.731.954c-.669.7-1.328 1.422-1.995 2.13a11.124 11.124 0 0 0-1.308 2.07 3.727 3.727 0 0 0-.493 1.778 15.918 15.918 0 0 0 .2 2.2 4.487 4.487 0 0 0 1.3 2.68 13.669 13.669 0 0 0 3.029 2.194m-2.63-9.385a3.09 3.09 0 0 1 1.455-1.766.987.987 0 0 0 .538-.708 1.6 1.6 0 0 1 .951-.977 4.471 4.471 0 0 1 2.308-.507 2.116 2.116 0 0 1 1.6.5 10.976 10.976 0 0 0 1.386.874 4.189 4.189 0 0 1 1.383 1.708 2.469 2.469 0 0 1 .183 1.931 10.4 10.4 0 0 1-2.756 4.673 6.149 6.149 0 0 1-2.089 1.28 3.445 3.445 0 0 1-3.627-.662 3.85 3.85 0 0 1-1.344-2.266c-.055-.3-.17-.6-.248-.9a3.58 3.58 0 0 1-.173-.791 6.247 6.247 0 0 1 .437-2.391" class="cls-3" transform="translate(15.922 -515.95)"/>
            <path id="Path_3510" d="M65.584 620.707a6.13 6.13 0 0 1-.85-2.639 3.406 3.406 0 0 0-.225-1.014 3.866 3.866 0 0 0-1.419-2.093 1.677 1.677 0 0 1-.31-.347 1.79 1.79 0 0 0-.762-.532 4.034 4.034 0 0 0-1.6-.334c-.626.01-1.258 0-1.885 0v.008c-.59 0-1.181-.023-1.77.007-.468.026-.936.1-1.4.175a3.015 3.015 0 0 0-1.827.985c-.264.289-.559.546-.827.83a8.308 8.308 0 0 0-2.037 3.234c-.173.563-.251 1.138-.38 1.7a4.564 4.564 0 0 0 .145 1.956 1.082 1.082 0 0 0 .243.39.434.434 0 0 0 .528.121.8.8 0 0 0 .263-.357 1.49 1.49 0 0 0 .011-.46 8.9 8.9 0 0 1 .326-2.65c.13-.447.351-.869.475-1.316a6.637 6.637 0 0 1 1.752-2.729A2.938 2.938 0 0 1 56 614.7a4.262 4.262 0 0 0 .822-.064 4.239 4.239 0 0 1 2.1.09 2.955 2.955 0 0 1 2.016 1.3 5.823 5.823 0 0 1 .882 2.272 3.33 3.33 0 0 1 .018 1.041c-.276 1.45-.572 2.9-.9 4.338a3.663 3.663 0 0 1-1.132 1.876 5.921 5.921 0 0 1-2.959 1.329 1.547 1.547 0 0 1-1.125-.264 4.264 4.264 0 0 0-1.3-.542 2.594 2.594 0 0 1-1.029-.545c-.4-.315-.807-.621-1.223-.912a1.367 1.367 0 0 0-.877-.294c-.173.013-.416.21-.4.369.036.267.091.532.142.8a2.906 2.906 0 0 0 1.122 1.992 5.98 5.98 0 0 0 3.029 1.453c.119.007.237 0 .352.008a11.6 11.6 0 0 0 3.945-.571 8.015 8.015 0 0 0 2.234-1.028 4.028 4.028 0 0 1 1.047-.52 3.3 3.3 0 0 0 1.571-1.181 6.851 6.851 0 0 0 .793-1.155 8.262 8.262 0 0 0 .9-2.51 1.2 1.2 0 0 0-.14-.788c-.093-.17-.22-.323-.31-.5" class="cls-3" transform="translate(20.162 -524.164)"/>
            <path id="Path_3511" d="M24.189 608.9a1.191 1.191 0 0 0-.222.408 9.372 9.372 0 0 0-.683 3.983c.069.887.214 1.77.331 2.652.029.23.085.457.124.688a2.371 2.371 0 0 0 .692 1.318c.354.359.682.744 1.026 1.116a3.505 3.505 0 0 0 .336.325 11.681 11.681 0 0 0 3.151 1.784 1.458 1.458 0 0 0 .453.114 7.992 7.992 0 0 0 2.34-.078 10.932 10.932 0 0 0 3.3-1.484 2.671 2.671 0 0 0 1.2-1.375c.07-.18.16-.354.238-.53a2.915 2.915 0 0 0 .466.307.311.311 0 0 0 .264-.117 1.645 1.645 0 0 0-.042-.442 2.059 2.059 0 0 1 .577-1.365 7.527 7.527 0 0 0 1.443-2.9 2.691 2.691 0 0 0 .046-1.5 12.1 12.1 0 0 0-1.82-4.135 3.117 3.117 0 0 0-1.223-1.058c-.462-.214-.936-.4-1.38-.643a9.663 9.663 0 0 0-2.206-.768 2.158 2.158 0 0 0-1.269.031c-.333.111-.687.15-1.026.241a12.444 12.444 0 0 0-3.2 1.124c-.3.181-.592.386-.905.538a7.029 7.029 0 0 0-2 1.766m4.573-1.995a4.085 4.085 0 0 1 3.631.843 3.75 3.75 0 0 0 .372.289 7.166 7.166 0 0 1 2.663 4.273 3.329 3.329 0 0 1 .008 1.5c-.077.3-.119.612-.189.913a6.558 6.558 0 0 1-1.512 2.866 4.694 4.694 0 0 1-2.419 1.378 22.287 22.287 0 0 1-2.548.462 3.732 3.732 0 0 1-1.631-.139 2.578 2.578 0 0 1-1.879-1.442 3.747 3.747 0 0 1-.824-2.608v-.721a7.789 7.789 0 0 1 .333-2.742 14.438 14.438 0 0 0 .435-1.929 2.651 2.651 0 0 1 .9-1.466 9.768 9.768 0 0 1 2.659-1.478" class="cls-3" transform="translate(3.145 -529.61)"/>
            <path id="Path_3512" d="M49.3 626.957a15.519 15.519 0 0 0 1.554-2.044 13.028 13.028 0 0 0 .78-1.3 5.166 5.166 0 0 0 .475-2.261.914.914 0 0 0-.132-.439 18.121 18.121 0 0 0-1.926-3.053 2.921 2.921 0 0 1-.659-1.217 1.521 1.521 0 0 0-.447-.8 16.25 16.25 0 0 0-2.138-1.637.954.954 0 0 0-.323-.134 7.831 7.831 0 0 0-2.448-.268c-.387-.042-.771-.1-1.158-.122a1.423 1.423 0 0 0-.569.073 27.405 27.405 0 0 0-3.45 1.97 2.193 2.193 0 0 0-.435.39c-.308.3-.608.61-.912.912a9.991 9.991 0 0 0-1.584 2.433 1.859 1.859 0 0 0-.191.783 11.811 11.811 0 0 0 0 1.629 6.722 6.722 0 0 0 .3 1.716 12.239 12.239 0 0 0 1 2.1c.517.866 1.125 1.682 1.685 2.525a1.92 1.92 0 0 0 .8.669 8.5 8.5 0 0 0 4.888.856 8.378 8.378 0 0 0 4.893-2.778m-1.365-3.578a1.806 1.806 0 0 1-.191.545 7 7 0 0 1-2.809 2.738 1.985 1.985 0 0 1-.9.206c-1.1.026-2.2.026-3.295.013a3.9 3.9 0 0 1-1.988-.639 6.776 6.776 0 0 0-.569-.409 2.212 2.212 0 0 1-1.14-1.411 5.489 5.489 0 0 1-.254-3.087c.161-.677.24-1.373.336-2.063a2.75 2.75 0 0 1 .563-1.258 5.128 5.128 0 0 1 2.288-1.936.968.968 0 0 0 .3-.179 7.719 7.719 0 0 1 2.51-1.241 1.7 1.7 0 0 1 .685-.088c.466.02.928.075 1.4.117.62.507 1.271 1 1.877 1.548a4.371 4.371 0 0 1 1.44 3.089 17.879 17.879 0 0 1-.256 4.056" class="cls-3" transform="translate(10.995 -524.207)"/>
            <path id="Path_3513" d="M146.98 595.4a2.782 2.782 0 0 0 1.737 1.471 6 6 0 0 0 1.85.331c.827 0 1.652.013 2.476 0a9.866 9.866 0 0 0 3.337-.656 2.923 2.923 0 0 0 .982-.625 24.026 24.026 0 0 0 1.659-2.114.959.959 0 0 0 .14-.32 11.451 11.451 0 0 0 .408-1.217 12.262 12.262 0 0 0 .028-2.422.515.515 0 0 0-.075-.219 11.358 11.358 0 0 0-.519-1.047 2 2 0 0 0-.548-.592 7.564 7.564 0 0 1-1.1-.864 2.9 2.9 0 0 0-1.207-.711 8.29 8.29 0 0 1-.889-.31 4.1 4.1 0 0 0-1.833-.352 4.851 4.851 0 0 1-1.171-.09 1.481 1.481 0 0 0-1.4.395c-.408.364-.815.729-1.24 1.077a10.808 10.808 0 0 0-2.841 3.071c0 .463-.015.928 0 1.39 0 .091.106.2.186.264.1.078.3-.015.388-.168a2.319 2.319 0 0 0 .271-.514 3.868 3.868 0 0 1 2.133-2.2c.4-.235.833-.426 1.253-.631a1.986 1.986 0 0 1 2.293.286 3.973 3.973 0 0 1 1.409 3.97 2.4 2.4 0 0 1-1.812 1.946 10.651 10.651 0 0 1-1.613.294c-.582.082-1.166.126-1.75.2a2.029 2.029 0 0 1-.926-.088 1.218 1.218 0 0 1-.953-1.055 5.948 5.948 0 0 0-.251-1.014c-.121-.406-.395-.457-.8-.16-.029.025-.057.054-.085.082 0 .192.008.388-.013.582a3.652 3.652 0 0 0 .481 2.011" class="cls-3" transform="translate(80.898 -541.909)"/>
            <path id="Path_3514" d="M62.756 633.284a.383.383 0 0 0-.176-.4.343.343 0 0 0-.421.091 3.908 3.908 0 0 0-.641 1.1 10.677 10.677 0 0 0-.373 2.645 4.189 4.189 0 0 0 2.1 3.44.812.812 0 0 0 .321.148c.747.1 1.395.514 2.127.656a11.567 11.567 0 0 0 1.161.163c.468.042.946.031 1.411.1a2.779 2.779 0 0 0 1.6-.251 8.935 8.935 0 0 1 1.212-.434 6.891 6.891 0 0 0 .863-.368c.462-.214.915-.445 1.38-.656a3.309 3.309 0 0 0 1.331-.928 5.315 5.315 0 0 0 1.008-2.7c.047-.422.075-.85.08-1.274.015-1.01.052-2.018 0-3.024a2.347 2.347 0 0 0-.987-1.9 3.89 3.89 0 0 1-.6-.563 3.366 3.366 0 0 0-2.08-1 6.343 6.343 0 0 0-2.458.1c-.8.194-1.6.364-2.407.543-.383.088-.767.173-1.15.259a1.154 1.154 0 0 0-.678.432 5.352 5.352 0 0 0-1.838 1.564c-.024.033.033.13.062.189.008.013.085.01.111-.008.648-.491 1.29-.984 1.936-1.476a28.08 28.08 0 0 1 3.823-.644 9.249 9.249 0 0 1 1.646-.018 1.575 1.575 0 0 1 1.323.86 3.2 3.2 0 0 1 .439 2.021c-.414 2.65-.282 2.567-1.905 4.652a1.621 1.621 0 0 1-.225.268 6.633 6.633 0 0 1-.827.644 6.115 6.115 0 0 1-1.747.678 9.872 9.872 0 0 1-3.166.095 2.493 2.493 0 0 1-1.956-1.346 8.619 8.619 0 0 1-.489-1.057 2.312 2.312 0 0 1-.01-1.925 2.954 2.954 0 0 0 .188-.669" class="cls-3" transform="translate(27.048 -515.141)"/>
            <path id="Path_3515" d="M102.583 565.056c-1.055-.08-2.111-.142-3.169-.2a1.868 1.868 0 0 0-.465.041c-1.957.367-3.668 2.238-3.484 3.978v.117a4.98 4.98 0 0 0-.444 1.773 4.228 4.228 0 0 0 .362 2.13c.055.132.2.227.307.339a2.2 2.2 0 0 0 1.682 1.365q.357.24.706.478c.083.173.117.409.256.506.639.444 1.3.874 1.972 1.261a1.966 1.966 0 0 0 1.489.13 5.013 5.013 0 0 0 2.5-1.471c.473-.512.853-1.111 1.29-1.657a5.481 5.481 0 0 0 1.057-2.314 10.466 10.466 0 0 0 .062-1.272 6.328 6.328 0 0 0-1.189-3.94 1.628 1.628 0 0 0-1.23-.815 7.317 7.317 0 0 1-.9-.263 4.409 4.409 0 0 0-.8-.184m.572 8.175a1.265 1.265 0 0 1-.3.489 4.006 4.006 0 0 1-1.091.869 1.913 1.913 0 0 1-1.695.143 2.255 2.255 0 0 1-.316-.152 1.344 1.344 0 0 0-1.445.068l-.692-.277a6.62 6.62 0 0 1-1.652-1.426 12.015 12.015 0 0 1-.261-3.467c.127-.24.235-.494.385-.719a1.762 1.762 0 0 1 1.545-.9 5.87 5.87 0 0 1 5.3 2.884 3.3 3.3 0 0 1 .225 2.486" class="cls-3" transform="translate(48.411 -555.017)"/>
            <path id="Path_3516" d="M118.913 626.22a.114.114 0 0 0-.085.065 2.471 2.471 0 0 0-.111.563 9.829 9.829 0 0 1-.292 2.187c-.179.832-.294 1.678-.435 2.518.08.078.157.16.235.24a4.942 4.942 0 0 0 .512-.908c.308-1 .582-2.014.842-3.032a1.714 1.714 0 0 0-.45-1.613c-.036-.039-.145-.024-.215-.02" class="cls-3" transform="translate(62.919 -516.298)"/>
            <path id="Path_3517" d="M93.011 602.6a.848.848 0 0 0 .047.985 6.58 6.58 0 0 0 4.464 2.752c.271.036.55.047.815.106a9.943 9.943 0 0 0 2.46.1 2.079 2.079 0 0 0 .692-.13 6.934 6.934 0 0 0 3.662-2.957c.2-.331.328-.7.493-1.049a3.768 3.768 0 0 0 .439-1.439 1.471 1.471 0 0 1 .139-.553 13.218 13.218 0 0 0 .9-3.366 4.9 4.9 0 0 0 .024-1.275 1.985 1.985 0 0 0-.207-.78 8.566 8.566 0 0 0-1.951-2.453 17.183 17.183 0 0 0-1.624-1.148c-.481-.331-.964-.662-1.456-.977a2.223 2.223 0 0 0-.726-.36 16.21 16.21 0 0 0-2.057-.39 4.1 4.1 0 0 0-2.676.623 11.252 11.252 0 0 1-1 .607 2.7 2.7 0 0 0-.954.848 7.92 7.92 0 0 1-.475.664 7.748 7.748 0 0 0-1.59 4.422c-.015.13.028.307.246.3l.334-.6c.176-.434.349-.866.532-1.3a6.633 6.633 0 0 1 2.443-2.768 1.588 1.588 0 0 1 1.665-.178c.463.209.941.388 1.408.592a6.228 6.228 0 0 1 3.528 4.265 4.049 4.049 0 0 1-.057 2.518 15.388 15.388 0 0 0-.387 1.58 6.064 6.064 0 0 1-.644 1.491 2.839 2.839 0 0 1-2.176 1.421 6.149 6.149 0 0 1-2.8-.166 3.858 3.858 0 0 1-1.987-1.566 3.841 3.841 0 0 0-.3-.494 2.1 2.1 0 0 0-.489-.3 3.409 3.409 0 0 0-.406-1.182c-.157-.3-.312-.613-.445-.928a1.923 1.923 0 0 1-.134-1.337c-.124.09-.316.152-.36.267a2.42 2.42 0 0 0 .132 2.234 5.808 5.808 0 0 0 .4.571.815.815 0 0 1 .163.76 5.269 5.269 0 0 0-.085.576" class="cls-3" transform="translate(46.637 -539.367)"/>
            <path id="Path_3518" d="M124.164 635.752a4.881 4.881 0 0 0-.917 1.458q-.543.448-1.076.9a3.494 3.494 0 0 1-.625.525 4.4 4.4 0 0 1-3.712.506 1.989 1.989 0 0 0-.463-.088 4.591 4.591 0 0 1-2.1-1 13.952 13.952 0 0 1-2.153-2.145 4.734 4.734 0 0 1-1.241-3.428c.024-.347.013-.7.007-1.049a3.278 3.278 0 0 1 .346-1.46 15.451 15.451 0 0 1 2.262-3.4 5.61 5.61 0 0 1 3.363-2c.426-.078.858-.134 1.272-.25a4.661 4.661 0 0 1 2.326.065 6.8 6.8 0 0 1 3.68 1.951 5.919 5.919 0 0 0 .71.612.227.227 0 0 0 .215.015c.07-.073.158-.194.14-.279a3.3 3.3 0 0 0-.917-1.6c-.612-.667-1.359-1.179-2.026-1.779a6.217 6.217 0 0 0-3.748-1.515 15.176 15.176 0 0 0-2.357.011 6.459 6.459 0 0 0-3.786 1.44 12.741 12.741 0 0 0-2.694 2.906 3.452 3.452 0 0 1-.654.819 8.1 8.1 0 0 0-1.81 2.559 10.375 10.375 0 0 0-.726 3.515 1.708 1.708 0 0 0 .065.458 10.42 10.42 0 0 0 .783 2.557 5.254 5.254 0 0 0 1.8 2.668.675.675 0 0 1 .08.085 9.4 9.4 0 0 0 4.438 2.737 7.087 7.087 0 0 0 2.088.3 2.609 2.609 0 0 0 1.347-.339 10.963 10.963 0 0 1 2.476-1.077 2.149 2.149 0 0 0 .822-.437 16.837 16.837 0 0 0 1.306-1.337c.282-.321.514-.688.767-1.032a2.856 2.856 0 0 0 .727-1.373c.152-.32.3-.636.455-.953.075-.235.148-.468.223-.7-.078-.078-.155-.16-.233-.238l-.232.714a1.056 1.056 0 0 0-.23.672" class="cls-3" transform="translate(56.284 -519.11)"/>
        </g>
    </g>
</svg>
