<?xml version="1.0" encoding="utf-8"?>
<!-- Generator: Adobe Illustrator 23.0.1, SVG Export Plug-In . SVG Version: 6.00 Build 0)  -->
<svg version="1.1" id="Layer_1" xmlns="http://www.w3.org/2000/svg" xmlns:xlink="http://www.w3.org/1999/xlink" x="0px" y="0px"
	 viewBox="0 0 520 517.5" style="enable-background:new 0 0 520 517.5;" xml:space="preserve">
<style type="text/css">
	.st0{fill:#FFFFFF;}
</style>
<g>
	<path class="st0" d="M164,41.8l-9.5-11.6l2.8,14.7l-4.4,2l-14.4-16.7l4.6-2.1l9.8,12.3l-2.8-15.6l3.2-1.5l10.1,12.2l-3.1-15.4
		l4.6-2.1l3.4,21.8L164,41.8z"/>
	<path class="st0" d="M187.7,32.7l-2.4-3l-8.6,3l-0.1,3.8l-4.9,1.7l0.8-22.7l5.3-1.9L192.6,31L187.7,32.7z M176.7,18.9l-0.1,9.7
		l6.2-2.2L176.7,18.9z"/>
	<path class="st0" d="M191.6,28.3l1.5-3.9c1.8,1.1,4.4,1.8,7.2,1.1c2.4-0.6,3.3-2,3-3.2c-0.9-3.6-12.1,1.9-14.1-5.8
		c-0.9-3.4,1.3-7,6.2-8.3c3.3-0.8,6.2-0.6,8.7,0.8l-1.6,3.8c-2.1-1.1-4.5-1.2-6.5-0.7c-1.9,0.5-2.7,1.6-2.4,2.8
		c0.8,3.3,12.1-2,14,5.7c1,3.8-1,7.3-6.5,8.7C197.2,30.3,194,29.7,191.6,28.3z"/>
	<path class="st0" d="M226,23.8l-1.5-8.8l-9.9,1.7l1.5,8.8l-4.4,0.7l-3.5-20.9l4.4-0.7l1.4,8.2l9.9-1.7l-1.4-8.2l4.5-0.8l3.5,20.9
		L226,23.8z"/>
	<path class="st0" d="M248,21.7l-0.4-8.7l-8.7-12.2l5.1-0.2l5.6,8.3l4.8-8.7l5.1-0.2l-7.6,12.9l0.4,8.7L248,21.7z"/>
	<path class="st0" d="M260.1,10.6c0.3-6.4,5.1-10.8,11.5-10.5c6.4,0.3,10.9,5,10.6,11.4c-0.3,6.4-5.1,10.8-11.5,10.5
		C264.3,21.7,259.8,17,260.1,10.6z M277.6,11.3c0.2-4-2.3-7.1-6.2-7.2c-3.9-0.2-6.5,2.7-6.7,6.7c-0.2,3.9,2.2,7.1,6.1,7.2
		C274.8,18.1,277.4,15.2,277.6,11.3z"/>
	<path class="st0" d="M285.4,14l1.8-12.6l4.5,0.6L290,14.5c-0.4,2.9,1,5.2,4.3,5.6c3.2,0.4,5.2-1.3,5.6-4.3l1.7-12.5l4.6,0.6
		l-1.7,12.6c-0.7,5.2-4.3,8.3-10.7,7.5C287.3,23.2,284.7,19.1,285.4,14z"/>
	<path class="st0" d="M318.3,28.4l-2.4-8.3l-3.2-0.7l-1.7,7.3l-4.4-1L311.4,5l9.7,2.2c4.3,1,6.3,4.4,5.4,8.3
		c-0.8,3.7-3.6,5.1-5.9,5.1l2.8,8.9L318.3,28.4z M322,14.5c0.4-1.7-0.7-3.1-2.4-3.5l-4.6-1.1l-1.3,5.6l4.6,1.1
		C320,17,321.6,16.2,322,14.5z"/>
	<path class="st0" d="M347.3,37.6l3.1-8.4l-9.4-3.4l-3.1,8.4l-4.2-1.6l7.3-19.9l4.2,1.6l-2.9,7.8l9.4,3.4l2.9-7.8l4.3,1.6l-7.3,19.9
		L347.3,37.6z"/>
	<path class="st0" d="M368,46.8l0.4-3.8l-8.2-3.9l-2.7,2.7l-4.6-2.2l16.5-15.6l5.1,2.4L372.7,49L368,46.8z M369.9,29.2L363,36l6,2.8
		L369.9,29.2z"/>
	<path class="st0" d="M386.4,57.1l-1.6-17l-7,11.9l-3.9-2.3l10.8-18.2l4,2.4l1.7,16.5l6.8-11.5l3.9,2.3l-10.8,18.2L386.4,57.1z"/>
	<path class="st0" d="M393,61.3l12.5-17.1l6.8,4.9c5.4,3.9,6.6,10,2.9,15.2c-3.8,5.2-9.9,5.8-15.3,1.9L393,61.3z M411.4,61.6
		c2.2-3,2.1-6.7-1.5-9.3l-3.1-2.3L399,60.7l3.1,2.3C405.5,65.5,409.3,64.5,411.4,61.6z"/>
	<path class="st0" d="M411.8,71.4l4.1-1c0.1,2.2,1,4.7,3.2,6.6c1.9,1.6,3.5,1.5,4.3,0.6c2.5-2.8-8.5-8.9-3.2-14.9
		c2.3-2.7,6.5-2.9,10.3,0.4c2.5,2.2,4,4.8,4.3,7.6l-4.1,0.9c-0.3-2.3-1.5-4.4-3.1-5.8c-1.5-1.3-2.8-1.3-3.7-0.4
		c-2.2,2.5,8.5,8.8,3.3,14.8c-2.5,2.9-6.5,3.3-10.9-0.4C413.3,77.1,411.9,74.2,411.8,71.4z"/>
	<path class="st0" d="M431.8,89.4l4.2-0.5c-0.1,2.2,0.5,4.7,2.5,6.9c1.7,1.8,3.3,1.9,4.2,1.1c2.8-2.5-7.4-9.8-1.6-15.2
		c2.6-2.4,6.8-2.1,10.2,1.5c2.3,2.5,3.4,5.2,3.4,8.1l-4.1,0.4c0-2.3-1-4.5-2.5-6.1c-1.3-1.4-2.7-1.6-3.6-0.8
		c-2.5,2.3,7.4,9.7,1.6,15.1c-2.8,2.6-6.9,2.6-10.7-1.6C432.7,95.3,431.7,92.2,431.8,89.4z"/>
	<path class="st0" d="M443.1,106.2l16.6-13.2l9.3,11.8l-3.1,2.5l-6.5-8.2l-3.5,2.8l6.4,8l-3.1,2.5l-6.4-8l-3.8,3l6.5,8.2l-3.1,2.5
		L443.1,106.2z"/>
	<path class="st0" d="M457.5,125.3l13.1-18.6l2.9,4.3L463.1,125l16.8-4.2l2.9,4.3l-22.2,5L457.5,125.3z"/>
	<path class="st0" d="M465.8,138.1l18.5-10.3l7.3,13.1l-3.5,1.9l-5.1-9.2l-3.9,2.2l5,9l-3.5,1.9l-5-9l-4.2,2.3l5.1,9.2l-3.5,1.9
		L465.8,138.1z"/>
	<path class="st0" d="M480.4,167.2l8.5-14.9l-12.6,5.6l-1.8-4.1l19.3-8.6l1.9,4.2l-8.1,14.4l12.2-5.4l1.8,4.1l-19.3,8.6L480.4,167.2
		z"/>
	<path class="st0" d="M487.6,186.8l16.4-5.1l-1.8-5.9l3.8-1.2l5,16.1l-3.8,1.2l-1.8-5.9l-16.4,5.1L487.6,186.8z"/>
	<path class="st0" d="M491.3,199.6l20.6-5.1l1.1,4.4l-20.6,5.1L491.3,199.6z"/>
	<path class="st0" d="M496.6,225.7l14.6-2.5l-15.6-3.4l-0.3-1.9l13.6-8.4l-14.6,2.5l-0.8-4.4l20.9-3.6l1.1,6.2l-11.7,7.2l13.5,2.9
		l1.1,6.3l-20.9,3.6L496.6,225.7z"/>
	<path class="st0" d="M497.6,233.7l21.1-1.6l1.2,15l-4,0.3l-0.8-10.5l-4.5,0.3l0.8,10.2l-4,0.3l-0.8-10.2l-4.8,0.4l0.8,10.5l-4,0.3
		L497.6,233.7z"/>
	<path class="st0" d="M498.5,274.4l3.6-1.2l0.3-9.1l-3.5-1.5l0.2-5.1l20.9,9l-0.2,5.6l-21.5,7.4L498.5,274.4z M515.4,269.2l-9-3.6
		l-0.2,6.6L515.4,269.2z"/>
	<path class="st0" d="M497.7,283.9l17.1,1.9l0.7-6.2l3.9,0.4l-1.9,16.8l-3.9-0.4l0.7-6.1l-17.1-1.9L497.7,283.9z"/>
	<path class="st0" d="M491.5,319l3.8-0.5l2-8.9l-3.2-2.1l1.2-5l18.8,12.8l-1.3,5.5l-22.5,3.2L491.5,319z M509.1,317.1l-8.1-5.3
		l-1.5,6.4L509.1,317.1z"/>
	<path class="st0" d="M487.5,333l19.9,7.3l-2.9,7.8c-2.3,6.2-7.8,9.1-13.8,6.9c-6-2.2-8.3-8-6-14.2L487.5,333z M492.3,350.8
		c3.5,1.3,7,0.1,8.5-3.9l1.3-3.6l-12.4-4.6l-1.3,3.6C486.9,346.2,488.9,349.5,492.3,350.8z"/>
	<path class="st0" d="M473.9,366.1l3.8,0.3l3.9-8.2l-2.7-2.7l2.2-4.7l15.7,16.4l-2.4,5.1l-22.6-1.6L473.9,366.1z M491.5,367.9
		l-6.8-6.9l-2.8,6L491.5,367.9z"/>
	<path class="st0" d="M469.4,374.4l15,8.5l3-5.4l3.5,2l-8.3,14.7l-3.5-2l3-5.4l-15-8.5L469.4,374.4z"/>
	<path class="st0" d="M466.4,401.3l2.8,2.1l0.2-3.5l2,0.2l-0.5,3.4l3.1-1.6l0.9,1.8l-3.2,1.4l3,1.9l-1.1,1.6l-2.8-2.1l-0.1,3.5
		l-2-0.2l0.5-3.4l-3.1,1.6l-0.8-1.8l3.2-1.3l-3-1.9L466.4,401.3z"/>
	<path class="st0" d="M436.8,420.1l13.4,6.9l-8.5-12.4l3.2-3.6l19.9,9.5l-3.3,3.8l-13.9-7.4l8.8,13.2l-2.3,2.6l-14.1-7.1l9,12.9
		l-3.4,3.8l-11.9-18.6L436.8,420.1z"/>
	<path class="st0" d="M428.3,429l14.4,15.5l-11,10.2l-2.7-2.9l7.7-7.1l-3.1-3.3l-7.5,7l-2.7-2.9l7.5-7l-3.3-3.5l-7.7,7.1l-2.7-2.9
		L428.3,429z"/>
	<path class="st0" d="M403.7,450.2l3.2,2l7.1-5.6l-1.2-3.6l4-3.2l6.7,21.7l-4.4,3.5l-19.5-11.6L403.7,450.2z M418.6,459.7l-3.1-9.2
		l-5.2,4.1L418.6,459.7z"/>
	<path class="st0" d="M388.4,460.7l7.6,4l2.8-1.8l-4.1-6.3l3.8-2.5l11.7,17.7l-8.3,5.5c-3.7,2.4-7.5,1.5-9.7-1.8
		c-2.1-3.1-1.2-6.1,0.4-7.8l-8.4-4.1L388.4,460.7z M395.9,473c1,1.5,2.7,1.6,4.2,0.6l4-2.6l-3.1-4.8l-4,2.6
		C395.5,469.8,395,471.5,395.9,473z"/>
	<path class="st0" d="M358.3,477l6.5,13.3l-1.1-16l1.8-0.9l11.8,10.7l-6.5-13.3l4.1-2l9.2,19.1l-5.7,2.8l-10.2-9.3l1,13.8l-5.7,2.8
		l-9.2-19.1L358.3,477z"/>
	<path class="st0" d="M337.3,485.3l2.5,2.9l8.5-3.1l0-3.8l4.8-1.8l-0.4,22.7l-5.3,1.9l-15-17.1L337.3,485.3z M348.5,498.9l0-9.7
		l-6.2,2.3L348.5,498.9z"/>
	<path class="st0" d="M333.4,489.8l-1.4,4c-1.9-1.1-4.4-1.7-7.3-1c-2.4,0.7-3.2,2.1-2.9,3.2c1,3.6,12.1-2.1,14.2,5.6
		c0.9,3.4-1.2,7-6,8.3c-3.2,0.9-6.2,0.7-8.7-0.7l1.5-3.9c2.1,1.1,4.5,1.2,6.6,0.6c1.9-0.5,2.7-1.6,2.3-2.9c-0.9-3.2-12,2.2-14.1-5.5
		c-1-3.7,0.9-7.3,6.4-8.8C327.8,487.8,331,488.4,333.4,489.8z"/>
	<path class="st0" d="M301,494.4l7.9,7.1l1.3-2.2l-1.2-6.4l4.4-0.8l4,20.8l-4.4,0.8l-1.8-9.3l-5.6,10.7l-5.5,1l6.4-11.3l-10.9-9.4
		L301,494.4z"/>
	<path class="st0" d="M284.4,508.3l0.2,3.5l2.8-2.1l1.1,1.6l-2.9,1.9l3.2,1.3l-0.8,1.8l-3.1-1.6l0.5,3.5l-2,0.2l-0.2-3.5l-2.7,2.1
		l-1.2-1.6l2.9-1.9l-3.2-1.3l0.9-1.8l3.1,1.6l-0.5-3.5L284.4,508.3z"/>
	<path class="st0" d="M268.4,500.9l-2.5,3.4c-1.5-1.6-3.8-2.9-6.7-3c-2.5,0-3.7,1.1-3.7,2.3c-0.1,3.7,12.2,1.4,12,9.3
		c-0.1,3.5-3.2,6.4-8.1,6.3c-3.4-0.1-6.1-1.1-8.2-3.1l2.6-3.3c1.7,1.6,4,2.4,6.1,2.4c1.9,0,3-0.8,3.1-2.1c0.1-3.4-12.1-1.3-12-9.2
		c0.1-3.9,2.9-6.8,8.6-6.7C263.6,497.5,266.5,498.9,268.4,500.9z"/>
	<path class="st0" d="M248.5,508.3c-0.6,6.4-5.7,10.5-12,9.9c-6.4-0.6-10.6-5.6-10-11.9c0.6-6.4,5.7-10.5,12-9.9
		C244.9,497,249.1,502,248.5,508.3z M231.1,506.7c-0.4,4,1.9,7.2,5.8,7.5c3.9,0.4,6.7-2.4,7-6.3c0.4-3.9-1.9-7.2-5.7-7.5
		C234.3,500,231.5,502.8,231.1,506.7z"/>
	<path class="st0" d="M224,505.9c-1.2,6.4-6.9,9.9-13.1,8.7c-4.6-0.9-6.8-3.9-7.7-6.7l4.2-1.2c0.6,1.8,2.2,3.5,4.3,3.9
		c3.8,0.7,7.1-1.7,7.8-5.6c0.7-3.9-1.5-7.4-5.2-8.1c-2.2-0.4-4.3,0.6-5.5,2.1l-3.5-2.6c2-2.3,5.1-4.3,9.7-3.5
		C221.2,494.2,225.2,499.5,224,505.9z"/>
	<path class="st0" d="M203.9,491l-5.2,20.5l-4.4-1.1l5.2-20.5L203.9,491z"/>
	<path class="st0" d="M181.9,484.5l0.1,3.8l8.6,2.8l2.4-3l4.9,1.6l-14.3,17.6l-5.4-1.7l-1.3-22.7L181.9,484.5z M182.3,502.2l5.9-7.7
		l-6.3-2L182.3,502.2z"/>
	<path class="st0" d="M175.7,482.3l-8.1,19.6l-4.2-1.7l6.6-15.9l-8.3-3.4l1.5-3.7L175.7,482.3z"/>
	<path class="st0" d="M153.6,472.6l-10.3,18.5l-7.3-4.1c-5.8-3.2-7.8-9.1-4.7-14.7s9.2-7,15-3.8L153.6,472.6z M135.3,474.6
		c-1.8,3.3-1.2,6.9,2.6,9l3.4,1.9l6.4-11.6l-3.4-1.9C140.7,470,137.1,471.4,135.3,474.6z"/>
	<path class="st0" d="M134.1,461.4l-11.4,17.8l-3.8-2.4l11.4-17.8L134.1,461.4z"/>
	<path class="st0" d="M126.4,460.1l-4,1.3c-0.3-2.1-1.4-4.6-3.8-6.3c-2-1.5-3.7-1.2-4.4-0.3c-2.2,3,9.2,8.1,4.5,14.6
		c-2.1,2.9-6.3,3.4-10.3,0.5c-2.7-2-4.4-4.4-4.9-7.2l4-1.2c0.5,2.3,1.9,4.2,3.6,5.5c1.6,1.1,2.9,1.1,3.7,0c2-2.7-9.2-8-4.5-14.4
		c2.3-3.1,6.2-3.9,10.9-0.5C124.4,454.5,126,457.4,126.4,460.1z"/>
	<path class="st0" d="M108.6,442.9l-11.1,13.1l4.7,4l-2.6,3l-12.9-10.9l2.6-3l4.7,4l11.1-13.1L108.6,442.9z"/>
	<path class="st0" d="M89.7,425.5l-1.6,3.5l6.5,6.4l3.5-1.6l3.7,3.6l-20.7,9.4l-4-4l9-20.8L89.7,425.5z M82.2,441.5l8.7-4.2
		l-4.7-4.6L82.2,441.5z"/>
	<path class="st0" d="M75.7,409.8l-4,16.6l10.5-8.9l2.9,3.4L69,434.6l-3-3.5l3.8-16.1l-10.1,8.6l-2.9-3.4l16.2-13.7L75.7,409.8z"/>
	<path class="st0" d="M62.7,410.5c-5.3,3.7-11.8,2.3-15.4-2.9c-2.7-3.8-2.2-7.5-0.9-10.2l3.8,2.1c-0.9,1.7-0.9,4.1,0.3,5.9
		c2.2,3.1,6.2,3.7,9.5,1.4c3.3-2.3,4.1-6.3,1.9-9.4c-1.3-1.8-3.4-2.6-5.4-2.3l-0.7-4.2c3-0.3,6.7,0.4,9.4,4.3
		C68.8,400.2,68,406.8,62.7,410.5z"/>
	<path class="st0" d="M58.7,386.1l-18.3,10.7l-7.6-12.9l3.4-2l5.3,9l3.9-2.3l-5.2-8.8l3.4-2l5.2,8.8l4.1-2.4l-5.3-9l3.4-2
		L58.7,386.1z"/>
	<path class="st0" d="M34.5,365.7l-3.2,1.3l2.9,1.9l-1.1,1.6l-2.7-2.1l-0.1,3.5l-2-0.2l0.5-3.5l-3.1,1.6l-0.8-1.8l3.2-1.3l-2.9-1.9
		l1.2-1.7l2.7,2.1l0.1-3.5l2,0.2l-0.5,3.4l3.1-1.6L34.5,365.7z"/>
	<path class="st0" d="M30.4,348.6l-12.1,4.1l-1.5-4.3l11.9-4.1c2.8-1,4.2-3.2,3.1-6.3c-1.1-3.1-3.5-4-6.3-3.1L13.7,339l-1.5-4.4
		l12-4.1c5-1.7,9.4,0.1,11.5,6.2C37.8,342.8,35.3,346.9,30.4,348.6z"/>
	<path class="st0" d="M28.7,326.5l-3.9-1.5c1.2-1.8,1.9-4.4,1.2-7.2c-0.6-2.4-2-3.3-3.2-3c-3.6,0.9,1.8,12.1-5.9,14
		c-3.4,0.8-7-1.4-8.2-6.2c-0.8-3.3-0.5-6.2,0.9-8.7l3.8,1.6c-1.1,2-1.3,4.4-0.8,6.5c0.5,1.9,1.6,2.7,2.8,2.4
		c3.3-0.8-1.8-12.1,5.8-14c3.8-0.9,7.3,1,8.6,6.6C30.8,320.9,30.2,324.1,28.7,326.5z"/>
	<path class="st0" d="M27,306.3l-20.9,3.5L3.6,295l3.9-0.7l1.7,10.3l4.4-0.7L12,293.8l3.9-0.7l1.7,10.1l4.7-0.8l-1.7-10.3l3.9-0.7
		L27,306.3z"/>
	<path class="st0" d="M22.5,266l-8.9,0.4l0.5,10L23,276l0.2,4.5l-21.2,1L1.9,277l8.3-0.4l-0.5-10L1.4,267l-0.2-4.5l21.2-1L22.5,266z
		"/>
	<path class="st0" d="M23,243.4l-3.6,1.1l-0.4,9.1l3.5,1.5l-0.2,5.1l-20.8-9.1l0.2-5.6l21.5-7.2L23,243.4z M6.1,248.5l9,3.7l0.3-6.6
		L6.1,248.5z"/>
	<path class="st0" d="M25.3,222.4l-15,8.2l13.7,1.8l-0.6,4.5l-21-2.8l0.6-4.6l14.5-7.9l-13.2-1.8l0.6-4.5l21,2.8L25.3,222.4z"/>
	<path class="st0" d="M26.6,214.6l-20.6-4.8l1.9-8.1c1.5-6.5,6.7-10,12.9-8.6c6.2,1.4,9.3,6.9,7.8,13.3L26.6,214.6z M19.6,197.6
		c-3.7-0.8-7,0.7-8,5l-0.9,3.7l12.9,3l0.9-3.7C25.5,201.5,23.1,198.4,19.6,197.6z"/>
	<path class="st0" d="M30.9,185.6l-2.4-3.5c2-0.9,4-2.6,5-5.4c0.8-2.3,0.2-3.9-1-4.3c-3.5-1.3-5.3,11.1-12.8,8.3
		c-3.3-1.2-5-5.1-3.3-9.8c1.1-3.2,3.1-5.4,5.6-6.8l2.2,3.5c-2.1,1.1-3.5,3-4.3,5c-0.7,1.8-0.2,3.1,1,3.6c3.2,1.1,5.2-11.1,12.6-8.4
		c3.6,1.3,5.4,4.9,3.5,10.3C35.7,182.2,33.4,184.5,30.9,185.6z"/>
	<path class="st0" d="M46.6,155l-3.8-0.3l-3.8,8.3l2.7,2.7l-2.1,4.7L23.7,154l2.4-5.1l22.7,1.4L46.6,155z M29,153.3l6.9,6.8l2.8-6
		L29,153.3z"/>
	<path class="st0" d="M56.7,136.5l-17,1.9l12,6.9l-2.3,3.9L31,138.6l2.3-4l16.4-1.9L38.2,126l2.3-3.9l18.4,10.6L56.7,136.5z"/>
	<path class="st0" d="M61.1,129.6l-17.6-11.7l2.5-3.8l17.6,11.7L61.1,129.6z"/>
	<path class="st0" d="M68.7,118.6l-13.8-10.3l-3.7,5l-3.2-2.4l10.1-13.5l3.2,2.4l-3.7,4.9L71.4,115L68.7,118.6z"/>
	<path class="st0" d="M76.8,108.1L60.6,94.5l2.9-3.5l16.2,13.6L76.8,108.1z"/>
	<path class="st0" d="M81.7,102.2L79,99.7l-3-16.6l-6.9,7.3l-2.9-2.7l10.9-11.6l2.6,2.5l3,16.6l7-7.4l2.9,2.7L81.7,102.2z"/>
	<path class="st0" d="M94.9,88.4L80.6,72.8l11.1-10.1l2.7,2.9l-7.7,7.1l3,3.3l7.6-6.9l2.7,2.9l-7.6,6.9l3.2,3.5l7.7-7.1l2.7,2.9
		L94.9,88.4z"/>
	<path class="st0" d="M117.7,69l-7.9-3.4l-2.6,2l4.6,5.9l-3.6,2.8l-13-16.7l7.8-6.1c3.5-2.7,7.4-2.1,9.8,1c2.3,3,1.7,6,0.2,7.8
		l8.7,3.4L117.7,69z M109.3,57.4c-1.1-1.4-2.8-1.4-4.3-0.3l-3.7,2.9l3.5,4.5l3.7-2.9C109.9,60.5,110.3,58.8,109.3,57.4z"/>
	<path class="st0" d="M126.9,48.6l-1.7-3l-1.5,3.2l-1.7-0.9l1.8-3l-3.5,0.3l-0.1-2l3.5,0l-2-2.9l1.7-1.1l1.7,3l1.5-3.1l1.8,0.9
		l-1.8,3l3.5-0.3l0.1,2l-3.5,0l2,2.9L126.9,48.6z"/>
</g>
</svg>
