<?xml version="1.0" encoding="utf-8"?>
<!-- Generator: Adobe Illustrator 23.0.1, SVG Export Plug-In . SVG Version: 6.00 Build 0)  -->
<svg version="1.1" id="Layer_1" xmlns="http://www.w3.org/2000/svg" xmlns:xlink="http://www.w3.org/1999/xlink" x="0px" y="0px"
	 viewBox="0 0 210 95" style="enable-background:new 0 0 210 95;" xml:space="preserve">
<style type="text/css">
	.st0{fill:#01CCE9;}
	.st1{fill:#F79595;}
	.st2{fill:#EE6161;}
	.st3{fill:#F9B1B1;}
	.st4{fill:#F37C7C;}
	.st5{fill:#D5EA79;}
	.st6{fill:#FF7B79;}
</style>
<g>
	<g>
		<path class="st0" d="M97.1,78.7V68.6l-8.7,1.9v-4.1l10.2-2.7h4.7v15.1h7.3v4H88.9v-4H97.1z"/>
		<path class="st0" d="M122.6,86.8c2.8,0,5-0.6,6.7-1.9c1.7-1.3,2.7-3.3,3.2-6h-0.1c-0.9,0.3-1.9,0.6-3.1,0.8
			c-1.2,0.2-2.4,0.3-3.6,0.3c-1.5,0-3-0.2-4.3-0.5c-1.3-0.3-2.5-0.8-3.5-1.5c-1-0.7-1.8-1.5-2.3-2.5c-0.6-1-0.9-2.2-0.9-3.5
			c0-1.2,0.3-2.4,0.8-3.5s1.3-2,2.3-2.8s2.2-1.4,3.7-1.9c1.5-0.5,3.1-0.7,5-0.7c2,0,3.8,0.3,5.4,0.8c1.6,0.6,2.9,1.4,4,2.4
			s1.9,2.4,2.4,3.9c0.6,1.6,0.8,3.3,0.8,5.3c0,1.3-0.1,2.6-0.4,3.9c-0.3,1.3-0.6,2.5-1.2,3.6c-0.5,1.1-1.2,2.2-2.1,3.1
			c-0.8,0.9-1.9,1.7-3,2.4c-1.2,0.7-2.5,1.2-4.1,1.6c-1.5,0.4-3.3,0.6-5.2,0.6c-1.5,0-2.9-0.1-4.2-0.3s-2.5-0.5-3.5-0.9v-4.1
			c1.1,0.4,2.3,0.7,3.6,1C120.3,86.7,121.5,86.8,122.6,86.8z M126.5,76c1,0,2.1-0.1,3.2-0.3c1.1-0.2,2.1-0.4,3-0.8
			c0-1.4-0.2-2.6-0.5-3.6c-0.3-1-0.8-1.8-1.3-2.4s-1.2-1.1-2-1.3c-0.8-0.3-1.6-0.4-2.5-0.4c-0.8,0-1.5,0.1-2.1,0.3
			c-0.6,0.2-1.2,0.5-1.7,0.8c-0.5,0.4-0.8,0.8-1.1,1.4c-0.3,0.6-0.4,1.2-0.4,2c0,0.8,0.1,1.5,0.4,2c0.3,0.5,0.6,1,1.1,1.3
			s1.1,0.6,1.7,0.7C125,75.9,125.7,76,126.5,76z"/>
		<g>
			<g>
				<g>
					<g id="XMLID_1_">
						<g>
							<path class="st1" d="M131.6,71.6c0.2,0,0.3,0.2,0.3,0.4l-0.1,0.7c0,0.2-0.2,0.3-0.4,0.3c-0.2,0-0.3-0.2-0.3-0.4l0,0l-0.9,0
								c0,0-0.1,0-0.1,0c-0.1,0.3-0.2,0.5-0.3,0.7c0,0,0,0.1,0,0.1l0.4,0.5c0.1-0.1,0.2-0.1,0.3-0.1c0.1,0,0.2,0,0.2,0.1
								c0.2,0.1,0.2,0.4,0.1,0.6l-0.1,0.1c-0.1,0.2-0.4,0.2-0.6,0.1c-0.2-0.1-0.2-0.3-0.2-0.5l-0.6-0.2c0,0-0.1,0-0.1,0
								c-0.3,0.3-0.6,0.5-0.9,0.7c0,0,0,0,0,0.1l0.1,0.9l0.1-0.1c0.2-0.1,0.4,0,0.4,0.2c0.1,0.2,0,0.4-0.2,0.4l-0.6,0.3
								c-0.2,0.1-0.4,0-0.4-0.2c-0.1-0.2,0-0.4,0.2-0.4l0,0l-0.5-0.7c0,0,0,0-0.1,0c-0.3,0.1-0.6,0.1-1,0.1c-0.3,0-0.5,0-0.8-0.1
								c0,0-0.1,0-0.1,0l-0.5,0.8l0,0c0.2,0.1,0.3,0.2,0.3,0.4c0,0,0,0.1,0,0.1c0,0.2-0.2,0.4-0.4,0.3l-0.6-0.2
								c-0.2-0.1-0.3-0.3-0.3-0.5c0.1-0.2,0.3-0.3,0.5-0.3l0,0l0.1-1c0,0,0-0.1,0-0.1c-0.4-0.2-0.8-0.5-1.1-0.8c0,0,0,0-0.1,0
								l-0.8,0.3c0.1,0.2,0,0.4-0.1,0.5c-0.2,0.1-0.4,0.1-0.5-0.1l-0.2-0.3c-0.1-0.2-0.1-0.4,0.1-0.5c0.2-0.1,0.4-0.1,0.5,0.1
								l0.5-0.6c0,0,0-0.1,0-0.1c-0.2-0.4-0.4-0.9-0.4-1.3c0,0,0,0,0-0.1l-0.9-0.2l0,0.1c0,0.1,0,0.2-0.1,0.3
								c-0.1,0.1-0.2,0.1-0.3,0.1c-0.2,0-0.4-0.2-0.4-0.4l0-0.6c0-0.2,0.2-0.4,0.4-0.4c0.2,0,0.4,0.2,0.4,0.4l0.9-0.2c0,0,0,0,0-0.1
								c0.1-0.5,0.2-1,0.5-1.4c0,0,0-0.1,0-0.1l-0.4-0.5l0,0c-0.1,0.1-0.3,0.2-0.5,0.1c-0.1-0.1-0.2-0.3,0-0.5l0.3-0.4
								c0.1-0.1,0.2-0.1,0.3-0.1c0.1,0,0.1,0,0.2,0.1c0.1,0.1,0.2,0.3,0.1,0.4l0.6,0.3c0,0,0.1,0,0.1,0c0.3-0.3,0.6-0.6,0.9-0.8
								c0,0,0,0,0-0.1l-0.1-0.9l-0.1,0c-0.2,0.1-0.4,0-0.4-0.2c-0.1-0.2,0-0.4,0.2-0.4l0.6-0.2c0.2-0.1,0.4,0,0.4,0.2
								c0.1,0.2,0,0.4-0.2,0.4l0,0l0.5,0.7c0,0,0,0,0.1,0c0.3-0.1,0.6-0.1,0.9-0.1h0c0,0,0.1,0,0.1,0l0.2-0.5
								c-0.2-0.1-0.3-0.3-0.3-0.5c0-0.2,0.3-0.4,0.5-0.4l0.2,0c0.2,0,0.4,0.2,0.4,0.5c0,0.2-0.2,0.3-0.3,0.4l0.1,0.5
								c0,0,0,0,0.1,0.1c0.4,0.1,0.8,0.2,1.1,0.4c0,0,0.1,0,0.1,0l0.7-0.6l-0.1-0.1c-0.2-0.1-0.2-0.3,0-0.5c0.1-0.1,0.3-0.2,0.5,0
								l0.5,0.4c0.2,0.1,0.2,0.3,0,0.5c-0.1,0.1-0.3,0.2-0.5,0l0,0l-0.4,0.8c0,0,0,0.1,0,0.1c0.3,0.3,0.5,0.6,0.7,0.9c0,0,0,0,0.1,0
								l0.5-0.1c-0.1-0.2,0-0.5,0.3-0.5c0.2-0.1,0.4,0,0.5,0.3l0.1,0.3c0.1,0.2,0,0.4-0.2,0.5c-0.2,0.1-0.4,0-0.5-0.2l-0.4,0.3
								c0,0,0,0,0,0.1c0.1,0.3,0.1,0.7,0.1,1c0,0.1,0,0.1,0,0.2c0,0,0,0.1,0,0.1l0.8,0.4l0-0.1C131.2,71.7,131.4,71.5,131.6,71.6
								L131.6,71.6z"/>
						</g>
					</g>
					<ellipse class="st2" cx="128.1" cy="69.5" rx="0.5" ry="0.5"/>
					<circle class="st2" cx="126.1" cy="72.3" r="0.6"/>
					<circle class="st3" cx="128.5" cy="72" r="0.4"/>
					<circle class="st3" cx="126.9" cy="74.1" r="0.4"/>
					<g>
						<path class="st4" d="M124.1,71.2c0-1.5,0.7-2.8,1.8-3.6c-0.1,0-0.3,0-0.4,0.1c0,0-0.1,0-0.1,0l-0.5-0.7l0,0
							c0.2-0.1,0.3-0.3,0.2-0.4c-0.1-0.2-0.3-0.3-0.4-0.2l-0.6,0.2c-0.2,0.1-0.3,0.3-0.2,0.4c0.1,0.2,0.3,0.3,0.4,0.2l0.1,0l0.1,0.9
							c0,0,0,0.1,0,0.1c-0.4,0.2-0.7,0.5-0.9,0.8c0,0,0,0-0.1,0l-0.6-0.3c0.1-0.1,0.1-0.3-0.1-0.4c-0.1,0-0.1-0.1-0.2-0.1
							c-0.1,0-0.2,0-0.3,0.1l-0.3,0.4c-0.1,0.1-0.1,0.3,0,0.5c0.1,0.1,0.4,0.1,0.5-0.1l0,0l0.4,0.5c0,0,0,0.1,0,0.1
							c-0.2,0.4-0.4,0.9-0.5,1.4c0,0,0,0,0,0.1l-0.9,0.2c0-0.2-0.2-0.4-0.4-0.4c-0.2,0-0.4,0.2-0.4,0.4l0,0.6c0,0.2,0.2,0.4,0.4,0.4
							c0.1,0,0.2,0,0.3-0.1c0.1-0.1,0.1-0.2,0.1-0.3l0-0.1l0.9,0.2c0,0,0,0,0,0.1c0.1,0.5,0.2,0.9,0.4,1.3c0,0,0,0.1,0,0.1l-0.5,0.6
							c-0.1-0.2-0.4-0.2-0.5-0.1c-0.2,0.1-0.2,0.3-0.1,0.5l0.2,0.3c0.1,0.2,0.3,0.2,0.5,0.1c0.2-0.1,0.2-0.3,0.1-0.5l0.8-0.3
							c0,0,0.1,0,0.1,0c0.3,0.3,0.7,0.6,1.1,0.8c0,0,0,0,0,0.1l-0.1,1l0,0c-0.2-0.1-0.5,0-0.5,0.3c-0.1,0.2,0,0.4,0.3,0.5l0.6,0.2
							c0.2,0.1,0.4,0,0.4-0.3c0,0,0-0.1,0-0.1c0-0.2-0.1-0.3-0.3-0.4l0,0l0.5-0.8c0,0,0,0,0.1,0c0.2,0.1,0.5,0.1,0.8,0.1
							c0,0,0.1,0,0.1,0C125.1,74.5,124.1,72.9,124.1,71.2L124.1,71.2z"/>
					</g>
					<circle class="st2" cx="124.3" cy="73.1" r="0.4"/>
				</g>
				
					<ellipse transform="matrix(0.7852 -0.6192 0.6192 0.7852 -16.4209 92.5098)" class="st2" cx="125.2" cy="69.9" rx="1.1" ry="0.9"/>
			</g>
			<g>
				<path d="M131.6,71.4c-0.1,0-0.3,0-0.4,0.1c-0.1,0.1-0.2,0.2-0.2,0.3l-0.6-0.3c0,0,0-0.1,0-0.1c0-0.3,0-0.7-0.1-1l0.3-0.2
					c0.2,0.1,0.4,0.2,0.6,0.1c0.3-0.1,0.4-0.4,0.3-0.7l-0.1-0.3c-0.1-0.3-0.4-0.5-0.7-0.4c-0.1,0-0.3,0.2-0.3,0.3
					c0,0.1-0.1,0.2-0.1,0.3l-0.3,0c0-0.1-0.1-0.1-0.1-0.2c0-0.1-0.2-0.1-0.2-0.1c-0.1,0-0.1,0.2-0.1,0.2c0.1,0.1,0.1,0.2,0.2,0.3
					c0,0.1,0.1,0.1,0.2,0.1l0.5-0.1c0,0,0.1,0,0.1-0.1c0,0,0-0.1,0-0.1c0-0.1,0-0.1,0-0.2c0-0.1,0.1-0.1,0.1-0.1
					c0.1,0,0.3,0,0.3,0.2l0.1,0.3c0,0.1,0,0.3-0.1,0.3c-0.1,0-0.2,0-0.3-0.1c0,0-0.1-0.1-0.1-0.1c0,0-0.1,0-0.1,0l-0.4,0.3
					c-0.1,0.1-0.1,0.2-0.1,0.3c0.1,0.3,0.1,0.6,0.1,1c0,0.1,0,0.1,0,0.2c0,0.1,0.1,0.2,0.1,0.2l0.8,0.4c0,0,0.1,0,0.1,0
					c0,0,0.1-0.1,0.1-0.1l0-0.1c0,0,0-0.1,0.1-0.1c0,0,0.1,0,0.1,0c0.1,0,0.2,0.1,0.1,0.2l-0.1,0.7c0,0,0,0.1-0.1,0.1
					c0,0-0.1,0-0.1,0c-0.1,0-0.1-0.1-0.1-0.2l0,0c0,0,0-0.1,0-0.1c0,0-0.1-0.1-0.1-0.1l-0.9,0c-0.1,0-0.2,0.1-0.2,0.2
					c-0.1,0.2-0.2,0.5-0.3,0.7c0,0.1,0,0.2,0,0.3L130,74c0,0,0.1,0.1,0.1,0.1c0,0,0.1,0,0.1,0c0.1-0.1,0.2-0.1,0.3,0
					c0.1,0,0.1,0.1,0.1,0.2s0,0.1,0,0.2l-0.1,0.1c-0.1,0.1-0.2,0.1-0.3,0.1c-0.1-0.1-0.1-0.2-0.1-0.3c0-0.1,0-0.2-0.1-0.2l-0.6-0.2
					c-0.1,0-0.2,0-0.3,0.1c-0.3,0.3-0.5,0.5-0.9,0.7c-0.1,0-0.1,0.1-0.1,0.2l0.1,0.9c0,0,0,0.1,0.1,0.1c0,0,0.1,0,0.1,0l0.1-0.1
					c0,0,0.1,0,0.1,0c0,0,0.1,0.1,0.1,0.1c0,0.1,0,0.2-0.1,0.2l-0.6,0.3c0,0-0.1,0-0.1,0c0,0-0.1-0.1-0.1-0.1c0-0.1,0-0.2,0.1-0.2
					l0,0c0,0,0.1-0.1,0.1-0.1c0,0,0-0.1,0-0.1l-0.5-0.7c-0.1-0.1-0.2-0.1-0.2-0.1c-0.3,0.1-0.6,0.1-0.9,0.1c-0.2,0-0.5,0-0.7-0.1
					c-0.1,0-0.2,0-0.2,0.1l-0.5,0.8c0,0,0,0.1,0,0.1c0,0,0.1,0.1,0.1,0.1l0,0c0.1,0,0.1,0.1,0.1,0.1c0,0.1,0,0.1,0,0.2
					c0,0,0,0,0,0.1c0,0.1,0,0.1-0.1,0.1c0,0-0.1,0-0.1,0l-0.6-0.2c-0.1,0-0.2-0.2-0.2-0.3c0-0.1,0.1-0.1,0.1-0.1c0.1,0,0.1,0,0.2,0
					l0,0c0,0,0.1,0,0.1,0c0,0,0.1-0.1,0.1-0.1l0.1-1c0-0.1,0-0.2-0.1-0.2c-0.4-0.2-0.7-0.5-1-0.8c-0.1-0.1-0.2-0.1-0.3-0.1l-0.8,0.3
					c0,0-0.1,0.1-0.1,0.1c0,0,0,0.1,0,0.1c0,0.1,0,0.2-0.1,0.3c-0.1,0.1-0.2,0-0.3-0.1l-0.2-0.3c-0.1-0.1,0-0.2,0-0.3
					c0,0,0.1,0,0.2,0c0.1,0,0.1,0,0.1,0.1c0,0,0.1,0.1,0.1,0.1c0,0,0.1,0,0.1-0.1l0.5-0.6c0.1-0.1,0.1-0.2,0-0.3
					c-0.1-0.1-0.1-0.2-0.2-0.3c0-0.1-0.1-0.1-0.2-0.1c-0.1,0-0.1,0.1-0.1,0.2c0,0.1,0.1,0.2,0.1,0.3l-0.4,0.4
					c-0.1,0-0.1-0.1-0.2-0.1c-0.1,0-0.3,0-0.4,0.1c-0.2,0.2-0.3,0.5-0.1,0.7l0.2,0.3c0.2,0.2,0.5,0.3,0.7,0.1
					c0.2-0.1,0.3-0.3,0.2-0.5l0.6-0.2c0.3,0.3,0.6,0.6,1,0.8l-0.1,0.7c-0.1,0-0.2,0-0.3,0.1c-0.1,0.1-0.2,0.2-0.3,0.3
					c-0.1,0.3,0.1,0.6,0.3,0.7l0.6,0.2c0.1,0,0.1,0,0.2,0c0.1,0,0.2,0,0.3-0.1c0.1-0.1,0.2-0.2,0.2-0.4c0-0.1,0-0.3,0-0.4
					c0-0.1-0.1-0.2-0.2-0.2l0.4-0.6c0.6,0.1,1.1,0.1,1.7,0l0.4,0.5c-0.1,0.1-0.2,0.3-0.1,0.5c0,0.1,0.1,0.2,0.3,0.3
					c0.1,0.1,0.3,0.1,0.4,0l0.6-0.3c0.3-0.1,0.4-0.4,0.3-0.6c0-0.1-0.1-0.2-0.3-0.3c-0.1,0-0.2-0.1-0.3,0l-0.1-0.6
					c0.3-0.2,0.6-0.4,0.8-0.7l0.4,0.2c0,0.2,0.1,0.4,0.2,0.5c0.3,0.2,0.6,0.1,0.8-0.1l0.1-0.1c0.1-0.1,0.1-0.3,0.1-0.4
					c0-0.2-0.1-0.3-0.2-0.4c-0.2-0.1-0.4-0.2-0.6-0.1l-0.3-0.3c0.1-0.2,0.2-0.4,0.3-0.7l0.6,0c0,0.2,0.2,0.4,0.4,0.4
					c0.1,0,0.3,0,0.4-0.1c0.1-0.1,0.2-0.2,0.2-0.3L132,72C132,71.7,131.9,71.5,131.6,71.4L131.6,71.4z"/>
				<path d="M121.8,71.8l0.6,0.1c0,0.1,0,0.2,0,0.3c0,0.1,0.1,0.1,0.2,0.1c0,0,0,0,0,0c0.1,0,0.1-0.1,0.1-0.2c0-0.1,0-0.2-0.1-0.3
					c0-0.1-0.1-0.2-0.2-0.2l-0.9-0.2c0,0-0.1,0-0.1,0c0,0-0.1,0.1-0.1,0.1l0,0.1c0,0.1-0.1,0.2-0.2,0.2c-0.1,0-0.1,0-0.1-0.1
					c0,0-0.1-0.1-0.1-0.1l0-0.6c0-0.1,0-0.1,0.1-0.2c0,0,0.1-0.1,0.1-0.1c0.1,0,0.2,0.1,0.2,0.2c0,0.1,0,0.1,0.1,0.1
					c0,0,0.1,0,0.1,0l0.9-0.2c0.1,0,0.2-0.1,0.2-0.2c0.1-0.5,0.2-0.9,0.5-1.3c0-0.1,0-0.2,0-0.3l-0.4-0.5c0,0-0.1-0.1-0.1-0.1
					c0,0-0.1,0-0.1,0.1l0,0c0,0-0.1,0.1-0.1,0.1c0,0-0.1,0-0.1,0c-0.1-0.1-0.1-0.2,0-0.2l0.3-0.4c0.1-0.1,0.2-0.1,0.2,0
					c0.1,0.1,0.1,0.1,0,0.2c0,0,0,0.1,0,0.1c0,0,0,0.1,0.1,0.1l0.6,0.3c0.1,0,0.2,0,0.3-0.1c0.3-0.3,0.6-0.5,0.9-0.7
					c0.1,0,0.1-0.1,0.1-0.2l-0.1-0.9c0,0,0-0.1-0.1-0.1c0,0-0.1,0-0.1,0l-0.1,0c0,0-0.1,0-0.1,0c0,0-0.1-0.1-0.1-0.1
					c0-0.1,0-0.2,0.1-0.2l0.6-0.2c0,0,0.1,0,0.1,0c0,0,0.1,0.1,0.1,0.1c0,0.1,0,0.2-0.1,0.2l0,0c0,0-0.1,0.1-0.1,0.1
					c0,0,0,0.1,0,0.1l0.5,0.7c0.1,0.1,0.2,0.1,0.2,0.1c0.3-0.1,0.6-0.1,0.9-0.1h0c0.1,0,0.2-0.1,0.2-0.2l0.2-0.5c0,0,0-0.1,0-0.1
					c0,0-0.1-0.1-0.1-0.1c-0.1,0-0.2-0.2-0.2-0.3c0-0.1,0-0.1,0.1-0.2c0.1,0,0.1-0.1,0.2-0.1l0.2,0c0.1,0,0.3,0.2,0.2,0.3
					c0,0.1-0.1,0.2-0.2,0.2c-0.1,0-0.1,0.1-0.1,0.2l0.1,0.5c0,0.1,0.1,0.2,0.2,0.2c0.4,0.1,0.7,0.2,1,0.4c0.1,0,0.2,0,0.3,0l0.7-0.6
					c0,0,0.1-0.1,0.1-0.1c0,0,0-0.1-0.1-0.1l-0.1-0.1c0,0-0.1-0.1-0.1-0.1c0,0,0-0.1,0-0.1c0.1-0.1,0.2-0.1,0.3,0l0.5,0.4
					c0,0,0.1,0.1,0.1,0.1c0,0,0,0.1,0,0.1c-0.1,0.1-0.2,0.1-0.3,0l0,0c0,0-0.1,0-0.1,0c0,0-0.1,0-0.1,0.1l-0.4,0.8
					c0,0.1,0,0.2,0,0.3c0,0,0,0,0.1,0.1c0.1,0.1,0.2,0.1,0.2,0c0.1-0.1,0.1-0.2,0-0.2c0,0,0,0,0,0l0.3-0.6c0.2,0.1,0.4,0,0.5-0.1
					c0.1-0.1,0.1-0.2,0.1-0.4c0-0.1-0.1-0.3-0.2-0.4l-0.5-0.4c-0.2-0.2-0.5-0.1-0.7,0.1c-0.1,0.1-0.1,0.2-0.1,0.4
					c0,0.1,0.1,0.2,0.1,0.3l-0.5,0.4c-0.3-0.2-0.7-0.3-1-0.4l0-0.3c0.2-0.1,0.3-0.3,0.3-0.5c0-0.3-0.2-0.6-0.5-0.7l-0.2,0
					c-0.2,0-0.3,0-0.5,0.1c-0.1,0.1-0.2,0.2-0.2,0.4c0,0.2,0.1,0.4,0.3,0.6l-0.1,0.3c-0.3,0-0.6,0-0.8,0.1l-0.4-0.5
					c0.1-0.1,0.2-0.3,0.1-0.5c0-0.1-0.1-0.2-0.3-0.3c-0.1-0.1-0.3-0.1-0.4,0l-0.6,0.2c-0.3,0.1-0.4,0.4-0.3,0.6
					c0,0.1,0.1,0.2,0.3,0.3c0.1,0,0.2,0.1,0.3,0l0.1,0.6c-0.3,0.2-0.6,0.4-0.9,0.7l-0.4-0.2c0-0.2,0-0.4-0.2-0.5
					c-0.1-0.1-0.2-0.1-0.4-0.1c-0.1,0-0.2,0.1-0.3,0.2l-0.3,0.4c-0.2,0.2-0.1,0.5,0.1,0.7c0.1,0.1,0.2,0.1,0.4,0.1
					c0.1,0,0.2,0,0.2-0.1l0.2,0.3c-0.2,0.4-0.4,0.9-0.5,1.3l-0.6,0.1c-0.1-0.2-0.3-0.3-0.5-0.3c-0.1,0-0.3,0-0.4,0.1
					c-0.1,0.1-0.2,0.2-0.2,0.4l0,0.6c0,0.1,0.1,0.3,0.2,0.4c0.1,0.1,0.2,0.2,0.4,0.2C121.6,72.3,121.8,72.1,121.8,71.8L121.8,71.8z"
					/>
				<path d="M125.6,71c0.1,0,0.1-0.1,0.1-0.2c0-0.1-0.1-0.1-0.2-0.1c-0.4,0.2-0.8,0.2-1.1-0.1c-0.1-0.2-0.2-0.4-0.1-0.6
					c0-0.2,0.2-0.5,0.4-0.6c0.2-0.2,0.5-0.2,0.7-0.2c0.2,0,0.4,0.1,0.6,0.3c0.2,0.2,0.2,0.6,0,0.9c0,0.1,0,0.2,0.1,0.2
					c0.1,0,0.2,0,0.2-0.1c0.3-0.4,0.3-0.9,0-1.3c-0.2-0.2-0.5-0.4-0.8-0.4c-0.3,0-0.6,0.1-0.9,0.3c-0.3,0.2-0.5,0.5-0.5,0.8
					c-0.1,0.3,0,0.6,0.2,0.9c0.2,0.3,0.5,0.4,0.8,0.4C125.2,71.1,125.4,71.1,125.6,71L125.6,71z"/>
				<path d="M128.8,69.5c0-0.3-0.3-0.6-0.7-0.6c-0.4,0-0.7,0.3-0.7,0.6c0,0.3,0.3,0.6,0.7,0.6C128.5,70.1,128.8,69.8,128.8,69.5z
					 M127.7,69.5c0-0.2,0.2-0.3,0.4-0.3c0.2,0,0.4,0.1,0.4,0.3c0,0.2-0.2,0.3-0.4,0.3C127.9,69.8,127.7,69.6,127.7,69.5z"/>
				<path d="M126.9,72.3c0-0.4-0.3-0.8-0.8-0.8c-0.4,0-0.8,0.3-0.8,0.8s0.3,0.8,0.8,0.8C126.6,73.1,126.9,72.7,126.9,72.3z
					 M125.7,72.3c0-0.2,0.2-0.4,0.4-0.4c0.2,0,0.4,0.2,0.4,0.4s-0.2,0.4-0.4,0.4C125.9,72.7,125.7,72.5,125.7,72.3z"/>
				<path d="M129,72c0-0.3-0.3-0.6-0.6-0.6c-0.3,0-0.6,0.3-0.6,0.6s0.3,0.6,0.6,0.6C128.8,72.6,129,72.3,129,72z M128.2,72
					c0-0.1,0.1-0.3,0.3-0.3c0.1,0,0.3,0.1,0.3,0.3s-0.1,0.3-0.3,0.3C128.3,72.3,128.2,72.1,128.2,72z"/>
				<path d="M126.9,74.6c0.3,0,0.6-0.3,0.6-0.6c0-0.3-0.3-0.6-0.6-0.6s-0.6,0.3-0.6,0.6S126.6,74.6,126.9,74.6z M126.9,73.8
					c0.1,0,0.2,0.1,0.2,0.2s-0.1,0.2-0.2,0.2s-0.2-0.1-0.2-0.2S126.7,73.8,126.9,73.8z"/>
				<path d="M124.3,73.7c0.3,0,0.6-0.3,0.6-0.6c0-0.3-0.3-0.6-0.6-0.6s-0.6,0.3-0.6,0.6C123.7,73.4,124,73.7,124.3,73.7z
					 M124.3,72.8c0.1,0,0.3,0.1,0.3,0.3s-0.1,0.3-0.3,0.3s-0.3-0.1-0.3-0.3S124.1,72.8,124.3,72.8z"/>
				<path d="M127.6,71c0-0.1-0.1-0.2-0.2-0.2h-0.1c-0.1,0-0.2,0.1-0.2,0.2c0,0.1,0.1,0.2,0.2,0.2h0.1
					C127.6,71.2,127.6,71.1,127.6,71z"/>
				<path d="M125.4,74.1h0.1c0.1,0,0.2-0.1,0.2-0.2s-0.1-0.2-0.2-0.2h-0.1c-0.1,0-0.2,0.1-0.2,0.2S125.3,74.1,125.4,74.1z"/>
				<path d="M124,71.7c0.1,0,0.2-0.1,0.2-0.2c0-0.1-0.1-0.2-0.2-0.2h-0.1c-0.1,0-0.2,0.1-0.2,0.2c0,0.1,0.1,0.2,0.2,0.2H124z"/>
				<path d="M126.9,68.8c0.1,0,0.2-0.1,0.2-0.2s-0.1-0.2-0.2-0.2h-0.2c-0.1,0-0.2,0.1-0.2,0.2s0.1,0.2,0.2,0.2H126.9z"/>
				<path d="M128,73.2c-0.1,0-0.2,0.1-0.2,0.2c0,0.1,0.1,0.2,0.2,0.2h0.2c0.1,0,0.2-0.1,0.2-0.2c0-0.1-0.1-0.2-0.2-0.2H128z"/>
			</g>
		</g>
		<g>
			<g>
				<g>
					<g id="XMLID_4_">
						<g>
							<path class="st1" d="M90.7,81.2c0.3,0.1,0.6,0.4,0.5,0.7l-0.2,1.3c-0.1,0.3-0.4,0.6-0.8,0.5c-0.3-0.1-0.5-0.4-0.5-0.7l0,0
								l-1.6,0.1c0,0-0.1,0-0.1,0.1c-0.2,0.5-0.4,0.9-0.6,1.4c0,0,0,0.1,0,0.1l0.7,0.9c0.1-0.1,0.3-0.2,0.5-0.2
								c0.2,0,0.3,0.1,0.5,0.2c0.3,0.3,0.4,0.7,0.1,1.1L89,86.6c-0.2,0.3-0.7,0.4-1,0.2c-0.3-0.2-0.4-0.6-0.3-0.9l-1-0.5
								c0,0-0.1,0-0.1,0c-0.5,0.5-1,1-1.7,1.3c0,0-0.1,0.1-0.1,0.1l0.3,1.6l0.2-0.1c0.3-0.1,0.7,0,0.8,0.4c0.1,0.3-0.1,0.7-0.4,0.8
								l-1.2,0.5c-0.3,0.1-0.7,0-0.8-0.4c-0.1-0.3,0.1-0.7,0.4-0.8l0,0l-0.9-1.3c0,0-0.1-0.1-0.1,0c-0.6,0.1-1.2,0.2-1.8,0.2
								c-0.5,0-1,0-1.4-0.1c0,0-0.1,0-0.1,0.1l-0.9,1.5l0,0c0.3,0.1,0.5,0.4,0.5,0.7c0,0.1,0,0.2,0,0.3c0,0.4-0.3,0.7-0.8,0.5
								l-1.2-0.4c-0.4-0.1-0.6-0.6-0.5-1c0.1-0.4,0.6-0.6,1-0.5l0,0l0.2-1.7c0,0,0-0.1-0.1-0.1c-0.7-0.4-1.4-0.9-1.9-1.5
								c0,0-0.1,0-0.1,0l-1.4,0.6c0.2,0.3,0.1,0.7-0.2,0.9c-0.3,0.2-0.7,0.1-0.9-0.2l-0.4-0.5c-0.2-0.3-0.2-0.7,0.1-0.9
								c0.3-0.2,0.7-0.2,0.9,0.1l1-1.1c0,0,0-0.1,0-0.1c-0.4-0.7-0.7-1.6-0.8-2.4c0,0,0-0.1-0.1-0.1l-1.6-0.4l0,0.2
								c0,0.2-0.1,0.4-0.2,0.5c-0.1,0.1-0.3,0.2-0.5,0.2c-0.4,0-0.7-0.3-0.7-0.7l0-1.2c0-0.4,0.3-0.7,0.7-0.7c0.4,0,0.7,0.3,0.7,0.7
								l1.6-0.4c0,0,0.1-0.1,0.1-0.1c0.1-0.9,0.4-1.8,0.9-2.6c0,0,0-0.1,0-0.1l-0.8-0.9l-0.1,0.1c-0.2,0.3-0.6,0.3-0.9,0.1
								c-0.2-0.2-0.3-0.6-0.1-0.8l0.5-0.7c0.1-0.2,0.3-0.2,0.5-0.2c0.1,0,0.3,0,0.4,0.1c0.2,0.2,0.3,0.5,0.1,0.8l1.1,0.5
								c0,0,0.1,0,0.1,0c0.5-0.5,1.1-1,1.7-1.4c0,0,0.1-0.1,0.1-0.1l-0.2-1.6L77.4,73c-0.3,0.1-0.7,0-0.8-0.4
								c-0.1-0.3,0.1-0.7,0.4-0.8l1.2-0.5c0.3-0.1,0.7,0,0.8,0.4c0.1,0.3-0.1,0.7-0.4,0.8l0,0l0.9,1.3c0,0,0.1,0.1,0.1,0
								c0.5-0.1,1.1-0.2,1.7-0.2h0c0.1,0,0.1,0,0.1-0.1l0.3-0.9c-0.4-0.1-0.6-0.5-0.5-0.8c0.1-0.4,0.5-0.7,0.9-0.7l0.4,0.1
								c0.4,0.1,0.8,0.4,0.7,0.9c0,0.3-0.3,0.6-0.6,0.7l0.1,0.9c0,0.1,0,0.1,0.1,0.1c0.7,0.2,1.4,0.4,2,0.8c0,0,0.1,0,0.1,0l1.3-1
								L86,73.5c-0.3-0.2-0.3-0.6-0.1-0.9c0.2-0.3,0.6-0.3,0.9-0.1l1,0.8c0.3,0.2,0.3,0.6,0.1,0.9c-0.2,0.3-0.6,0.3-0.9,0.1l0,0
								l-0.7,1.5c0,0,0,0.1,0,0.1c0.5,0.5,0.9,1.1,1.2,1.7c0,0,0.1,0.1,0.1,0.1l1-0.1c-0.1-0.4,0.1-0.8,0.5-1
								c0.4-0.1,0.8,0.1,0.9,0.5l0.2,0.6c0.1,0.4,0,0.8-0.4,1c-0.4,0.2-0.8,0-0.9-0.3l-0.8,0.5c0,0-0.1,0.1,0,0.1
								c0.2,0.6,0.3,1.2,0.3,1.9c0,0.1,0,0.2,0,0.3c0,0,0,0.1,0.1,0.1l1.5,0.7l0-0.2C90,81.3,90.3,81.1,90.7,81.2L90.7,81.2z"/>
						</g>
					</g>
					<ellipse class="st2" cx="84.3" cy="77.3" rx="1" ry="0.8"/>
					<circle class="st2" cx="80.8" cy="82.5" r="1.1"/>
					<circle class="st3" cx="85" cy="81.9" r="0.8"/>
					<circle class="st3" cx="82.1" cy="85.7" r="0.8"/>
					<g>
						<path class="st4" d="M77,80.5c0-2.7,1.3-5.1,3.3-6.6c-0.2,0-0.5,0.1-0.7,0.1c0,0-0.1,0-0.1,0l-0.9-1.3l0,0
							c0.3-0.1,0.5-0.5,0.4-0.8c-0.1-0.3-0.5-0.5-0.8-0.4L77,71.9c-0.3,0.1-0.5,0.5-0.4,0.8c0.1,0.3,0.5,0.5,0.8,0.4l0.2-0.1
							l0.2,1.6c0,0,0,0.1-0.1,0.1c-0.6,0.4-1.2,0.8-1.7,1.4c0,0-0.1,0-0.1,0l-1.1-0.5c0.2-0.3,0.1-0.6-0.1-0.8
							c-0.1-0.1-0.2-0.1-0.4-0.1c-0.2,0-0.4,0.1-0.5,0.2l-0.5,0.7c-0.2,0.3-0.2,0.6,0.1,0.8c0.3,0.2,0.7,0.2,0.9-0.1l0.1-0.1
							l0.8,0.9c0,0,0,0.1,0,0.1c-0.4,0.8-0.7,1.6-0.9,2.6c0,0,0,0.1-0.1,0.1l-1.6,0.4c0-0.4-0.3-0.7-0.7-0.7c-0.4,0-0.7,0.3-0.7,0.7
							l0,1.2c0,0.4,0.3,0.7,0.7,0.7c0.2,0,0.4-0.1,0.5-0.2c0.1-0.1,0.2-0.3,0.2-0.5l0-0.2l1.6,0.4c0,0,0.1,0.1,0.1,0.1
							c0.1,0.9,0.4,1.7,0.8,2.4c0,0,0,0.1,0,0.1l-1,1.1c-0.2-0.3-0.6-0.4-0.9-0.1c-0.3,0.2-0.3,0.6-0.1,0.9l0.4,0.5
							c0.2,0.3,0.6,0.4,0.9,0.2c0.3-0.2,0.4-0.6,0.2-0.9l1.4-0.6c0,0,0.1,0,0.1,0c0.6,0.6,1.2,1.1,1.9,1.5c0,0,0.1,0.1,0.1,0.1
							l-0.2,1.7l0,0c-0.4-0.1-0.9,0.1-1,0.5c-0.1,0.4,0.1,0.8,0.5,1l1.2,0.4c0.4,0.2,0.8-0.1,0.8-0.5c0-0.1,0-0.2,0-0.3
							c0-0.3-0.2-0.6-0.5-0.7l0,0l0.9-1.5c0,0,0.1-0.1,0.1-0.1c0.5,0.1,0.9,0.1,1.4,0.1c0.1,0,0.1,0,0.2,0
							C78.8,86.4,77,83.6,77,80.5L77,80.5z"/>
					</g>
					<circle class="st2" cx="77.4" cy="83.9" r="0.8"/>
				</g>
				<ellipse transform="matrix(0.7852 -0.6192 0.6192 0.7852 -31.4389 65.6806)" class="st2" cx="79" cy="78.2" rx="2.1" ry="1.7"/>
			</g>
			<g>
				<path d="M90.7,80.9c-0.2,0-0.5,0-0.7,0.1c-0.2,0.1-0.3,0.3-0.4,0.5L88.6,81c0-0.1,0-0.1,0-0.2c0-0.6-0.1-1.2-0.2-1.8l0.5-0.3
					c0.3,0.3,0.7,0.3,1.1,0.2c0.5-0.2,0.8-0.8,0.6-1.3l-0.2-0.6c-0.2-0.5-0.8-0.8-1.3-0.6c-0.3,0.1-0.5,0.3-0.6,0.5
					c-0.1,0.1-0.1,0.3-0.1,0.5l-0.5,0.1c-0.1-0.1-0.2-0.3-0.2-0.4c-0.1-0.1-0.3-0.2-0.4-0.1c-0.1,0.1-0.2,0.3-0.1,0.4
					c0.1,0.2,0.2,0.3,0.3,0.5c0.1,0.2,0.3,0.2,0.4,0.2l1-0.1c0.1,0,0.2-0.1,0.2-0.1s0.1-0.2,0-0.3c0-0.1,0-0.2,0-0.4
					c0.1-0.1,0.1-0.2,0.3-0.2c0.2-0.1,0.5,0.1,0.6,0.3l0.2,0.6c0.1,0.2,0,0.5-0.2,0.6c-0.2,0.1-0.4,0-0.6-0.2c0-0.1-0.1-0.1-0.2-0.1
					c-0.1,0-0.2,0-0.2,0l-0.8,0.5c-0.1,0.1-0.2,0.3-0.2,0.5c0.2,0.6,0.2,1.2,0.2,1.8c0,0.1,0,0.2,0,0.3c0,0.2,0.1,0.3,0.3,0.4
					l1.5,0.7c0.1,0,0.2,0,0.3,0c0.1,0,0.1-0.1,0.2-0.2l0-0.2c0-0.1,0.1-0.2,0.1-0.2c0.1,0,0.2-0.1,0.2,0c0.2,0,0.3,0.2,0.3,0.4
					l-0.2,1.3c0,0.1-0.1,0.2-0.1,0.2c-0.1,0-0.2,0.1-0.3,0c-0.2,0-0.3-0.2-0.2-0.4l0,0c0-0.1,0-0.2-0.1-0.3
					c-0.1-0.1-0.1-0.1-0.2-0.1l-1.6,0.1c-0.2,0-0.3,0.1-0.4,0.3c-0.2,0.5-0.3,0.9-0.6,1.3c-0.1,0.2-0.1,0.3,0,0.5l0.7,0.9
					c0.1,0.1,0.1,0.1,0.2,0.1c0.1,0,0.2,0,0.2-0.1c0.2-0.2,0.4-0.2,0.6,0c0.1,0.1,0.2,0.2,0.2,0.3c0,0.1,0,0.2-0.1,0.3l-0.2,0.3
					c-0.1,0.2-0.4,0.2-0.6,0.1c-0.2-0.1-0.2-0.3-0.2-0.5c0-0.1,0-0.3-0.2-0.4l-1-0.5c-0.2-0.1-0.4,0-0.5,0.1c-0.5,0.5-1,0.9-1.6,1.3
					c-0.1,0.1-0.2,0.3-0.2,0.4l0.3,1.6c0,0.1,0.1,0.2,0.1,0.2c0.1,0,0.2,0.1,0.3,0l0.2-0.1c0.1,0,0.2,0,0.3,0c0.1,0,0.1,0.1,0.2,0.2
					c0.1,0.2,0,0.3-0.2,0.4l-1.2,0.5c-0.1,0-0.2,0-0.3,0c-0.1,0-0.1-0.1-0.2-0.2c-0.1-0.2,0-0.3,0.2-0.4l0,0c0.1,0,0.2-0.1,0.2-0.2
					c0-0.1,0-0.2,0-0.3l-0.9-1.3c-0.1-0.1-0.3-0.2-0.4-0.2c-0.6,0.1-1.1,0.2-1.7,0.2c-0.5,0-0.9,0-1.3-0.1c-0.2,0-0.3,0-0.4,0.2
					L78.6,89c0,0.1-0.1,0.2,0,0.3c0,0.1,0.1,0.2,0.2,0.2l0,0c0.1,0,0.2,0.1,0.3,0.2c0.1,0.1,0.1,0.2,0,0.3c0,0,0,0.1,0,0.1
					c0,0.1,0,0.2-0.1,0.2c-0.1,0-0.2,0-0.3,0L77.5,90c-0.2-0.1-0.4-0.3-0.3-0.6c0-0.1,0.1-0.2,0.2-0.3c0.1-0.1,0.3-0.1,0.4,0l0,0
					c0.1,0,0.2,0,0.3,0c0.1,0,0.1-0.1,0.1-0.2l0.2-1.7c0-0.2-0.1-0.3-0.2-0.4c-0.7-0.4-1.3-0.8-1.9-1.4c-0.1-0.1-0.3-0.2-0.5-0.1
					l-1.4,0.6c-0.1,0-0.1,0.1-0.2,0.2c0,0.1,0,0.2,0,0.2c0.1,0.2,0,0.4-0.1,0.5c-0.2,0.1-0.4,0.1-0.5-0.1l-0.4-0.5
					c-0.1-0.2-0.1-0.4,0.1-0.5c0.1-0.1,0.2-0.1,0.3-0.1c0.1,0,0.2,0.1,0.2,0.1c0.1,0.1,0.1,0.1,0.2,0.1c0.1,0,0.2,0,0.2-0.1l1-1.1
					c0.1-0.1,0.1-0.3,0.1-0.5c-0.1-0.2-0.2-0.4-0.3-0.6c-0.1-0.2-0.2-0.2-0.4-0.2c-0.2,0.1-0.2,0.2-0.2,0.4c0.1,0.2,0.2,0.4,0.3,0.5
					L74.1,85c-0.1-0.1-0.2-0.1-0.4-0.1c-0.3,0-0.5,0-0.7,0.2c-0.4,0.3-0.5,0.9-0.2,1.3l0.4,0.5c0.3,0.4,0.9,0.6,1.3,0.3
					c0.3-0.2,0.5-0.6,0.4-0.9l1-0.4c0.5,0.6,1.2,1,1.8,1.4l-0.1,1.3c-0.2,0-0.3,0-0.5,0.1c-0.3,0.1-0.5,0.3-0.5,0.6
					c-0.2,0.5,0.1,1.1,0.6,1.3l1.2,0.4c0.1,0,0.2,0.1,0.3,0.1c0.2,0,0.3,0,0.5-0.1c0.2-0.1,0.3-0.4,0.3-0.7c0.1-0.3,0.1-0.5-0.1-0.8
					c-0.1-0.2-0.2-0.3-0.3-0.4l0.7-1.1c1,0.2,2.1,0.2,3.1-0.1l0.7,1c-0.3,0.2-0.4,0.6-0.3,1c0.1,0.2,0.3,0.4,0.5,0.5
					c0.2,0.1,0.5,0.1,0.7,0l1.2-0.5c0.5-0.2,0.7-0.7,0.5-1.2c-0.1-0.2-0.3-0.4-0.5-0.5c-0.2-0.1-0.4-0.1-0.6-0.1l-0.2-1.1
					c0.6-0.3,1.1-0.8,1.5-1.2l0.7,0.3c0,0.4,0.1,0.7,0.5,0.9c0.5,0.3,1.1,0.2,1.4-0.2l0.2-0.3c0.2-0.2,0.2-0.5,0.2-0.8
					c0-0.3-0.2-0.5-0.4-0.7c-0.3-0.2-0.7-0.3-1.1-0.1l-0.5-0.5c0.2-0.4,0.4-0.8,0.5-1.2l1.2-0.1c0.1,0.4,0.3,0.7,0.7,0.8
					c0.2,0.1,0.5,0,0.7-0.1c0.2-0.1,0.4-0.4,0.4-0.6l0.2-1.3C91.5,81.4,91.2,81,90.7,80.9L90.7,80.9z"/>
				<path d="M72.9,81.7l1.1,0.3c0,0.2,0.1,0.3,0.1,0.5c0,0.1,0.2,0.2,0.3,0.2c0,0,0,0,0.1,0c0.2,0,0.3-0.2,0.2-0.4
					c0-0.2-0.1-0.4-0.1-0.5c0-0.2-0.2-0.3-0.3-0.4L72.7,81c-0.1,0-0.2,0-0.3,0.1c-0.1,0.1-0.1,0.1-0.1,0.2l0,0.2
					c0,0.2-0.2,0.4-0.4,0.4c-0.1,0-0.2,0-0.3-0.1c-0.1-0.1-0.1-0.2-0.1-0.3l0-1.2c0-0.1,0-0.2,0.1-0.3c0.1-0.1,0.2-0.1,0.3-0.1
					c0.2,0,0.4,0.2,0.4,0.4c0,0.1,0,0.2,0.1,0.2c0.1,0.1,0.2,0.1,0.3,0.1l1.6-0.4c0.2,0,0.3-0.2,0.3-0.4c0.1-0.9,0.4-1.7,0.8-2.4
					c0.1-0.2,0.1-0.3,0-0.5l-0.8-0.9C74.6,76,74.5,76,74.4,76c-0.1,0-0.2,0-0.2,0.1l-0.1,0.1c0,0.1-0.1,0.1-0.2,0.1
					c-0.1,0-0.2,0-0.2-0.1c-0.1-0.1-0.1-0.3,0-0.4l0.5-0.7c0.1-0.1,0.3-0.2,0.4-0.1c0.1,0.1,0.2,0.3,0.1,0.4c0,0.1-0.1,0.2,0,0.2
					c0,0.1,0.1,0.2,0.2,0.2l1.1,0.5c0.2,0.1,0.4,0,0.5-0.1c0.5-0.5,1-1,1.7-1.3c0.1-0.1,0.2-0.3,0.2-0.4l-0.2-1.6
					c0-0.1-0.1-0.2-0.1-0.2c-0.1,0-0.2-0.1-0.3,0l-0.2,0.1c-0.1,0-0.2,0-0.3,0c-0.1,0-0.1-0.1-0.2-0.2c-0.1-0.2,0-0.3,0.2-0.4
					l1.2-0.5c0.1,0,0.2,0,0.3,0c0.1,0,0.1,0.1,0.2,0.2c0.1,0.2,0,0.3-0.2,0.4l0,0c-0.1,0-0.2,0.1-0.2,0.2c0,0.1,0,0.2,0,0.3l0.9,1.3
					c0.1,0.1,0.3,0.2,0.4,0.2c0.5-0.1,1.1-0.2,1.6-0.2h0c0.2,0,0.3-0.1,0.4-0.3l0.3-0.9c0-0.1,0-0.2,0-0.2c0-0.1-0.1-0.1-0.2-0.2
					c-0.2-0.1-0.4-0.3-0.3-0.5c0-0.1,0.1-0.2,0.2-0.3c0.1-0.1,0.2-0.1,0.4-0.1l0.4,0.1c0.3,0,0.5,0.3,0.4,0.5c0,0.2-0.2,0.4-0.4,0.4
					c-0.1,0-0.2,0.2-0.2,0.3l0.1,0.9c0,0.2,0.2,0.3,0.3,0.4c0.7,0.1,1.3,0.4,1.9,0.7c0.1,0.1,0.3,0.1,0.5,0l1.3-1
					c0.1-0.1,0.1-0.1,0.1-0.2c0-0.1,0-0.2-0.1-0.2l-0.2-0.2c-0.1-0.1-0.1-0.1-0.1-0.2c0-0.1,0-0.2,0.1-0.2c0.1-0.1,0.3-0.1,0.5,0
					l1,0.8c0.1,0.1,0.1,0.1,0.1,0.2c0,0.1,0,0.2-0.1,0.2c-0.1,0.1-0.3,0.1-0.5,0l0,0C87.1,74,87,74,86.9,74c-0.1,0-0.2,0.1-0.2,0.2
					L86,75.6c-0.1,0.2,0,0.3,0.1,0.5c0,0,0.1,0.1,0.1,0.1c0.1,0.1,0.3,0.1,0.4,0c0.1-0.1,0.1-0.3,0-0.4c0,0,0,0-0.1-0.1l0.5-1.1
					c0.3,0.1,0.7,0,1-0.3c0.2-0.2,0.2-0.4,0.2-0.7c0-0.3-0.1-0.5-0.3-0.6l-1-0.8c-0.4-0.3-1-0.3-1.3,0.1c-0.2,0.2-0.2,0.4-0.2,0.7
					c0,0.2,0.1,0.4,0.3,0.6l-0.9,0.7c-0.6-0.3-1.2-0.6-1.8-0.7l-0.1-0.6c0.3-0.2,0.5-0.5,0.6-0.8c0.1-0.6-0.4-1.1-1-1.2L82.1,71
					c-0.3,0-0.6,0-0.8,0.2c-0.2,0.2-0.4,0.4-0.4,0.7c0,0.4,0.1,0.8,0.5,1l-0.2,0.5c-0.5,0-1,0.1-1.5,0.2l-0.7-1
					c0.3-0.2,0.4-0.6,0.3-1c-0.1-0.2-0.3-0.4-0.5-0.5c-0.2-0.1-0.5-0.1-0.7,0l-1.2,0.5c-0.5,0.2-0.7,0.7-0.6,1.2
					c0.1,0.2,0.3,0.4,0.5,0.5c0.2,0.1,0.4,0.1,0.6,0.1l0.2,1.1c-0.6,0.3-1.1,0.8-1.6,1.3l-0.7-0.3c0.1-0.3-0.1-0.7-0.3-0.9
					c-0.2-0.1-0.4-0.2-0.7-0.2c-0.2,0-0.4,0.2-0.6,0.3l-0.5,0.7c-0.3,0.4-0.2,0.9,0.1,1.2c0.2,0.2,0.4,0.2,0.7,0.2
					c0.2,0,0.3-0.1,0.4-0.2l0.5,0.5c-0.4,0.8-0.7,1.6-0.8,2.4L72.9,80c-0.1-0.4-0.5-0.6-0.9-0.6c-0.3,0-0.5,0.1-0.7,0.3
					c-0.2,0.2-0.3,0.4-0.3,0.7l0,1.2c0,0.3,0.1,0.5,0.3,0.7c0.2,0.2,0.4,0.3,0.7,0.3C72.4,82.5,72.8,82.1,72.9,81.7L72.9,81.7z"/>
				<path d="M79.8,80c0.1-0.1,0.2-0.3,0.1-0.4c-0.1-0.1-0.3-0.2-0.4-0.1c-0.7,0.4-1.5,0.3-1.9-0.2c-0.2-0.3-0.3-0.7-0.2-1.1
					c0.1-0.4,0.3-0.8,0.7-1.1c0.4-0.3,0.8-0.5,1.3-0.4c0.4,0,0.8,0.2,1,0.5c0.3,0.4,0.3,1.1,0,1.7c-0.1,0.1,0,0.3,0.1,0.4
					c0.1,0.1,0.3,0,0.4-0.1c0.5-0.8,0.5-1.7,0-2.3C80.5,76.3,80,76,79.4,76c-0.6,0-1.2,0.2-1.7,0.6c-0.5,0.4-0.8,0.9-0.9,1.5
					c-0.1,0.6,0,1.1,0.3,1.6c0.4,0.5,0.9,0.7,1.5,0.7C79,80.3,79.4,80.2,79.8,80L79.8,80z"/>
				<path d="M85.6,77.3c0-0.6-0.6-1.1-1.3-1.1c-0.7,0-1.3,0.5-1.3,1.1s0.6,1.1,1.3,1.1C85.1,78.5,85.6,78,85.6,77.3z M83.7,77.3
					c0-0.3,0.3-0.5,0.7-0.5c0.4,0,0.7,0.2,0.7,0.5s-0.3,0.5-0.7,0.5C84,77.9,83.7,77.6,83.7,77.3z"/>
				<path d="M82.1,82.5c0-0.8-0.6-1.4-1.4-1.4c-0.8,0-1.4,0.6-1.4,1.4s0.6,1.4,1.4,1.4C81.5,83.9,82.1,83.3,82.1,82.5z M80,82.5
					c0-0.4,0.4-0.8,0.8-0.8c0.4,0,0.8,0.4,0.8,0.8c0,0.4-0.4,0.8-0.8,0.8C80.3,83.3,80,82.9,80,82.5z"/>
				<path d="M86.1,81.9c0-0.6-0.5-1.1-1.1-1.1c-0.6,0-1.1,0.5-1.1,1.1c0,0.6,0.5,1.1,1.1,1.1C85.6,83,86.1,82.5,86.1,81.9z
					 M84.5,81.9c0-0.3,0.2-0.5,0.5-0.5c0.3,0,0.5,0.2,0.5,0.5s-0.2,0.5-0.5,0.5C84.7,82.4,84.5,82.2,84.5,81.9z"/>
				<path d="M82.1,86.8c0.6,0,1.1-0.5,1.1-1.1c0-0.6-0.5-1.1-1.1-1.1s-1.1,0.5-1.1,1.1S81.5,86.8,82.1,86.8z M82.1,85.3
					c0.3,0,0.5,0.2,0.5,0.5s-0.2,0.5-0.5,0.5s-0.5-0.2-0.5-0.5S81.9,85.3,82.1,85.3z"/>
				<path d="M77.4,85c0.6,0,1.1-0.5,1.1-1.1s-0.5-1.1-1.1-1.1s-1.1,0.5-1.1,1.1S76.8,85,77.4,85z M77.4,83.4c0.3,0,0.5,0.2,0.5,0.5
					s-0.2,0.5-0.5,0.5c-0.3,0-0.5-0.2-0.5-0.5S77.1,83.4,77.4,83.4z"/>
				<path d="M83.5,80.2c0-0.2-0.1-0.3-0.3-0.3H83c-0.2,0-0.3,0.1-0.3,0.3s0.1,0.3,0.3,0.3h0.3C83.4,80.5,83.5,80.3,83.5,80.2z"/>
				<path d="M79.4,85.7h0.3c0.2,0,0.3-0.1,0.3-0.3s-0.1-0.3-0.3-0.3h-0.3c-0.2,0-0.3,0.1-0.3,0.3S79.2,85.7,79.4,85.7z"/>
				<path d="M76.9,81.3c0.2,0,0.3-0.1,0.3-0.3s-0.1-0.3-0.3-0.3h-0.3c-0.2,0-0.3,0.1-0.3,0.3s0.1,0.3,0.3,0.3H76.9z"/>
				<path d="M82.2,76.1c0.2,0,0.3-0.1,0.3-0.3c0-0.2-0.1-0.3-0.3-0.3h-0.4c-0.2,0-0.3,0.1-0.3,0.3c0,0.2,0.1,0.3,0.3,0.3H82.2z"/>
				<path d="M84.2,84.1c-0.2,0-0.3,0.1-0.3,0.3s0.1,0.3,0.3,0.3h0.4c0.2,0,0.3-0.1,0.3-0.3s-0.1-0.3-0.3-0.3H84.2z"/>
			</g>
		</g>
	</g>
	<g>
		<g>
			<g>
				<g>
					<g id="XMLID_5_">
						<g>
							<path class="st1" d="M153.5,56.7c0.2,0,0.4,0.2,0.3,0.5l-0.2,0.8c0,0.2-0.3,0.4-0.5,0.3c-0.2-0.1-0.3-0.3-0.3-0.5l0,0l-1,0
								c0,0-0.1,0-0.1,0.1c-0.1,0.3-0.2,0.6-0.4,0.9c0,0,0,0.1,0,0.1l0.5,0.5c0.1-0.1,0.2-0.1,0.3-0.1c0.1,0,0.2,0,0.3,0.1
								c0.2,0.2,0.2,0.5,0.1,0.7l-0.1,0.2c-0.2,0.2-0.4,0.3-0.6,0.1c-0.2-0.1-0.2-0.3-0.2-0.5l-0.7-0.3c0,0-0.1,0-0.1,0
								c-0.3,0.3-0.7,0.6-1,0.8c0,0,0,0,0,0.1l0.2,1l0.1-0.1c0.2-0.1,0.4,0,0.5,0.2c0.1,0.2,0,0.4-0.2,0.5l-0.7,0.3
								c-0.2,0.1-0.4,0-0.5-0.2c-0.1-0.2,0-0.4,0.2-0.5l0,0l-0.6-0.8c0,0,0,0-0.1,0c-0.4,0.1-0.7,0.1-1.1,0.1c-0.3,0-0.6,0-0.9-0.1
								c0,0-0.1,0-0.1,0l-0.6,0.9l0,0c0.2,0.1,0.3,0.3,0.3,0.4c0,0.1,0,0.1,0,0.2c0,0.3-0.2,0.4-0.5,0.3l-0.7-0.3
								c-0.2-0.1-0.4-0.4-0.3-0.6c0.1-0.3,0.4-0.4,0.6-0.3l0,0l0.1-1.1c0,0,0-0.1,0-0.1c-0.5-0.2-0.9-0.6-1.2-0.9c0,0-0.1,0-0.1,0
								l-0.9,0.4c0.1,0.2,0,0.4-0.1,0.5c-0.2,0.1-0.5,0.1-0.6-0.1l-0.2-0.3c-0.1-0.2-0.1-0.4,0.1-0.6c0.2-0.1,0.5-0.1,0.6,0.1
								l0.6-0.7c0,0,0-0.1,0-0.1c-0.3-0.5-0.4-1-0.5-1.5c0,0,0-0.1-0.1-0.1l-1-0.2l0,0.1c0,0.1,0,0.2-0.1,0.3
								c-0.1,0.1-0.2,0.1-0.3,0.1c-0.2,0-0.4-0.2-0.4-0.4l0-0.7c0-0.2,0.2-0.4,0.4-0.4c0.2,0,0.4,0.2,0.4,0.4l1-0.2
								c0,0,0.1,0,0.1-0.1c0.1-0.6,0.3-1.1,0.5-1.6c0,0,0-0.1,0-0.1l-0.5-0.6l0,0.1c-0.1,0.2-0.4,0.2-0.5,0.1
								c-0.2-0.1-0.2-0.4-0.1-0.5l0.3-0.4c0.1-0.1,0.2-0.1,0.3-0.1c0.1,0,0.2,0,0.2,0.1c0.2,0.1,0.2,0.3,0.1,0.5l0.7,0.3
								c0,0,0.1,0,0.1,0c0.3-0.3,0.7-0.6,1.1-0.9c0,0,0,0,0-0.1l-0.2-1l-0.1,0.1c-0.2,0.1-0.4,0-0.5-0.2c-0.1-0.2,0-0.4,0.2-0.5
								l0.7-0.3c0.2-0.1,0.4,0,0.5,0.2c0.1,0.2,0,0.4-0.2,0.5l0,0l0.6,0.8c0,0,0,0,0.1,0c0.3-0.1,0.7-0.1,1.1-0.1h0c0,0,0.1,0,0.1,0
								l0.2-0.5c-0.2-0.1-0.4-0.3-0.3-0.5c0-0.3,0.3-0.5,0.6-0.4l0.3,0c0.3,0,0.5,0.3,0.4,0.5c0,0.2-0.2,0.4-0.4,0.4l0.1,0.6
								c0,0,0,0.1,0.1,0.1c0.4,0.1,0.9,0.3,1.3,0.5c0,0,0.1,0,0.1,0l0.8-0.6l-0.1-0.1c-0.2-0.1-0.2-0.4-0.1-0.6
								c0.1-0.2,0.4-0.2,0.5,0l0.6,0.5c0.2,0.1,0.2,0.4,0.1,0.6c-0.1,0.2-0.4,0.2-0.5,0l0,0l-0.4,0.9c0,0,0,0.1,0,0.1
								c0.3,0.3,0.6,0.7,0.8,1c0,0,0,0,0.1,0l0.6-0.1c-0.1-0.2,0-0.5,0.3-0.6c0.2-0.1,0.5,0.1,0.6,0.3l0.1,0.4
								c0.1,0.2,0,0.5-0.2,0.6c-0.2,0.1-0.5,0-0.6-0.2l-0.5,0.3c0,0,0,0.1,0,0.1c0.1,0.4,0.2,0.8,0.2,1.2c0,0.1,0,0.1,0,0.2
								c0,0,0,0.1,0,0.1l0.9,0.4l0-0.2C153.1,56.8,153.3,56.6,153.5,56.7L153.5,56.7z"/>
						</g>
					</g>
					<ellipse class="st2" cx="149.5" cy="54.3" rx="0.6" ry="0.5"/>
					<circle class="st2" cx="147.3" cy="57.5" r="0.7"/>
					<circle class="st3" cx="149.9" cy="57.2" r="0.5"/>
					<circle class="st3" cx="148.1" cy="59.5" r="0.5"/>
					<g>
						<path class="st4" d="M144.9,56.2c0-1.7,0.8-3.2,2.1-4.2c-0.1,0-0.3,0-0.4,0.1c0,0-0.1,0-0.1,0l-0.6-0.8l0,0
							c0.2-0.1,0.3-0.3,0.2-0.5c-0.1-0.2-0.3-0.3-0.5-0.2l-0.7,0.3c-0.2,0.1-0.3,0.3-0.2,0.5c0.1,0.2,0.3,0.3,0.5,0.2l0.1-0.1l0.2,1
							c0,0,0,0.1,0,0.1c-0.4,0.2-0.8,0.5-1.1,0.9c0,0-0.1,0-0.1,0l-0.7-0.3c0.1-0.2,0.1-0.4-0.1-0.5c-0.1-0.1-0.1-0.1-0.2-0.1
							c-0.1,0-0.2,0.1-0.3,0.1l-0.3,0.4c-0.1,0.2-0.1,0.4,0.1,0.5c0.2,0.1,0.4,0.1,0.5-0.1l0-0.1l0.5,0.6c0,0,0,0.1,0,0.1
							c-0.3,0.5-0.5,1-0.5,1.6c0,0,0,0.1-0.1,0.1l-1,0.2c0-0.2-0.2-0.4-0.4-0.4c-0.2,0-0.4,0.2-0.4,0.4l0,0.7c0,0.2,0.2,0.4,0.4,0.4
							c0.1,0,0.2,0,0.3-0.1c0.1-0.1,0.1-0.2,0.1-0.3l0-0.1l1,0.2c0,0,0.1,0,0.1,0.1c0.1,0.5,0.3,1.1,0.5,1.5c0,0,0,0.1,0,0.1
							l-0.6,0.7c-0.1-0.2-0.4-0.2-0.6-0.1c-0.2,0.1-0.2,0.4-0.1,0.6l0.2,0.3c0.1,0.2,0.4,0.2,0.6,0.1c0.2-0.1,0.2-0.4,0.1-0.5
							l0.9-0.4c0,0,0.1,0,0.1,0c0.3,0.4,0.8,0.7,1.2,0.9c0,0,0,0,0,0.1l-0.1,1.1l0,0c-0.3-0.1-0.5,0-0.6,0.3c-0.1,0.2,0,0.5,0.3,0.6
							l0.7,0.3c0.3,0.1,0.5-0.1,0.5-0.3c0-0.1,0-0.1,0-0.2c0-0.2-0.1-0.4-0.3-0.4l0,0l0.6-0.9c0,0,0,0,0.1,0
							c0.3,0.1,0.6,0.1,0.9,0.1c0,0,0.1,0,0.1,0C146.1,60,144.9,58.2,144.9,56.2L144.9,56.2z"/>
					</g>
					<circle class="st2" cx="145.2" cy="58.4" r="0.5"/>
				</g>
				
					<ellipse transform="matrix(0.7852 -0.6192 0.6192 0.7852 -2.5384 102.2553)" class="st2" cx="146.1" cy="54.8" rx="1.3" ry="1.1"/>
			</g>
			<g>
				<path d="M153.5,56.5c-0.2,0-0.3,0-0.4,0.1c-0.1,0.1-0.2,0.2-0.2,0.3l-0.7-0.3c0,0,0-0.1,0-0.1c0-0.4,0-0.8-0.1-1.1l0.3-0.2
					c0.2,0.2,0.5,0.2,0.7,0.1c0.3-0.1,0.5-0.5,0.4-0.8l-0.1-0.4c-0.1-0.3-0.5-0.5-0.8-0.4c-0.2,0.1-0.3,0.2-0.4,0.3
					c0,0.1-0.1,0.2-0.1,0.3l-0.3,0c0-0.1-0.1-0.2-0.2-0.3c-0.1-0.1-0.2-0.1-0.3-0.1c-0.1,0.1-0.1,0.2-0.1,0.3
					c0.1,0.1,0.1,0.2,0.2,0.3c0.1,0.1,0.2,0.2,0.3,0.1l0.6-0.1c0.1,0,0.1,0,0.1-0.1c0,0,0-0.1,0-0.2c0-0.1,0-0.2,0-0.2
					c0-0.1,0.1-0.1,0.2-0.1c0.1,0,0.3,0,0.4,0.2l0.1,0.4c0.1,0.1,0,0.3-0.1,0.4c-0.1,0.1-0.3,0-0.4-0.1c0,0-0.1-0.1-0.1-0.1
					c-0.1,0-0.1,0-0.1,0l-0.5,0.3c-0.1,0.1-0.1,0.2-0.1,0.3c0.1,0.4,0.2,0.7,0.2,1.1c0,0.1,0,0.1,0,0.2c0,0.1,0.1,0.2,0.2,0.3
					l0.9,0.4c0.1,0,0.1,0,0.2,0c0.1,0,0.1-0.1,0.1-0.1l0-0.2c0-0.1,0-0.1,0.1-0.1c0,0,0.1,0,0.2,0c0.1,0,0.2,0.1,0.2,0.2l-0.2,0.8
					c0,0.1,0,0.1-0.1,0.1c0,0-0.1,0-0.2,0c-0.1,0-0.2-0.1-0.1-0.2l0,0c0-0.1,0-0.1,0-0.2c0,0-0.1-0.1-0.2-0.1l-1,0
					c-0.1,0-0.2,0.1-0.2,0.2c-0.1,0.3-0.2,0.6-0.4,0.8c-0.1,0.1,0,0.2,0,0.3l0.5,0.5c0,0,0.1,0.1,0.1,0.1c0.1,0,0.1,0,0.1-0.1
					c0.1-0.1,0.3-0.1,0.4,0c0.1,0,0.1,0.1,0.1,0.2s0,0.1-0.1,0.2l-0.1,0.2c-0.1,0.1-0.3,0.2-0.4,0.1c-0.1-0.1-0.1-0.2-0.1-0.3
					c0-0.1,0-0.2-0.1-0.2l-0.7-0.3c-0.1,0-0.2,0-0.3,0.1c-0.3,0.3-0.6,0.6-1,0.8c-0.1,0.1-0.1,0.2-0.1,0.3l0.2,1
					c0,0.1,0,0.1,0.1,0.1c0,0,0.1,0,0.2,0l0.1-0.1c0.1,0,0.1,0,0.2,0c0.1,0,0.1,0.1,0.1,0.1c0,0.1,0,0.2-0.1,0.3l-0.7,0.3
					c-0.1,0-0.1,0-0.2,0c-0.1,0-0.1-0.1-0.1-0.1c0-0.1,0-0.2,0.1-0.3l0,0c0.1,0,0.1-0.1,0.1-0.1c0-0.1,0-0.1,0-0.2l-0.6-0.8
					c-0.1-0.1-0.2-0.1-0.3-0.1c-0.3,0.1-0.7,0.1-1.1,0.1c-0.3,0-0.6,0-0.8-0.1c-0.1,0-0.2,0-0.3,0.1l-0.6,0.9c0,0,0,0.1,0,0.2
					c0,0.1,0.1,0.1,0.1,0.1l0,0c0.1,0,0.1,0.1,0.2,0.1c0,0.1,0,0.1,0,0.2c0,0,0,0,0,0.1c0,0.1,0,0.1-0.1,0.2c0,0-0.1,0-0.2,0
					l-0.7-0.3c-0.1-0.1-0.2-0.2-0.2-0.4c0-0.1,0.1-0.1,0.1-0.2c0.1,0,0.2,0,0.2,0l0,0c0.1,0,0.1,0,0.2,0c0,0,0.1-0.1,0.1-0.1
					l0.1-1.1c0-0.1,0-0.2-0.1-0.3c-0.4-0.2-0.8-0.5-1.2-0.9c-0.1-0.1-0.2-0.1-0.3-0.1l-0.9,0.4c0,0-0.1,0.1-0.1,0.1
					c0,0.1,0,0.1,0,0.2c0.1,0.1,0,0.2-0.1,0.3c-0.1,0.1-0.2,0-0.3-0.1l-0.2-0.3c-0.1-0.1-0.1-0.2,0-0.3c0,0,0.1-0.1,0.2,0
					c0.1,0,0.1,0,0.2,0.1c0,0,0.1,0.1,0.1,0.1c0.1,0,0.1,0,0.1-0.1l0.6-0.7c0.1-0.1,0.1-0.2,0-0.3c-0.1-0.1-0.1-0.2-0.2-0.4
					c0-0.1-0.2-0.1-0.2-0.1c-0.1,0-0.1,0.2-0.1,0.2c0.1,0.1,0.1,0.2,0.2,0.3l-0.4,0.5c-0.1,0-0.2-0.1-0.2-0.1c-0.2,0-0.3,0-0.5,0.1
					c-0.3,0.2-0.3,0.6-0.1,0.8l0.2,0.3c0.2,0.3,0.6,0.4,0.8,0.2c0.2-0.1,0.3-0.4,0.3-0.6l0.7-0.3c0.3,0.4,0.7,0.7,1.2,0.9l-0.1,0.8
					c-0.1,0-0.2,0-0.3,0.1c-0.2,0.1-0.3,0.2-0.3,0.4c-0.1,0.3,0.1,0.7,0.4,0.8l0.7,0.3c0.1,0,0.1,0,0.2,0c0.1,0,0.2,0,0.3-0.1
					c0.1-0.1,0.2-0.2,0.2-0.4c0-0.2,0-0.3,0-0.5c0-0.1-0.1-0.2-0.2-0.2l0.4-0.7c0.6,0.1,1.3,0.1,1.9-0.1l0.4,0.6
					c-0.2,0.2-0.2,0.4-0.2,0.6c0.1,0.2,0.2,0.3,0.3,0.3c0.1,0.1,0.3,0.1,0.5,0l0.7-0.3c0.3-0.1,0.4-0.4,0.3-0.7
					c-0.1-0.2-0.2-0.3-0.3-0.3c-0.1-0.1-0.3-0.1-0.4,0l-0.1-0.7c0.4-0.2,0.7-0.5,1-0.8l0.4,0.2c0,0.2,0.1,0.4,0.3,0.6
					c0.3,0.2,0.7,0.1,0.9-0.2l0.1-0.2c0.1-0.1,0.2-0.3,0.1-0.5c0-0.2-0.1-0.3-0.3-0.4c-0.2-0.2-0.5-0.2-0.7-0.1l-0.3-0.3
					c0.1-0.2,0.2-0.5,0.3-0.7l0.7,0c0,0.2,0.2,0.4,0.4,0.5c0.2,0,0.3,0,0.5-0.1c0.1-0.1,0.2-0.2,0.3-0.4l0.2-0.8
					C154.1,56.8,153.8,56.5,153.5,56.5L153.5,56.5z"/>
				<path d="M142.3,57l0.7,0.2c0,0.1,0,0.2,0.1,0.3c0,0.1,0.1,0.1,0.2,0.1c0,0,0,0,0,0c0.1,0,0.2-0.1,0.1-0.2c0-0.1,0-0.2-0.1-0.3
					c0-0.1-0.1-0.2-0.2-0.2l-1-0.2c-0.1,0-0.1,0-0.2,0c0,0-0.1,0.1-0.1,0.1l0,0.1c0,0.1-0.1,0.2-0.2,0.2c-0.1,0-0.1,0-0.2-0.1
					c0,0-0.1-0.1-0.1-0.2l0-0.7c0-0.1,0-0.1,0.1-0.2c0,0,0.1-0.1,0.2-0.1c0.1,0,0.2,0.1,0.2,0.2c0,0.1,0,0.1,0.1,0.1
					c0,0,0.1,0,0.2,0l1-0.2c0.1,0,0.2-0.1,0.2-0.2c0.1-0.5,0.3-1.1,0.5-1.5c0.1-0.1,0-0.2,0-0.3l-0.5-0.6c0,0-0.1-0.1-0.1-0.1
					c-0.1,0-0.1,0-0.1,0.1l0,0.1c0,0-0.1,0.1-0.1,0.1c-0.1,0-0.1,0-0.1,0c-0.1-0.1-0.1-0.2,0-0.3l0.3-0.4c0.1-0.1,0.2-0.1,0.3,0
					c0.1,0.1,0.1,0.2,0,0.2c0,0,0,0.1,0,0.2c0,0.1,0.1,0.1,0.1,0.1l0.7,0.3c0.1,0,0.2,0,0.3-0.1c0.3-0.3,0.7-0.6,1-0.8
					c0.1-0.1,0.1-0.2,0.1-0.3l-0.2-1c0-0.1,0-0.1-0.1-0.1c0,0-0.1,0-0.2,0l-0.1,0.1c-0.1,0-0.1,0-0.2,0c-0.1,0-0.1-0.1-0.1-0.1
					c0-0.1,0-0.2,0.1-0.3l0.7-0.3c0.1,0,0.1,0,0.2,0c0.1,0,0.1,0.1,0.1,0.1c0,0.1,0,0.2-0.1,0.3l0,0c-0.1,0-0.1,0.1-0.1,0.1
					c0,0.1,0,0.1,0,0.2l0.6,0.8c0.1,0.1,0.2,0.1,0.3,0.1c0.3-0.1,0.7-0.1,1-0.1h0c0.1,0,0.2-0.1,0.2-0.2l0.2-0.5c0,0,0-0.1,0-0.1
					c0,0-0.1-0.1-0.1-0.1c-0.1,0-0.2-0.2-0.2-0.3c0-0.1,0.1-0.1,0.1-0.2c0.1-0.1,0.2-0.1,0.2-0.1l0.3,0c0.2,0,0.3,0.2,0.3,0.3
					c0,0.1-0.1,0.2-0.2,0.3c-0.1,0-0.2,0.1-0.1,0.2l0.1,0.6c0,0.1,0.1,0.2,0.2,0.2c0.4,0.1,0.8,0.2,1.2,0.5c0.1,0.1,0.2,0,0.3,0
					l0.8-0.6c0,0,0.1-0.1,0.1-0.1c0-0.1,0-0.1-0.1-0.1l-0.1-0.1c0,0-0.1-0.1-0.1-0.1c0-0.1,0-0.1,0-0.2c0.1-0.1,0.2-0.1,0.3,0
					l0.6,0.5c0,0,0.1,0.1,0.1,0.1c0,0.1,0,0.1,0,0.2c-0.1,0.1-0.2,0.1-0.3,0l0,0c0,0-0.1,0-0.2,0c-0.1,0-0.1,0.1-0.1,0.1l-0.4,0.9
					c0,0.1,0,0.2,0.1,0.3c0,0,0.1,0.1,0.1,0.1c0.1,0.1,0.2,0.1,0.3,0c0.1-0.1,0.1-0.2,0-0.3c0,0,0,0,0,0l0.3-0.7
					c0.2,0.1,0.5,0,0.6-0.2c0.1-0.1,0.2-0.3,0.1-0.4c0-0.2-0.1-0.3-0.2-0.4l-0.6-0.5c-0.2-0.2-0.6-0.2-0.8,0.1
					c-0.1,0.1-0.2,0.3-0.1,0.4c0,0.1,0.1,0.3,0.2,0.3l-0.6,0.5c-0.4-0.2-0.8-0.4-1.2-0.5l0-0.4c0.2-0.1,0.3-0.3,0.4-0.5
					c0-0.4-0.2-0.7-0.6-0.8l-0.3,0c-0.2,0-0.4,0-0.5,0.1c-0.1,0.1-0.2,0.3-0.3,0.5c0,0.3,0.1,0.5,0.3,0.6l-0.1,0.3
					c-0.3,0-0.6,0-0.9,0.1l-0.4-0.6c0.2-0.2,0.2-0.4,0.2-0.6c-0.1-0.2-0.2-0.3-0.3-0.3c-0.1-0.1-0.3-0.1-0.5,0l-0.7,0.3
					c-0.3,0.1-0.5,0.4-0.4,0.7c0.1,0.2,0.2,0.3,0.3,0.3c0.1,0.1,0.3,0.1,0.4,0l0.1,0.7c-0.4,0.2-0.7,0.5-1,0.8l-0.4-0.2
					c0-0.2,0-0.4-0.2-0.5c-0.1-0.1-0.3-0.1-0.4-0.1c-0.1,0-0.3,0.1-0.4,0.2l-0.3,0.4c-0.2,0.2-0.1,0.6,0.1,0.8
					c0.1,0.1,0.3,0.1,0.4,0.1c0.1,0,0.2,0,0.3-0.1l0.3,0.3c-0.3,0.5-0.4,1-0.5,1.5l-0.7,0.2c-0.1-0.2-0.3-0.4-0.6-0.4
					c-0.2,0-0.3,0.1-0.4,0.2c-0.1,0.1-0.2,0.3-0.2,0.4l0,0.7c0,0.2,0.1,0.3,0.2,0.4c0.1,0.1,0.3,0.2,0.4,0.2
					C142,57.5,142.3,57.3,142.3,57L142.3,57z"/>
				<path d="M146.7,56c0.1,0,0.1-0.2,0.1-0.3c0-0.1-0.2-0.1-0.3-0.1c-0.5,0.2-1,0.2-1.2-0.2c-0.1-0.2-0.2-0.4-0.1-0.7
					c0.1-0.3,0.2-0.5,0.5-0.7c0.2-0.2,0.5-0.3,0.8-0.3c0.3,0,0.5,0.1,0.6,0.3c0.2,0.3,0.2,0.7,0,1c-0.1,0.1,0,0.2,0.1,0.3
					c0.1,0.1,0.2,0,0.3-0.1c0.3-0.5,0.3-1.1,0-1.5c-0.2-0.3-0.5-0.4-0.9-0.4c-0.4,0-0.7,0.1-1,0.4c-0.3,0.2-0.5,0.6-0.6,0.9
					c-0.1,0.4,0,0.7,0.2,1c0.2,0.3,0.6,0.4,1,0.4C146.2,56.1,146.4,56.1,146.7,56L146.7,56z"/>
				<path d="M150.3,54.3c0-0.4-0.4-0.7-0.8-0.7s-0.8,0.3-0.8,0.7s0.4,0.7,0.8,0.7C150,55,150.3,54.7,150.3,54.3z M149.1,54.3
					c0-0.2,0.2-0.3,0.4-0.3s0.4,0.1,0.4,0.3s-0.2,0.3-0.4,0.3S149.1,54.5,149.1,54.3z"/>
				<path d="M148.1,57.5c0-0.5-0.4-0.9-0.9-0.9c-0.5,0-0.9,0.4-0.9,0.9c0,0.5,0.4,0.9,0.9,0.9C147.8,58.4,148.1,58,148.1,57.5z
					 M146.8,57.5c0-0.3,0.2-0.5,0.5-0.5c0.3,0,0.5,0.2,0.5,0.5s-0.2,0.5-0.5,0.5C147,58,146.8,57.8,146.8,57.5z"/>
				<path d="M150.6,57.2c0-0.4-0.3-0.7-0.7-0.7c-0.4,0-0.7,0.3-0.7,0.7s0.3,0.7,0.7,0.7C150.3,57.8,150.6,57.5,150.6,57.2z
					 M149.6,57.2c0-0.2,0.1-0.3,0.3-0.3c0.2,0,0.3,0.1,0.3,0.3c0,0.2-0.1,0.3-0.3,0.3C149.8,57.5,149.6,57.3,149.6,57.2z"/>
				<path d="M148.1,60.2c0.4,0,0.7-0.3,0.7-0.7c0-0.4-0.3-0.7-0.7-0.7s-0.7,0.3-0.7,0.7S147.8,60.2,148.1,60.2z M148.1,59.3
					c0.2,0,0.3,0.1,0.3,0.3c0,0.2-0.1,0.3-0.3,0.3s-0.3-0.1-0.3-0.3C147.8,59.4,148,59.3,148.1,59.3z"/>
				<path d="M145.2,59.1c0.4,0,0.7-0.3,0.7-0.7s-0.3-0.7-0.7-0.7s-0.7,0.3-0.7,0.7S144.8,59.1,145.2,59.1z M145.2,58.1
					c0.2,0,0.3,0.1,0.3,0.3s-0.1,0.3-0.3,0.3s-0.3-0.1-0.3-0.3S145,58.1,145.2,58.1z"/>
				<path d="M149,56c0-0.1-0.1-0.2-0.2-0.2h-0.2c-0.1,0-0.2,0.1-0.2,0.2s0.1,0.2,0.2,0.2h0.2C148.9,56.2,149,56.1,149,56z"/>
				<path d="M146.4,59.5h0.2c0.1,0,0.2-0.1,0.2-0.2c0-0.1-0.1-0.2-0.2-0.2h-0.2c-0.1,0-0.2,0.1-0.2,0.2
					C146.2,59.4,146.3,59.5,146.4,59.5z"/>
				<path d="M144.8,56.8c0.1,0,0.2-0.1,0.2-0.2s-0.1-0.2-0.2-0.2h-0.2c-0.1,0-0.2,0.1-0.2,0.2s0.1,0.2,0.2,0.2H144.8z"/>
				<path d="M148.2,53.5c0.1,0,0.2-0.1,0.2-0.2s-0.1-0.2-0.2-0.2H148c-0.1,0-0.2,0.1-0.2,0.2s0.1,0.2,0.2,0.2H148.2z"/>
				<path d="M149.4,58.5c-0.1,0-0.2,0.1-0.2,0.2s0.1,0.2,0.2,0.2h0.3c0.1,0,0.2-0.1,0.2-0.2s-0.1-0.2-0.2-0.2H149.4z"/>
			</g>
		</g>
		<g>
			<g>
				<g id="XMLID_2_">
					<g>
						<path class="st1" d="M182.8,51.1c0.2,0,0.4,0.3,0.3,0.5l-0.2,0.9c0,0.2-0.3,0.4-0.5,0.3c-0.2-0.1-0.4-0.3-0.3-0.5l0,0
							l-1.1,0.1c0,0-0.1,0-0.1,0.1c-0.1,0.3-0.3,0.7-0.4,1c0,0,0,0.1,0,0.1l0.5,0.6c0.1-0.1,0.2-0.1,0.4-0.1c0.1,0,0.2,0,0.3,0.1
							c0.2,0.2,0.3,0.5,0.1,0.7l-0.1,0.2c-0.2,0.2-0.5,0.3-0.7,0.1c-0.2-0.1-0.3-0.4-0.2-0.6l-0.7-0.3c0,0-0.1,0-0.1,0
							c-0.3,0.4-0.7,0.7-1.2,0.9c0,0,0,0.1,0,0.1l0.2,1.1l0.2-0.1c0.2-0.1,0.5,0,0.6,0.3c0.1,0.2,0,0.5-0.3,0.6l-0.8,0.3
							c-0.2,0.1-0.5,0-0.6-0.3c-0.1-0.2,0-0.5,0.3-0.6l0,0l-0.7-0.9c0,0-0.1,0-0.1,0c-0.4,0.1-0.8,0.2-1.2,0.2c-0.3,0-0.7,0-1-0.1
							c0,0-0.1,0-0.1,0l-0.7,1l0,0c0.2,0.1,0.3,0.3,0.3,0.5c0,0.1,0,0.1,0,0.2c0,0.3-0.2,0.5-0.5,0.4l-0.8-0.3
							c-0.3-0.1-0.4-0.4-0.3-0.7c0.1-0.3,0.4-0.4,0.7-0.3l0,0l0.1-1.2c0,0,0-0.1,0-0.1c-0.5-0.3-1-0.6-1.4-1c0,0-0.1,0-0.1,0l-1,0.4
							c0.1,0.2,0,0.5-0.2,0.6c-0.2,0.1-0.5,0.1-0.6-0.1l-0.3-0.4c-0.1-0.2-0.1-0.5,0.1-0.6c0.2-0.2,0.5-0.1,0.7,0.1l0.7-0.8
							c0,0,0-0.1,0-0.1c-0.3-0.5-0.5-1.1-0.6-1.7c0,0,0-0.1-0.1-0.1l-1.1-0.3l0,0.1c0,0.1-0.1,0.2-0.1,0.3c-0.1,0.1-0.2,0.1-0.3,0.1
							c-0.3,0-0.5-0.2-0.5-0.5l0-0.8c0-0.3,0.2-0.5,0.5-0.5c0.3,0,0.5,0.2,0.5,0.5l1.1-0.3c0,0,0.1,0,0.1-0.1
							c0.1-0.6,0.3-1.3,0.6-1.8c0,0,0-0.1,0-0.1l-0.5-0.6l0,0.1c-0.1,0.2-0.4,0.2-0.6,0.1c-0.2-0.1-0.2-0.4-0.1-0.6l0.4-0.5
							c0.1-0.1,0.2-0.2,0.3-0.2c0.1,0,0.2,0,0.3,0.1c0.2,0.1,0.2,0.4,0.1,0.6l0.7,0.3c0,0,0.1,0,0.1,0c0.3-0.4,0.8-0.7,1.2-1
							c0,0,0-0.1,0-0.1l-0.2-1.1l-0.2,0.1c-0.2,0.1-0.5,0-0.6-0.3c-0.1-0.2,0-0.5,0.3-0.5l0.8-0.3c0.2-0.1,0.5,0,0.6,0.3
							c0.1,0.2,0,0.5-0.3,0.5l0,0l0.6,0.9c0,0,0.1,0,0.1,0c0.4-0.1,0.8-0.1,1.2-0.1h0c0,0,0.1,0,0.1-0.1l0.2-0.6
							c-0.2-0.1-0.4-0.3-0.4-0.6c0-0.3,0.3-0.5,0.6-0.5l0.3,0c0.3,0,0.5,0.3,0.5,0.6c0,0.2-0.2,0.4-0.4,0.5l0.1,0.7
							c0,0,0,0.1,0.1,0.1c0.5,0.1,1,0.3,1.4,0.5c0,0,0.1,0,0.1,0l0.9-0.7l-0.1-0.1c-0.2-0.2-0.2-0.4-0.1-0.6c0.2-0.2,0.4-0.2,0.6,0
							l0.7,0.5c0.2,0.2,0.2,0.4,0.1,0.6c-0.2,0.2-0.4,0.2-0.6,0l0,0l-0.5,1c0,0,0,0.1,0,0.1c0.3,0.3,0.6,0.7,0.8,1.2
							c0,0,0.1,0,0.1,0l0.7-0.1c-0.1-0.3,0-0.6,0.3-0.7c0.3-0.1,0.6,0.1,0.7,0.3l0.2,0.4c0.1,0.3,0,0.6-0.3,0.7
							c-0.2,0.1-0.5,0-0.7-0.2l-0.6,0.4c0,0,0,0.1,0,0.1c0.1,0.4,0.2,0.9,0.2,1.3c0,0.1,0,0.2,0,0.2c0,0,0,0.1,0,0.1l1.1,0.5l0-0.2
							C182.3,51.2,182.5,51.1,182.8,51.1L182.8,51.1z"/>
					</g>
				</g>
				<ellipse class="st2" cx="178.4" cy="48.4" rx="0.7" ry="0.6"/>
				<circle class="st2" cx="175.8" cy="52.1" r="0.8"/>
				<circle class="st3" cx="178.8" cy="51.7" r="0.5"/>
				<circle class="st3" cx="176.8" cy="54.3" r="0.5"/>
				<g>
					<path class="st4" d="M173.2,50.6c0-1.9,0.9-3.6,2.3-4.6c-0.2,0-0.3,0.1-0.5,0.1c0,0-0.1,0-0.1,0l-0.6-0.9l0,0
						c0.2-0.1,0.3-0.3,0.3-0.5c-0.1-0.2-0.3-0.4-0.6-0.3l-0.8,0.3c-0.2,0.1-0.3,0.3-0.3,0.5c0.1,0.2,0.3,0.4,0.6,0.3l0.2-0.1
						l0.2,1.1c0,0,0,0.1,0,0.1c-0.5,0.3-0.9,0.6-1.2,1c0,0-0.1,0-0.1,0l-0.7-0.3c0.1-0.2,0.1-0.4-0.1-0.6c-0.1-0.1-0.2-0.1-0.3-0.1
						c-0.1,0-0.3,0.1-0.3,0.2l-0.4,0.5c-0.1,0.2-0.1,0.4,0.1,0.6c0.2,0.2,0.5,0.1,0.6-0.1l0-0.1l0.5,0.6c0,0,0,0.1,0,0.1
						c-0.3,0.5-0.5,1.1-0.6,1.8c0,0,0,0.1-0.1,0.1l-1.1,0.3c0-0.3-0.2-0.5-0.5-0.5c-0.3,0-0.5,0.2-0.5,0.5l0,0.8
						c0,0.3,0.2,0.5,0.5,0.5c0.1,0,0.3-0.1,0.3-0.1c0.1-0.1,0.1-0.2,0.1-0.3l0-0.1l1.1,0.3c0,0,0.1,0,0.1,0.1
						c0.1,0.6,0.3,1.2,0.6,1.7c0,0,0,0.1,0,0.1l-0.7,0.8c-0.2-0.2-0.5-0.2-0.7-0.1c-0.2,0.2-0.2,0.4-0.1,0.6l0.3,0.4
						c0.1,0.2,0.4,0.3,0.6,0.1c0.2-0.1,0.3-0.4,0.2-0.6l1-0.4c0,0,0.1,0,0.1,0c0.4,0.4,0.9,0.8,1.4,1c0,0,0,0,0,0.1l-0.1,1.2l0,0
						c-0.3-0.1-0.6,0-0.7,0.3c-0.1,0.3,0,0.6,0.3,0.7l0.8,0.3c0.3,0.1,0.5-0.1,0.5-0.4c0-0.1,0-0.1,0-0.2c0-0.2-0.1-0.4-0.3-0.5l0,0
						l0.7-1c0,0,0.1,0,0.1,0c0.3,0.1,0.6,0.1,1,0.1c0,0,0.1,0,0.1,0C174.5,54.8,173.2,52.9,173.2,50.6L173.2,50.6z"/>
				</g>
				<circle class="st2" cx="173.5" cy="53.1" r="0.6"/>
			</g>
			<ellipse transform="matrix(0.7852 -0.6192 0.6192 0.7852 7.1404 118.6277)" class="st2" cx="174.6" cy="49" rx="1.4" ry="1.2"/>
		</g>
		<g>
			<path d="M182.8,50.9c-0.2,0-0.3,0-0.5,0.1c-0.1,0.1-0.2,0.2-0.3,0.3l-0.7-0.3c0-0.1,0-0.1,0-0.1c0-0.4-0.1-0.9-0.2-1.3l0.3-0.2
				c0.2,0.2,0.5,0.2,0.8,0.1c0.4-0.2,0.5-0.6,0.4-0.9l-0.2-0.4c-0.1-0.4-0.5-0.6-0.9-0.5c-0.2,0.1-0.3,0.2-0.4,0.4
				c-0.1,0.1-0.1,0.2-0.1,0.3l-0.4,0.1c-0.1-0.1-0.1-0.2-0.2-0.3c-0.1-0.1-0.2-0.1-0.3-0.1c-0.1,0.1-0.1,0.2-0.1,0.3
				c0.1,0.1,0.1,0.2,0.2,0.3c0.1,0.1,0.2,0.2,0.3,0.2l0.7-0.1c0.1,0,0.1,0,0.2-0.1s0-0.1,0-0.2c0-0.1,0-0.2,0-0.2
				c0-0.1,0.1-0.1,0.2-0.2c0.2-0.1,0.3,0,0.4,0.2l0.2,0.4c0.1,0.2,0,0.3-0.2,0.4c-0.1,0.1-0.3,0-0.4-0.1c0,0-0.1-0.1-0.1-0.1
				c-0.1,0-0.1,0-0.2,0l-0.6,0.4c-0.1,0.1-0.2,0.2-0.1,0.3c0.1,0.4,0.2,0.8,0.2,1.3c0,0.1,0,0.1,0,0.2c0,0.1,0.1,0.2,0.2,0.3
				l1.1,0.5c0.1,0,0.1,0,0.2,0c0.1,0,0.1-0.1,0.1-0.1l0-0.2c0-0.1,0-0.1,0.1-0.1c0.1,0,0.1,0,0.2,0c0.1,0,0.2,0.1,0.2,0.3l-0.2,0.9
				c0,0.1,0,0.1-0.1,0.1c-0.1,0-0.1,0-0.2,0c-0.1,0-0.2-0.2-0.2-0.3l0,0c0-0.1,0-0.1,0-0.2c0,0-0.1-0.1-0.2-0.1l-1.1,0.1
				c-0.1,0-0.2,0.1-0.3,0.2c-0.1,0.3-0.2,0.6-0.4,0.9c-0.1,0.1-0.1,0.2,0,0.3l0.5,0.6c0,0,0.1,0.1,0.1,0.1c0.1,0,0.1,0,0.2-0.1
				c0.1-0.1,0.3-0.1,0.4,0c0.1,0.1,0.1,0.1,0.1,0.2c0,0.1,0,0.2-0.1,0.2l-0.1,0.2c-0.1,0.1-0.3,0.2-0.4,0.1
				c-0.1-0.1-0.2-0.2-0.1-0.4c0-0.1,0-0.2-0.1-0.3L180,54c-0.1-0.1-0.2,0-0.3,0.1c-0.3,0.4-0.7,0.7-1.1,0.9
				c-0.1,0.1-0.2,0.2-0.1,0.3l0.2,1.1c0,0.1,0,0.1,0.1,0.1s0.1,0,0.2,0l0.2-0.1c0.1,0,0.1,0,0.2,0c0.1,0,0.1,0.1,0.1,0.1
				c0,0.1,0,0.2-0.1,0.3l-0.8,0.3c-0.1,0-0.1,0-0.2,0c-0.1,0-0.1-0.1-0.1-0.1c0-0.1,0-0.2,0.1-0.3l0,0c0.1,0,0.1-0.1,0.1-0.1
				c0-0.1,0-0.1,0-0.2l-0.7-0.9c-0.1-0.1-0.2-0.1-0.3-0.1c-0.4,0.1-0.8,0.2-1.2,0.2c-0.3,0-0.6,0-0.9-0.1c-0.1,0-0.2,0-0.3,0.1
				l-0.7,1c0,0.1,0,0.1,0,0.2c0,0.1,0.1,0.1,0.1,0.1l0,0c0.1,0,0.1,0.1,0.2,0.2c0,0.1,0,0.2,0,0.2c0,0,0,0,0,0.1
				c0,0.1,0,0.1-0.1,0.2c0,0-0.1,0-0.2,0l-0.8-0.3c-0.2-0.1-0.2-0.2-0.2-0.4c0-0.1,0.1-0.1,0.2-0.2c0.1,0,0.2,0,0.3,0l0,0
				c0.1,0,0.1,0,0.2,0c0.1,0,0.1-0.1,0.1-0.2l0.1-1.2c0-0.1,0-0.2-0.2-0.3c-0.5-0.3-0.9-0.6-1.3-1c-0.1-0.1-0.2-0.1-0.3-0.1l-1,0.4
				c-0.1,0-0.1,0.1-0.1,0.1c0,0.1,0,0.1,0,0.2c0.1,0.1,0,0.3-0.1,0.3c-0.1,0.1-0.3,0-0.4-0.1l-0.3-0.4c-0.1-0.1-0.1-0.3,0-0.4
				c0.1,0,0.1-0.1,0.2-0.1c0.1,0,0.1,0,0.2,0.1c0,0.1,0.1,0.1,0.2,0.1c0.1,0,0.1,0,0.2-0.1l0.7-0.8c0.1-0.1,0.1-0.2,0-0.3
				c-0.1-0.1-0.1-0.3-0.2-0.4c0-0.1-0.2-0.2-0.3-0.1c-0.1,0-0.2,0.2-0.1,0.3c0.1,0.1,0.1,0.3,0.2,0.4l-0.5,0.6
				c-0.1,0-0.2-0.1-0.3-0.1c-0.2,0-0.4,0-0.5,0.1c-0.3,0.2-0.3,0.6-0.1,0.9l0.3,0.4c0.2,0.3,0.6,0.4,0.9,0.2
				c0.2-0.1,0.3-0.4,0.3-0.7l0.7-0.3c0.4,0.4,0.8,0.7,1.3,1l-0.1,0.9c-0.1,0-0.2,0-0.4,0.1c-0.2,0.1-0.3,0.2-0.4,0.4
				c-0.1,0.4,0.1,0.8,0.4,0.9l0.8,0.3c0.1,0,0.2,0,0.2,0c0.1,0,0.2,0,0.3-0.1c0.1-0.1,0.2-0.3,0.2-0.5c0.1-0.2,0-0.4,0-0.5
				c-0.1-0.1-0.1-0.2-0.2-0.3l0.5-0.8c0.7,0.1,1.4,0.1,2.1-0.1l0.5,0.7c-0.2,0.2-0.3,0.4-0.2,0.7c0.1,0.2,0.2,0.3,0.3,0.4
				c0.2,0.1,0.3,0.1,0.5,0l0.8-0.3c0.3-0.1,0.5-0.5,0.4-0.8c-0.1-0.2-0.2-0.3-0.3-0.4c-0.1-0.1-0.3-0.1-0.4,0l-0.1-0.8
				c0.4-0.2,0.8-0.5,1.1-0.9l0.5,0.2c0,0.3,0.1,0.5,0.3,0.6c0.3,0.2,0.8,0.1,1-0.2l0.1-0.2c0.1-0.2,0.2-0.3,0.1-0.5
				c0-0.2-0.1-0.4-0.3-0.5c-0.2-0.2-0.5-0.2-0.8-0.1l-0.3-0.4c0.2-0.3,0.3-0.5,0.4-0.8l0.8,0c0,0.3,0.2,0.5,0.5,0.5
				c0.2,0,0.4,0,0.5-0.1c0.1-0.1,0.3-0.2,0.3-0.4l0.2-0.9C183.4,51.3,183.2,51,182.8,50.9L182.8,50.9z"/>
			<path d="M170.4,51.5l0.8,0.2c0,0.1,0,0.2,0.1,0.3c0,0.1,0.1,0.2,0.2,0.2c0,0,0,0,0,0c0.1,0,0.2-0.1,0.2-0.3
				c0-0.1-0.1-0.3-0.1-0.4c0-0.1-0.1-0.2-0.2-0.2l-1.1-0.3c-0.1,0-0.1,0-0.2,0c-0.1,0-0.1,0.1-0.1,0.2l0,0.1c0,0.1-0.1,0.3-0.3,0.3
				c-0.1,0-0.1,0-0.2-0.1c0,0-0.1-0.1-0.1-0.2l0-0.8c0-0.1,0-0.1,0.1-0.2c0.1,0,0.1-0.1,0.2-0.1c0.1,0,0.3,0.1,0.3,0.3
				c0,0.1,0,0.1,0.1,0.2c0.1,0,0.1,0.1,0.2,0l1.1-0.3c0.1,0,0.2-0.1,0.2-0.2c0.1-0.6,0.3-1.2,0.6-1.7c0.1-0.1,0-0.2,0-0.3l-0.5-0.6
				c0,0-0.1-0.1-0.2-0.1c-0.1,0-0.1,0-0.2,0.1l0,0.1c0,0-0.1,0.1-0.1,0.1c-0.1,0-0.1,0-0.2,0c-0.1-0.1-0.1-0.2,0-0.3l0.4-0.5
				c0.1-0.1,0.2-0.1,0.3,0c0.1,0.1,0.1,0.2,0,0.3c0,0.1,0,0.1,0,0.2c0,0.1,0.1,0.1,0.1,0.1l0.7,0.3c0.1,0,0.2,0,0.3-0.1
				c0.3-0.4,0.7-0.7,1.2-0.9c0.1-0.1,0.2-0.2,0.1-0.3l-0.2-1.1c0-0.1,0-0.1-0.1-0.2c-0.1,0-0.1,0-0.2,0l-0.2,0.1c-0.1,0-0.1,0-0.2,0
				c-0.1,0-0.1-0.1-0.1-0.1c0-0.1,0-0.2,0.1-0.3l0.8-0.3c0.1,0,0.1,0,0.2,0c0.1,0,0.1,0.1,0.1,0.1c0,0.1,0,0.2-0.1,0.3l0,0
				c-0.1,0-0.1,0.1-0.1,0.1c0,0.1,0,0.1,0,0.2l0.6,0.9c0.1,0.1,0.2,0.1,0.3,0.1c0.4-0.1,0.7-0.1,1.1-0.1h0c0.1,0,0.2-0.1,0.3-0.2
				l0.2-0.6c0-0.1,0-0.1,0-0.2c0-0.1-0.1-0.1-0.1-0.1c-0.2,0-0.3-0.2-0.2-0.4c0-0.1,0.1-0.2,0.1-0.2c0.1-0.1,0.2-0.1,0.3-0.1l0.3,0
				c0.2,0,0.3,0.2,0.3,0.4c0,0.1-0.1,0.3-0.3,0.3c-0.1,0-0.2,0.1-0.2,0.2L177,46c0,0.1,0.1,0.2,0.2,0.3c0.5,0.1,0.9,0.3,1.3,0.5
				c0.1,0.1,0.2,0.1,0.3,0l0.9-0.7c0,0,0.1-0.1,0.1-0.2c0-0.1,0-0.1-0.1-0.2l-0.1-0.1c0,0-0.1-0.1-0.1-0.2c0-0.1,0-0.1,0.1-0.2
				c0.1-0.1,0.2-0.1,0.3,0l0.7,0.5c0,0,0.1,0.1,0.1,0.2c0,0.1,0,0.1-0.1,0.2c-0.1,0.1-0.2,0.1-0.3,0l0,0c-0.1,0-0.1-0.1-0.2,0
				c-0.1,0-0.1,0.1-0.1,0.1l-0.5,1c-0.1,0.1,0,0.2,0.1,0.3c0,0,0.1,0.1,0.1,0.1c0.1,0.1,0.2,0.1,0.3,0c0.1-0.1,0.1-0.2,0-0.3
				c0,0,0,0,0,0l0.3-0.8c0.2,0.1,0.5,0,0.7-0.2c0.1-0.1,0.2-0.3,0.2-0.5c0-0.2-0.1-0.3-0.2-0.4l-0.7-0.5c-0.3-0.2-0.7-0.2-0.9,0.1
				c-0.1,0.1-0.2,0.3-0.2,0.5c0,0.1,0.1,0.3,0.2,0.4l-0.6,0.5c-0.4-0.2-0.8-0.4-1.3-0.5l0-0.4c0.2-0.1,0.4-0.3,0.4-0.6
				c0-0.4-0.3-0.8-0.7-0.8l-0.3,0c-0.2,0-0.4,0-0.6,0.2c-0.2,0.1-0.3,0.3-0.3,0.5c0,0.3,0.1,0.6,0.3,0.7l-0.1,0.3
				c-0.4,0-0.7,0-1.1,0.1l-0.5-0.7c0.2-0.2,0.3-0.4,0.2-0.7c-0.1-0.2-0.2-0.3-0.3-0.4c-0.2-0.1-0.3-0.1-0.5,0l-0.8,0.3
				c-0.3,0.1-0.5,0.5-0.4,0.8c0.1,0.2,0.2,0.3,0.3,0.4c0.1,0.1,0.3,0.1,0.4,0l0.1,0.8c-0.4,0.2-0.8,0.5-1.1,0.9l-0.5-0.2
				c0-0.2,0-0.5-0.2-0.6c-0.1-0.1-0.3-0.1-0.5-0.1c-0.2,0-0.3,0.1-0.4,0.2l-0.4,0.5c-0.2,0.3-0.2,0.7,0.1,0.9
				c0.1,0.1,0.3,0.2,0.5,0.1c0.1,0,0.2-0.1,0.3-0.1l0.3,0.4c-0.3,0.5-0.5,1.1-0.6,1.7l-0.8,0.2c-0.1-0.2-0.3-0.4-0.6-0.4
				c-0.2,0-0.4,0.1-0.5,0.2c-0.1,0.1-0.2,0.3-0.2,0.5l0,0.8c0,0.2,0.1,0.4,0.2,0.5c0.1,0.1,0.3,0.2,0.5,0.2
				C170,52,170.3,51.8,170.4,51.5L170.4,51.5z"/>
			<path d="M175.2,50.3c0.1-0.1,0.1-0.2,0.1-0.3c-0.1-0.1-0.2-0.1-0.3-0.1c-0.5,0.3-1.1,0.2-1.4-0.2c-0.2-0.2-0.2-0.5-0.2-0.8
				c0.1-0.3,0.2-0.6,0.5-0.8c0.3-0.2,0.6-0.3,0.9-0.3c0.3,0,0.5,0.1,0.7,0.3c0.2,0.3,0.2,0.8,0,1.2c-0.1,0.1,0,0.2,0.1,0.3
				c0.1,0.1,0.2,0,0.3-0.1c0.3-0.6,0.3-1.2,0-1.6c-0.2-0.3-0.6-0.5-1-0.5c-0.4,0-0.8,0.1-1.2,0.4c-0.3,0.3-0.6,0.6-0.7,1
				c-0.1,0.4,0,0.8,0.2,1.1c0.3,0.3,0.6,0.5,1.1,0.5C174.6,50.5,174.9,50.5,175.2,50.3L175.2,50.3z"/>
			<path d="M179.3,48.4c0-0.4-0.4-0.8-0.9-0.8c-0.5,0-0.9,0.4-0.9,0.8c0,0.4,0.4,0.8,0.9,0.8S179.3,48.9,179.3,48.4z M177.9,48.4
				c0-0.2,0.2-0.4,0.5-0.4c0.3,0,0.5,0.2,0.5,0.4s-0.2,0.4-0.5,0.4C178.1,48.8,177.9,48.6,177.9,48.4z"/>
			<path d="M176.8,52.1c0-0.5-0.4-1-1-1c-0.5,0-1,0.4-1,1c0,0.5,0.4,1,1,1C176.4,53,176.8,52.6,176.8,52.1z M175.3,52.1
				c0-0.3,0.2-0.5,0.5-0.5c0.3,0,0.5,0.2,0.5,0.5s-0.2,0.5-0.5,0.5C175.5,52.6,175.3,52.4,175.3,52.1z"/>
			<path d="M179.6,51.7c0-0.4-0.3-0.8-0.8-0.8c-0.4,0-0.8,0.3-0.8,0.8c0,0.4,0.3,0.8,0.8,0.8C179.2,52.4,179.6,52.1,179.6,51.7z
				 M178.5,51.7c0-0.2,0.1-0.3,0.3-0.3c0.2,0,0.3,0.1,0.3,0.3S179,52,178.8,52C178.6,52,178.5,51.8,178.5,51.7z"/>
			<path d="M176.8,55.1c0.4,0,0.7-0.3,0.7-0.7c0-0.4-0.3-0.7-0.7-0.7c-0.4,0-0.7,0.3-0.7,0.7S176.4,55.1,176.8,55.1z M176.8,54
				c0.2,0,0.3,0.1,0.3,0.3c0,0.2-0.1,0.3-0.3,0.3s-0.3-0.1-0.3-0.3C176.5,54.1,176.6,54,176.8,54z"/>
			<path d="M173.5,53.8c0.4,0,0.8-0.3,0.8-0.8c0-0.4-0.3-0.8-0.8-0.8c-0.4,0-0.8,0.3-0.8,0.8C172.7,53.5,173.1,53.8,173.5,53.8z
				 M173.5,52.7c0.2,0,0.3,0.2,0.3,0.3c0,0.2-0.2,0.3-0.3,0.3s-0.3-0.2-0.3-0.3C173.1,52.9,173.3,52.7,173.5,52.7z"/>
			<path d="M177.8,50.4c0-0.1-0.1-0.2-0.2-0.2h-0.2c-0.1,0-0.2,0.1-0.2,0.2s0.1,0.2,0.2,0.2h0.2C177.7,50.6,177.8,50.5,177.8,50.4z"
				/>
			<path d="M174.9,54.3h0.2c0.1,0,0.2-0.1,0.2-0.2s-0.1-0.2-0.2-0.2h-0.2c-0.1,0-0.2,0.1-0.2,0.2S174.8,54.3,174.9,54.3z"/>
			<path d="M173.1,51.2c0.1,0,0.2-0.1,0.2-0.2s-0.1-0.2-0.2-0.2h-0.2c-0.1,0-0.2,0.1-0.2,0.2s0.1,0.2,0.2,0.2H173.1z"/>
			<path d="M176.9,47.6c0.1,0,0.2-0.1,0.2-0.2s-0.1-0.2-0.2-0.2h-0.3c-0.1,0-0.2,0.1-0.2,0.2s0.1,0.2,0.2,0.2H176.9z"/>
			<path d="M178.3,53.2c-0.1,0-0.2,0.1-0.2,0.2s0.1,0.2,0.2,0.2h0.3c0.1,0,0.2-0.1,0.2-0.2s-0.1-0.2-0.2-0.2H178.3z"/>
		</g>
		<g>
			<g>
				<g>
					<g id="XMLID_3_">
						<g>
							<path class="st1" d="M44.7,52.2c0.3,0.1,0.6,0.4,0.5,0.7l-0.2,1.3c-0.1,0.3-0.4,0.6-0.8,0.5c-0.3-0.1-0.5-0.4-0.5-0.7l0,0
								l-1.6,0.1c0,0-0.1,0-0.1,0.1c-0.2,0.5-0.4,0.9-0.6,1.4c0,0,0,0.1,0,0.1l0.7,0.9c0.1-0.1,0.3-0.2,0.5-0.2
								c0.2,0,0.3,0.1,0.5,0.2c0.3,0.3,0.4,0.7,0.1,1.1L43,57.6c-0.2,0.3-0.7,0.4-1,0.2c-0.3-0.2-0.4-0.6-0.3-0.9l-1-0.5
								c0,0-0.1,0-0.1,0c-0.5,0.5-1,1-1.7,1.3c0,0-0.1,0.1-0.1,0.1l0.3,1.6l0.2-0.1c0.3-0.1,0.7,0,0.8,0.4c0.1,0.3-0.1,0.7-0.4,0.8
								l-1.2,0.5c-0.3,0.1-0.7,0-0.8-0.4c-0.1-0.3,0.1-0.7,0.4-0.8l0,0l-0.9-1.3c0,0-0.1-0.1-0.1,0c-0.6,0.1-1.2,0.2-1.8,0.2
								c-0.5,0-1,0-1.4-0.1c0,0-0.1,0-0.1,0.1l-0.9,1.5l0,0c0.3,0.1,0.5,0.4,0.5,0.7c0,0.1,0,0.2,0,0.3c0,0.4-0.3,0.7-0.8,0.5
								l-1.2-0.4c-0.4-0.1-0.6-0.6-0.5-1c0.1-0.4,0.6-0.6,1-0.5l0,0l0.2-1.7c0,0,0-0.1-0.1-0.1c-0.7-0.4-1.4-0.9-1.9-1.5
								c0,0-0.1,0-0.1,0l-1.4,0.6c0.2,0.3,0.1,0.7-0.2,0.9c-0.3,0.2-0.7,0.1-0.9-0.2l-0.4-0.5c-0.2-0.3-0.2-0.7,0.1-0.9
								c0.3-0.2,0.7-0.2,0.9,0.1l1-1.1c0,0,0-0.1,0-0.1c-0.4-0.7-0.7-1.6-0.8-2.4c0,0,0-0.1-0.1-0.1l-1.6-0.4l0,0.2
								c0,0.2-0.1,0.4-0.2,0.5c-0.1,0.1-0.3,0.2-0.5,0.2c-0.4,0-0.7-0.3-0.7-0.7l0-1.2c0-0.4,0.3-0.7,0.7-0.7c0.4,0,0.7,0.3,0.7,0.7
								l1.6-0.4c0,0,0.1-0.1,0.1-0.1c0.1-0.9,0.4-1.8,0.9-2.6c0,0,0-0.1,0-0.1l-0.8-0.9l-0.1,0.1c-0.2,0.3-0.6,0.3-0.9,0.1
								c-0.2-0.2-0.3-0.6-0.1-0.8l0.5-0.7c0.1-0.2,0.3-0.2,0.5-0.2c0.1,0,0.3,0,0.4,0.1c0.2,0.2,0.3,0.5,0.1,0.8l1.1,0.5
								c0,0,0.1,0,0.1,0c0.5-0.5,1.1-1,1.7-1.4c0,0,0.1-0.1,0.1-0.1l-0.2-1.6L31.4,44c-0.3,0.1-0.7,0-0.8-0.4
								c-0.1-0.3,0.1-0.7,0.4-0.8l1.2-0.5c0.3-0.1,0.7,0,0.8,0.4c0.1,0.3-0.1,0.7-0.4,0.8l0,0l0.9,1.3c0,0,0.1,0.1,0.1,0
								c0.5-0.1,1.1-0.2,1.7-0.2h0c0.1,0,0.1,0,0.1-0.1l0.3-0.9c-0.4-0.1-0.6-0.5-0.5-0.8c0.1-0.4,0.5-0.7,0.9-0.7l0.4,0.1
								c0.4,0.1,0.8,0.4,0.7,0.9c0,0.3-0.3,0.6-0.6,0.7l0.1,0.9c0,0.1,0,0.1,0.1,0.1c0.7,0.2,1.4,0.4,2,0.8c0,0,0.1,0,0.1,0l1.3-1
								L40,44.5c-0.3-0.2-0.3-0.6-0.1-0.9c0.2-0.3,0.6-0.3,0.9-0.1l1,0.8c0.3,0.2,0.3,0.6,0.1,0.9c-0.2,0.3-0.6,0.3-0.9,0.1l0,0
								l-0.7,1.5c0,0,0,0.1,0,0.1c0.5,0.5,0.9,1.1,1.2,1.7c0,0,0.1,0.1,0.1,0.1l1-0.1c-0.1-0.4,0.1-0.8,0.5-1
								c0.4-0.1,0.8,0.1,0.9,0.5l0.2,0.6c0.1,0.4,0,0.8-0.4,1c-0.4,0.2-0.8,0-0.9-0.3l-0.8,0.5c0,0-0.1,0.1,0,0.1
								c0.2,0.6,0.3,1.2,0.3,1.9c0,0.1,0,0.2,0,0.3c0,0,0,0.1,0.1,0.1l1.5,0.7l0-0.2C44,52.3,44.3,52.1,44.7,52.2L44.7,52.2z"/>
						</g>
					</g>
					<ellipse class="st2" cx="38.3" cy="48.3" rx="1" ry="0.8"/>
					<circle class="st2" cx="34.8" cy="53.5" r="1.1"/>
					<circle class="st3" cx="39" cy="52.9" r="0.8"/>
					<circle class="st3" cx="36.1" cy="56.7" r="0.8"/>
					<g>
						<path class="st4" d="M31,51.5c0-2.7,1.3-5.1,3.3-6.6c-0.2,0-0.5,0.1-0.7,0.1c0,0-0.1,0-0.1,0l-0.9-1.3l0,0
							c0.3-0.1,0.5-0.5,0.4-0.8c-0.1-0.3-0.5-0.5-0.8-0.4L31,42.9c-0.3,0.1-0.5,0.5-0.4,0.8c0.1,0.3,0.5,0.5,0.8,0.4l0.2-0.1
							l0.2,1.6c0,0,0,0.1-0.1,0.1c-0.6,0.4-1.2,0.8-1.7,1.4c0,0-0.1,0-0.1,0l-1.1-0.5c0.2-0.3,0.1-0.6-0.1-0.8
							c-0.1-0.1-0.2-0.1-0.4-0.1c-0.2,0-0.4,0.1-0.5,0.2l-0.5,0.7c-0.2,0.3-0.2,0.6,0.1,0.8c0.3,0.2,0.7,0.2,0.9-0.1l0.1-0.1
							l0.8,0.9c0,0,0,0.1,0,0.1c-0.4,0.8-0.7,1.6-0.9,2.6c0,0,0,0.1-0.1,0.1l-1.6,0.4c0-0.4-0.3-0.7-0.7-0.7c-0.4,0-0.7,0.3-0.7,0.7
							l0,1.2c0,0.4,0.3,0.7,0.7,0.7c0.2,0,0.4-0.1,0.5-0.2c0.1-0.1,0.2-0.3,0.2-0.5l0-0.2l1.6,0.4c0,0,0.1,0.1,0.1,0.1
							c0.1,0.9,0.4,1.7,0.8,2.4c0,0,0,0.1,0,0.1l-1,1.1c-0.2-0.3-0.6-0.4-0.9-0.1c-0.3,0.2-0.3,0.6-0.1,0.9l0.4,0.5
							c0.2,0.3,0.6,0.4,0.9,0.2c0.3-0.2,0.4-0.6,0.2-0.9l1.4-0.6c0,0,0.1,0,0.1,0c0.6,0.6,1.2,1.1,1.9,1.5c0,0,0.1,0.1,0.1,0.1
							l-0.2,1.7l0,0c-0.4-0.1-0.9,0.1-1,0.5c-0.1,0.4,0.1,0.8,0.5,1l1.2,0.4c0.4,0.2,0.8-0.1,0.8-0.5c0-0.1,0-0.2,0-0.3
							c0-0.3-0.2-0.6-0.5-0.7l0,0l0.9-1.5c0,0,0.1-0.1,0.1-0.1c0.5,0.1,0.9,0.1,1.4,0.1c0.1,0,0.1,0,0.2,0
							C32.8,57.4,31,54.6,31,51.5L31,51.5z"/>
					</g>
					<circle class="st2" cx="31.4" cy="54.9" r="0.8"/>
				</g>
				<ellipse transform="matrix(0.7852 -0.6192 0.6192 0.7852 -23.3613 30.9699)" class="st2" cx="33" cy="49.2" rx="2.1" ry="1.7"/>
			</g>
			<g>
				<path d="M44.7,51.9c-0.2,0-0.5,0-0.7,0.1c-0.2,0.1-0.3,0.3-0.4,0.5L42.6,52c0-0.1,0-0.1,0-0.2c0-0.6-0.1-1.2-0.2-1.8l0.5-0.3
					c0.3,0.3,0.7,0.3,1.1,0.2c0.5-0.2,0.8-0.8,0.6-1.3l-0.2-0.6c-0.2-0.5-0.8-0.8-1.3-0.6c-0.3,0.1-0.5,0.3-0.6,0.5
					c-0.1,0.1-0.1,0.3-0.1,0.5l-0.5,0.1c-0.1-0.1-0.2-0.3-0.2-0.4c-0.1-0.1-0.3-0.2-0.4-0.1c-0.1,0.1-0.2,0.3-0.1,0.4
					c0.1,0.2,0.2,0.3,0.3,0.5c0.1,0.2,0.3,0.2,0.4,0.2l1-0.1c0.1,0,0.2-0.1,0.2-0.1s0.1-0.2,0-0.3c0-0.1,0-0.2,0-0.4
					c0.1-0.1,0.1-0.2,0.3-0.2c0.2-0.1,0.5,0.1,0.6,0.3l0.2,0.6c0.1,0.2,0,0.5-0.2,0.6c-0.2,0.1-0.4,0-0.6-0.2c0-0.1-0.1-0.1-0.2-0.1
					c-0.1,0-0.2,0-0.2,0l-0.8,0.5c-0.1,0.1-0.2,0.3-0.2,0.5c0.2,0.6,0.2,1.2,0.2,1.8c0,0.1,0,0.2,0,0.3c0,0.2,0.1,0.3,0.3,0.4
					l1.5,0.7c0.1,0,0.2,0,0.3,0c0.1,0,0.1-0.1,0.2-0.2l0-0.2c0-0.1,0.1-0.2,0.1-0.2c0.1,0,0.2-0.1,0.2,0c0.2,0,0.3,0.2,0.3,0.4
					l-0.2,1.3c0,0.1-0.1,0.2-0.1,0.2c-0.1,0-0.2,0.1-0.3,0c-0.2,0-0.3-0.2-0.2-0.4l0,0c0-0.1,0-0.2-0.1-0.3
					c-0.1-0.1-0.1-0.1-0.2-0.1l-1.6,0.1c-0.2,0-0.3,0.1-0.4,0.3c-0.2,0.5-0.3,0.9-0.6,1.3c-0.1,0.2-0.1,0.3,0,0.5l0.7,0.9
					c0.1,0.1,0.1,0.1,0.2,0.1c0.1,0,0.2,0,0.2-0.1c0.2-0.2,0.4-0.2,0.6,0c0.1,0.1,0.2,0.2,0.2,0.3c0,0.1,0,0.2-0.1,0.3l-0.2,0.3
					c-0.1,0.2-0.4,0.2-0.6,0.1c-0.2-0.1-0.2-0.3-0.2-0.5c0-0.1,0-0.3-0.2-0.4l-1-0.5c-0.2-0.1-0.4,0-0.5,0.1c-0.5,0.5-1,0.9-1.6,1.3
					c-0.1,0.1-0.2,0.3-0.2,0.4l0.3,1.6c0,0.1,0.1,0.2,0.1,0.2c0.1,0,0.2,0.1,0.3,0l0.2-0.1c0.1,0,0.2,0,0.3,0c0.1,0,0.1,0.1,0.2,0.2
					c0.1,0.2,0,0.3-0.2,0.4l-1.2,0.5c-0.1,0-0.2,0-0.3,0c-0.1,0-0.1-0.1-0.2-0.2c-0.1-0.2,0-0.3,0.2-0.4l0,0c0.1,0,0.2-0.1,0.2-0.2
					c0-0.1,0-0.2,0-0.3l-0.9-1.3c-0.1-0.1-0.3-0.2-0.4-0.2c-0.6,0.1-1.1,0.2-1.7,0.2c-0.5,0-0.9,0-1.3-0.1c-0.2,0-0.3,0-0.4,0.2
					L32.6,60c0,0.1-0.1,0.2,0,0.3c0,0.1,0.1,0.2,0.2,0.2l0,0c0.1,0,0.2,0.1,0.3,0.2c0.1,0.1,0.1,0.2,0,0.3c0,0,0,0.1,0,0.1
					c0,0.1,0,0.2-0.1,0.2c-0.1,0-0.2,0-0.3,0L31.5,61c-0.2-0.1-0.4-0.3-0.3-0.6c0-0.1,0.1-0.2,0.2-0.3c0.1-0.1,0.3-0.1,0.4,0l0,0
					c0.1,0,0.2,0,0.3,0c0.1,0,0.1-0.1,0.1-0.2l0.2-1.7c0-0.2-0.1-0.3-0.2-0.4c-0.7-0.4-1.3-0.8-1.9-1.4c-0.1-0.1-0.3-0.2-0.5-0.1
					l-1.4,0.6c-0.1,0-0.1,0.1-0.2,0.2c0,0.1,0,0.2,0,0.2c0.1,0.2,0,0.4-0.1,0.5c-0.2,0.1-0.4,0.1-0.5-0.1l-0.4-0.5
					c-0.1-0.2-0.1-0.4,0.1-0.5c0.1-0.1,0.2-0.1,0.3-0.1c0.1,0,0.2,0.1,0.2,0.1c0.1,0.1,0.1,0.1,0.2,0.1c0.1,0,0.2,0,0.2-0.1l1-1.1
					c0.1-0.1,0.1-0.3,0.1-0.5c-0.1-0.2-0.2-0.4-0.3-0.6c-0.1-0.2-0.2-0.2-0.4-0.2c-0.2,0.1-0.2,0.2-0.2,0.4c0.1,0.2,0.2,0.4,0.3,0.5
					L28.1,56c-0.1-0.1-0.2-0.1-0.4-0.1c-0.3,0-0.5,0-0.7,0.2c-0.4,0.3-0.5,0.9-0.2,1.3l0.4,0.5c0.3,0.4,0.9,0.6,1.3,0.3
					c0.3-0.2,0.5-0.6,0.4-0.9l1-0.4c0.5,0.6,1.2,1,1.8,1.4l-0.1,1.3c-0.2,0-0.3,0-0.5,0.1c-0.3,0.1-0.5,0.3-0.5,0.6
					c-0.2,0.5,0.1,1.1,0.6,1.3l1.2,0.4c0.1,0,0.2,0.1,0.3,0.1c0.2,0,0.3,0,0.5-0.1c0.2-0.1,0.3-0.4,0.3-0.7c0.1-0.3,0.1-0.5-0.1-0.8
					c-0.1-0.2-0.2-0.3-0.3-0.4l0.7-1.1c1,0.2,2.1,0.2,3.1-0.1l0.7,1c-0.3,0.2-0.4,0.6-0.3,1c0.1,0.2,0.3,0.4,0.5,0.5
					c0.2,0.1,0.5,0.1,0.7,0l1.2-0.5c0.5-0.2,0.7-0.7,0.5-1.2c-0.1-0.2-0.3-0.4-0.5-0.5c-0.2-0.1-0.4-0.1-0.6-0.1l-0.2-1.1
					c0.6-0.3,1.1-0.8,1.5-1.2l0.7,0.3c0,0.4,0.1,0.7,0.5,0.9c0.5,0.3,1.1,0.2,1.4-0.2l0.2-0.3c0.2-0.2,0.2-0.5,0.2-0.8
					c0-0.3-0.2-0.5-0.4-0.7c-0.3-0.2-0.7-0.3-1.1-0.1l-0.5-0.5c0.2-0.4,0.4-0.8,0.5-1.2l1.2-0.1c0.1,0.4,0.3,0.7,0.7,0.8
					c0.2,0.1,0.5,0,0.7-0.1c0.2-0.1,0.4-0.4,0.4-0.6l0.2-1.3C45.5,52.4,45.2,52,44.7,51.9L44.7,51.9z"/>
				<path d="M26.9,52.7l1.1,0.3c0,0.2,0.1,0.3,0.1,0.5c0,0.1,0.2,0.2,0.3,0.2c0,0,0,0,0.1,0c0.2,0,0.3-0.2,0.2-0.4
					c0-0.2-0.1-0.4-0.1-0.5c0-0.2-0.2-0.3-0.3-0.4L26.7,52c-0.1,0-0.2,0-0.3,0.1c-0.1,0.1-0.1,0.1-0.1,0.2l0,0.2
					c0,0.2-0.2,0.4-0.4,0.4c-0.1,0-0.2,0-0.3-0.1c-0.1-0.1-0.1-0.2-0.1-0.3l0-1.2c0-0.1,0-0.2,0.1-0.3c0.1-0.1,0.2-0.1,0.3-0.1
					c0.2,0,0.4,0.2,0.4,0.4c0,0.1,0,0.2,0.1,0.2c0.1,0.1,0.2,0.1,0.3,0.1l1.6-0.4c0.2,0,0.3-0.2,0.3-0.4c0.1-0.9,0.4-1.7,0.8-2.4
					c0.1-0.2,0.1-0.3,0-0.5l-0.8-0.9C28.6,47,28.5,47,28.4,47c-0.1,0-0.2,0-0.2,0.1l-0.1,0.1c0,0.1-0.1,0.1-0.2,0.1
					c-0.1,0-0.2,0-0.2-0.1c-0.1-0.1-0.1-0.3,0-0.4l0.5-0.7c0.1-0.1,0.3-0.2,0.4-0.1c0.1,0.1,0.2,0.3,0.1,0.4c0,0.1-0.1,0.2,0,0.2
					c0,0.1,0.1,0.2,0.2,0.2l1.1,0.5c0.2,0.1,0.4,0,0.5-0.1c0.5-0.5,1-1,1.7-1.3c0.1-0.1,0.2-0.3,0.2-0.4l-0.2-1.6
					c0-0.1-0.1-0.2-0.1-0.2c-0.1,0-0.2-0.1-0.3,0l-0.2,0.1c-0.1,0-0.2,0-0.3,0c-0.1,0-0.1-0.1-0.2-0.2c-0.1-0.2,0-0.3,0.2-0.4
					l1.2-0.5c0.1,0,0.2,0,0.3,0c0.1,0,0.1,0.1,0.2,0.2c0.1,0.2,0,0.3-0.2,0.4l0,0c-0.1,0-0.2,0.1-0.2,0.2c0,0.1,0,0.2,0,0.3l0.9,1.3
					c0.1,0.1,0.3,0.2,0.4,0.2c0.5-0.1,1.1-0.2,1.6-0.2h0c0.2,0,0.3-0.1,0.4-0.3l0.3-0.9c0-0.1,0-0.2,0-0.2c0-0.1-0.1-0.1-0.2-0.2
					c-0.2-0.1-0.4-0.3-0.3-0.5c0-0.1,0.1-0.2,0.2-0.3c0.1-0.1,0.2-0.1,0.4-0.1l0.4,0.1c0.3,0,0.5,0.3,0.4,0.5c0,0.2-0.2,0.4-0.4,0.4
					c-0.1,0-0.2,0.2-0.2,0.3l0.1,0.9c0,0.2,0.2,0.3,0.3,0.4c0.7,0.1,1.3,0.4,1.9,0.7c0.1,0.1,0.3,0.1,0.5,0l1.3-1
					c0.1-0.1,0.1-0.1,0.1-0.2c0-0.1,0-0.2-0.1-0.2l-0.2-0.2c-0.1-0.1-0.1-0.1-0.1-0.2c0-0.1,0-0.2,0.1-0.2c0.1-0.1,0.3-0.1,0.5,0
					l1,0.8c0.1,0.1,0.1,0.1,0.1,0.2c0,0.1,0,0.2-0.1,0.2c-0.1,0.1-0.3,0.1-0.5,0l0,0C41.1,45,41,45,40.9,45c-0.1,0-0.2,0.1-0.2,0.2
					L40,46.6c-0.1,0.2,0,0.3,0.1,0.5c0,0,0.1,0.1,0.1,0.1c0.1,0.1,0.3,0.1,0.4,0c0.1-0.1,0.1-0.3,0-0.4c0,0,0,0-0.1-0.1l0.5-1.1
					c0.3,0.1,0.7,0,1-0.3c0.2-0.2,0.2-0.4,0.2-0.7c0-0.3-0.1-0.5-0.3-0.6l-1-0.8c-0.4-0.3-1-0.3-1.3,0.1c-0.2,0.2-0.2,0.4-0.2,0.7
					c0,0.2,0.1,0.4,0.3,0.6l-0.9,0.7c-0.6-0.3-1.2-0.6-1.8-0.7l-0.1-0.6c0.3-0.2,0.5-0.5,0.6-0.8c0.1-0.6-0.4-1.1-1-1.2L36.1,42
					c-0.3,0-0.6,0-0.8,0.2c-0.2,0.2-0.4,0.4-0.4,0.7c0,0.4,0.1,0.8,0.5,1l-0.2,0.5c-0.5,0-1,0.1-1.5,0.2l-0.7-1
					c0.3-0.2,0.4-0.6,0.3-1c-0.1-0.2-0.3-0.4-0.5-0.5c-0.2-0.1-0.5-0.1-0.7,0l-1.2,0.5c-0.5,0.2-0.7,0.7-0.6,1.2
					c0.1,0.2,0.3,0.4,0.5,0.5c0.2,0.1,0.4,0.1,0.6,0.1l0.2,1.1c-0.6,0.3-1.1,0.8-1.6,1.3l-0.7-0.3c0.1-0.3-0.1-0.7-0.3-0.9
					c-0.2-0.1-0.4-0.2-0.7-0.2c-0.2,0-0.4,0.2-0.6,0.3l-0.5,0.7c-0.3,0.4-0.2,0.9,0.1,1.2c0.2,0.2,0.4,0.2,0.7,0.2
					c0.2,0,0.3-0.1,0.4-0.2l0.5,0.5c-0.4,0.8-0.7,1.6-0.8,2.4L26.9,51c-0.1-0.4-0.5-0.6-0.9-0.6c-0.3,0-0.5,0.1-0.7,0.3
					c-0.2,0.2-0.3,0.4-0.3,0.7l0,1.2c0,0.3,0.1,0.5,0.3,0.7c0.2,0.2,0.4,0.3,0.7,0.3C26.4,53.5,26.8,53.1,26.9,52.7L26.9,52.7z"/>
				<path d="M33.8,51c0.1-0.1,0.2-0.3,0.1-0.4c-0.1-0.1-0.3-0.2-0.4-0.1c-0.7,0.4-1.5,0.3-1.9-0.2c-0.2-0.3-0.3-0.7-0.2-1.1
					c0.1-0.4,0.3-0.8,0.7-1.1c0.4-0.3,0.8-0.5,1.3-0.4c0.4,0,0.8,0.2,1,0.5c0.3,0.4,0.3,1.1,0,1.7c-0.1,0.1,0,0.3,0.1,0.4
					c0.1,0.1,0.3,0,0.4-0.1c0.5-0.8,0.5-1.7,0-2.3C34.5,47.3,34,47,33.4,47c-0.6,0-1.2,0.2-1.7,0.6c-0.5,0.4-0.8,0.9-0.9,1.5
					c-0.1,0.6,0,1.1,0.3,1.6c0.4,0.5,0.9,0.7,1.5,0.7C33,51.3,33.4,51.2,33.8,51L33.8,51z"/>
				<path d="M39.6,48.3c0-0.6-0.6-1.1-1.3-1.1c-0.7,0-1.3,0.5-1.3,1.1c0,0.6,0.6,1.1,1.3,1.1S39.6,49,39.6,48.3z M37.7,48.3
					c0-0.3,0.3-0.5,0.7-0.5c0.4,0,0.7,0.2,0.7,0.5c0,0.3-0.3,0.5-0.7,0.5C38,48.9,37.7,48.6,37.7,48.3z"/>
				<path d="M36.1,53.5c0-0.8-0.6-1.4-1.4-1.4c-0.8,0-1.4,0.6-1.4,1.4c0,0.8,0.6,1.4,1.4,1.4C35.5,54.9,36.1,54.3,36.1,53.5z
					 M34,53.5c0-0.4,0.4-0.8,0.8-0.8c0.4,0,0.8,0.4,0.8,0.8s-0.4,0.8-0.8,0.8C34.3,54.3,34,53.9,34,53.5z"/>
				<path d="M40.1,52.9c0-0.6-0.5-1.1-1.1-1.1c-0.6,0-1.1,0.5-1.1,1.1S38.4,54,39,54C39.6,54,40.1,53.5,40.1,52.9z M38.5,52.9
					c0-0.3,0.2-0.5,0.5-0.5c0.3,0,0.5,0.2,0.5,0.5c0,0.3-0.2,0.5-0.5,0.5C38.7,53.4,38.5,53.2,38.5,52.9z"/>
				<path d="M36.1,57.8c0.6,0,1.1-0.5,1.1-1.1c0-0.6-0.5-1.1-1.1-1.1s-1.1,0.5-1.1,1.1S35.5,57.8,36.1,57.8z M36.1,56.3
					c0.3,0,0.5,0.2,0.5,0.5c0,0.3-0.2,0.5-0.5,0.5c-0.3,0-0.5-0.2-0.5-0.5C35.7,56.5,35.9,56.3,36.1,56.3z"/>
				<path d="M31.4,56c0.6,0,1.1-0.5,1.1-1.1c0-0.6-0.5-1.1-1.1-1.1c-0.6,0-1.1,0.5-1.1,1.1C30.3,55.5,30.8,56,31.4,56z M31.4,54.4
					c0.3,0,0.5,0.2,0.5,0.5s-0.2,0.5-0.5,0.5c-0.3,0-0.5-0.2-0.5-0.5S31.1,54.4,31.4,54.4z"/>
				<path d="M37.5,51.2c0-0.2-0.1-0.3-0.3-0.3H37c-0.2,0-0.3,0.1-0.3,0.3c0,0.2,0.1,0.3,0.3,0.3h0.3C37.4,51.5,37.5,51.3,37.5,51.2z
					"/>
				<path d="M33.4,56.7h0.3c0.2,0,0.3-0.1,0.3-0.3c0-0.2-0.1-0.3-0.3-0.3h-0.3c-0.2,0-0.3,0.1-0.3,0.3
					C33.1,56.6,33.2,56.7,33.4,56.7z"/>
				<path d="M30.9,52.3c0.2,0,0.3-0.1,0.3-0.3c0-0.2-0.1-0.3-0.3-0.3h-0.3c-0.2,0-0.3,0.1-0.3,0.3c0,0.2,0.1,0.3,0.3,0.3H30.9z"/>
				<path d="M36.2,47.1c0.2,0,0.3-0.1,0.3-0.3s-0.1-0.3-0.3-0.3h-0.4c-0.2,0-0.3,0.1-0.3,0.3s0.1,0.3,0.3,0.3H36.2z"/>
				<path d="M38.2,55.1c-0.2,0-0.3,0.1-0.3,0.3c0,0.2,0.1,0.3,0.3,0.3h0.4c0.2,0,0.3-0.1,0.3-0.3c0-0.2-0.1-0.3-0.3-0.3H38.2z"/>
			</g>
		</g>
		<path class="st0" d="M66.4,25.8h-12v-8c0-2.3-0.1-3.8-0.4-4.4c-0.3-0.6-0.8-0.9-1.7-0.9c-1,0-1.6,0.4-1.9,1.1
			c-0.3,0.7-0.4,2.2-0.4,4.5v21.4c0,2.2,0.1,3.7,0.4,4.4c0.3,0.7,0.9,1,1.8,1c0.9,0,1.5-0.3,1.7-1c0.3-0.7,0.4-2.3,0.4-4.8v-5.8h12
			v1.8c0,4.8-0.3,8.1-1,10.1c-0.7,2-2.2,3.7-4.5,5.2c-2.3,1.5-5.1,2.2-8.5,2.2c-3.5,0-6.4-0.6-8.7-1.9s-3.8-3-4.5-5.3
			s-1.1-5.6-1.1-10.1V22c0-3.3,0.1-5.8,0.3-7.5c0.2-1.7,0.9-3.3,2-4.8c1.1-1.5,2.7-2.7,4.7-3.6c2-0.9,4.3-1.3,6.9-1.3
			c3.5,0,6.4,0.7,8.7,2s3.8,3.1,4.5,5.1s1.1,5.2,1.1,9.5V25.8z"/>
		<g>
			<path class="st0" d="M123.9,14l-5.4,37.7h-15L97.8,14H108l3.2,27.5c0.3-2,0.7-7,1.3-14.8c0.3-4.4,0.7-8.6,1.1-12.7H123.9z"/>
			<path class="st0" d="M137.4,5.7v6h-11.8v-6H137.4z M137.4,14v37.7h-11.8V14H137.4z"/>
			<path class="st0" d="M167.7,5.7v46h-11.5V49c-1.1,1.1-2.3,2-3.5,2.6c-1.2,0.6-2.5,0.9-3.8,0.9c-1.8,0-3.3-0.5-4.6-1.4
				c-1.3-0.9-2.1-2-2.5-3.3c-0.4-1.2-0.6-3.2-0.6-6V24.1c0-2.9,0.2-5,0.6-6.2c0.4-1.2,1.2-2.3,2.5-3.2c1.3-0.9,2.9-1.4,4.7-1.4
				c1.4,0,2.7,0.3,3.9,0.8s2.3,1.3,3.2,2.3V5.7H167.7z M156.2,23.5c0-1.4-0.1-2.3-0.4-2.8c-0.2-0.5-0.7-0.7-1.4-0.7
				c-0.7,0-1.1,0.2-1.4,0.6c-0.2,0.4-0.4,1.4-0.4,2.9V42c0,1.5,0.1,2.5,0.3,3s0.7,0.7,1.3,0.7c0.7,0,1.2-0.3,1.5-0.8
				c0.2-0.5,0.4-1.9,0.4-4V23.5z"/>
		</g>
		<g>
			<g>
				<g>
					<g id="XMLID_427_">
						<g>
							<path class="st1" d="M101.3,33.3c0.6,0.1,1.1,0.7,0.9,1.4l-0.5,2.4c-0.1,0.7-0.8,1.1-1.4,0.9c-0.6-0.2-1-0.8-0.9-1.4l0-0.1
								l-3.1,0.1c-0.1,0-0.2,0.1-0.2,0.2c-0.3,0.9-0.7,1.8-1.2,2.6c0,0.1,0,0.2,0,0.3l1.4,1.6c0.3-0.3,0.6-0.4,1-0.4
								c0.3,0,0.6,0.1,0.9,0.3c0.6,0.5,0.7,1.4,0.3,2l-0.4,0.5c-0.5,0.6-1.3,0.8-2,0.3c-0.5-0.4-0.7-1-0.5-1.6l-2-0.9
								c-0.1,0-0.2,0-0.3,0.1c-0.9,1-2,1.9-3.1,2.5c-0.1,0-0.1,0.1-0.1,0.2l0.5,3.1l0.4-0.2c0.6-0.2,1.3,0.1,1.6,0.7
								c0.2,0.6-0.1,1.3-0.7,1.5l-2.2,0.9c-0.6,0.2-1.3-0.1-1.6-0.7c-0.2-0.6,0.1-1.3,0.7-1.5l0.1,0l-1.8-2.5
								c-0.1-0.1-0.1-0.1-0.2-0.1c-1.1,0.3-2.2,0.4-3.4,0.4c-0.9,0-1.8-0.1-2.7-0.3c-0.1,0-0.2,0-0.2,0.1l-1.8,2.8l0.1,0
								c0.6,0.2,0.9,0.8,0.9,1.3c0,0.2,0,0.3-0.1,0.5c0,0.8-0.6,1.3-1.4,1l-2.2-0.8c-0.7-0.3-1.1-1.1-0.9-1.8
								c0.3-0.8,1.1-1.1,1.9-0.9l0.1,0l0.4-3.3c0-0.1,0-0.2-0.1-0.2c-1.4-0.7-2.6-1.7-3.7-2.8c-0.1-0.1-0.2-0.1-0.2-0.1l-2.7,1.1
								c0.3,0.6,0.1,1.3-0.4,1.7c-0.6,0.4-1.4,0.2-1.8-0.4l-0.7-1c-0.4-0.6-0.3-1.3,0.2-1.7c0.6-0.4,1.4-0.3,1.8,0.2l1.9-2.1
								c0.1-0.1,0.1-0.2,0-0.3c-0.8-1.4-1.3-3-1.5-4.6c0-0.1-0.1-0.2-0.2-0.2l-3-0.7l0,0.4c0,0.4-0.1,0.7-0.4,0.9
								c-0.2,0.2-0.6,0.4-0.9,0.4c-0.7,0-1.3-0.6-1.3-1.3l0-2.2c0-0.7,0.6-1.3,1.3-1.3c0.7,0,1.3,0.6,1.2,1.3l3-0.7
								c0.1,0,0.2-0.1,0.2-0.2c0.2-1.7,0.8-3.4,1.7-4.9c0-0.1,0-0.2,0-0.3L70.5,24l-0.1,0.2c-0.4,0.5-1.1,0.6-1.6,0.2
								c-0.5-0.4-0.5-1.1-0.2-1.6l1-1.3c0.2-0.3,0.6-0.4,0.9-0.4c0.2,0,0.5,0.1,0.7,0.2c0.5,0.4,0.6,1,0.3,1.5l2,0.9
								c0.1,0,0.2,0,0.3-0.1c0.9-1,2.1-1.9,3.3-2.6c0.1,0,0.1-0.1,0.1-0.2l-0.5-3.1l-0.4,0.2c-0.6,0.2-1.3-0.1-1.5-0.7
								c-0.2-0.6,0.1-1.3,0.7-1.5l2.2-0.9c0.6-0.2,1.3,0.1,1.5,0.7c0.2,0.6-0.1,1.3-0.7,1.5l-0.1,0l1.8,2.5c0.1,0.1,0.1,0.1,0.2,0.1
								c1-0.2,2.1-0.4,3.2-0.4h0c0.1,0,0.2-0.1,0.2-0.1l0.6-1.6c-0.7-0.2-1.1-0.9-1-1.6c0.1-0.8,0.9-1.4,1.7-1.3l0.8,0.1
								c0.8,0.1,1.4,0.8,1.3,1.6c-0.1,0.6-0.5,1.1-1.1,1.3l0.2,1.8c0,0.1,0.1,0.2,0.2,0.2c1.4,0.3,2.6,0.8,3.8,1.5
								c0.1,0,0.2,0,0.3,0l2.4-2l-0.4-0.3c-0.5-0.4-0.6-1.2-0.2-1.7c0.4-0.5,1.2-0.5,1.6-0.1l1.9,1.5c0.5,0.4,0.6,1.2,0.2,1.7
								c-0.4,0.5-1.2,0.5-1.6,0.1l-0.1,0L93,23c0,0.1,0,0.2,0,0.3c0.9,0.9,1.7,2,2.3,3.2c0,0.1,0.1,0.1,0.2,0.1l1.8-0.3
								c-0.3-0.8,0.1-1.6,0.9-1.8c0.7-0.2,1.5,0.2,1.8,0.9l0.4,1.1c0.3,0.7-0.1,1.5-0.8,1.8c-0.7,0.3-1.4,0-1.8-0.6l-1.5,1
								c-0.1,0.1-0.1,0.2-0.1,0.2c0.3,1.1,0.5,2.3,0.5,3.6c0,0.2,0,0.4,0,0.6c0,0.1,0,0.2,0.1,0.2l2.8,1.2l0.1-0.5
								C100,33.6,100.6,33.1,101.3,33.3L101.3,33.3z"/>
						</g>
					</g>
					<ellipse class="st2" cx="89.3" cy="26" rx="1.9" ry="1.6"/>
					<circle class="st2" cx="82.5" cy="35.8" r="2.1"/>
					<circle class="st3" cx="90.5" cy="34.7" r="1.5"/>
					<circle class="st3" cx="85.1" cy="41.9" r="1.4"/>
					<g>
						<path class="st4" d="M75.4,31.9c0-5.1,2.4-9.7,6.2-12.5c-0.4,0.1-0.9,0.1-1.3,0.3c-0.1,0-0.2,0-0.2-0.1L78.4,17l0.1,0
							c0.6-0.2,0.9-0.9,0.7-1.5c-0.2-0.6-0.9-1-1.5-0.7l-2.2,0.9c-0.6,0.2-0.9,0.9-0.7,1.5c0.2,0.6,0.9,1,1.5,0.7l0.4-0.2l0.5,3.1
							c0,0.1,0,0.2-0.1,0.2c-1.2,0.7-2.3,1.6-3.3,2.6c-0.1,0.1-0.2,0.1-0.3,0.1l-2-0.9c0.3-0.5,0.2-1.1-0.3-1.5
							c-0.2-0.2-0.4-0.2-0.7-0.2c-0.3,0-0.7,0.2-0.9,0.4l-1,1.3c-0.4,0.5-0.3,1.2,0.2,1.6c0.5,0.4,1.2,0.3,1.6-0.2l0.1-0.2l1.4,1.7
							c0.1,0.1,0.1,0.2,0,0.3c-0.8,1.5-1.4,3.1-1.7,4.9c0,0.1-0.1,0.2-0.2,0.2l-3,0.7c0-0.7-0.6-1.3-1.2-1.3c-0.7,0-1.3,0.6-1.3,1.3
							l0,2.2c0,0.7,0.6,1.3,1.3,1.3c0.4,0,0.7-0.1,0.9-0.4c0.2-0.2,0.4-0.6,0.4-0.9l0-0.4l3,0.7c0.1,0,0.2,0.1,0.2,0.2
							c0.2,1.7,0.8,3.2,1.5,4.6c0,0.1,0,0.2,0,0.3L70,41.4c-0.4-0.6-1.2-0.7-1.8-0.2c-0.5,0.4-0.6,1.2-0.2,1.7l0.7,1
							c0.4,0.6,1.2,0.7,1.8,0.4c0.6-0.4,0.7-1.1,0.4-1.7l2.7-1.1c0.1,0,0.2,0,0.2,0.1c1.1,1.1,2.3,2.1,3.7,2.8
							c0.1,0,0.1,0.1,0.1,0.2l-0.4,3.3l-0.1,0c-0.8-0.3-1.6,0.1-1.9,0.9c-0.3,0.7,0.1,1.5,0.9,1.8l2.2,0.8c0.8,0.3,1.4-0.2,1.4-1
							c0.1-0.2,0.1-0.3,0.1-0.5c0-0.6-0.4-1.1-0.9-1.3l-0.1,0l1.8-2.8c0.1-0.1,0.1-0.1,0.2-0.1c0.9,0.2,1.8,0.3,2.7,0.3
							c0.1,0,0.2,0,0.3,0C78.8,43.3,75.4,38,75.4,31.9L75.4,31.9z"/>
					</g>
					<circle class="st2" cx="76.1" cy="38.5" r="1.5"/>
				</g>
				
					<ellipse transform="matrix(0.7852 -0.6192 0.6192 0.7852 -9.254704e-02 54.9103)" class="st2" cx="79.1" cy="27.6" rx="3.9" ry="3.3"/>
			</g>
			<g>
				<path d="M101.4,32.7c-0.5-0.1-0.9,0-1.3,0.3c-0.3,0.2-0.6,0.5-0.7,0.9l-2-0.9c0-0.1,0-0.3,0-0.4c0-1.2-0.1-2.3-0.4-3.5l0.9-0.6
					c0.6,0.5,1.4,0.6,2.1,0.3c1-0.4,1.4-1.5,1.1-2.6l-0.4-1.1c-0.4-1-1.5-1.6-2.5-1.2c-0.5,0.2-0.9,0.5-1.2,1
					c-0.1,0.3-0.2,0.6-0.2,0.9l-1,0.1c-0.1-0.3-0.3-0.5-0.5-0.8c-0.2-0.3-0.5-0.3-0.8-0.2c-0.3,0.2-0.3,0.5-0.2,0.8
					c0.2,0.3,0.4,0.6,0.5,0.9c0.2,0.3,0.5,0.5,0.8,0.4l1.8-0.3c0.2,0,0.3-0.1,0.4-0.3c0.1-0.1,0.1-0.3,0-0.5c-0.1-0.2-0.1-0.5,0-0.7
					c0.1-0.2,0.3-0.4,0.5-0.4c0.4-0.1,0.9,0.1,1.1,0.5l0.4,1.1c0.2,0.4,0,0.9-0.4,1.1c-0.4,0.2-0.9,0-1.1-0.3
					c-0.1-0.1-0.2-0.2-0.4-0.3c-0.2,0-0.3,0-0.4,0.1l-1.5,1c-0.3,0.2-0.4,0.5-0.3,0.9c0.3,1.1,0.5,2.2,0.5,3.4c0,0.2,0,0.4,0,0.6
					c0,0.3,0.2,0.6,0.5,0.8l2.8,1.2c0.2,0.1,0.3,0.1,0.5,0c0.2-0.1,0.3-0.2,0.3-0.4l0.1-0.5c0-0.2,0.1-0.3,0.3-0.4
					c0.1-0.1,0.3-0.1,0.5-0.1c0.3,0.1,0.5,0.4,0.5,0.7l-0.5,2.4c0,0.2-0.1,0.3-0.3,0.4c-0.1,0.1-0.3,0.1-0.5,0.1
					c-0.3-0.1-0.5-0.4-0.4-0.7l0-0.1c0-0.2,0-0.3-0.1-0.5c-0.1-0.1-0.3-0.2-0.5-0.2L96.3,36c-0.3,0-0.6,0.2-0.7,0.5
					c-0.3,0.9-0.7,1.7-1.1,2.5c-0.2,0.3-0.1,0.7,0.1,0.9l1.4,1.6c0.1,0.1,0.2,0.2,0.4,0.2c0.2,0,0.3,0,0.4-0.2
					c0.3-0.3,0.8-0.3,1.1-0.1c0.2,0.1,0.3,0.3,0.3,0.6c0,0.2,0,0.4-0.2,0.6l-0.4,0.5c-0.3,0.4-0.8,0.5-1.2,0.2
					c-0.3-0.2-0.4-0.6-0.3-1c0.1-0.3,0-0.6-0.3-0.7l-2-0.9c-0.3-0.1-0.7-0.1-0.9,0.2c-0.9,1-1.9,1.8-3,2.4c-0.3,0.2-0.4,0.5-0.4,0.8
					l0.5,3.1c0,0.2,0.1,0.3,0.3,0.4c0.2,0.1,0.3,0.1,0.5,0l0.4-0.2c0.2-0.1,0.3-0.1,0.5,0c0.2,0.1,0.3,0.2,0.3,0.4
					c0.1,0.3-0.1,0.7-0.4,0.8l-2.2,0.9c-0.2,0.1-0.3,0.1-0.5,0c-0.2-0.1-0.3-0.2-0.3-0.4c-0.1-0.3,0.1-0.7,0.4-0.8l0.1,0
					c0.2-0.1,0.3-0.2,0.3-0.4c0-0.2,0-0.3-0.1-0.5l-1.8-2.5c-0.2-0.3-0.5-0.4-0.8-0.3c-1,0.3-2.1,0.4-3.2,0.4
					c-0.9,0-1.7-0.1-2.6-0.3c-0.3-0.1-0.7,0.1-0.8,0.4l-1.8,2.8c-0.1,0.1-0.1,0.3-0.1,0.5c0.1,0.2,0.2,0.3,0.3,0.4l0.1,0
					c0.2,0.1,0.4,0.2,0.5,0.4c0.1,0.2,0.1,0.4,0,0.7c0,0.1,0,0.1,0,0.2c0,0.2-0.1,0.4-0.2,0.5c-0.1,0.1-0.3,0.1-0.5,0l-2.2-0.8
					c-0.4-0.2-0.7-0.7-0.5-1.1c0.1-0.2,0.2-0.4,0.4-0.5c0.2-0.1,0.5-0.1,0.7,0l0.1,0c0.2,0.1,0.3,0,0.5-0.1c0.1-0.1,0.2-0.2,0.3-0.4
					l0.4-3.3c0-0.3-0.1-0.6-0.4-0.8c-1.3-0.7-2.5-1.6-3.5-2.7c-0.2-0.2-0.6-0.3-0.9-0.2l-2.7,1.1c-0.1,0.1-0.3,0.2-0.3,0.3
					c-0.1,0.2,0,0.3,0,0.5c0.2,0.3,0.1,0.7-0.2,0.9c-0.3,0.2-0.7,0.1-1-0.2l-0.7-1c-0.2-0.3-0.2-0.7,0.1-1c0.1-0.1,0.3-0.2,0.5-0.1
					c0.2,0,0.4,0.1,0.5,0.3c0.1,0.1,0.3,0.2,0.4,0.2c0.2,0,0.3-0.1,0.4-0.2l1.9-2.1c0.2-0.3,0.3-0.6,0.1-0.9
					c-0.2-0.4-0.4-0.8-0.6-1.1c-0.1-0.3-0.5-0.4-0.7-0.3c-0.3,0.1-0.4,0.5-0.3,0.7c0.2,0.4,0.3,0.7,0.5,1l-1.4,1.5
					c-0.2-0.1-0.5-0.2-0.7-0.3c-0.5-0.1-1,0.1-1.4,0.4c-0.8,0.6-0.9,1.7-0.3,2.5l0.7,1c0.6,0.8,1.7,1.1,2.5,0.5
					c0.6-0.4,0.9-1.1,0.8-1.8l2-0.8c1,1.1,2.2,2,3.5,2.7l-0.3,2.4c-0.3,0-0.7,0.1-1,0.2c-0.5,0.2-0.9,0.6-1,1.1
					c-0.4,1,0.2,2.2,1.2,2.5l2.2,0.8c0.2,0.1,0.4,0.1,0.7,0.1c0.3,0,0.6-0.1,0.9-0.3c0.4-0.3,0.6-0.7,0.7-1.3c0.1-0.5,0.1-1-0.1-1.4
					c-0.1-0.3-0.3-0.5-0.6-0.7l1.3-2.1c1.9,0.4,3.9,0.3,5.8-0.2l1.3,1.8c-0.5,0.5-0.7,1.2-0.5,1.9c0.2,0.5,0.5,0.8,0.9,1
					c0.4,0.2,0.9,0.2,1.4,0l2.2-0.9c0.9-0.4,1.3-1.3,1-2.2c-0.2-0.5-0.5-0.8-0.9-1c-0.4-0.2-0.8-0.2-1.2-0.1l-0.4-2.1
					c1.1-0.6,2-1.4,2.9-2.3l1.3,0.6c0,0.7,0.3,1.4,0.9,1.8c0.9,0.6,2.1,0.4,2.7-0.5l0.4-0.5c0.3-0.4,0.5-0.9,0.4-1.5
					c-0.1-0.5-0.3-1-0.8-1.3c-0.6-0.5-1.4-0.5-2.1-0.2l-0.9-1c0.4-0.7,0.8-1.5,1-2.3l2.2-0.1c0.1,0.7,0.6,1.3,1.3,1.4
					c0.5,0.1,1,0,1.4-0.2c0.4-0.3,0.7-0.7,0.8-1.1l0.5-2.4C103,33.8,102.3,32.9,101.4,32.7L101.4,32.7z"/>
				<path d="M67.7,34.2l2.1,0.5c0,0.3,0.1,0.6,0.2,0.9c0.1,0.3,0.3,0.4,0.6,0.4c0,0,0.1,0,0.1,0c0.3-0.1,0.5-0.4,0.4-0.7
					c-0.1-0.3-0.1-0.7-0.2-1c0-0.3-0.3-0.6-0.6-0.7l-3-0.7c-0.2,0-0.3,0-0.5,0.1c-0.1,0.1-0.2,0.3-0.2,0.4l0,0.4
					c0,0.4-0.3,0.7-0.7,0.7c-0.2,0-0.4-0.1-0.5-0.2c-0.1-0.1-0.2-0.3-0.2-0.5l0-2.2c0-0.2,0.1-0.4,0.2-0.5c0.1-0.1,0.3-0.2,0.5-0.2
					c0.4,0,0.7,0.3,0.7,0.7c0,0.2,0.1,0.3,0.2,0.4c0.1,0.1,0.3,0.1,0.5,0.1l3-0.7c0.3-0.1,0.6-0.3,0.6-0.7c0.2-1.6,0.8-3.2,1.6-4.6
					c0.2-0.3,0.1-0.7-0.1-0.9L71,23.6c-0.1-0.1-0.3-0.2-0.5-0.2c-0.2,0-0.3,0.1-0.4,0.2L70,23.8c-0.1,0.1-0.2,0.2-0.4,0.2
					c-0.2,0-0.3,0-0.4-0.1c-0.2-0.2-0.3-0.5-0.1-0.8l1-1.3c0.2-0.2,0.5-0.3,0.8-0.1c0.2,0.2,0.3,0.5,0.1,0.7
					c-0.1,0.1-0.1,0.3-0.1,0.5s0.2,0.3,0.3,0.4l2,0.9c0.3,0.1,0.7,0.1,0.9-0.2c0.9-1,2-1.8,3.1-2.5c0.3-0.2,0.4-0.5,0.4-0.8
					l-0.5-3.1c0-0.2-0.1-0.3-0.3-0.4c-0.1-0.1-0.3-0.1-0.5,0L76,17.3c-0.2,0.1-0.3,0.1-0.5,0c-0.2-0.1-0.3-0.2-0.3-0.4
					c-0.1-0.3,0.1-0.7,0.4-0.8l2.2-0.9c0.2-0.1,0.3-0.1,0.5,0c0.2,0.1,0.3,0.2,0.3,0.4c0.1,0.3-0.1,0.7-0.4,0.8l-0.1,0
					c-0.2,0.1-0.3,0.2-0.3,0.4c-0.1,0.2,0,0.3,0.1,0.5l1.8,2.5c0.2,0.3,0.5,0.4,0.8,0.3c1-0.2,2-0.4,3-0.4h0c0.3,0,0.6-0.2,0.7-0.5
					l0.6-1.6c0.1-0.1,0-0.3,0-0.4c-0.1-0.1-0.2-0.2-0.3-0.3c-0.4-0.1-0.7-0.5-0.6-1c0-0.2,0.2-0.4,0.3-0.6c0.2-0.2,0.5-0.2,0.7-0.2
					l0.8,0.1c0.5,0.1,0.9,0.5,0.8,1c0,0.4-0.3,0.7-0.7,0.8c-0.3,0.1-0.5,0.3-0.4,0.6l0.2,1.8c0,0.3,0.3,0.6,0.6,0.7
					c1.3,0.3,2.5,0.8,3.6,1.4c0.3,0.2,0.6,0.1,0.9-0.1l2.4-2c0.1-0.1,0.2-0.3,0.2-0.4c0-0.2-0.1-0.3-0.2-0.4l-0.4-0.3
					c-0.1-0.1-0.2-0.3-0.2-0.4c0-0.2,0-0.3,0.1-0.5c0.2-0.2,0.6-0.3,0.9-0.1l1.9,1.5c0.1,0.1,0.2,0.3,0.2,0.4c0,0.2,0,0.3-0.1,0.5
					C95.4,20,95,20,94.7,19.8l-0.1,0c-0.1-0.1-0.3-0.1-0.5-0.1c-0.2,0-0.3,0.2-0.4,0.3l-1.3,2.8c-0.1,0.3-0.1,0.7,0.2,0.9
					c0.1,0.1,0.2,0.2,0.3,0.3c0.2,0.2,0.6,0.2,0.8,0c0.2-0.2,0.2-0.6,0-0.8c0,0-0.1-0.1-0.1-0.1l0.9-2c0.7,0.2,1.4,0,1.9-0.5
					c0.3-0.4,0.5-0.8,0.4-1.3c0-0.5-0.3-0.9-0.7-1.2l-1.9-1.5c-0.7-0.6-1.8-0.5-2.4,0.2c-0.3,0.4-0.5,0.8-0.4,1.3
					c0,0.4,0.2,0.8,0.5,1.1l-1.7,1.4c-1.1-0.6-2.3-1.1-3.5-1.4L86.6,18c0.6-0.3,1-0.9,1.1-1.6c0.1-1.1-0.7-2.1-1.8-2.3L85.1,14
					c-0.6-0.1-1.1,0.1-1.6,0.4c-0.4,0.3-0.7,0.8-0.8,1.4c-0.1,0.8,0.3,1.5,0.9,2l-0.3,0.9c-1,0-1.9,0.1-2.8,0.3l-1.3-1.8
					c0.5-0.5,0.7-1.2,0.5-1.9c-0.2-0.5-0.5-0.8-0.9-1c-0.4-0.2-0.9-0.2-1.4-0.1l-2.2,0.9c-0.9,0.3-1.4,1.3-1.1,2.2
					c0.2,0.5,0.5,0.8,0.9,1c0.4,0.2,0.8,0.2,1.1,0.1l0.3,2.2c-1.1,0.7-2.1,1.5-3,2.4l-1.3-0.6c0.1-0.6-0.1-1.3-0.6-1.6
					c-0.4-0.3-0.8-0.4-1.3-0.3c-0.4,0.1-0.8,0.3-1.1,0.7l-1,1.3c-0.6,0.7-0.4,1.8,0.2,2.4c0.4,0.3,0.8,0.4,1.3,0.4
					c0.3,0,0.6-0.1,0.8-0.3l0.9,1c-0.8,1.4-1.3,3-1.6,4.6L67.6,31c-0.3-0.7-0.9-1.2-1.7-1.2c-0.5,0-1,0.2-1.3,0.5
					c-0.4,0.4-0.6,0.8-0.6,1.4l0,2.2c0,0.5,0.2,1,0.5,1.3c0.3,0.4,0.8,0.5,1.3,0.5C66.7,35.7,67.5,35.1,67.7,34.2L67.7,34.2z"/>
				<path d="M80.7,31.1c0.3-0.1,0.4-0.5,0.2-0.8c-0.1-0.3-0.5-0.4-0.8-0.2c-1.4,0.7-2.9,0.5-3.7-0.5c-0.4-0.6-0.6-1.3-0.4-2.1
					c0.2-0.8,0.7-1.6,1.4-2.1c0.7-0.6,1.6-0.9,2.4-0.8c0.8,0,1.5,0.3,1.9,0.9c0.7,0.8,0.6,2.1,0,3.2c-0.2,0.3-0.1,0.6,0.2,0.8
					c0.3,0.2,0.6,0.1,0.8-0.2c0.9-1.5,0.9-3.2-0.1-4.5C82,24,81,23.5,79.9,23.5c-1.1,0-2.2,0.4-3.1,1.1c-0.9,0.7-1.6,1.7-1.8,2.8
					c-0.2,1.1,0,2.2,0.6,3c0.7,0.9,1.8,1.3,2.9,1.3C79.2,31.7,80,31.5,80.7,31.1L80.7,31.1z"/>
				<path d="M91.8,26c0-1.2-1.1-2.1-2.4-2.1c-1.4,0-2.5,1-2.5,2.1s1.1,2.1,2.5,2.1C90.7,28.2,91.8,27.2,91.8,26z M88,26
					c0-0.6,0.6-1,1.3-1c0.7,0,1.3,0.4,1.3,1s-0.6,1-1.3,1C88.6,27,88,26.6,88,26z"/>
				<path d="M85.1,35.8c0-1.4-1.2-2.6-2.6-2.6c-1.4,0-2.6,1.2-2.6,2.6c0,1.4,1.2,2.6,2.6,2.6C84,38.4,85.1,37.3,85.1,35.8z M81,35.8
					c0-0.8,0.7-1.5,1.5-1.5c0.8,0,1.5,0.7,1.5,1.5c0,0.8-0.7,1.5-1.5,1.5C81.7,37.3,81,36.6,81,35.8z"/>
				<path d="M92.6,34.7c0-1.1-0.9-2-2-2c-1.1,0-2,0.9-2,2c0,1.1,0.9,2,2,2C91.7,36.8,92.6,35.9,92.6,34.7z M89.6,34.7
					c0-0.5,0.4-0.9,0.9-0.9c0.5,0,0.9,0.4,0.9,0.9s-0.4,0.9-0.9,0.9C90,35.6,89.6,35.2,89.6,34.7z"/>
				<path d="M85.1,43.9c1.1,0,2-0.9,2-2c0-1.1-0.9-2-2-2s-2,0.9-2,2C83.1,43,84,43.9,85.1,43.9z M85.1,41.1c0.5,0,0.9,0.4,0.9,0.9
					c0,0.5-0.4,0.9-0.9,0.9s-0.9-0.4-0.9-0.9C84.2,41.4,84.6,41.1,85.1,41.1z"/>
				<path d="M76.1,40.6c1.1,0,2.1-0.9,2.1-2.1c0-1.1-0.9-2.1-2.1-2.1s-2.1,0.9-2.1,2.1C74.1,39.6,75,40.6,76.1,40.6z M76.1,37.6
					c0.5,0,0.9,0.4,0.9,0.9c0,0.5-0.4,0.9-0.9,0.9c-0.5,0-0.9-0.4-0.9-0.9C75.2,38,75.6,37.6,76.1,37.6z"/>
				<path d="M87.7,31.4c0-0.3-0.3-0.6-0.6-0.6h-0.5c-0.3,0-0.6,0.3-0.6,0.6s0.3,0.6,0.6,0.6h0.5C87.5,31.9,87.7,31.7,87.7,31.4z"/>
				<path d="M80,41.9h0.5c0.3,0,0.6-0.3,0.6-0.6c0-0.3-0.3-0.6-0.6-0.6H80c-0.3,0-0.6,0.3-0.6,0.6C79.4,41.6,79.6,41.9,80,41.9z"/>
				<path d="M75.2,33.6c0.3,0,0.6-0.3,0.6-0.6s-0.3-0.6-0.6-0.6h-0.5c-0.3,0-0.6,0.3-0.6,0.6s0.3,0.6,0.6,0.6H75.2z"/>
				<path d="M85.3,23.6c0.3,0,0.6-0.3,0.6-0.6s-0.3-0.6-0.6-0.6h-0.7c-0.3,0-0.6,0.3-0.6,0.6s0.3,0.6,0.6,0.6H85.3z"/>
				<path d="M89.1,38.9c-0.3,0-0.6,0.3-0.6,0.6c0,0.3,0.3,0.6,0.6,0.6h0.8c0.3,0,0.6-0.3,0.6-0.6c0-0.3-0.3-0.6-0.6-0.6H89.1z"/>
			</g>
		</g>
		<g id="XMLID_1497_">
			<path id="XMLID_1004_" class="st5" d="M181.1,49.3c-0.3,0-0.5,0.3-0.5,0.6c0,0,0,0.1-0.1,0.1h-0.6c-0.2,0-0.4-0.2-0.5-0.4
				c-0.1-0.7-0.4-1.3-0.8-1.8c-0.1-0.2-0.1-0.4,0.1-0.6l0.4-0.4c0,0,0.1,0,0.1,0c0.2,0.2,0.6,0.2,0.8,0c0.2-0.2,0.2-0.6,0-0.8
				l-0.9-0.9c-0.2-0.2-0.6-0.2-0.8,0c-0.2,0.2-0.2,0.6,0,0.8c0,0,0,0.1,0,0.1l-0.4,0.4c-0.2,0.2-0.4,0.2-0.6,0.1
				c-0.5-0.4-1.2-0.6-1.8-0.8c-0.2,0-0.4-0.2-0.4-0.5v-0.6c0,0,0-0.1,0.1-0.1c0.3,0,0.6-0.3,0.6-0.6s-0.3-0.6-0.6-0.6h-1.3
				c-0.3,0-0.6,0.3-0.6,0.6s0.3,0.6,0.6,0.6c0,0,0.1,0,0.1,0.1v0.6c0,0.2-0.2,0.4-0.4,0.5c-0.7,0.1-1.3,0.4-1.8,0.8
				c-0.2,0.1-0.4,0.1-0.6-0.1l-0.4-0.4c0,0,0-0.1,0-0.1c0.2-0.2,0.2-0.6,0-0.8c-0.2-0.2-0.6-0.2-0.8,0l-0.9,0.9
				c-0.2,0.2-0.2,0.6,0,0.8c0.2,0.2,0.6,0.2,0.8,0c0,0,0.1,0,0.1,0l0.4,0.4c0.2,0.2,0.2,0.4,0.1,0.6c-0.4,0.5-0.6,1.2-0.8,1.8
				c0,0.2-0.2,0.4-0.5,0.4h-0.6c0,0-0.1,0-0.1-0.1c0-0.3-0.2-0.6-0.6-0.6c-0.3,0-0.6,0.3-0.6,0.6v1.3c0,0.3,0.2,0.6,0.6,0.6
				c0.3,0,0.6-0.3,0.6-0.6c0,0,0-0.1,0.1-0.1h0.6c0.2,0,0.4,0.2,0.5,0.4c0.1,0.7,0.4,1.3,0.8,1.8c0.1,0.2,0.1,0.4-0.1,0.6l-0.4,0.4
				c0,0-0.1,0-0.1,0l0,0c-0.2-0.2-0.6-0.2-0.8,0c-0.2,0.2-0.2,0.6,0,0.8l0.9,0.9c0.2,0.2,0.6,0.2,0.9,0c0.2-0.2,0.2-0.6,0-0.8
				c0,0,0-0.1,0-0.1l0.4-0.4c0.2-0.2,0.4-0.2,0.6-0.1c0.5,0.4,1.2,0.6,1.8,0.8c0.2,0,0.4,0.2,0.4,0.5v0.6c0,0,0,0.1-0.1,0.1
				c-0.3,0-0.6,0.3-0.6,0.6s0.3,0.6,0.6,0.6h1.3c0.3,0,0.6-0.3,0.6-0.6s-0.3-0.6-0.6-0.6c0,0-0.1,0-0.1-0.1v-0.6
				c0-0.2,0.2-0.4,0.4-0.5c0.7-0.1,1.3-0.4,1.8-0.8c0.2-0.1,0.4-0.1,0.6,0.1l0.4,0.4c0,0,0,0.1,0,0.1c-0.2,0.2-0.2,0.6,0,0.8
				c0.2,0.3,0.6,0.3,0.9,0l0.9-0.9c0.2-0.2,0.2-0.6,0-0.8c-0.2-0.2-0.6-0.2-0.8,0l0,0c0,0-0.1,0-0.1,0l-0.4-0.4
				c-0.2-0.2-0.2-0.4-0.1-0.6c0.4-0.5,0.6-1.2,0.8-1.8c0-0.2,0.2-0.4,0.5-0.4h0.6c0,0,0.1,0,0.1,0.1c0,0.3,0.2,0.6,0.5,0.6
				c0.3,0,0.6-0.2,0.6-0.6v-1.3C181.7,49.5,181.4,49.2,181.1,49.3L181.1,49.3z"/>
			<g>
				<circle id="XMLID_980_" class="st6" cx="173.4" cy="48" r="0.9"/>
				<circle id="XMLID_979_" class="st6" cx="172.5" cy="52.4" r="0.8"/>
				<ellipse id="XMLID_978_" class="st6" cx="176.5" cy="51.3" rx="1.5" ry="1.5"/>
			</g>
			<g id="XMLID_1687_">
				<path id="XMLID_898_" d="M175.2,58h-1.3c-0.5,0-0.9-0.4-0.9-0.9c0-0.4,0.3-0.8,0.7-0.9v-0.4c0-0.1-0.1-0.2-0.1-0.2
					c-0.7-0.1-1.4-0.4-2-0.8c-0.1,0-0.2,0-0.2,0l-0.3,0.3c0.2,0.3,0.2,0.7-0.1,1c-0.2,0.2-0.4,0.3-0.6,0.3c-0.2,0-0.5-0.1-0.7-0.3
					l-0.9-0.9c-0.2-0.2-0.3-0.4-0.3-0.6s0.1-0.5,0.3-0.6c0.2-0.2,0.4-0.3,0.6-0.3c0.2,0,0.3,0,0.4,0.1l0.3-0.3
					c0.1-0.1,0.1-0.2,0-0.2c-0.4-0.6-0.7-1.3-0.8-2c0-0.1-0.1-0.1-0.2-0.1h-0.4c0,0.2-0.1,0.3-0.2,0.4c-0.2,0.2-0.4,0.3-0.6,0.2
					c-0.5,0-0.8-0.4-0.8-0.9v-1.3c0-0.2,0.1-0.5,0.3-0.6c0.2-0.2,0.4-0.3,0.6-0.2c0.4,0,0.7,0.3,0.8,0.7h0.4c0.1,0,0.2-0.1,0.2-0.1
					c0.1-0.7,0.4-1.4,0.8-2c0-0.1,0-0.2,0-0.2l-0.3-0.3c-0.1,0.1-0.3,0.1-0.4,0.1c-0.2,0-0.5-0.1-0.6-0.3c-0.3-0.3-0.3-0.9,0-1.2
					l0.9-0.9c0.3-0.3,0.9-0.3,1.2,0c0.2,0.2,0.3,0.4,0.3,0.6c0,0.2,0,0.3-0.1,0.4l0.3,0.3c0.1,0.1,0.2,0.1,0.2,0
					c0.6-0.4,1.3-0.7,2-0.8c0.1,0,0.1-0.1,0.1-0.2v-0.4c-0.4-0.1-0.7-0.4-0.7-0.9c0-0.5,0.4-0.9,0.9-0.9h1.3c0.5,0,0.9,0.4,0.9,0.9
					c0,0.4-0.3,0.8-0.7,0.9v0.4c0,0.1,0.1,0.2,0.1,0.2c0.7,0.1,1.4,0.4,2,0.8c0.1,0,0.2,0,0.2,0l0.3-0.3c-0.2-0.3-0.2-0.8,0.1-1.1
					c0.3-0.3,0.9-0.3,1.2,0l0.9,0.9c0.3,0.3,0.3,0.9,0,1.2c-0.2,0.2-0.4,0.3-0.6,0.3c-0.2,0-0.3,0-0.4-0.1l-0.3,0.3
					c-0.1,0.1-0.1,0.2,0,0.2c0.4,0.6,0.7,1.3,0.8,2c0,0.1,0.1,0.1,0.2,0.1h0.4c0.1-0.4,0.4-0.6,0.8-0.7h0c0.2,0,0.5,0.1,0.7,0.2
					c0.2,0.2,0.3,0.4,0.3,0.6v1.3c0,0.2-0.1,0.5-0.3,0.6c-0.2,0.2-0.4,0.2-0.7,0.2c-0.4,0-0.7-0.3-0.8-0.7h-0.4
					c-0.1,0-0.2,0.1-0.2,0.1c-0.1,0.7-0.4,1.4-0.8,2c0,0.1,0,0.2,0,0.2l0.3,0.3c0.1-0.1,0.3-0.1,0.4-0.1c0.2,0,0.5,0.1,0.6,0.3
					c0.2,0.2,0.3,0.4,0.3,0.6c0,0.2-0.1,0.5-0.3,0.6l-0.9,0.9c-0.2,0.2-0.4,0.3-0.7,0.3c-0.2,0-0.5-0.1-0.6-0.3
					c-0.2-0.3-0.3-0.7-0.1-1l-0.3-0.3c-0.1-0.1-0.2-0.1-0.2,0c-0.6,0.4-1.3,0.7-2,0.8c-0.1,0-0.1,0.1-0.1,0.2v0.4
					c0.4,0.1,0.7,0.4,0.7,0.9C176,57.6,175.6,58,175.2,58L175.2,58z M171.4,54.3c0.1,0,0.3,0,0.4,0.1c0.5,0.4,1.1,0.6,1.7,0.7
					c0.4,0.1,0.6,0.4,0.6,0.7v0.6c0,0.2-0.2,0.4-0.4,0.4c-0.2,0-0.3,0.1-0.3,0.3c0,0.2,0.1,0.3,0.3,0.3h1.3c0.2,0,0.3-0.1,0.3-0.3
					c0-0.2-0.1-0.3-0.3-0.3c-0.2,0-0.4-0.2-0.4-0.4v-0.6c0-0.4,0.3-0.7,0.6-0.7c0.6-0.1,1.2-0.4,1.7-0.7c0.3-0.2,0.7-0.2,1,0.1
					l0.4,0.4c0.1,0.1,0.1,0.4,0,0.5c-0.1,0.1-0.1,0.3,0,0.4c0.1,0.1,0.1,0.1,0.2,0.1c0.1,0,0.2,0,0.2-0.1l0.9-0.9
					c0.1-0.1,0.1-0.1,0.1-0.2c0-0.1,0-0.2-0.1-0.2c-0.1-0.1-0.3-0.1-0.4,0l0,0c-0.1,0.1-0.4,0.1-0.5,0l-0.4-0.4
					c-0.3-0.3-0.3-0.7-0.1-1c0.4-0.5,0.6-1.1,0.7-1.7c0.1-0.4,0.4-0.6,0.7-0.6h0.6c0.2,0,0.4,0.2,0.4,0.4c0,0.2,0.1,0.3,0.3,0.3
					c0.1,0,0.2,0,0.2-0.1c0.1-0.1,0.1-0.1,0.1-0.2v-1.3c0-0.1,0-0.2-0.1-0.2c-0.1-0.1-0.1-0.1-0.2-0.1c-0.1,0-0.3,0.1-0.3,0.3
					c0,0.2-0.2,0.4-0.4,0.4h-0.6c-0.4,0-0.7-0.3-0.7-0.6c-0.1-0.6-0.4-1.2-0.7-1.7c-0.2-0.3-0.2-0.7,0.1-1l0.4-0.4
					c0.1-0.1,0.4-0.1,0.5,0c0.1,0.1,0.3,0.1,0.4,0c0.1-0.1,0.1-0.3,0-0.4l-0.9-0.9c-0.1-0.1-0.3-0.1-0.4,0c-0.1,0.1-0.1,0.3,0,0.4
					c0.1,0.1,0.1,0.4,0,0.5l-0.4,0.4c-0.3,0.3-0.7,0.3-1,0.1c-0.5-0.4-1.1-0.6-1.7-0.7c-0.4-0.1-0.6-0.4-0.6-0.7v-0.6
					c0-0.2,0.2-0.4,0.4-0.4c0.2,0,0.3-0.1,0.3-0.3c0-0.2-0.1-0.3-0.3-0.3h-1.3c-0.2,0-0.3,0.1-0.3,0.3c0,0.2,0.1,0.3,0.3,0.3
					c0.2,0,0.4,0.2,0.4,0.4v0.6c0,0.4-0.3,0.7-0.6,0.7c-0.6,0.1-1.2,0.4-1.7,0.7c-0.3,0.2-0.7,0.2-1-0.1l-0.4-0.4
					c-0.1-0.1-0.1-0.2-0.1-0.3c0-0.1,0-0.2,0.1-0.3c0.1-0.1,0.1-0.3,0-0.4c-0.1-0.1-0.3-0.1-0.4,0l-0.9,0.9c-0.1,0.1-0.1,0.3,0,0.4
					c0.1,0.1,0.1,0.1,0.2,0.1s0.2,0,0.2-0.1c0.1-0.1,0.4-0.1,0.5,0l0.4,0.4c0.3,0.3,0.3,0.7,0.1,1c-0.4,0.5-0.6,1.1-0.7,1.7
					c-0.1,0.4-0.4,0.6-0.7,0.6h-0.6c-0.2,0-0.4-0.2-0.4-0.4c0-0.2-0.1-0.3-0.3-0.3c-0.1,0-0.2,0-0.2,0.1c-0.1,0.1-0.1,0.1-0.1,0.2
					v1.3c0,0.2,0.1,0.3,0.3,0.3c0.1,0,0.2,0,0.2-0.1c0.1-0.1,0.1-0.1,0.1-0.2c0-0.2,0.2-0.4,0.4-0.4h0.6c0.4,0,0.7,0.3,0.7,0.6
					c0.1,0.6,0.4,1.2,0.7,1.7c0.2,0.3,0.2,0.7-0.1,1l-0.4,0.4c-0.1,0.1-0.4,0.1-0.5,0l0,0c-0.1-0.1-0.1-0.1-0.2-0.1s-0.2,0-0.2,0.1
					c-0.1,0.1-0.1,0.1-0.1,0.2c0,0.1,0,0.2,0.1,0.2l0.9,0.9c0.1,0.1,0.1,0.1,0.2,0.1c0.1,0,0.2,0,0.2-0.1c0.1-0.1,0.1-0.3,0-0.4
					c-0.1-0.1-0.1-0.4,0-0.5l0.4-0.4C171,54.4,171.2,54.3,171.4,54.3L171.4,54.3z"/>
			</g>
			<g id="XMLID_1654_">
				<path id="XMLID_895_" d="M173.4,49.3c-0.7,0-1.2-0.6-1.2-1.2s0.6-1.2,1.2-1.2c0.7,0,1.2,0.6,1.2,1.2S174,49.3,173.4,49.3z
					 M173.4,47.4c-0.4,0-0.6,0.3-0.6,0.6s0.3,0.6,0.6,0.6c0.4,0,0.6-0.3,0.6-0.6S173.7,47.4,173.4,47.4z"/>
			</g>
			<g id="XMLID_1656_">
				<path id="XMLID_892_" d="M172.5,53.4c-0.6,0-1.1-0.5-1.1-1.1s0.5-1.1,1.1-1.1c0.6,0,1.1,0.5,1.1,1.1S173.1,53.4,172.5,53.4z
					 M172.5,51.9c-0.3,0-0.5,0.2-0.5,0.5c0,0.3,0.2,0.5,0.5,0.5c0.3,0,0.5-0.2,0.5-0.5C173,52.1,172.8,51.9,172.5,51.9z"/>
			</g>
			<g id="XMLID_1104_">
				<path id="XMLID_891_" d="M176.5,53.1c-0.9,0-1.7-0.7-1.8-1.6c0-0.2,0.1-0.3,0.3-0.3c0.2,0,0.3,0.1,0.3,0.3
					c0.1,0.6,0.6,1.1,1.2,1.1c0.7,0,1.2-0.5,1.2-1.2c0-0.6-0.5-1.1-1.1-1.2c-0.2,0-0.3-0.2-0.3-0.3c0-0.2,0.2-0.3,0.3-0.3
					c0.9,0.1,1.6,0.9,1.6,1.8C178.4,52.3,177.5,53.1,176.5,53.1L176.5,53.1z"/>
			</g>
			<g id="XMLID_1101_">
				<path id="XMLID_890_" d="M176.2,48.3c-0.1,0-0.2,0-0.2-0.1s-0.1-0.1-0.1-0.2c0-0.1,0-0.2,0.1-0.2c0.1-0.1,0.1-0.1,0.2-0.1
					c0.1,0,0.2,0,0.2,0.1c0.1,0.1,0.1,0.1,0.1,0.2c0,0.1,0,0.2-0.1,0.2C176.3,48.3,176.2,48.3,176.2,48.3z"/>
			</g>
			<g id="XMLID_1094_">
				<path id="XMLID_889_" d="M174.5,54.3c-0.1,0-0.2,0-0.2-0.1c-0.1-0.1-0.1-0.1-0.1-0.2c0-0.1,0-0.2,0.1-0.2
					c0.1-0.1,0.1-0.1,0.2-0.1c0.1,0,0.2,0,0.2,0.1c0.1,0.1,0.1,0.1,0.1,0.2c0,0.1,0,0.2-0.1,0.2C174.7,54.2,174.6,54.3,174.5,54.3z"
					/>
			</g>
			<g id="XMLID_1660_">
				<path id="XMLID_888_" d="M171.2,50.8c-0.1,0-0.2,0-0.2-0.1c-0.1-0.1-0.1-0.1-0.1-0.2c0-0.1,0-0.2,0.1-0.2
					c0.1-0.1,0.1-0.1,0.2-0.1c0.1,0,0.2,0,0.2,0.1c0.1,0.1,0.1,0.1,0.1,0.2c0,0.1,0,0.2-0.1,0.2C171.4,50.8,171.3,50.8,171.2,50.8z"
					/>
			</g>
			<g id="XMLID_1493_">
				<path id="XMLID_887_" d="M175.5,50.5c-0.1,0-0.2,0-0.2-0.1c-0.1-0.1-0.1-0.1-0.1-0.2c0-0.1,0-0.2,0.1-0.2
					c0.1-0.1,0.1-0.1,0.2-0.1s0.2,0,0.2,0.1c0.1,0.1,0.1,0.1,0.1,0.2c0,0.1,0,0.2-0.1,0.2C175.6,50.5,175.5,50.5,175.5,50.5z"/>
			</g>
		</g>
		<g>
			<g>
				<g>
					<g id="XMLID_6_">
						<g>
							<path class="st1" d="M144.4,7.8c0.2,0,0.4,0.3,0.4,0.5l-0.2,0.9c0,0.3-0.3,0.4-0.6,0.4c-0.2-0.1-0.4-0.3-0.3-0.5l0,0
								l-1.2,0.1c0,0-0.1,0-0.1,0.1c-0.1,0.4-0.3,0.7-0.5,1c0,0,0,0.1,0,0.1l0.5,0.6c0.1-0.1,0.2-0.2,0.4-0.2c0.1,0,0.2,0,0.3,0.1
								c0.2,0.2,0.3,0.5,0.1,0.8l-0.2,0.2c-0.2,0.2-0.5,0.3-0.8,0.1c-0.2-0.1-0.3-0.4-0.2-0.6l-0.8-0.3c0,0-0.1,0-0.1,0
								c-0.4,0.4-0.8,0.7-1.2,1c0,0,0,0.1,0,0.1l0.2,1.2l0.2-0.1c0.2-0.1,0.5,0,0.6,0.3c0.1,0.2,0,0.5-0.3,0.6l-0.9,0.3
								c-0.2,0.1-0.5,0-0.6-0.3c-0.1-0.2,0-0.5,0.3-0.6l0,0l-0.7-1c0,0-0.1,0-0.1,0c-0.4,0.1-0.8,0.2-1.3,0.2c-0.4,0-0.7,0-1-0.1
								c0,0-0.1,0-0.1,0l-0.7,1.1l0,0c0.2,0.1,0.4,0.3,0.4,0.5c0,0.1,0,0.1,0,0.2c0,0.3-0.2,0.5-0.6,0.4l-0.9-0.3
								c-0.3-0.1-0.4-0.4-0.3-0.7c0.1-0.3,0.4-0.4,0.7-0.3l0,0l0.1-1.3c0,0,0-0.1,0-0.1c-0.5-0.3-1-0.6-1.4-1.1c0,0-0.1,0-0.1,0
								l-1,0.4c0.1,0.2,0.1,0.5-0.2,0.6c-0.2,0.1-0.5,0.1-0.7-0.1l-0.3-0.4c-0.1-0.2-0.1-0.5,0.1-0.7c0.2-0.2,0.5-0.1,0.7,0.1
								l0.7-0.8c0,0,0-0.1,0-0.1c-0.3-0.5-0.5-1.1-0.6-1.8c0,0,0-0.1-0.1-0.1l-1.2-0.3l0,0.1c0,0.1-0.1,0.3-0.1,0.4
								c-0.1,0.1-0.2,0.1-0.4,0.1c-0.3,0-0.5-0.2-0.5-0.5l0-0.8c0-0.3,0.2-0.5,0.5-0.5c0.3,0,0.5,0.2,0.5,0.5l1.2-0.3
								c0,0,0.1,0,0.1-0.1c0.1-0.7,0.3-1.3,0.6-1.9c0,0,0-0.1,0-0.1l-0.6-0.6l0,0.1c-0.1,0.2-0.4,0.2-0.6,0.1
								c-0.2-0.2-0.2-0.4-0.1-0.6l0.4-0.5c0.1-0.1,0.2-0.2,0.3-0.2c0.1,0,0.2,0,0.3,0.1c0.2,0.1,0.2,0.4,0.1,0.6l0.8,0.3
								c0,0,0.1,0,0.1,0c0.4-0.4,0.8-0.7,1.3-1c0,0,0-0.1,0-0.1l-0.2-1.2l-0.2,0.1c-0.2,0.1-0.5,0-0.6-0.3c-0.1-0.2,0.1-0.5,0.3-0.6
								l0.9-0.3c0.2-0.1,0.5,0,0.6,0.3c0.1,0.2-0.1,0.5-0.3,0.6l0,0l0.7,1c0,0,0.1,0,0.1,0c0.4-0.1,0.8-0.1,1.2-0.1h0
								c0,0,0.1,0,0.1-0.1l0.2-0.6c-0.3-0.1-0.4-0.3-0.4-0.6c0-0.3,0.3-0.5,0.7-0.5l0.3,0c0.3,0,0.6,0.3,0.5,0.6
								c0,0.2-0.2,0.4-0.4,0.5l0.1,0.7c0,0,0,0.1,0.1,0.1c0.5,0.1,1,0.3,1.5,0.6c0,0,0.1,0,0.1,0l0.9-0.8L141,2.2
								c-0.2-0.2-0.2-0.5-0.1-0.7c0.2-0.2,0.4-0.2,0.6,0l0.7,0.6c0.2,0.2,0.2,0.5,0.1,0.7c-0.2,0.2-0.4,0.2-0.6,0l0,0l-0.5,1.1
								c0,0,0,0.1,0,0.1c0.4,0.4,0.6,0.8,0.9,1.2c0,0,0.1,0.1,0.1,0l0.7-0.1c-0.1-0.3,0.1-0.6,0.3-0.7c0.3-0.1,0.6,0.1,0.7,0.3
								l0.2,0.4c0.1,0.3,0,0.6-0.3,0.7c-0.3,0.1-0.6,0-0.7-0.2l-0.6,0.4c0,0,0,0.1,0,0.1c0.1,0.4,0.2,0.9,0.2,1.4c0,0.1,0,0.2,0,0.2
								c0,0,0,0.1,0.1,0.1l1.1,0.5l0-0.2C143.9,7.9,144.2,7.7,144.4,7.8L144.4,7.8z"/>
						</g>
					</g>
					<ellipse class="st2" cx="139.8" cy="5" rx="0.7" ry="0.6"/>
					<circle class="st2" cx="137.2" cy="8.8" r="0.8"/>
					<circle class="st3" cx="140.3" cy="8.4" r="0.6"/>
					<circle class="st3" cx="138.2" cy="11.1" r="0.6"/>
					<g>
						<path class="st4" d="M134.4,7.3c0-2,0.9-3.7,2.4-4.9c-0.2,0-0.3,0.1-0.5,0.1c0,0-0.1,0-0.1,0l-0.7-1l0,0
							c0.2-0.1,0.4-0.3,0.3-0.6c-0.1-0.2-0.4-0.4-0.6-0.3L134.4,1c-0.2,0.1-0.4,0.3-0.3,0.6c0.1,0.2,0.4,0.4,0.6,0.3l0.2-0.1
							l0.2,1.2c0,0,0,0.1,0,0.1c-0.5,0.3-0.9,0.6-1.3,1c0,0-0.1,0-0.1,0l-0.8-0.3c0.1-0.2,0.1-0.4-0.1-0.6c-0.1-0.1-0.2-0.1-0.3-0.1
							c-0.1,0-0.3,0.1-0.3,0.2l-0.4,0.5c-0.1,0.2-0.1,0.5,0.1,0.6c0.2,0.2,0.5,0.1,0.6-0.1l0-0.1l0.6,0.6c0,0,0,0.1,0,0.1
							c-0.3,0.6-0.5,1.2-0.6,1.9c0,0,0,0.1-0.1,0.1l-1.2,0.3c0-0.3-0.2-0.5-0.5-0.5c-0.3,0-0.5,0.2-0.5,0.5l0,0.8
							c0,0.3,0.2,0.5,0.5,0.5c0.1,0,0.3-0.1,0.4-0.1c0.1-0.1,0.1-0.2,0.1-0.4l0-0.1l1.2,0.3c0,0,0.1,0,0.1,0.1
							c0.1,0.6,0.3,1.2,0.6,1.8c0,0,0,0.1,0,0.1l-0.7,0.8c-0.2-0.2-0.5-0.3-0.7-0.1c-0.2,0.2-0.2,0.5-0.1,0.7l0.3,0.4
							c0.2,0.2,0.5,0.3,0.7,0.1c0.2-0.1,0.3-0.4,0.2-0.6l1-0.4c0,0,0.1,0,0.1,0c0.4,0.4,0.9,0.8,1.4,1.1c0,0,0.1,0.1,0,0.1l-0.1,1.3
							l0,0c-0.3-0.1-0.6,0-0.7,0.3c-0.1,0.3,0.1,0.6,0.3,0.7l0.9,0.3c0.3,0.1,0.6-0.1,0.6-0.4c0-0.1,0-0.1,0-0.2
							c0-0.2-0.1-0.4-0.4-0.5l0,0l0.7-1.1c0,0,0.1,0,0.1,0c0.3,0.1,0.7,0.1,1,0.1c0,0,0.1,0,0.1,0C135.7,11.7,134.4,9.6,134.4,7.3
							L134.4,7.3z"/>
					</g>
					<circle class="st2" cx="134.7" cy="9.8" r="0.6"/>
				</g>
				
					<ellipse transform="matrix(0.7852 -0.6192 0.6192 0.7852 25.7035 85.3146)" class="st2" cx="135.8" cy="5.6" rx="1.5" ry="1.3"/>
			</g>
			<g>
				<path d="M144.5,7.6c-0.2,0-0.4,0-0.5,0.1c-0.1,0.1-0.2,0.2-0.3,0.3l-0.8-0.3c0-0.1,0-0.1,0-0.2c0-0.5-0.1-0.9-0.2-1.3l0.3-0.2
					c0.2,0.2,0.5,0.2,0.8,0.1c0.4-0.2,0.6-0.6,0.4-1l-0.2-0.4c-0.1-0.4-0.6-0.6-1-0.5c-0.2,0.1-0.4,0.2-0.5,0.4
					c-0.1,0.1-0.1,0.2-0.1,0.3L142.3,5c-0.1-0.1-0.1-0.2-0.2-0.3c-0.1-0.1-0.2-0.1-0.3-0.1c-0.1,0.1-0.1,0.2-0.1,0.3
					c0.1,0.1,0.1,0.2,0.2,0.3c0.1,0.1,0.2,0.2,0.3,0.2l0.7-0.1c0.1,0,0.1,0,0.2-0.1c0-0.1,0-0.1,0-0.2c0-0.1,0-0.2,0-0.3
					c0-0.1,0.1-0.1,0.2-0.2c0.2-0.1,0.4,0,0.4,0.2l0.2,0.4c0.1,0.2,0,0.4-0.2,0.4c-0.2,0.1-0.3,0-0.4-0.1c0-0.1-0.1-0.1-0.1-0.1
					c-0.1,0-0.1,0-0.2,0l-0.6,0.4c-0.1,0.1-0.2,0.2-0.1,0.3c0.1,0.4,0.2,0.9,0.2,1.3c0,0.1,0,0.1,0,0.2c0,0.1,0.1,0.2,0.2,0.3
					l1.1,0.5c0.1,0,0.1,0,0.2,0c0.1,0,0.1-0.1,0.1-0.2l0-0.2c0-0.1,0-0.1,0.1-0.2c0.1,0,0.1,0,0.2,0c0.1,0,0.2,0.1,0.2,0.3l-0.2,0.9
					c0,0.1,0,0.1-0.1,0.2c-0.1,0-0.1,0-0.2,0c-0.1,0-0.2-0.2-0.2-0.3l0,0c0-0.1,0-0.1,0-0.2c0-0.1-0.1-0.1-0.2-0.1l-1.2,0.1
					c-0.1,0-0.2,0.1-0.3,0.2c-0.1,0.3-0.3,0.7-0.4,1c-0.1,0.1-0.1,0.3,0,0.4l0.5,0.6c0,0,0.1,0.1,0.2,0.1c0.1,0,0.1,0,0.2-0.1
					c0.1-0.1,0.3-0.1,0.4,0c0.1,0.1,0.1,0.1,0.1,0.2s0,0.2-0.1,0.2l-0.2,0.2c-0.1,0.1-0.3,0.2-0.5,0.1c-0.1-0.1-0.2-0.2-0.1-0.4
					c0-0.1,0-0.2-0.1-0.3l-0.8-0.3c-0.1-0.1-0.3,0-0.4,0.1c-0.3,0.4-0.7,0.7-1.2,0.9c-0.1,0.1-0.2,0.2-0.1,0.3l0.2,1.2
					c0,0.1,0.1,0.1,0.1,0.2c0.1,0,0.1,0,0.2,0l0.2-0.1c0.1,0,0.1,0,0.2,0c0.1,0,0.1,0.1,0.1,0.1c0,0.1,0,0.3-0.1,0.3l-0.9,0.3
					c-0.1,0-0.1,0-0.2,0c-0.1,0-0.1-0.1-0.1-0.1c0-0.1,0-0.3,0.1-0.3l0,0c0.1,0,0.1-0.1,0.1-0.1c0-0.1,0-0.1,0-0.2l-0.7-1
					c-0.1-0.1-0.2-0.2-0.3-0.1c-0.4,0.1-0.8,0.2-1.2,0.2c-0.3,0-0.7,0-1-0.1c-0.1,0-0.3,0-0.3,0.1l-0.7,1.1c0,0.1,0,0.1,0,0.2
					c0,0.1,0.1,0.1,0.1,0.1l0,0c0.1,0,0.2,0.1,0.2,0.2c0,0.1,0,0.2,0,0.3c0,0,0,0,0,0.1c0,0.1,0,0.1-0.1,0.2c0,0-0.1,0-0.2,0
					l-0.9-0.3c-0.2-0.1-0.3-0.3-0.2-0.4c0-0.1,0.1-0.1,0.2-0.2c0.1,0,0.2,0,0.3,0l0,0c0.1,0,0.1,0,0.2,0c0.1,0,0.1-0.1,0.1-0.2
					l0.1-1.3c0-0.1-0.1-0.2-0.2-0.3c-0.5-0.3-1-0.6-1.4-1c-0.1-0.1-0.2-0.1-0.3-0.1l-1,0.4c-0.1,0-0.1,0.1-0.1,0.1
					c0,0.1,0,0.1,0,0.2c0.1,0.1,0,0.3-0.1,0.4c-0.1,0.1-0.3,0-0.4-0.1l-0.3-0.4c-0.1-0.1-0.1-0.3,0-0.4c0.1,0,0.1-0.1,0.2-0.1
					c0.1,0,0.1,0,0.2,0.1c0,0.1,0.1,0.1,0.2,0.1c0.1,0,0.1,0,0.2-0.1l0.7-0.8c0.1-0.1,0.1-0.2,0-0.4c-0.1-0.1-0.2-0.3-0.2-0.4
					c0-0.1-0.2-0.2-0.3-0.1c-0.1,0-0.2,0.2-0.1,0.3c0.1,0.1,0.1,0.3,0.2,0.4l-0.5,0.6c-0.1-0.1-0.2-0.1-0.3-0.1
					c-0.2,0-0.4,0-0.5,0.1c-0.3,0.2-0.4,0.7-0.1,1l0.3,0.4c0.2,0.3,0.7,0.4,1,0.2c0.2-0.2,0.4-0.4,0.3-0.7l0.8-0.3
					c0.4,0.4,0.8,0.8,1.3,1l-0.1,0.9c-0.1,0-0.3,0-0.4,0.1c-0.2,0.1-0.3,0.2-0.4,0.4c-0.1,0.4,0.1,0.8,0.5,1l0.9,0.3
					c0.1,0,0.2,0,0.3,0c0.1,0,0.2,0,0.3-0.1c0.2-0.1,0.2-0.3,0.3-0.5c0.1-0.2,0-0.4,0-0.6c-0.1-0.1-0.1-0.2-0.2-0.3l0.5-0.8
					c0.7,0.1,1.5,0.1,2.2-0.1l0.5,0.7c-0.2,0.2-0.3,0.5-0.2,0.7c0.1,0.2,0.2,0.3,0.4,0.4c0.2,0.1,0.4,0.1,0.5,0l0.9-0.3
					c0.3-0.1,0.5-0.5,0.4-0.9c-0.1-0.2-0.2-0.3-0.4-0.4c-0.1-0.1-0.3-0.1-0.4,0l-0.1-0.8c0.4-0.3,0.8-0.6,1.1-0.9l0.5,0.2
					c0,0.3,0.1,0.5,0.3,0.7c0.3,0.2,0.8,0.2,1.1-0.2l0.2-0.2c0.1-0.2,0.2-0.4,0.2-0.6c0-0.2-0.1-0.4-0.3-0.5
					c-0.2-0.2-0.5-0.2-0.8-0.1l-0.3-0.4c0.2-0.3,0.3-0.6,0.4-0.9l0.9,0c0,0.3,0.2,0.5,0.5,0.6c0.2,0,0.4,0,0.5-0.1
					c0.2-0.1,0.3-0.3,0.3-0.4l0.2-0.9C145.1,8,144.8,7.7,144.5,7.6L144.5,7.6z"/>
				<path d="M131.4,8.2l0.8,0.2c0,0.1,0,0.2,0.1,0.3c0,0.1,0.1,0.2,0.2,0.2c0,0,0,0,0,0c0.1,0,0.2-0.1,0.2-0.3
					c0-0.1-0.1-0.3-0.1-0.4c0-0.1-0.1-0.2-0.2-0.3l-1.2-0.3c-0.1,0-0.1,0-0.2,0c-0.1,0-0.1,0.1-0.1,0.2l0,0.1c0,0.2-0.1,0.3-0.3,0.3
					c-0.1,0-0.1,0-0.2-0.1c-0.1-0.1-0.1-0.1-0.1-0.2l0-0.8c0-0.1,0-0.2,0.1-0.2c0.1-0.1,0.1-0.1,0.2-0.1c0.1,0,0.3,0.1,0.3,0.3
					c0,0.1,0,0.1,0.1,0.2c0.1,0,0.1,0.1,0.2,0l1.2-0.3c0.1,0,0.2-0.1,0.2-0.3c0.1-0.6,0.3-1.2,0.6-1.8c0.1-0.1,0.1-0.3,0-0.4
					l-0.6-0.6c0-0.1-0.1-0.1-0.2-0.1c-0.1,0-0.1,0-0.2,0.1l0,0.1c0,0-0.1,0.1-0.1,0.1c-0.1,0-0.1,0-0.2,0c-0.1-0.1-0.1-0.2,0-0.3
					l0.4-0.5c0.1-0.1,0.2-0.1,0.3,0c0.1,0.1,0.1,0.2,0.1,0.3c0,0.1,0,0.1,0,0.2s0.1,0.1,0.1,0.1l0.8,0.3c0.1,0.1,0.3,0,0.3-0.1
					c0.4-0.4,0.8-0.7,1.2-1c0.1-0.1,0.2-0.2,0.2-0.3l-0.2-1.2c0-0.1,0-0.1-0.1-0.2c-0.1,0-0.1,0-0.2,0l-0.2,0.1c-0.1,0-0.1,0-0.2,0
					c-0.1,0-0.1-0.1-0.1-0.1c0-0.1,0-0.3,0.2-0.3l0.9-0.3c0.1,0,0.1,0,0.2,0c0.1,0,0.1,0.1,0.1,0.1c0,0.1,0,0.3-0.2,0.3l0,0
					c-0.1,0-0.1,0.1-0.1,0.1c0,0.1,0,0.1,0,0.2l0.7,1c0.1,0.1,0.2,0.2,0.3,0.1c0.4-0.1,0.8-0.1,1.2-0.1h0c0.1,0,0.2-0.1,0.3-0.2
					l0.2-0.6c0-0.1,0-0.1,0-0.2c0-0.1-0.1-0.1-0.1-0.1c-0.2-0.1-0.3-0.2-0.2-0.4c0-0.1,0.1-0.2,0.1-0.2c0.1-0.1,0.2-0.1,0.3-0.1
					l0.3,0c0.2,0,0.3,0.2,0.3,0.4c0,0.1-0.1,0.3-0.3,0.3c-0.1,0-0.2,0.1-0.2,0.2l0.1,0.7c0,0.1,0.1,0.2,0.2,0.3
					c0.5,0.1,1,0.3,1.4,0.5c0.1,0.1,0.2,0.1,0.3,0l0.9-0.8c0.1,0,0.1-0.1,0.1-0.2c0-0.1,0-0.1-0.1-0.2L141.1,2
					c-0.1,0-0.1-0.1-0.1-0.2c0-0.1,0-0.1,0.1-0.2c0.1-0.1,0.2-0.1,0.3,0l0.7,0.6c0.1,0,0.1,0.1,0.1,0.2c0,0.1,0,0.1-0.1,0.2
					c-0.1,0.1-0.2,0.1-0.3,0l0,0c-0.1,0-0.1-0.1-0.2,0c-0.1,0-0.1,0.1-0.1,0.1L141,3.7c-0.1,0.1,0,0.3,0.1,0.3c0,0,0.1,0.1,0.1,0.1
					c0.1,0.1,0.2,0.1,0.3,0c0.1-0.1,0.1-0.2,0-0.3c0,0,0,0,0,0l0.4-0.8c0.3,0.1,0.5,0,0.7-0.2c0.1-0.1,0.2-0.3,0.2-0.5
					c0-0.2-0.1-0.4-0.3-0.5l-0.7-0.6c-0.3-0.2-0.7-0.2-0.9,0.1c-0.1,0.1-0.2,0.3-0.2,0.5c0,0.2,0.1,0.3,0.2,0.4l-0.7,0.5
					c-0.4-0.2-0.9-0.4-1.4-0.5l0-0.4c0.2-0.1,0.4-0.4,0.4-0.6c0-0.4-0.3-0.8-0.7-0.9l-0.3,0c-0.2,0-0.4,0-0.6,0.2
					c-0.2,0.1-0.3,0.3-0.3,0.5c0,0.3,0.1,0.6,0.3,0.8l-0.1,0.4c-0.4,0-0.7,0.1-1.1,0.1l-0.5-0.7c0.2-0.2,0.3-0.5,0.2-0.7
					c-0.1-0.2-0.2-0.3-0.4-0.4c-0.2-0.1-0.4-0.1-0.5,0l-0.9,0.3c-0.3,0.1-0.5,0.5-0.4,0.8c0.1,0.2,0.2,0.3,0.4,0.4
					c0.1,0.1,0.3,0.1,0.4,0l0.1,0.8c-0.4,0.3-0.8,0.6-1.2,0.9l-0.5-0.2c0-0.2,0-0.5-0.2-0.6c-0.1-0.1-0.3-0.2-0.5-0.1
					c-0.2,0-0.3,0.1-0.4,0.3l-0.4,0.5c-0.2,0.3-0.2,0.7,0.1,0.9c0.1,0.1,0.3,0.2,0.5,0.1c0.1,0,0.2-0.1,0.3-0.1l0.3,0.4
					c-0.3,0.6-0.5,1.2-0.6,1.8l-0.9,0.2c-0.1-0.3-0.4-0.4-0.6-0.5c-0.2,0-0.4,0.1-0.5,0.2C130.1,6.8,130,7,130,7.2l0,0.8
					c0,0.2,0.1,0.4,0.2,0.5c0.1,0.1,0.3,0.2,0.5,0.2C131.1,8.8,131.4,8.5,131.4,8.2L131.4,8.2z"/>
				<path d="M136.5,7c0.1-0.1,0.1-0.2,0.1-0.3c-0.1-0.1-0.2-0.1-0.3-0.1c-0.5,0.3-1.1,0.2-1.4-0.2c-0.2-0.2-0.2-0.5-0.2-0.8
					c0.1-0.3,0.3-0.6,0.5-0.8c0.3-0.2,0.6-0.3,0.9-0.3c0.3,0,0.6,0.1,0.7,0.3c0.3,0.3,0.2,0.8,0,1.2c-0.1,0.1,0,0.2,0.1,0.3
					c0.1,0.1,0.2,0,0.3-0.1c0.4-0.6,0.3-1.3,0-1.7C137,4.2,136.6,4,136.1,4c-0.4,0-0.9,0.1-1.2,0.4c-0.4,0.3-0.6,0.7-0.7,1.1
					c-0.1,0.4,0,0.8,0.2,1.2c0.3,0.3,0.7,0.5,1.1,0.5C135.9,7.2,136.2,7.1,136.5,7L136.5,7z"/>
				<path d="M140.7,5c0-0.5-0.4-0.8-0.9-0.8s-0.9,0.4-0.9,0.8s0.4,0.8,0.9,0.8S140.7,5.5,140.7,5z M139.3,5c0-0.2,0.2-0.4,0.5-0.4
					c0.3,0,0.5,0.2,0.5,0.4c0,0.2-0.2,0.4-0.5,0.4C139.5,5.4,139.3,5.2,139.3,5z"/>
				<path d="M138.2,8.8c0-0.6-0.5-1-1-1c-0.6,0-1,0.5-1,1c0,0.6,0.5,1,1,1C137.7,9.8,138.2,9.3,138.2,8.8z M136.6,8.8
					c0-0.3,0.3-0.6,0.6-0.6c0.3,0,0.6,0.3,0.6,0.6c0,0.3-0.3,0.6-0.6,0.6C136.8,9.4,136.6,9.1,136.6,8.8z"/>
				<path d="M141,8.4c0-0.4-0.4-0.8-0.8-0.8c-0.4,0-0.8,0.4-0.8,0.8c0,0.4,0.4,0.8,0.8,0.8C140.7,9.2,141,8.8,141,8.4z M139.9,8.4
					c0-0.2,0.2-0.3,0.3-0.3c0.2,0,0.3,0.2,0.3,0.3c0,0.2-0.2,0.3-0.3,0.3C140.1,8.7,139.9,8.6,139.9,8.4z"/>
				<path d="M138.2,11.9c0.4,0,0.8-0.3,0.8-0.8c0-0.4-0.3-0.8-0.8-0.8c-0.4,0-0.8,0.3-0.8,0.8C137.4,11.6,137.7,11.9,138.2,11.9z
					 M138.2,10.8c0.2,0,0.3,0.1,0.3,0.3c0,0.2-0.1,0.3-0.3,0.3s-0.3-0.1-0.3-0.3C137.8,11,138,10.8,138.2,10.8z"/>
				<path d="M134.7,10.6c0.4,0,0.8-0.4,0.8-0.8S135.1,9,134.7,9c-0.4,0-0.8,0.4-0.8,0.8S134.3,10.6,134.7,10.6z M134.7,9.5
					c0.2,0,0.4,0.2,0.4,0.4s-0.2,0.4-0.4,0.4s-0.4-0.2-0.4-0.4S134.5,9.5,134.7,9.5z"/>
				<path d="M139.2,7.1c0-0.1-0.1-0.2-0.2-0.2h-0.2c-0.1,0-0.2,0.1-0.2,0.2s0.1,0.2,0.2,0.2h0.2C139.1,7.3,139.2,7.2,139.2,7.1z"/>
				<path d="M136.2,11.1h0.2c0.1,0,0.2-0.1,0.2-0.2s-0.1-0.2-0.2-0.2h-0.2c-0.1,0-0.2,0.1-0.2,0.2S136,11.1,136.2,11.1z"/>
				<path d="M134.3,7.9c0.1,0,0.2-0.1,0.2-0.2c0-0.1-0.1-0.2-0.2-0.2h-0.2c-0.1,0-0.2,0.1-0.2,0.2c0,0.1,0.1,0.2,0.2,0.2H134.3z"/>
				<path d="M138.2,4.1c0.1,0,0.2-0.1,0.2-0.2c0-0.1-0.1-0.2-0.2-0.2H138c-0.1,0-0.2,0.1-0.2,0.2c0,0.1,0.1,0.2,0.2,0.2H138.2z"/>
				<path d="M139.7,10c-0.1,0-0.2,0.1-0.2,0.2s0.1,0.2,0.2,0.2h0.3c0.1,0,0.2-0.1,0.2-0.2S140.1,10,140,10H139.7z"/>
			</g>
		</g>
	</g>
</g>
</svg>
