<svg xmlns="http://www.w3.org/2000/svg" id="Group_836" width="147.223" height="53.742" viewBox="0 0 147.223 53.742">
    <defs>
        <style>
            .cls-1{fill:#00bcbb}
        </style>
    </defs>
    <path id="Path_597" d="M551.734 276.151h4.015c2.892-.043 3.755-.13 3.237-.475-.69-.392-.783-1.468-.783-12.259V251.54l-4.4.043c-2.5.044-3.977.172-3.367.346 1.038.261 1.079.475 1.21 3.8l.13 3.5-1.77-.6a6.364 6.364 0 0 0-7.114 1.725c-2.288 2.157-2.978 4.445-2.72 8.718.3 4.879 2.418 7.468 6.043 7.511a9.17 9.17 0 0 0 2.633-.392 6.844 6.844 0 0 0 1.989-1.381l.907-.993v2.331zm-.7-2.849a2.331 2.331 0 0 1-3.3-.059l-.026-.027c-1.036-1.165-1.079-12.216-.043-13.208a2.331 2.331 0 0 1 3.3.059l.026.027c1.045 1.164 1.089 12.216.046 13.206z" class="cls-1" transform="translate(-473.537 -222.857)"/>
    <path id="Path_598" d="M946.816 276.453a4.887 4.887 0 0 0 3.237-1.079c1.25-1.167 1.59-1.209 1.59-.086 0 .82.3.863 4.016.863 2.892-.043 3.755-.13 3.237-.475-.69-.392-.777-1.468-.777-12.259V251.54l-4.4.043c-2.5.044-3.977.172-3.367.346 1.036.261 1.079.475 1.208 3.8l.13 3.5-1.639-.6a5.612 5.612 0 0 0-4.49-.174c-3.5.993-5.568 4.49-5.568 9.5-.002 5.908 2.333 8.845 6.823 8.498zm-.261-11.311c.13-3.977.261-4.7.95-5.22a2.349 2.349 0 0 1 3.323.187c.046.051.089.1.13.158.561.733.69 2.2.69 6.387s-.13 5.655-.69 6.389a2.219 2.219 0 0 1-3.366.3c-.944-.992-1.2-3.021-1.028-8.2z" class="cls-1" transform="translate(-821.222 -222.857)"/>
    <path id="Path_599" d="M42.2 273.336c-2.331.6-5.525-2.029-7.079-5.784-.864-2.121-1.3-1.511-1.3 1.942 0 2.72.131 3.28.821 3.669a15.241 15.241 0 0 0 7.382 1.122 9.229 9.229 0 0 0 5.262-1.295 6.931 6.931 0 0 0 3.885-6.3c0-2.806-.863-3.975-5.7-7.555-4.23-3.151-4.748-3.8-4.748-5.783a3.031 3.031 0 0 1 2.985-3.075 2.786 2.786 0 0 1 .295.01c2.2 0 3.023.6 4.533 3.237a7.451 7.451 0 0 0 1.723 2.374c.217 0 .392-1.252.392-2.806 0-2.677-.044-2.849-1.165-3.281a19.933 19.933 0 0 0-8.594-.432c-3.712.993-6.173 3.5-6.518 6.605s.69 4.748 5.311 8.158a26.1 26.1 0 0 1 4.531 3.928 3.553 3.553 0 0 1-2.019 5.269z" class="cls-1" transform="translate(-33.326 -220.733)"/>
    <path id="Path_600" d="M260.56 311.986c-3.452 1.036-5.18 2.677-5.18 4.879.044 3.975 4.36 5.957 7.812 3.626l1.425-.95.993.95c1.339 1.382 4.1 1.339 6.4-.086 1.642-.992 1.684-1.035.6-1.078a1.527 1.527 0 0 1-1.424-.692 51.8 51.8 0 0 1-.261-6.475 34.594 34.594 0 0 0-.433-6.691c-.82-1.511-3.021-2.288-6.475-2.288-3.324.044-6 .949-7.337 2.546a3.273 3.273 0 0 0 .392 4.188 3 3 0 0 0 3.922-4.539 2.9 2.9 0 0 0-.268-.2l-1.25-1.079 1.723.261c2.374.392 3.844 2.071 3.54 4.1-.339 2.104-.898 2.529-4.179 3.528zm3.066 6.475a1.985 1.985 0 0 1-1.3-.56c-1.078-1.339-.733-3.669.821-5.481l1.252-1.511.043 3.8c0 3.41-.086 3.755-.817 3.755z" class="cls-1" transform="translate(-225.961 -267.758)"/>
    <path id="Path_601" d="M405.33 320.359c3.366-.043 4.445-.13 3.928-.475-.69-.392-.783-1.209-.783-7.251 0-6.345-.086-6.908-.949-8.244-1.77-2.591-5.311-2.677-7.943-.217l-1.467 1.381v-2.892h-4.182c-3.927 0-4.144.044-3.237.69s.949.907.949 8.029c0 6.265-.131 7.511-.733 8.2-.653.733-.522.777 3.977.777 3.884 0 4.576-.086 3.977-.561-.692-.474-.735-1.295-.653-6.993l.13-6.476 1.21-.131c2.244-.261 2.46.3 2.46 6.864 0 4.829-.13 6.087-.69 6.605-.615.651-.27.694 4.006.694z" class="cls-1" transform="translate(-343.233 -267.066)"/>
    <path id="Path_602" d="M1102.906 383.864a3.393 3.393 0 0 0-3.237 2.029 3.1 3.1 0 0 0 .6 3.977 3.524 3.524 0 0 0 5.525 0 3.144 3.144 0 0 0 .474-4.23c-.696-1.387-1.42-1.776-3.362-1.776z" class="cls-1" transform="translate(-959.656 -337.909)"/>
    <path id="Path_603" d="M895.949 308.146c1.511-1.556 1.591-2.634.217-4.188a3.285 3.285 0 0 0-5.873 1.856 3.192 3.192 0 0 0 5.654 2.332z" class="cls-1" transform="translate(-777.997 -267.332)"/>
    <path id="Path_604" d="M696.857 311.484c-3.579 1.209-4.959 2.548-4.959 4.922a4.225 4.225 0 0 0 2.332 4.144 6.7 6.7 0 0 0 5.008-.217 3.766 3.766 0 0 0 1.425-1.164c.131-.392.522-.13 1.164.69.914 1.121 1.165 1.209 3.281 1.036a9.89 9.89 0 0 0 3.5-.993l1.21-.818-1.079-.261-1.079-.261-.215-6.518c-.217-6.134-.261-6.605-1.252-7.641-2.591-2.762-10.49-2.244-12.951.864a2.61 2.61 0 0 0-.208 3.683 2.487 2.487 0 0 0 .252.245c1.164 1.252 2.46 1.252 3.977.086a2.787 2.787 0 0 0 0-4.49c-1.079-1.035-1.124-1.079-.261-1.079a3.729 3.729 0 0 1 4.05 4.007c-.052 1.781-1.085 2.73-4.195 3.765zm4.1 2.72c0 3.41-.086 3.755-.82 3.755a2.169 2.169 0 0 1-1.51-.948 3.67 3.67 0 0 1-.69-1.77 6.722 6.722 0 0 1 2.121-3.928l.906-.821z" class="cls-1" transform="translate(-605.495 -267.257)"/>
    <path id="Path_605" d="M833.654 321.9c-1.425-.346-1.723-2.374-1.553-10.014l.13-7.382h-4.1c-3.755.044-4.016.086-3.237.69s.863 1.252.992 7.943c.131 6.864.086 7.339-.733 8.158l-.914.907 5.09-.043c2.771-.046 4.753-.133 4.325-.259z" class="cls-1" transform="translate(-720.579 -268.905)"/>
    <path id="Path_606" d="M177.941 283.276c1.252 0 1.723-.172 1.723-.653s-.474-.653-1.723-.653h-1.732v-1.723c0-1.988-.13-2.071-1.424-.82a17.946 17.946 0 0 1-3.756 2.245c-2.2 1.078-2.634 1.381-1.9 1.591.863.215.907.56.993 7.289a70.665 70.665 0 0 0 .346 7.688 5.723 5.723 0 0 0 3.577 1.866 9.476 9.476 0 0 0 2.121-.432c1.381-.392 3.5-1.942 3.5-2.591 0-.172-.474-.215-1.078-.086-2.159.392-2.374-.3-2.374-7.29v-6.432z" class="cls-1" transform="translate(-150.681 -246.386)"/>
    <path id="Path_607" d="M434.911 106.857c-.561.346.522.432 3.885.475 4.273 0 4.619-.043 4.015-.69-.56-.561-.69-1.856-.69-7.512 0-6.647-.043-6.864-1.079-8.115-1.988-2.374-5.612-2.121-8.158.6l-1.124 1.255v-3.237h-3.977c-3.8 0-3.885.044-3.237.783 1.036 1.165 1.079 15.194.043 16.232-.6.653-.215.69 4.23.653 2.677-.043 4.533-.131 4.144-.261-1.122-.261-1.252-1.381-1.122-7.9l.131-5.833 1.21-.131c2.288-.261 2.46.3 2.46 7.079.004 5.436-.089 6.214-.731 6.602z" class="cls-1" transform="translate(-372.783 -81.87)"/>
    <path id="Path_608" d="M590.392 37.117a4.289 4.289 0 0 0 .914-2.2 3.468 3.468 0 0 0-6.905 0 3.41 3.41 0 0 0 3.445 3.324 2.686 2.686 0 0 0 2.546-1.122z" class="cls-1" transform="translate(-512.041 -31.77)"/>
    <path id="Path_609" d="M30.5 62.418c-1.165.522-.086.56 8.892.6 9.368 0 10.231-.043 10.441-.733.432-1.591.733-6.605.392-6.605a13.071 13.071 0 0 0-1.988 2.634 7.712 7.712 0 0 1-3.109 3.237 7.069 7.069 0 0 1-4.829.261c-.346-.217-.56-2.073-.653-5.4l-.131-5.052h1.511a3.88 3.88 0 0 1 3.885 2.591c.3.69.69 1.295.906 1.295a13.522 13.522 0 0 0 .392-4.531c0-4.188-.432-5.7-1.079-3.712a3.861 3.861 0 0 1-3.712 3.064h-1.684v-10.78h1.941c2.72 0 3.8.653 5.435 3.237.821 1.253 1.591 2.2 1.77 2.121a8.237 8.237 0 0 0 .346-3.237V38.43H39.21c-9.107.043-9.928.086-8.893.69a4.591 4.591 0 0 1 1.641 1.472c.474.863.6 18.52.131 20.246a2.871 2.871 0 0 1-1.589 1.58z" class="cls-1" transform="translate(-29.97 -37.561)"/>
    <path id="Path_610" d="M305.181 97.994h4.748V96.27a6.426 6.426 0 0 0-2.848-5.435 5.438 5.438 0 0 0-4.188-1.209c-4.576.044-7.468 2.157-8.763 6.518a8.68 8.68 0 0 0 .6 7.468 6.146 6.146 0 0 0 3.064 3.324 9.235 9.235 0 0 0 8.115.086c1.856-.906 4.015-3.41 4.015-4.662 0-.432-.3-.345-1.036.346a5.887 5.887 0 0 1-6.134.735 6.664 6.664 0 0 1-2.332-4.576c.011-.822.27-.871 4.759-.871zM300.3 96.7l.261-2.157c.3-2.677.949-3.885 2.029-3.885 1.164 0 1.723 1.295 1.723 3.845v2.2h-4.011z" class="cls-1" transform="translate(-259.156 -82.035)"/>
    <path id="Path_611" d="M663.086 106.535c-.56.345.522.432 3.928.475 3.884 0 4.619-.086 4.015-.522-.561-.475-.735-1.684-.821-7.771-.131-6.819-.172-7.253-1.122-8.244-1.942-2.073-5.266-1.9-7.688.345l-1.472 1.382v-2.888h-3.973c-3.8 0-3.885.044-3.237.783 1.036 1.165 1.079 15.194.044 16.232-.605.653-.261.69 3.975.69 3.845 0 4.533-.086 3.928-.561-.69-.474-.735-1.295-.653-6.993l.13-6.476 1.208-.131c2.288-.261 2.46.3 2.46 7.079.013 5.435-.08 6.213-.722 6.6z" class="cls-1" transform="translate(-571.175 -81.549)"/>
    <path id="Path_612" d="M812.627 90.712a4.72 4.72 0 0 0 1.77.474c.733 0 .914-.261.914-1.336s-.131-1.3-.735-1.079a12.866 12.866 0 0 1-6.734.261c-4.882-.989-9.842 1.171-10.494 4.533a5.779 5.779 0 0 0 1.856 5.309l1.122.821-1.425 1.295a3.263 3.263 0 0 0-1.467 2.849c0 2.978 2.243 4.187 7.942 4.187 4.016 0 5.4.6 5.4 2.374 0 1.036-.3 1.425-1.511 2.029-2.2 1.122-6.432 1.036-7.942-.131a2.279 2.279 0 0 1-.732-3.14 1.338 1.338 0 0 1 .13-.184c.821-.82-2.288-.653-3.452.172-1.942 1.339-.652 3.93 2.5 4.879a24 24 0 0 0 9.2-.392c3.5-1.035 6.345-4.877 5.7-7.726-.6-2.806-3.579-3.928-10.4-3.928-3.28 0-3.627-.086-3.627-.82 0-.777.261-.821 3.367-.6 4.144.3 6.864-.69 8.289-2.978a5.663 5.663 0 0 0-.217-5.957c-.966-1.043-.619-1.56.546-.912zm-6.475 8.594a1.165 1.165 0 0 1-2.073-.3 23.947 23.947 0 0 1-.172-8.117c.346-1.252 1.511-1.641 2.2-.733.736.988.779 8.413.045 9.15z" class="cls-1" transform="translate(-696.327 -81.265)"/>
    <path id="Path_613" d="M174.027 108.949h5.267l2.46-7.812c1.9-5.873 2.806-8.073 3.627-8.85l1.119-1.037h-2.46c-1.339 0-2.418.217-2.418.432a.432.432 0 0 0 .432.432c.261 0 .432.522.432 1.167 0 1.295-2.676 11.355-3.021 11.355a82.834 82.834 0 0 1-3.453-11.355c0-.392.522-.993 1.209-1.339 1.079-.6.783-.653-4.359-.69h-5.522l.863 1.209a66.442 66.442 0 0 1 3.324 8.85z" class="cls-1" transform="translate(-149.412 -83.487)"/>
    <path id="Path_614" d="M574.46 108.949h4.829c4.274 0 4.748-.086 3.977-.6-.734-.561-.82-1.3-.949-8.85l-.13-8.244h-7.337l.653.95c.56.783.69 2.332.69 7.986 0 6.476-.086 7.122-.863 7.9z" class="cls-1" transform="translate(-503.398 -83.487)"/>
</svg>
