<?xml version="1.0" encoding="utf-8"?>
<!-- Generator: Adobe Illustrator 23.0.1, SVG Export Plug-In . SVG Version: 6.00 Build 0)  -->
<svg version="1.1" id="Layer_1" xmlns="http://www.w3.org/2000/svg" xmlns:xlink="http://www.w3.org/1999/xlink" x="0px" y="0px"
	 viewBox="0 0 30 30" style="enable-background:new 0 0 30 30;" xml:space="preserve">
<style type="text/css">
	.st0{fill:#FB4F2B;}
</style>
<g id="Group_35" transform="translate(439.186 3822.707)">
	<g id="Group_34">
		<path id="Path_179" class="st0" d="M-422-3798.4c0-1.5,0-3,0-4.4c0-0.5,0.1-0.7,0.6-0.6c0.8,0,1.6,0,2.3,0c0.2,0,0.5-0.1,0.5-0.4
			c0,0,0-0.1,0-0.1c0.2-1.1,0.3-2.1,0.5-3.2c0.1-0.4-0.1-0.5-0.5-0.5c-1,0-1.9,0-2.9,0c-0.4,0-0.6-0.1-0.6-0.5c0-0.8,0-1.5,0-2.3
			c-0.1-1.1,0.8-2.1,1.9-2.2c0,0,0.1,0,0.1,0c0.6-0.1,1.1-0.1,1.7-0.1c0.3,0,0.5-0.1,0.5-0.5c0-0.9,0-1.7,0-2.6
			c0-0.2-0.2-0.4-0.3-0.4c-1.7-0.4-3.5-0.3-5.2,0.1c-1.7,0.6-2.8,2.1-3,3.8c-0.1,1.3-0.2,2.6-0.1,3.9c0,0.7,0,0.7-0.7,0.7
			c-0.8,0-1.7,0-2.5,0c-0.3,0-0.5,0.1-0.5,0.4c0,1.1,0,2.2,0,3.2c0,0.3,0.1,0.5,0.5,0.5c0.9,0,1.8,0,2.7,0c0.4,0,0.5,0.1,0.5,0.5
			c0,3.1,0,6.1,0,9.2c0,0.5-0.2,0.5-0.5,0.4c-4.2-0.8-7.8-3.4-9.8-7.1c-1.3-2.1-1.9-4.6-1.9-7.1c0-4.4,2-8.6,5.5-11.4
			c2.3-1.9,5.2-3,8.2-3.1c7.5-0.4,14.2,5,15.2,12.5c1,7.5-4,14.6-11.5,16.1c-0.7,0.1-0.7,0.1-0.7-0.5L-422-3798.4L-422-3798.4z"/>
	</g>
</g>
</svg>
