<svg xmlns="http://www.w3.org/2000/svg" width="66.777" height="66.793" viewBox="0 0 66.777 66.793">
    <g>
        <path fill="#fa0e58" d="M150.153 333.277a33.392 33.392 0 1 0 21.2 42.2 33.372 33.372 0 0 0-21.2-42.2zM120.1 387.925a15.077 15.077 0 0 1-1.378-1.21 14.892 14.892 0 0 1-1.11-1.213l7.1-7.5a15.729 15.729 0 0 0 .911 1.583c.336.47 1.042 1.412 1.042 1.412zm18.2-4.476a12.007 12.007 0 0 1-12.821-14.033 12.633 12.633 0 0 1 9.86 3.872 11.471 11.471 0 0 1 2.967 10.162zm.1-13.393a12.007 12.007 0 0 1-12.821-14.033 12.463 12.463 0 0 1 9.86 3.872 11.48 11.48 0 0 1 2.969 10.162zm-3.331-18.677a12.488 12.488 0 0 1 4.61-9.524 12.053 12.053 0 0 1 .068 19.013 11.452 11.452 0 0 1-4.67-9.488zm15.682 28.2a11.779 11.779 0 0 1-9.828 3.869 11.48 11.48 0 0 1 2.961-10.162 12.551 12.551 0 0 1 9.828-3.872 11.7 11.7 0 0 1-2.953 10.166zm.1-13.393a11.75 11.75 0 0 1-9.826 3.869 11.48 11.48 0 0 1 2.961-10.162 12.463 12.463 0 0 1 9.86-3.872 11.769 11.769 0 0 1-2.987 10.166zm1.278-11.912a16.039 16.039 0 0 0-3.029.47 14.788 14.788 0 0 0-3.7 1.515l14.335-15.007a13.364 13.364 0 0 1 1.381 1.21 14.3 14.3 0 0 1 1.11 1.247z" transform="translate(-106.273 -331.579)"/>
    </g>
</svg>
