<?xml version="1.0" encoding="utf-8"?>
<!-- Generator: Adobe Illustrator 23.0.1, SVG Export Plug-In . SVG Version: 6.00 Build 0)  -->
<svg version="1.1" id="Layer_1" xmlns="http://www.w3.org/2000/svg" xmlns:xlink="http://www.w3.org/1999/xlink" x="0px" y="0px"
	 viewBox="0 0 30 30" style="enable-background:new 0 0 30 30;" xml:space="preserve">
<style type="text/css">
	.st0{fill:#FB4F2B;}
</style>
<g id="Group_32" transform="translate(360.312 3822.707)">
	<path id="Path_176" class="st0" d="M-345.3-3814.8c-4.1,0-7.4,3.3-7.4,7.4c0,4.1,3.3,7.4,7.4,7.4c4.1,0,7.4-3.3,7.4-7.4
		C-337.9-3811.5-341.2-3814.8-345.3-3814.8z M-345.3-3803.2c-2.4,0-4.3-1.9-4.3-4.3c0-2.4,1.9-4.3,4.3-4.3c2.4,0,4.3,1.9,4.3,4.3
		C-341.1-3805.1-343-3803.2-345.3-3803.2z"/>
	<circle id="Ellipse_5" class="st0" cx="-337.7" cy="-3815.1" r="1.7"/>
	<path id="Path_177" class="st0" d="M-338.2-3821.8h-14.2c-4,0-7.2,3.2-7.2,7.2v14.2c0,4,3.2,7.2,7.2,7.2h14.2c4,0,7.2-3.2,7.2-7.2
		v-14.2C-331-3818.5-334.2-3821.8-338.2-3821.8z M-334.1-3800.4c0,2.3-1.8,4.1-4.1,4.1h-14.2c-2.3,0-4.1-1.8-4.1-4.1v-14.2
		c0-2.3,1.8-4.1,4.1-4.1h14.2c2.3,0,4.1,1.8,4.1,4.1V-3800.4z"/>
</g>
</svg>
