<svg xmlns="http://www.w3.org/2000/svg" width="209.57" height="94.058" viewBox="0 0 209.57 94.058">
    <defs>
        <style>
            .cls-1{fill:#fa0e58}
        </style>
    </defs>
    <g id="Group_417" transform="translate(-17.98 -16.252)">
        <g id="Group_166" transform="translate(17.98 16.252)">
            <path id="Path_761" d="M113.852 64.595a17.093 17.093 0 1 0 10.239 21.892 17.107 17.107 0 0 0-10.239-21.892zm9.153 22.9a10.46 10.46 0 0 1-4.188 5.41c-2.889 1.939-6.554 1.4-8.861.426C101.733 89.861 96.73 79.2 99.774 70.8a10.482 10.482 0 0 1 4.751-5.74 9.551 9.551 0 0 1 7.853-.252c8.722 3.161 13.787 13.962 10.627 22.692z" class="cls-1" transform="translate(-27.694 -22.553)"/>
            <path id="Path_762" d="M160.407 64.595a17.093 17.093 0 1 0 10.238 21.892 17.079 17.079 0 0 0-10.238-21.892zm9.153 22.9a10.456 10.456 0 0 1-4.189 5.41c-2.889 1.939-6.553 1.4-8.861.426-8.222-3.471-13.224-14.136-10.18-22.532a10.478 10.478 0 0 1 4.751-5.74 9.551 9.551 0 0 1 7.853-.252c8.725 3.162 13.786 13.963 10.625 22.693z" class="cls-1" transform="translate(-33.895 -22.553)"/>
            <path id="Path_763" d="M59.46 96.866v-.3a4.755 4.755 0 0 0 1.719-.374c1.121-.524 1.644-1.345 1.943-3.14a29.094 29.094 0 0 0 .225-4.709V72.052c0-2.541-.225-3.96-1.047-4.858A3.372 3.372 0 0 0 59.46 66c-2.242 0-5.381 2.541-5.9 8.521a39.106 39.106 0 0 0-.225 4.335v8.894a36.3 36.3 0 0 0 .3 5.306c.3 1.794.822 2.616 1.943 3.14a4.165 4.165 0 0 0 1.719.374v.3H38.982v-.3a4.087 4.087 0 0 0 1.644-.374c1.2-.524 1.644-1.345 1.943-3.14a21.933 21.933 0 0 0 .3-4.709V72.052c0-2.541-.3-3.961-1.046-4.858a3.373 3.373 0 0 0-2.84-1.2C36.665 66 33.451 68.54 33 74.519c-.15 1.868-.225 3.737-.225 5.979v7.847a28.124 28.124 0 0 0 .3 4.709c.3 1.869.823 2.616 1.943 3.14a4.091 4.091 0 0 0 1.645.374v.3H17.98v-.3a8.228 8.228 0 0 0 1.793-.3c1.046-.449 1.644-.9 2.168-2.766a38.5 38.5 0 0 0 .374-6.427V73.024c0-1.42-.075-4.11-.225-5.307a3.232 3.232 0 0 0-1.344-2.541 3.732 3.732 0 0 0-2.318-.6v-.446h14.051c.3 0 .449.224.449.523 0 .673-.225 5.531-.225 6.726h.225a9.458 9.458 0 0 1 3.512-5.68 13.967 13.967 0 0 1 7.25-2.242c3.438 0 5.979.9 7.4 2.466a8.942 8.942 0 0 1 2.167 5.531h.15a10.109 10.109 0 0 1 3.662-5.83 11.981 11.981 0 0 1 6.731-2.166c3.662 0 6.323.828 8.072 2.914 1.207 1.439 1.943 3.887 1.943 7.4v13.3a38.517 38.517 0 0 0 .374 6.427c.523 1.869 1.2 2.317 2.242 2.766a6.966 6.966 0 0 0 1.719.3v.3z" class="cls-1" transform="translate(-17.98 -22.539)"/>
            <path id="Path_764" d="M200.411 96.867v-.3a4.08 4.08 0 0 0 1.644-.374c1.2-.524 1.719-1.345 2.018-3.14a29.2 29.2 0 0 0 .224-4.709V72.052c0-2.541-.149-3.96-.971-4.858a3.523 3.523 0 0 0-2.915-1.046c-1.793 0-5.232 2.242-5.755 8.371-.15 1.868-.225 3.737-.225 5.979v7.847a29.1 29.1 0 0 0 .225 4.709c.3 1.869.822 2.616 2.018 3.14a4.159 4.159 0 0 0 1.719.374v.3h-18.76v-.3a6.966 6.966 0 0 0 1.719-.3c1.046-.449 1.719-.9 2.242-2.766a39.7 39.7 0 0 0 .3-6.427V73.249c0-1.42 0-4.335-.15-5.531a3.7 3.7 0 0 0-1.271-2.541 4.213 4.213 0 0 0-2.392-.6v-.448h13.976c.374 0 .448.224.448.523 0 .673-.149 5.68-.149 6.8h.149a10.606 10.606 0 0 1 3.737-5.755 13.22 13.22 0 0 1 7.026-2.242c3.363 0 5.9.673 7.474 2.99a13.535 13.535 0 0 1 2.018 7.847v12.78a31.137 31.137 0 0 0 .448 6.427c.449 1.869 1.121 2.317 2.167 2.766a7.631 7.631 0 0 0 1.72.3v.3z" class="cls-1" transform="translate(-39.51 -22.539)"/>
            <path id="Path_765" d="M243.474 97.539a15.679 15.679 0 0 1-9.043-3.063h-.3l-2.765 2.316h-.3l-.373-12.108h.523c1.121 6.577 6.876 12.183 12.258 12.183 3.018 0 4.773-1.478 4.773-4.794 0-2.59-3.277-5-7.688-6.791-4.11-1.644-9.865-4.634-9.865-11.585 0-5.9 4.932-10.239 12.108-10.239a13.025 13.025 0 0 1 7.922 2.841h.225l1.868-2.093h.374l.224 9.716h-.449a13.2 13.2 0 0 0-3.738-6.876 9.2 9.2 0 0 0-6.352-2.691c-2.616 0-4.485 1.27-4.485 4.335 0 3.213 2.99 4.858 7.25 6.5 5.531 2.092 10.24 4.709 10.24 11.21 0 6.876-5.756 11.136-12.407 11.136z" class="cls-1" transform="translate(-46.311 -22.539)"/>
            <path id="Path_766" d="M79.071 49.448v-.193a5.36 5.36 0 0 0 1.165-.2 2.262 2.262 0 0 0 1.408-1.8 25.023 25.023 0 0 0 .243-4.175V22.125c0-.875-.049-2.815-.146-3.592a2.1 2.1 0 0 0-.874-1.65 3.312 3.312 0 0 0-1.5-.388v-.242h9.125c.194 0 .29.1.29.34 0 .727-.048 1.747-.048 3.009V43.09a20.7 20.7 0 0 0 .243 4.175 2.106 2.106 0 0 0 1.408 1.8 5.776 5.776 0 0 0 1.214.2v.193z" class="cls-1" transform="translate(-26.117 -16.252)"/>
            <path id="Path_767" d="M109.072 49.219a2.255 2.255 0 0 1-1.4-1.8 19.252 19.252 0 0 1-.252-3.684V31.747c0-1.26.058-2.288.058-3.063 0-.233-.1-.33-.291-.33h-9.071v.291a2.322 2.322 0 0 1 1.494.387 2.147 2.147 0 0 1 .872 1.649c.1.776.1 2.657.1 3.587v9.463a19.973 19.973 0 0 1-.194 3.684 2.2 2.2 0 0 1-1.454 1.8 5.486 5.486 0 0 1-1.105.194v.193H110.2v-.193a6.191 6.191 0 0 1-1.128-.19zm-5.041-31.8a3.588 3.588 0 0 0-3.549 3.606 3.569 3.569 0 0 0 7.136 0 3.582 3.582 0 0 0-3.587-3.607z" class="cls-1" transform="translate(-28.614 -16.407)"/>
            <path id="Path_768" d="M130.974 46.816a6.574 6.574 0 0 1-5.969 3.591 7.175 7.175 0 0 1-4.95-1.5 5.764 5.764 0 0 1-1.7-4.611c0-.97.146-12.279.194-14.657-.825-.1-2.087-.049-2.815-.146v-.437c4.466-.921 7.523-3.931 8.931-8.881h.776v8.542h4.514v.971h-4.514l-.193 15.385c0 1.748.387 3.3 2.523 3.3a3.443 3.443 0 0 0 3.01-1.7z" class="cls-1" transform="translate(-31 -16.774)"/>
            <path id="Path_769" d="M151.58 46.816a6.575 6.575 0 0 1-5.97 3.591 7.178 7.178 0 0 1-4.95-1.5 5.764 5.764 0 0 1-1.7-4.611c0-.97.146-12.279.194-14.657-.825-.1-2.086-.049-2.815-.146v-.437c4.465-.921 7.522-3.931 8.931-8.881h.776v8.542h4.513v.971h-4.513l-.194 15.385c0 1.748.388 3.3 2.523 3.3a3.441 3.441 0 0 0 3.01-1.7z" class="cls-1" transform="translate(-33.744 -16.774)"/>
            <path id="Path_770" d="M156.456 49.448v-.193a5.361 5.361 0 0 0 1.165-.2 2.264 2.264 0 0 0 1.408-1.8 25.118 25.118 0 0 0 .243-4.175V22.125c0-.875-.049-2.815-.146-3.592a2.1 2.1 0 0 0-.874-1.65 3.308 3.308 0 0 0-1.5-.389v-.242h9.124c.194 0 .292.1.292.34 0 .727-.049 1.747-.049 3.009V43.09a20.766 20.766 0 0 0 .242 4.175 2.1 2.1 0 0 0 1.408 1.8 5.776 5.776 0 0 0 1.214.2v.194z" class="cls-1" transform="translate(-36.423 -16.252)"/>
            <path id="Path_771" d="M195.2 38.459c.1-4.577-2.908-8.939-9.21-8.939-5.2 0-10.491 3.587-10.491 11.169 0 4.208 1.513 6.981 3.878 8.823a11.078 11.078 0 0 0 6.748 2.132 8.627 8.627 0 0 0 8.842-7.271l-.485-.155c-.776 2.831-2.831 6.166-6.458 6.166a4.327 4.327 0 0 1-2.966-1.163c-1.221-1.3-2.23-3.587-2.23-9.559h12.333c.039-.389.039-.873.039-1.203zm-7.717.524h-4.654c.039-4.557.485-7.078 1.4-8.106a2.33 2.33 0 0 1 1.861-.776 2.23 2.23 0 0 1 1.746.776c.814 1.066 1.163 3.394 1.163 6.322-.008 1.396-.399 1.784-1.52 1.784z" class="cls-1" transform="translate(-38.959 -18.019)"/>
        </g>
        <g id="Group_167" transform="translate(63.096 103.004)">
            <path id="Path_772" d="M70.028 116.474H71.7l1.856 2.986 1.857-2.986h1.676v7.063h-1.541v-4.611l-1.989 3.016h-.039l-1.968-2.987v4.582h-1.524z" class="cls-1" transform="translate(-70.028 -116.353)"/>
            <path id="Path_773" d="M81.491 120.007v-.021a3.755 3.755 0 0 1 7.509-.019v.019a3.755 3.755 0 0 1-7.507.021zm5.883 0v-.021a2.144 2.144 0 0 0-2.139-2.218 2.112 2.112 0 0 0-2.119 2.2v.019a2.148 2.148 0 0 0 2.141 2.222 2.113 2.113 0 0 0 2.117-2.202z" class="cls-1" transform="translate(-71.555 -116.334)"/>
            <path id="Path_774" d="M93.1 120.007v-.021a3.591 3.591 0 0 1 3.684-3.652 3.643 3.643 0 0 1 2.783 1.09l-.988 1.14a2.608 2.608 0 0 0-1.806-.8 2.093 2.093 0 0 0-2.049 2.2v.019a2.1 2.1 0 0 0 2.049 2.222 2.546 2.546 0 0 0 1.857-.829l.989 1a3.611 3.611 0 0 1-2.9 1.261 3.565 3.565 0 0 1-3.619-3.63z" class="cls-1" transform="translate(-73.102 -116.334)"/>
            <path id="Path_775" d="M103.781 116.474h1.552v2.795h2.867v-2.795h1.552v7.063H108.2V120.7h-2.867v2.834h-1.552z" class="cls-1" transform="translate(-74.523 -116.353)"/>
            <path id="Path_776" d="M114.43 116.474h1.552v7.063h-1.552z" class="cls-1" transform="translate(-75.942 -116.353)"/>
            <path id="Path_777" d="M125.289 116.474h1.553v7.063h-1.553z" class="cls-1" transform="translate(-77.388 -116.353)"/>
            <path id="Path_778" d="M130.484 120.007v-.021a3.59 3.59 0 0 1 3.682-3.652 3.647 3.647 0 0 1 2.787 1.09l-.99 1.14a2.6 2.6 0 0 0-1.806-.8 2.092 2.092 0 0 0-2.047 2.2v.019a2.1 2.1 0 0 0 2.047 2.222 2.549 2.549 0 0 0 1.857-.829l.99 1a3.611 3.611 0 0 1-2.9 1.261 3.567 3.567 0 0 1-3.62-3.63z" class="cls-1" transform="translate(-78.08 -116.334)"/>
            <path id="Path_779" d="M141.158 116.474h5.327v1.382H142.7v1.434h3.33v1.382h-3.33v1.484h3.834v1.382h-5.377z" class="cls-1" transform="translate(-79.502 -116.353)"/>
            <path id="Path_780" d="M155.538 120.007v-.021a3.59 3.59 0 0 1 3.682-3.652 3.647 3.647 0 0 1 2.787 1.09l-.99 1.14a2.6 2.6 0 0 0-1.806-.8 2.092 2.092 0 0 0-2.047 2.2v.019a2.1 2.1 0 0 0 2.047 2.222 2.549 2.549 0 0 0 1.857-.829l.99 1a3.611 3.611 0 0 1-2.9 1.261 3.567 3.567 0 0 1-3.62-3.63z" class="cls-1" transform="translate(-81.417 -116.334)"/>
            <path id="Path_781" d="M166.212 116.474h3.229a2.807 2.807 0 0 1 2.058.717 2.209 2.209 0 0 1 .606 1.614v.02a2.194 2.194 0 0 1-1.515 2.19l1.726 2.522H170.5l-1.513-2.26h-1.222v2.26h-1.552zm3.128 3.431c.756 0 1.19-.4 1.19-1v-.019c0-.667-.464-1.009-1.22-1.009h-1.546v2.023z" class="cls-1" transform="translate(-82.838 -116.353)"/>
            <path id="Path_782" d="M176.351 116.474h5.327v1.382h-3.785v1.434h3.331v1.382h-3.331v1.484h3.835v1.382h-5.378z" class="cls-1" transform="translate(-84.189 -116.353)"/>
            <path id="Path_783" d="M188.2 116.416h1.434l3.025 7.113h-1.624l-.646-1.584H187.4l-.646 1.584h-1.584zm1.634 4.157l-.938-2.291-.938 2.291z" class="cls-1" transform="translate(-85.364 -116.345)"/>
            <path id="Path_784" d="M196.791 116.474h1.676l1.857 2.986 1.857-2.986h1.674v7.063h-1.543v-4.611l-1.988 3.016h-.042l-1.966-2.987v4.582h-1.524z" class="cls-1" transform="translate(-86.911 -116.353)"/>
        </g>
    </g>
</svg>
