<svg xmlns="http://www.w3.org/2000/svg" id="Metro_logo_black_2014" width="129.952" height="31.877" viewBox="0 0 129.952 31.877">
    <defs>
        <style>
            .cls-1{fill:#00bcbb}
        </style>
    </defs>
    <path id="Path_180" d="M5.067 2.253h6.325l5.354 11.807L22.27 2.253h6.33l4.174 30.359h-8.1L22.9 20.131h-.084l-6.07 12.692-6.071-12.692h-.085L8.82 32.612H.724z" class="cls-1" transform="translate(-.724 -1.494)"/>
    <path id="Path_181" d="M66.962 2.253h16.276l1.223 8.011h-9.572v3.162h6.24v8.011h-6.24V24.6h10.626l-2.066 8.011H66.962z" class="cls-1" transform="translate(-32.218 -1.494)"/>
    <path id="Path_182" d="M103.455 2.253h18.721l.8 7.674h-6.2v22.685h-7.927V9.927h-6.2z" class="cls-1" transform="translate(-49.188 -1.494)"/>
    <path id="Path_183" d="M145.74 2.253h10.415a10.648 10.648 0 0 1 7.445 2.509q2.762 2.509 2.762 7.232a8.526 8.526 0 0 1-4.132 7.464l5.819 13.156h-8.939l-5.359-12.524h-.084v12.523h-7.927zm7.927 14.252a5.988 5.988 0 0 0 3.542-.885 3.3 3.3 0 0 0 1.223-2.867 3.3 3.3 0 0 0-1.223-2.867A5.992 5.992 0 0 0 153.667 9z" class="cls-1" transform="translate(-69.674 -1.494)"/>
    <path id="Path_184" d="M218.966 22.9a16.224 16.224 0 0 1-3.394 5.123 15.576 15.576 0 0 1-5.018 3.437 15.168 15.168 0 0 1-11.933 0 15.562 15.562 0 0 1-5.017-3.437 16.2 16.2 0 0 1-3.394-5.123 16.109 16.109 0 0 1 0-12.312 16.2 16.2 0 0 1 3.39-5.123 15.574 15.574 0 0 1 5.017-3.436 15.162 15.162 0 0 1 11.933 0 15.585 15.585 0 0 1 5.018 3.436 16.218 16.218 0 0 1 3.394 5.123 16.109 16.109 0 0 1 0 12.312zm-7.442-9.087a7.794 7.794 0 0 0-1.624-2.509 7.681 7.681 0 0 0-2.424-1.704 7.019 7.019 0 0 0-2.888-.612 7.225 7.225 0 0 0-2.889.59 7.314 7.314 0 0 0-2.4 1.665 8.013 8.013 0 0 0-1.623 2.488 7.944 7.944 0 0 0 0 6.009 7.932 7.932 0 0 0 1.623 2.509 7.3 7.3 0 0 0 2.4 1.665 7.216 7.216 0 0 0 2.889.59 7 7 0 0 0 2.888-.612 7.664 7.664 0 0 0 2.424-1.708 7.836 7.836 0 0 0 1.624-8.369z" class="cls-1" transform="translate(-90.237 -.806)"/>
</svg>
