<svg xmlns="http://www.w3.org/2000/svg" width="228.118" height="227.789" viewBox="0 0 228.118 227.789">
    <defs>
        <style>
            .cls-1{fill:#e90354}
        </style>
    </defs>
    <g id="Group_683" transform="translate(-288.083 -1577.709)">
        <g id="Group_682" transform="translate(288.083 1577.709)">
            <path id="Path_3157" d="M394 4063.1v10.272h-3.945V4047.2c.088-.042.172-.116.255-.114 3.422.038 6.851-.042 10.263.163a6.759 6.759 0 0 1 6.426 6.478 12.2 12.2 0 0 1-.279 3.889c-.888 3.407-3.772 5.4-7.67 5.473-1.63.034-3.257.011-5.05.011zm.012-8.056c0 1.246.018 2.493-.008 3.739-.012.575.192.791.779.774 1.309-.033 2.62 0 3.93-.013a4.021 4.021 0 0 0 4.317-4.043c.159-2.934-1.051-4.95-4.421-4.886-1.246.023-2.494.037-3.738-.01-.69-.026-.889.243-.869.892.03 1.178.005 2.361.005 3.543z" class="cls-1" transform="translate(-381.758 -3846.247)"/>
            <path id="Path_3158" d="M1195.213 3430.8c21.922-18.815 56.692-19.7 81.5-.012-.305-.151-.612-.3-.916-.454a103.649 103.649 0 0 0-24.547-9.123 70.682 70.682 0 0 0-40.39 2.651c-5.023 1.852-9.825 4.3-14.727 6.483-.316.141-.615.306-.92.455z" class="cls-1" transform="translate(-1121.433 -3266.814)"/>
            <path id="Path_3159" d="M1436.607 4137.951h-5.258c-2.369 0-4.738.016-7.107-.01-.631-.007-.905.186-.765.832a19.043 19.043 0 0 0 .465 2.146 4.244 4.244 0 0 0 4.007 3.05 4.178 4.178 0 0 0 4.528-2.513.993.993 0 0 1 .637-.553c1.015-.061 2.037-.025 3.179-.025a7.375 7.375 0 0 1-3.339 4.935c-3.918 2.512-11.094 1.771-12.81-4.9a14.736 14.736 0 0 1 .048-7.953 8.159 8.159 0 0 1 7.773-6.281c3.888-.07 6.87 2.122 8.171 6.007a12.306 12.306 0 0 1 .471 5.265zm-13.051-2.858c.05.037.1.106.152.106 2.87.02 5.739.04 8.609.027a.659.659 0 0 0 .473-.43 4.974 4.974 0 0 0-3.844-4.934 4.7 4.7 0 0 0-5.39 5.231z" class="cls-1" transform="translate(-1327.591 -3919.366)"/>
            <path id="Path_3160" d="M1283.363 3520.113c-26.535-10.394-53.313-10.878-79.779.195 21.155-14.6 55.741-15.348 79.779-.195z" class="cls-1" transform="translate(-1129.124 -3351.969)"/>
            <path id="Path_3161" d="M2414.659 4133.2h3.722v19.262h-3.522v-2.59a3.932 3.932 0 0 0-.468.45c-1.849 2.944-6.468 3.105-8.882 1.626a5.15 5.15 0 0 1-2.55-4.379c-.127-3.674-.109-7.354-.147-11.031-.008-.864.016-1.728-.006-2.592-.014-.544.142-.833.755-.812.986.034 1.974.01 3.055.01.021.469.053.842.054 1.216.014 3.808-.005 7.613.045 11.421.031 2.306 1.011 3.61 2.779 3.907a4.184 4.184 0 0 0 4.772-2.814 7.758 7.758 0 0 0 .376-2.346c.04-3.391.018-6.783.018-10.174z" class="cls-1" transform="translate(-2230.808 -3925.295)"/>
            <path id="Path_3162" d="M946.966 4148.458h-3.711c-.019-.414-.051-.788-.051-1.16 0-3.424.007-6.847-.01-10.271a12.847 12.847 0 0 0-.174-2.2 3.063 3.063 0 0 0-2.093-2.735 4.233 4.233 0 0 0-4.218.86 5.283 5.283 0 0 0-1.552 4.185c-.016 3.36-.005 6.719-.006 10.079v1.212h-3.745v-19.306c1.04 0 2.08-.026 3.116.028.149.006.378.382.4.6.057.584.019 1.178.019 1.969.287-.24.4-.3.458-.388 1.689-2.794 5.793-3.048 8.184-2.042a5.37 5.37 0 0 1 3.346 5.173c.121 4.638.037 9.273.037 13.996z" class="cls-1" transform="translate(-879.083 -3921.272)"/>
            <path id="Path_3163" d="M2647.924 4139.481h3.433a4.239 4.239 0 0 0 6.587 2.811 2.393 2.393 0 0 0 1.307-2.193 2.01 2.01 0 0 0-1.324-1.944c-1.356-.547-2.764-.967-4.146-1.456a18.36 18.36 0 0 1-2.59-.975 5.1 5.1 0 0 1-.464-8.694 8.724 8.724 0 0 1 9.038-.483 4.715 4.715 0 0 1 2.61 4.875h-3.214c-1.128-2.489-2.93-3.383-5.241-2.6a2.28 2.28 0 0 0-1.77 2.033 2.049 2.049 0 0 0 1.508 2.1c1.319.477 2.669.865 4 1.313.725.245 1.449.5 2.148.808 4.245 1.873 3.611 7.3.9 9.3-2.633 1.943-7.306 2.28-10.1.575-2.015-1.227-2.698-3.121-2.682-5.47z" class="cls-1" transform="translate(-2455.991 -3918.295)"/>
            <path id="Path_3164" d="M1707.206 4139.854h3.326c.041.117.1.253.139.4a4.311 4.311 0 0 0 7.021 2.013 2.2 2.2 0 0 0-.361-3.644 28.336 28.336 0 0 0-3.658-1.385c-.991-.353-2.032-.586-2.984-1.02a4.621 4.621 0 0 1-2.882-4.188 4.852 4.852 0 0 1 2.518-4.909 9.081 9.081 0 0 1 8.218-.461 5.089 5.089 0 0 1 3.147 5.164c-1 0-2.008.027-3.014-.024-.176-.008-.416-.315-.492-.532a3.963 3.963 0 0 0-6.167-1.447 1.953 1.953 0 0 0 .346 3.183 23.969 23.969 0 0 0 3.208 1.226c1.141.406 2.324.713 3.433 1.19 4.248 1.829 3.65 7.177 1.023 9.221s-7.551 2.4-10.347.593a5.529 5.529 0 0 1-2.474-5.38z" class="cls-1" transform="translate(-1591.774 -3918.64)"/>
            <path id="Path_3165" d="M2006.988 4051.565v22.446c-1.223 0-2.369.033-3.509-.033-.183-.011-.475-.461-.487-.717-.052-1.214-.025-2.432-.025-3.648v-16.8c0-1.332 0-1.333-1.292-1.335-1.632 0-3.265-.017-4.9.006-.594.008-.876-.152-.841-.813.051-.953.013-1.912.013-2.942h18.107c0 1.083.04 2.162-.038 3.232-.014.19-.521.484-.806.492-1.663.047-3.328.02-4.992.028-.371-.001-.744.048-1.23.084z" class="cls-1" transform="translate(-1857.029 -3846.831)"/>
            <path id="Path_3166" d="M1189.43 4132.514c-1.169 0-2.253.032-3.331-.028-.2-.011-.47-.367-.552-.615-.743-2.236-1.977-3.247-4.056-3.267a4.3 4.3 0 0 0-4.352 3.121 12.281 12.281 0 0 0-.136 7.645 4.385 4.385 0 0 0 5.638 3.252 3.6 3.6 0 0 0 2.659-2.642.887.887 0 0 1 1.062-.788c.92.057 1.845.015 2.988.015a20.39 20.39 0 0 1-.579 2.213 7.737 7.737 0 0 1-8.142 4.506c-4.586-.5-7.4-3.352-7.821-8.005a15.73 15.73 0 0 1 .743-7.188 8.738 8.738 0 0 1 13.372-3.5 7.029 7.029 0 0 1 2.507 5.281z" class="cls-1" transform="translate(-1100.752 -3918.188)"/>
            <path id="Path_3167" d="M2867.422 4060.986h3.823v4.5c0 1.26 0 1.26 1.233 1.261h2.332v2.95h-3.494c-.028.417-.068.725-.068 1.034q-.007 4.893 0 9.787c0 .159 0 .319.01.479.091 1.788.588 2.262 2.354 2.248h1.2c.018.205.052.42.053.635.028 2.391.027 2.414-2.35 2.491a9.023 9.023 0 0 1-2.19-.2c-1.939-.419-2.82-1.689-2.848-4.181-.042-3.677-.019-7.355-.022-11.034v-1.214h-2.936v-3.008h2.9z" class="cls-1" transform="translate(-2654.968 -3859.014)"/>
            <path id="Path_3168" d="M1769.909 1749.8c-2.112-2.6-4.038-5.247-6.24-7.638-7.268-7.9-16.012-13.356-26.606-15.6-1.558-.331-3.149-.517-4.734-.7-.684-.078-.985-.21-.774-.991.447-1.651.412-1.647 2.3-1.4a49.816 49.816 0 0 1 22.5 8.9 60.188 60.188 0 0 1 13.487 13.281 2.56 2.56 0 0 1 .532 2.454c-.174.566-.319 1.149-.465 1.694z" class="cls-1" transform="translate(-1614.093 -1711.502)"/>
            <path id="Path_3169" d="M1168.021 1750.181c-.263-1.174-.5-2.063-.642-2.968a1.332 1.332 0 0 1 .306-.854c8.226-11.245 18.773-19.086 32.576-22.1 1.618-.354 3.283-.486 4.921-.753.561-.092.775.083.929.635.466 1.667.5 1.653-1.282 1.867a46.906 46.906 0 0 0-20.4 7.554 56.33 56.33 0 0 0-15.69 15.61c-.176.256-.363.509-.718 1.009z" class="cls-1" transform="translate(-1095.858 -1711.623)"/>
            <path id="Path_3170" d="M1791.828 1680.114c-8.965-13.824-20.8-23.028-37.4-25.532a22.343 22.343 0 0 1 1.133-2.038c.108-.158.568-.148.849-.1a50.508 50.508 0 0 1 25.892 12.471 63.3 63.3 0 0 1 8.484 9.253 4.783 4.783 0 0 1 1.037 2.9c.023.918.005 1.844.005 3.046z" class="cls-1" transform="translate(-1635.166 -1646.336)"/>
            <path id="Path_3171" d="M1163.634 1679.4c.084-1.423.157-2.847.263-4.268a1.3 1.3 0 0 1 .3-.586c7.388-10.2 16.828-17.612 29.01-21.252 1.889-.565 3.869-.821 5.784-1.31a1.03 1.03 0 0 1 1.4.7c.2.465.448.911.712 1.443-16.514 2.459-28.39 11.656-37.469 25.273z" class="cls-1" transform="translate(-1092.423 -1645.884)"/>
            <path id="Path_3172" d="M1457.554 2103.116l-1.079 2.1c-14.274-7.12-28.462-7.134-42.8 0l-1.126-2.142a47.692 47.692 0 0 1 18.078-5.479 46.837 46.837 0 0 1 26.927 5.521z" class="cls-1" transform="translate(-1321.097 -2055.112)"/>
            <path id="Path_3173" d="M1754.5 1821.986a55.592 55.592 0 0 0-16.439-15.163 46.431 46.431 0 0 0-21.291-6.576 11.263 11.263 0 0 1 .291-1.96 1.025 1.025 0 0 1 .873-.409 73.7 73.7 0 0 1 7.754 1.211c12.315 3.08 22.022 10.105 29.739 20.037a1.438 1.438 0 0 1 .132 1.089 4.808 4.808 0 0 1-.622 1.181c-.112.188-.26.353-.437.59z" class="cls-1" transform="translate(-1600.57 -1779.967)"/>
            <path id="Path_3174" d="M1185.353 1821.513a16.542 16.542 0 0 1-1.02-1.853 1.2 1.2 0 0 1 .1-1.007c8.516-10.9 19.244-18.3 33.053-20.77 1.412-.253 2.849-.365 4.272-.561.761-.1 1.237.057 1.208.964a8.761 8.761 0 0 0 .2 1.424 46.5 46.5 0 0 0-21.356 6.6 55.767 55.767 0 0 0-16.457 15.203z" class="cls-1" transform="translate(-1111.376 -1779.434)"/>
            <path id="Path_3175" d="M1446.042 2568.385l-.706-2.737a75.533 75.533 0 0 1 39.917-.006c-.137.535-.244.959-.354 1.384-.1.4-.207.8-.353 1.354a72.277 72.277 0 0 0-38.504.005z" class="cls-1" transform="translate(-1351.213 -2482.827)"/>
            <path id="Path_3176" d="M1464.074 2644.983a76.1 76.1 0 0 1 36.88 0 22.256 22.256 0 0 1-.541 2.305c-.056.168-.562.326-.808.267a73.242 73.242 0 0 0-18.926-2 70.281 70.281 0 0 0-15.175 2.018c-.7.173-.924-.016-1.025-.652-.099-.621-.256-1.237-.405-1.938z" class="cls-1" transform="translate(-1368.427 -2556.094)"/>
            <path id="Path_3177" d="M1023.6 2877.243c-.18-.19-.294-.3-.395-.419-.494-.586-.985-1.176-1.553-1.856a71.818 71.818 0 0 1 29.218-19.62c.183.464.35.865.5 1.272s.285.844.469 1.395a68.907 68.907 0 0 0-28.239 19.228z" class="cls-1" transform="translate(-961.986 -2751.433)"/>
            <path id="Path_3178" d="M2018.886 2874.806a2.76 2.76 0 0 1-.2.35c-.537.635-1.078 1.264-1.7 1.991a69.307 69.307 0 0 0-12.914-11.4 70.1 70.1 0 0 0-15.343-7.832l.938-2.686a71.978 71.978 0 0 1 29.219 19.577z" class="cls-1" transform="translate(-1850.414 -2751.327)"/>
            <path id="Path_3179" d="M1447.088 2177.261a47.792 47.792 0 0 1 39.432 0 17.971 17.971 0 0 1-1.407 1.756c-.155.154-.638.107-.906 0a45.869 45.869 0 0 0-10.952-3.035 43.836 43.836 0 0 0-23.39 2.887c-.948.39-1.515.33-2.007-.552a11.514 11.514 0 0 0-.77-1.056z" class="cls-1" transform="translate(-1352.823 -2124.589)"/>
            <path id="Path_3180" d="M653.107 4134.123a14.324 14.324 0 0 0-1.605-.073 4.478 4.478 0 0 0-4.518 4.546c-.143 3.323-.1 6.653-.139 9.98v1.281h-3.772v-19.324c1.047 0 2.06-.03 3.067.03.164.011.419.421.434.658a18.538 18.538 0 0 0 .2 2.6c.13-.232.266-.462.39-.7a5.527 5.527 0 0 1 5.4-2.769c.2.034.515.311.523.486.044 1.081.02 2.162.02 3.285z" class="cls-1" transform="translate(-614.2 -3922.687)"/>
            <path id="Path_3181" d="M1056.68 2943.842a72.133 72.133 0 0 1 28.375-17.305l.873 2.69a69.359 69.359 0 0 0-27.491 17.028z" class="cls-1" transform="translate(-994.168 -2816.833)"/>
            <path id="Path_3182" d="M1994.653 2943.838l-1.751 2.417a69.337 69.337 0 0 0-27.485-17.018l.843-2.7a72.007 72.007 0 0 1 28.393 17.301z" class="cls-1" transform="translate(-1828.995 -2816.831)"/>
            <path id="Path_3183" d="M2234.846 4150.206h-3.746c-.028-.343-.079-.679-.079-1.014 0-5.728.016-11.453-.022-17.178-.007-.927.263-1.2 1.188-1.189 2.38.044 2.379 0 2.423 2.427 0 .24.043.48.055.616a24.484 24.484 0 0 1 2.2-2.255 4.822 4.822 0 0 1 3.532-.93c.229.02.61.313.62.5.059 1.077.029 2.158.029 3.207-.653 0-1.195-.046-1.727.008-2.8.287-4.4 2.093-4.451 5.15-.054 3.134-.016 6.269-.019 9.4-.004.382-.003.762-.003 1.258z" class="cls-1" transform="translate(-2072.974 -3923.018)"/>
            <path id="Path_3184" d="M1045.453 2786.3l1 2.574a68.88 68.88 0 0 0-28.436 21.146c.89-2.548 1.7-4.889 2.532-7.222a1.578 1.578 0 0 1 .4-.526 71.44 71.44 0 0 1 24-15.854 3.887 3.887 0 0 1 .504-.118z" class="cls-1" transform="translate(-958.649 -2688.003)"/>
            <path id="Path_3185" d="M2042.459 2809.861a68.934 68.934 0 0 0-28.482-21.2l1-2.6c.385.132.714.226 1.027.356a71.232 71.232 0 0 1 23.258 15.441 3.463 3.463 0 0 1 .761 1.177c.788 2.055 1.531 4.126 2.287 6.192.041.106.055.226.149.634z" class="cls-1" transform="translate(-1873.605 -2687.776)"/>
            <path id="Path_3186" d="M1514.917 2724.2c-.162.846-.278 1.627-.487 2.383-.04.146-.462.3-.681.264-3.442-.5-6.867-1.139-10.322-1.524a56.672 56.672 0 0 0-13.124.159c-2.786.338-5.542.914-8.318 1.342a.9.9 0 0 1-.766-.379 20.279 20.279 0 0 1-.459-2.235 75.939 75.939 0 0 1 34.157-.01z" class="cls-1" transform="translate(-1383.757 -2629.168)"/>
            <path id="Path_3187" d="M1092.177 3016.861c-.191-.263-.309-.41-.409-.569-.39-.618-.774-1.24-1.2-1.927a72.3 72.3 0 0 1 27.443-15.288l.8 2.7a69.565 69.565 0 0 0-26.634 15.084z" class="cls-1" transform="translate(-1025.298 -2883.474)"/>
            <path id="Path_3188" d="M1943.692 3001.788l.805-2.712a72.376 72.376 0 0 1 27.454 15.295l-1.6 2.5a69.539 69.539 0 0 0-26.659-15.083z" class="cls-1" transform="translate(-1809.036 -2883.472)"/>
            <path id="Path_3189" d="M1496.26 2806.121l-.485-2.694a75.086 75.086 0 0 1 31.726-.007 12.97 12.97 0 0 0-.318 1.859c-.022.877-.493.877-1.136.741a68.334 68.334 0 0 0-20.026-1.25c-2.92.251-5.814.81-8.72 1.227-.312.044-.625.075-1.041.124z" class="cls-1" transform="translate(-1397.55 -2702.175)"/>
            <path id="Path_3190" d="M1951.344 3086.308c-.113.245-.181.422-.273.586-.357.638-.721 1.272-1.145 2.016a70.308 70.308 0 0 0-12.166-8.052 71.665 71.665 0 0 0-13.6-5.341l.71-2.739a72.165 72.165 0 0 1 26.474 13.53z" class="cls-1" transform="translate(-1791.094 -2951.181)"/>
            <path id="Path_3191" d="M1151.083 3072.837l.7 2.737a71.269 71.269 0 0 0-13.62 5.352 69.144 69.144 0 0 0-12.123 8.034c-.378-.652-.693-1.277-1.086-1.849-.382-.553-.253-.9.272-1.249 3.3-2.184 6.508-4.534 9.917-6.538a64.717 64.717 0 0 1 15.94-6.487z" class="cls-1" transform="translate(-1056.69 -2951.234)"/>
            <path id="Path_3192" d="M585.279 2765.305l-1.843-1.235c3.211-9.385 18.841-21.439 27.408-21.166a.736.736 0 0 1 .129.225c.322 1.927.316 1.91-1.585 2.37-9.046 2.19-15.948 7.421-21.188 14.992-.527.762-1.022 1.548-1.5 2.341s-.92 1.596-1.421 2.473z" class="cls-1" transform="translate(-559.414 -2648.131)"/>
            <path id="Path_3193" d="M2456.729 2741.054c12.741 2.485 21.441 10.049 27.537 21.232l-1.941 1.329c-.212-.365-.386-.658-.552-.957-4.323-7.784-10.244-13.863-18.617-17.257a36.763 36.763 0 0 0-5.669-1.73c-.99-.225-1.193-.622-1-1.475.074-.308.133-.62.242-1.142z" class="cls-1" transform="translate(-2280.065 -2646.436)"/>
            <path id="Path_3194" d="M1538.442 2883l-.475 2.783a72.664 72.664 0 0 0-28.643.005l-.479-2.781a76.113 76.113 0 0 1 29.597-.007z" class="cls-1" transform="translate(-1409.557 -2775.505)"/>
            <path id="Path_3195" d="M1931.118 3162.94a70.041 70.041 0 0 0-24.861-11.924l.63-2.679c.479.094.91.152 1.326.267a73.707 73.707 0 0 1 23.441 11.081c.689.49.774.862.339 1.529a17.669 17.669 0 0 0-.875 1.726z" class="cls-1" transform="translate(-1774.646 -3020.593)"/>
            <path id="Path_3196" d="M2896.352 2475.108c-1.1-3.562-2.062-7.043-3.25-10.445-2.3-6.6-5.361-12.818-10.017-18.1-1.207-1.368-1.957-2.668-1.631-4.484a4.4 4.4 0 0 0 0-.615c.28.232.5.387.685.571a49.106 49.106 0 0 1 11.054 16.688c1.531 3.678 2.69 7.511 4.055 11.26a4.122 4.122 0 0 1-.151 3.316c-.264.574-.483 1.17-.745 1.809z" class="cls-1" transform="translate(-2670.457 -2371.213)"/>
            <path id="Path_3197" d="M317.677 2441.557c.047.95.115 1.776.114 2.6a1.348 1.348 0 0 1-.276.854c-6.139 6.548-9.783 14.457-12.475 22.876-.764 2.388-1.387 4.821-2.122 7.4-.749-1.812-1.572-3.337-.943-5.371 2.237-7.237 4.9-14.263 9.137-20.6a42.408 42.408 0 0 1 6.565-7.759z" class="cls-1" transform="translate(-300.639 -2371.298)"/>
            <path id="Path_3198" d="M1181.449 3148.321c.078.214.145.358.181.508.163.68.317 1.362.5 2.161a73.627 73.627 0 0 0-12.95 4.7 70.474 70.474 0 0 0-11.895 7.23 18.848 18.848 0 0 1-1.091-2.251c-.079-.228.238-.726.5-.919a66.4 66.4 0 0 1 15-8.271c2.913-1.13 5.928-2 8.9-2.976a7.963 7.963 0 0 1 .855-.182z" class="cls-1" transform="translate(-1085.579 -3020.578)"/>
            <path id="Path_3199" d="M2389.219 2440.1a17.132 17.132 0 0 1 .139-2.063.963.963 0 0 1 .649-.539c10.628-2.4 20.612-.936 29.853 4.995a1.26 1.26 0 0 1 .648 1.509c-.111.489-.167.99-.27 1.623-9.492-6.753-19.829-8.362-31.019-5.525z" class="cls-1" transform="translate(-2218.327 -2366.558)"/>
            <path id="Path_3200" d="M606.71 2445.535c-.08-.125-.134-.173-.14-.226-.31-2.819-.811-2.114 1.745-3.643a36.993 36.993 0 0 1 25.17-4.849c1.041.155 2.064.433 3.107.562a.987.987 0 0 1 1.006 1.205c-.026.443 0 .888 0 1.454-11.152-2.812-21.493-1.204-30.888 5.497z" class="cls-1" transform="translate(-580.429 -2366.517)"/>
            <path id="Path_3201" d="M2426.594 2384.893c-9.793-6.2-20.169-7.164-31.047-3.919a1.857 1.857 0 0 1-.056-.294c.076-1.771.965-2.535 2.758-2.915a38.567 38.567 0 0 1 26.448 3.281c2.124 1.092 2.212 1.276 1.897 3.847z" class="cls-1" transform="translate(-2224.09 -2311.794)"/>
            <path id="Path_3202" d="M633.227 2380.913a38.091 38.091 0 0 0-16.086-1.633 34.52 34.52 0 0 0-15.113 5.565 14.343 14.343 0 0 1 .036-2.324 1.649 1.649 0 0 1 .778-.943 36.144 36.144 0 0 1 13.046-4.527 40.994 40.994 0 0 1 15.325.794 2.018 2.018 0 0 1 1.811 1.913c.042.315.11.627.203 1.155z" class="cls-1" transform="translate(-576.467 -2311.676)"/>
            <path id="Path_3203" d="M1521.158 2965.588l-.413-2.632c4.179-1.824 22.218-1.867 27.639-.056l-.32 2.379c-4.556-.328-9-.791-13.448-.927a60.881 60.881 0 0 0-13.458 1.236z" class="cls-1" transform="translate(-1420.489 -2849.012)"/>
            <path id="Path_3204" d="M2063.9 2736.724a69.164 69.164 0 0 0-22.775-16.167l1.086-2.594c.382.153.674.258.956.385a70.434 70.434 0 0 1 18.961 12.5 3.249 3.249 0 0 1 .84 1.51c.357 1.352.595 2.732.932 4.366z" class="cls-1" transform="translate(-1898.547 -2625.223)"/>
            <path id="Path_3205" d="M1060.912 2737.251c.346-1.779.633-3.336.963-4.883a1.492 1.492 0 0 1 .463-.7 71.533 71.533 0 0 1 19.777-12.988 2.829 2.829 0 0 1 .45-.1l1.1 2.527a69.036 69.036 0 0 0-22.753 16.144z" class="cls-1" transform="translate(-998.055 -2625.787)"/>
            <path id="Path_3206" d="M1209.005 3223.812a7.542 7.542 0 0 1 .228.73c.122.621.227 1.245.358 1.978a70.209 70.209 0 0 0-23.9 10.612 21.981 21.981 0 0 1-1-2.31c-.065-.208.245-.681.5-.822 3.684-2.041 7.274-4.307 11.12-5.985 3.813-1.663 7.888-2.724 11.85-4.042a6.98 6.98 0 0 1 .844-.161z" class="cls-1" transform="translate(-1111.762 -3089.93)"/>
            <path id="Path_3207" d="M1914.462 3236.167a70.212 70.212 0 0 0-23.918-10.614l.558-2.8c1.63.443 3.169.829 4.687 1.281a73.018 73.018 0 0 1 19.044 8.86c.686.445.842.824.423 1.524a17.011 17.011 0 0 0-.794 1.749z" class="cls-1" transform="translate(-1760.211 -3088.96)"/>
            <path id="Path_3208" d="M2418.52 2506.057c-8.911-6.9-18.81-8.99-29.567-6.956-.1-.131-.135-.153-.14-.181-.383-2.138-.386-2.157 2.066-2.5a37.208 37.208 0 0 1 23.88 4.281c1.2.666 2.306 1.491 3.484 2.2a1.217 1.217 0 0 1 .648 1.725 10.221 10.221 0 0 0-.371 1.431z" class="cls-1" transform="translate(-2217.782 -2421.314)"/>
            <path id="Path_3209" d="M1495.479 2251.135a47.331 47.331 0 0 1 31.45.082 16.572 16.572 0 0 1-1.773 1.637 1.542 1.542 0 0 1-1.143.029 44.786 44.786 0 0 0-14-1.9 40.749 40.749 0 0 0-11.413 1.823 1.86 1.86 0 0 1-2.34-.588 5.49 5.49 0 0 0-.964-.776z" class="cls-1" transform="translate(-1397.11 -2193.93)"/>
            <path id="Path_3210" d="M618.934 2506.183c-.115-.08-.155-.093-.164-.116-.8-2.221-.8-2.225 1.132-3.523a36.431 36.431 0 0 1 22.322-6.271c1.847.077 3.681.409 5.527.551.8.062.96.444.872 1.125-.052.408-.055.823-.09 1.412a37.433 37.433 0 0 0-15.618.089 34.828 34.828 0 0 0-13.981 6.733z" class="cls-1" transform="translate(-591.41 -2421.531)"/>
            <path id="Path_3211" d="M332.241 2552.555a22.768 22.768 0 0 1-1.491-1.754 1.329 1.329 0 0 1-.174-.973c2.543-9.8 6.167-19.084 12.852-26.9.353-.413.725-.81 1.092-1.211.063-.068.142-.121.312-.263.257.786.527 1.511.717 2.257a.914.914 0 0 1-.261.655c-6.359 7.364-9.889 16.1-12.331 25.367-.226.854-.436 1.715-.716 2.822z" class="cls-1" transform="translate(-327.093 -2444.692)"/>
            <path id="Path_3212" d="M2880.8 2553.221c-1-3.316-1.85-6.517-2.919-9.644a55.057 55.057 0 0 0-10.118-18.36 1.652 1.652 0 0 1-.217-1.171 10.264 10.264 0 0 1 .485-1.644c.008-.027.044-.045.127-.127a6.688 6.688 0 0 1 .514.462 54.1 54.1 0 0 1 10.688 18.247c1.05 2.873 1.825 5.846 2.82 8.741a2.282 2.282 0 0 1-.686 2.722 10.352 10.352 0 0 0-.694.774z" class="cls-1" transform="translate(-2657.731 -2445.452)"/>
            <path id="Path_3213" d="M818.764 4152.082h-3.669v-19.311h3.669z" class="cls-1" transform="translate(-772.231 -3924.96)"/>
            <path id="Path_3214" d="M1531.116 3044.447l-.367-2.793a74.165 74.165 0 0 1 26.029-.008c-.122.956-.234 1.824-.357 2.8a71.494 71.494 0 0 0-25.305.001z" class="cls-1" transform="translate(-1429.679 -2921.526)"/>
            <path id="Path_3215" d="M1209.884 3312.042l-1.045-2.762a72.589 72.589 0 0 1 23.608-9.542l.507 2.767a70.13 70.13 0 0 0-23.07 9.537z" class="cls-1" transform="translate(-1133.951 -3159.679)"/>
            <path id="Path_3216" d="M1900 3312.156a70.051 70.051 0 0 0-23.009-9.517c.038-.409.047-.757.107-1.1.093-.529.22-1.051.354-1.679a72.39 72.39 0 0 1 23.586 9.527z" class="cls-1" transform="translate(-1747.757 -3159.795)"/>
            <path id="Path_3217" d="M630.848 2826.1l-1.962-.882c2.743-7.333 17.142-18.177 24.232-18.2-.041.63-.042 1.261-.145 1.876a.835.835 0 0 1-.5.54c-9.36 2.569-16.257 8.336-21.383 16.415a2.271 2.271 0 0 1-.242.251z" class="cls-1" transform="translate(-601.167 -2707.028)"/>
            <path id="Path_3218" d="M2478.893 2823.408l-2.093.948c-.982-1.366-1.887-2.721-2.888-4a34.58 34.58 0 0 0-18.458-12.548 1 1 0 0 1-.891-1.122c.015-.473 0-.946 0-1.574 10.787 2.598 18.545 8.988 24.33 18.296z" class="cls-1" transform="translate(-2278.356 -2705.286)"/>
            <path id="Path_3219" d="M665.921 2558.162c-10.151-1.122-19.221 1.289-27.2 7.82a12 12 0 0 1-.679-1.887 1.169 1.169 0 0 1 .442-.891 35.6 35.6 0 0 1 15.759-7.068 40.555 40.555 0 0 1 11.276-.4c.741.069.973.312.735 1.024-.143.421-.21.865-.333 1.402z" class="cls-1" transform="translate(-609.571 -2475.994)"/>
            <path id="Path_3220" d="M2422.632 2565.8c-1.341-.944-2.577-1.9-3.891-2.727a33.969 33.969 0 0 0-19.978-5.256c-.894.038-1.79.093-2.675.206-.537.068-.771-.13-.858-.621-.05-.283-.12-.562-.185-.843-.133-.576.01-.869.682-.938a37.3 37.3 0 0 1 21.481 3.854c1.89.986 3.616 2.283 5.435 3.409a1.1 1.1 0 0 1 .5 1.659 12.139 12.139 0 0 0-.511 1.257z" class="cls-1" transform="translate(-2223.638 -2475.879)"/>
            <path id="Path_3221" d="M368.275 2613.345a11.762 11.762 0 0 1-1.507-.939 1.049 1.049 0 0 1-.335-.859c2.6-9.356 6.21-18.217 12.721-25.634.125-.144.245-.292.466-.556.37.747.717 1.374.984 2.034a.814.814 0 0 1-.186.66c-6.009 7.13-9.447 15.5-11.837 24.39-.071.267-.181.526-.306.904z" class="cls-1" transform="translate(-360.048 -2503.402)"/>
            <path id="Path_3222" d="M2841.113 2585.649a46.192 46.192 0 0 1 6.393 8.9 76.153 76.153 0 0 1 6.809 17.132.811.811 0 0 1-.411 1.1c-.444.245-.872.518-1.432.853-.3-1.048-.577-2.008-.856-2.967a63.34 63.34 0 0 0-9.077-19.539 27.406 27.406 0 0 0-1.956-2.485 1.13 1.13 0 0 1-.161-1.6 12.926 12.926 0 0 0 .691-1.394z" class="cls-1" transform="translate(-2632.595 -2503.67)"/>
            <path id="Path_3223" d="M1564.085 3121.242c-.1.987-.191 1.862-.289 2.813a72.324 72.324 0 0 0-24 0c-.1-.932-.2-1.8-.312-2.8a75.431 75.431 0 0 1 24.601-.013z" class="cls-1" transform="translate(-1437.707 -2994.783)"/>
            <path id="Path_3224" d="M611.95 2323.427c.393-.9.758-1.813 1.2-2.689a1.439 1.439 0 0 1 .717-.57 36.2 36.2 0 0 1 17.536-2.735c2.22.209 4.413.69 6.624 1a2.79 2.79 0 0 1 2.506 2.005c.135.414.35.8.6 1.37-10.01-3.265-19.644-2.918-29.183 1.619z" class="cls-1" transform="translate(-585.609 -2257.12)"/>
            <path id="Path_3225" d="M2441.994 2323.47c-9.4-4.651-18.985-5.013-28.782-1.827a3.374 3.374 0 0 1 2.425-3.15 38.3 38.3 0 0 1 23.465 1.126c1.843.688 2.559 1.623 2.892 3.851z" class="cls-1" transform="translate(-2240.369 -2257.031)"/>
            <path id="Path_3226" d="M1547.428 3203.7c-.092-.895-.168-1.59-.231-2.288a3.431 3.431 0 0 1 .039-.521 76.012 76.012 0 0 1 23.336 0l-.236 2.8a73.994 73.994 0 0 0-22.908.009z" class="cls-1" transform="translate(-1444.787 -3068.05)"/>
            <path id="Path_3227" d="M1096.981 2652.991l1.164 2.48a69.628 69.628 0 0 0-18.9 13.49c.159-1.616.279-2.967.441-4.312.022-.187.232-.375.393-.518a71.345 71.345 0 0 1 16.589-11.111 1.316 1.316 0 0 1 .313-.029z" class="cls-1" transform="translate(-1014.897 -2565.536)"/>
            <path id="Path_3228" d="M2069.843 2653.367l1.27-2.669c2.337 1.316 4.689 2.43 6.81 3.881 3.294 2.256 6.429 4.745 9.636 7.128a1.891 1.891 0 0 1 .833 1.6c.031 1.08.226 2.154.391 3.57a69.76 69.76 0 0 0-18.94-13.51z" class="cls-1" transform="translate(-1924.927 -2563.428)"/>
            <path id="Path_3229" d="M1575.541 3283.559a73.742 73.742 0 0 0-22.21.014 21.33 21.33 0 0 1 .032-2.34.939.939 0 0 1 .66-.591c1.9-.238 3.81-.489 5.723-.593a80.415 80.415 0 0 1 15.133.55c.6.081.946.229.807.953a16.684 16.684 0 0 0-.145 2.007z" class="cls-1" transform="translate(-1450.409 -3141.473)"/>
            <path id="Path_3230" d="M408.244 2667.054l-2.132-.736c2.315-8.962 6.031-17.087 12.38-24a17.053 17.053 0 0 1 1.029 1.706.926.926 0 0 1-.138.812 52.193 52.193 0 0 0-10.875 21.522 7.435 7.435 0 0 1-.264.696z" class="cls-1" transform="translate(-396.512 -2555.73)"/>
            <path id="Path_3231" d="M2820.417 2666.287c-.539.195-.951.354-1.372.492-.237.078-.485.12-.833.2-2.157-8.391-5.629-16.093-11.46-22.611l1.288-2.082c6.345 6.914 10.06 15.025 12.377 24.001z" class="cls-1" transform="translate(-2601.902 -2555.705)"/>
            <path id="Path_3232" d="M1395.128 2029.222a17.118 17.118 0 0 1-.451-2.2c-.018-.228.314-.577.57-.72a45.326 45.326 0 0 1 14.147-5.189c2.756-.492 5.554-.753 8.441-1.133l.251 2.645a46.929 46.929 0 0 0-22.958 6.597z" class="cls-1" transform="translate(-1304.674 -1984.012)"/>
            <path id="Path_3233" d="M1719.555 2031.279a49.232 49.232 0 0 0-11.091-4.788 45.808 45.808 0 0 0-11.8-1.772l.19-2.47c1.275.068 2.511.083 3.736.207a50.042 50.042 0 0 1 18.4 5.6 1.486 1.486 0 0 1 .9 2.08c-.109.33-.195.664-.335 1.143z" class="cls-1" transform="translate(-1582.104 -1986.092)"/>
            <path id="Path_3234" d="M1392.406 1956.668c.106-1.081.153-1.928.293-2.759.037-.22.328-.45.557-.576a48.5 48.5 0 0 1 18.044-5.789c1.08-.121 2.17-.157 3.248-.29.572-.07.866.09.873.675.008.568 0 1.135 0 1.783a47.392 47.392 0 0 0-23.015 6.956z" class="cls-1" transform="translate(-1302.588 -1917.184)"/>
            <path id="Path_3235" d="M1725.493 1957.491a47.352 47.352 0 0 0-22.937-6.961c-.064-.12-.09-.146-.093-.174-.228-2.232-.165-2.329 2.043-2.185a48.077 48.077 0 0 1 20.139 5.994 1.4 1.4 0 0 1 .59.863c.144.712.165 1.45.258 2.463z" class="cls-1" transform="translate(-1587.347 -1918.001)"/>
            <path id="Path_3236" d="M2904.826 2411.78a35.179 35.179 0 0 1 3.784 2.676 36.935 36.935 0 0 1 9.745 15.732 22.589 22.589 0 0 1 1.378 10.267c-.024.19-.031.383-.067.57a3.68 3.68 0 0 1-.17.467c-2.684-11.044-6.866-21.216-14.934-29.412z" class="cls-1" transform="translate(-2691.756 -2343.943)"/>
            <path id="Path_3237" d="M303.452 2414.04a50.526 50.526 0 0 0-9.479 13.633 75.723 75.723 0 0 0-5.451 15.682l-.282-.01a28.966 28.966 0 0 1-.1-4.131 37.594 37.594 0 0 1 10.389-21.938 11.255 11.255 0 0 1 4.923-3.236z" class="cls-1" transform="translate(-288.083 -2346.019)"/>
            <path id="Path_3238" d="M699.078 2873.466c-.141.915-.218 1.635-.382 2.336-.044.19-.326.386-.54.464a35.718 35.718 0 0 0-16.227 12.24 1.885 1.885 0 0 1-.162.144l-2.349-.7a37.949 37.949 0 0 1 19.66-14.484z" class="cls-1" transform="translate(-647.59 -2768.078)"/>
            <path id="Path_3239" d="M2479.722 2888.063a13.691 13.691 0 0 1-2.022.574 1.223 1.223 0 0 1-.86-.5 35.282 35.282 0 0 0-9.789-8.8 45.972 45.972 0 0 0-5.407-2.653c-.868-.366-1.384-.785-1.412-1.738-.012-.405-.081-.81-.138-1.356a37.833 37.833 0 0 1 19.628 14.473z" class="cls-1" transform="translate(-2283.437 -2768.197)"/>
            <path id="Path_3240" d="M1103 2588.949l1.329 2.538a69.218 69.218 0 0 0-15.64 11.446c0-1.3-.013-2.522.014-3.747a.891.891 0 0 1 .3-.557 70.565 70.565 0 0 1 13.997-9.68z" class="cls-1" transform="translate(-1023.566 -2506.702)"/>
            <path id="Path_3241" d="M2116.249 2603.048a69.969 69.969 0 0 0-15.7-11.495l1.323-2.531a70.655 70.655 0 0 1 11.208 7.317 5.529 5.529 0 0 0 .823.658c2.546 1.291 2.519 3.585 2.346 6.051z" class="cls-1" transform="translate(-1953.139 -2506.769)"/>
            <path id="Path_3242" d="M1427.952 1872.659l.249 2.332a47.6 47.6 0 0 0-21.52 6.277c.861-1.9 1.218-3.654 3.284-4.515a51.186 51.186 0 0 1 16.947-4.158c.224-.012.448-.02.671-.016a2.315 2.315 0 0 1 .369.08z" class="cls-1" transform="translate(-1315.702 -1848.595)"/>
            <path id="Path_3243" d="M1729.484 1880.688a47.487 47.487 0 0 0-21.422-6.27 1.186 1.186 0 0 1-.066-.313c.068-.664.147-1.325.242-2.158 1.386.108 2.751.148 4.1.33a52.408 52.408 0 0 1 13.793 3.878 4.166 4.166 0 0 1 2.491 2.441c.228.62.501 1.223.862 2.092z" class="cls-1" transform="translate(-1592.509 -1848.016)"/>
            <path id="Path_3244" d="M1558.137 2325.273a46.818 46.818 0 0 1 21.35 0c-.867.676-1.568 1.268-2.322 1.782a1.344 1.344 0 0 1-.893.1 43.2 43.2 0 0 0-14.7-.016 1.7 1.7 0 0 1-1.566-.39c-.545-.48-1.135-.905-1.869-1.476z" class="cls-1" transform="translate(-1454.84 -2263.337)"/>
            <path id="Path_3245" d="M2468.65 2684.358c.709-2.328.708-2.325 2.964-1.836a36.166 36.166 0 0 1 14.4 6.691c.25.19.483.4.76.636-.29.542-.554 1.046-.83 1.543-.09.163-.211.309-.354.513a34.514 34.514 0 0 0-16.94-7.547z" class="cls-1" transform="translate(-2291.298 -2592.426)"/>
            <path id="Path_3246" d="M690.482 2691.506l-1.15-2.09a33.849 33.849 0 0 1 7.272-4.628 38.844 38.844 0 0 1 8.888-2.939c.9-.187 1.315.022 1.56.833.119.393.276.774.441 1.23a34.571 34.571 0 0 0-17.011 7.594z" class="cls-1" transform="translate(-656.697 -2591.988)"/>
            <path id="Path_3247" d="M2148.081 2541.035l-12.8-9.771 1.286-2.163c.293.148.548.258.784.4a73.119 73.119 0 0 1 10.282 7.507 1.578 1.578 0 0 1 .622 1.484c-.095.89-.126 1.784-.174 2.543z" class="cls-1" transform="translate(-1985.039 -2451.722)"/>
            <path id="Path_3248" d="M1086.99 2540.869c-.082-1.271-.169-2.342-.2-3.413a.954.954 0 0 1 .281-.657 68.908 68.908 0 0 1 11.382-8.3l1.466 2.485a70.247 70.247 0 0 0-12.929 9.885z" class="cls-1" transform="translate(-1021.824 -2451.17)"/>
            <path id="Path_3249" d="M1825.579 1600.132a3.172 3.172 0 0 0-.8.4c-1 1.03-1.833.583-2.862-.088a44.478 44.478 0 0 0-14.839-6.212c-.217-.048-.428-.125-.647-.189a3.532 3.532 0 0 1 3.894-1.471 50.3 50.3 0 0 1 14.829 7.206c.125.091.237.199.425.354z" class="cls-1" transform="translate(-1682.937 -1591.243)"/>
            <path id="Path_3250" d="M1355.7 1592.862a47.549 47.549 0 0 0-17.244 7.363l-2.25-1.362a62.279 62.279 0 0 1 5.616-3.375c3.136-1.479 6.4-2.677 9.585-4.061a2.669 2.669 0 0 1 2.84.411c.414.293.827.581 1.453 1.024z" class="cls-1" transform="translate(-1250.962 -1590.088)"/>
            <path id="Path_3251" d="M2499.43 2627.528c.786-.708 1.356-1.255 1.968-1.749a.922.922 0 0 1 .689-.132 35.813 35.813 0 0 1 15.141 7.288 1.178 1.178 0 0 1 .147.226l-.99 2.109a35.266 35.266 0 0 0-16.955-7.742z" class="cls-1" transform="translate(-2319.575 -2540.398)"/>
            <path id="Path_3252" d="M662.492 2635.508c-.119-.12-.183-.157-.206-.211-1.05-2.429-1.359-1.6.757-3.192a36.307 36.307 0 0 1 13.036-6.059 1.834 1.834 0 0 1 1.962.522 11.386 11.386 0 0 1 1.2 1.114 37 37 0 0 0-16.749 7.826z" class="cls-1" transform="translate(-631.102 -2540.701)"/>
            <path id="Path_3253" d="M547.748 2805.715a1.127 1.127 0 0 1-.2-.068c-1.737-1.432-1.75-1.439-.72-3.427a44.059 44.059 0 0 1 8.69-11.733c.252-.24.511-.473.873-.807l1.514 1.813a42.4 42.4 0 0 0-10.157 14.222z" class="cls-1" transform="translate(-525.142 -2691.107)"/>
            <path id="Path_3254" d="M2688.1 2789.611l1.952-1.845c.765.9 1.458 1.769 2.212 2.584a47.3 47.3 0 0 1 7.64 11.2.911.911 0 0 1-.174 1.261c-.4.365-.725.8-1.207 1.346a43.12 43.12 0 0 0-10.423-14.546z" class="cls-1" transform="translate(-2492.899 -2689.348)"/>
            <path id="Path_3255" d="M523.85 2744.207l1.537 1.78a44.089 44.089 0 0 0-9.7 14.771c-.462-.925-.86-1.649-1.182-2.406a1.125 1.125 0 0 1 .047-.816 44.6 44.6 0 0 1 9.298-13.329z" class="cls-1" transform="translate(-496.037 -2649.333)"/>
            <path id="Path_3256" d="M2731.951 2745.636l1.555-1.818c.934 1.017 1.864 1.965 2.721 2.974a44.933 44.933 0 0 1 6.054 9.309c.815 1.658.669 2.524-.708 4.092a44.124 44.124 0 0 0-9.622-14.557z" class="cls-1" transform="translate(-2533.184 -2648.975)"/>
            <path id="Path_3257" d="M1089.788 2471.764l1.491 2.22-10.334 8.364c-.106-.991-.233-2.08-.324-3.171a.705.705 0 0 1 .229-.491 67.68 67.68 0 0 1 8.938-6.922z" class="cls-1" transform="translate(-1016.16 -2399.048)"/>
            <path id="Path_3258" d="M2169.787 2473.674l1.513-2.243c1.238.874 2.442 1.65 3.563 2.529 1.76 1.379 3.48 2.809 5.175 4.265a1.455 1.455 0 0 1 .369 1.042c-.037.946-.181 1.887-.278 2.776z" class="cls-1" transform="translate(-2016.743 -2398.742)"/>
            <path id="Path_3259" d="M2020.5 1973.4a56.932 56.932 0 0 1 12.213 10.937l-1.814 1.949a5.779 5.779 0 0 0-.609-.942c-2.3-2.261-4.624-4.5-6.935-6.758a3.3 3.3 0 0 1-.673-.78c-.743-1.44-1.446-2.906-2.182-4.406z" class="cls-1" transform="translate(-1879.594 -1941.218)"/>
            <path id="Path_3260" d="M1209.179 1984.455a56.578 56.578 0 0 1 12.12-10.819c-.737 1.515-1.465 3.026-2.212 4.528a2.041 2.041 0 0 1-.44.491q-3.674 3.58-7.353 7.155c-.133.129-.271.254-.536.5z" class="cls-1" transform="translate(-1134.263 -1941.434)"/>
            <path id="Path_3261" d="M1782.348 2496.922c1.176-.628 2.38-1.282 3.6-1.91a1.178 1.178 0 0 1 .722-.148c3.2.725 6.392 1.474 9.585 2.221a2.019 2.019 0 0 1 .343.174l-.732 2.394z" class="cls-1" transform="translate(-1660.815 -2420.256)"/>
            <path id="Path_3262" d="M1423.355 2498.652c2.036-.518 4-1.044 5.973-1.507a29.422 29.422 0 0 1 3.48-.622 3.423 3.423 0 0 1 1.7.262c1.1.492 2.139 1.115 3.142 1.651l-13.487 2.741z" class="cls-1" transform="translate(-1331.02 -2421.777)"/>
            <path id="Path_3263" d="M743.082 2959.773c2.266-3.267 9.905-8.791 13.261-9.568-.236.867-.413 1.7-.705 2.485a1.571 1.571 0 0 1-.753.665 33.923 33.923 0 0 0-8.309 6.1 1.978 1.978 0 0 1-2.1.647c-.452-.123-.908-.217-1.394-.329z" class="cls-1" transform="translate(-706.076 -2838.575)"/>
            <path id="Path_3264" d="M2474.374 2948.4a37.357 37.357 0 0 1 13.278 9.558 2.687 2.687 0 0 1-3.594-.324 34.286 34.286 0 0 0-7.708-5.654 2.448 2.448 0 0 1-1.555-1.969 13.455 13.455 0 0 0-.421-1.611z" class="cls-1" transform="translate(-2296.557 -2836.921)"/>
            <path id="Path_3265" d="M1944.951 1588.734c-1.365-.368-2.769-.74-4.167-1.131a1.306 1.306 0 0 1-.479-.307 51.855 51.855 0 0 0-12.358-8.258c4.992-.355 14.147 4.912 17.004 9.696z" class="cls-1" transform="translate(-1794.572 -1578.915)"/>
            <path id="Path_3266" d="M1239.261 1587.641c4.571-5.462 9.918-9.182 17.287-9.932-.4.247-.583.382-.784.48a52.319 52.319 0 0 0-11.278 7.556 4.761 4.761 0 0 1-1.581.764c-1.136.391-2.293.717-3.644 1.132z" class="cls-1" transform="translate(-1161.899 -1577.709)"/>
            <path id="Path_3267" d="M2774.588 2693.905c1.437 1.839 2.851 3.556 4.157 5.352.823 1.132 1.421 2.429 2.238 3.565 1.389 1.929 1.167 4 .732 6.365-.223-.414-.361-.633-.465-.868a42.941 42.941 0 0 0-7.6-11.779c-.427-.464-.508-.814-.067-1.294.325-.346.577-.761 1.005-1.341z" class="cls-1" transform="translate(-2571.164 -2603.121)"/>
            <path id="Path_3268" d="M507.166 2695.192c1.636 1.732 1.628 1.726.273 3.3a43.934 43.934 0 0 0-6.759 10.739 3.806 3.806 0 0 1-.55.933c-.273-1.654-.759-3.311.068-4.941a41.83 41.83 0 0 1 6.265-9.134c.254-.277.468-.589.703-.897z" class="cls-1" transform="translate(-482.523 -2604.304)"/>
            <path id="Path_3269" d="M1172.471 1734.766c1.133-7.107 7.522-14.255 13.2-14.714-2.344 2.287-4.87 4.511-7.1 7s-4.148 5.218-6.1 7.714z" class="cls-1" transform="translate(-1100.541 -1708.475)"/>
            <path id="Path_3270" d="M2039.317 1719.776c6 .421 12.349 7.5 13.683 15.209a57.619 57.619 0 0 0-13.683-15.209z" class="cls-1" transform="translate(-1896.884 -1708.221)"/>
            <path id="Path_3271" d="M2472.713 2264.573a37.59 37.59 0 0 0-20.119.769c3.023-4.758 14.665-5.242 20.119-.769z" class="cls-1" transform="translate(-2276.548 -2205.866)"/>
            <path id="Path_3272" d="M703.067 2264.617a37.652 37.652 0 0 0-20.021-.832c4.071-4.485 15.984-4.063 20.021.832z" class="cls-1" transform="translate(-650.923 -2205.12)"/>
            <path id="Path_3273" d="M2214.636 2427.931l-8.02-6.964 1.742-2.246c1.742 1.438 3.385 2.9 5.138 4.208 1.391 1.041 2 2.2 1.331 3.9a5.392 5.392 0 0 0-.191 1.102z" class="cls-1" transform="translate(-2050.576 -2350.319)"/>
            <path id="Path_3274" d="M1070.579 2427.4c-.177-1.04-.374-2.062-.505-3.092a.9.9 0 0 1 .328-.635c2.094-1.826 4.2-3.634 6.408-5.531l1.8 2.288z" class="cls-1" transform="translate(-1006.47 -2349.791)"/>
            <path id="Path_3275" d="M1643.685 4054.261c.623-2.336 1.237-4.672 1.882-7a.713.713 0 0 1 .481-.443c1.042-.042 2.088-.021 3.268-.021l-1.3 4.313c-.1.335-.222.666-.325 1-.774 2.502-1.202 2.74-4.006 2.151z" class="cls-1" transform="translate(-1533.43 -3845.975)"/>
            <path id="Path_3276" d="M2245.57 2374.545l2.014-2.117c1.5 1.39 2.967 2.737 4.406 4.116a.892.892 0 0 1 .091.7c-.192.893-.428 1.777-.675 2.774z" class="cls-1" transform="translate(-2086.362 -2307.791)"/>
            <path id="Path_3277" d="M1062.035 2374.545l-5.824 5.471c-.252-1.04-.5-2-.7-2.978a.754.754 0 0 1 .2-.59c1.409-1.335 2.838-2.65 4.321-4.024z" class="cls-1" transform="translate(-993.083 -2307.788)"/>
            <path id="Path_3278" d="M2054.937 2073.222l6.1 5.381a1.607 1.607 0 0 1-.142.235c-1.85 1.351-1.849 1.351-3.519-.193a5.137 5.137 0 0 0-.933-.822c-1.818-.985-1.89-2.577-1.506-4.601z" class="cls-1" transform="translate(-1911.061 -2032.921)"/>
            <path id="Path_3279" d="M1251.735 2074.846c0 .824.037 1.652-.022 2.473a1.346 1.346 0 0 1-.456.761c-.979.914-2.021 1.764-2.968 2.709a.936.936 0 0 1-1.4.163c-.44-.3-.917-.555-1.542-.927l6.089-5.365z" class="cls-1" transform="translate(-1167.49 -2034.241)"/>
            <path id="Path_3280" d="M1406.235 2440.426c-.98-2.667-.947-2.618 1.574-3.464 1.454-.487 2.68-.52 3.8.664a8.431 8.431 0 0 0 1.286.91z" class="cls-1" transform="translate(-1314.743 -2366.784)"/>
            <path id="Path_3281" d="M1893.755 2438.78l-6.7-1.89c.968-.7 1.834-1.335 2.713-1.952a.6.6 0 0 1 .447-.088c1.256.345 2.512.695 3.753 1.093a.69.69 0 0 1 .3.589c-.126.744-.33 1.475-.513 2.248z" class="cls-1" transform="translate(-1757.008 -2365.124)"/>
            <path id="Path_3282" d="M818.96 4047.46v3.8h-3.673v-3.8z" class="cls-1" transform="translate(-772.408 -3846.588)"/>
            <path id="Path_3283" d="M2287.337 2335.091l2.371-1.909c.723.781 1.443 1.5 2.082 2.286a1.206 1.206 0 0 1 .115.938c-.21.8-.509 1.569-.692 2.11z" class="cls-1" transform="translate(-2124.732 -2271.737)"/>
            <path id="Path_3284" d="M1039.137 2333.589l2.315 1.874-3.714 3.887c-.343-1.047-.675-1.983-.94-2.938a.888.888 0 0 1 .266-.654c.642-.706 1.315-1.382 2.073-2.169z" class="cls-1" transform="translate(-975.895 -2272.111)"/>
            <path id="Path_3285" d="M1647.369 2401h6.785l.071.22c-1.06.686-2.112 1.384-3.187 2.045a.694.694 0 0 1-.6-.015c-1.05-.65-2.078-1.335-3.114-2.008z" class="cls-1" transform="translate(-1536.77 -2334.035)"/>
            <path id="Path_3286" d="M820.508 3040.229l4.448-3.18.249.206c-.48 1.056-.937 2.124-1.465 3.156-.084.164-.489.239-.741.229-.792-.027-1.583-.115-2.374-.179z" class="cls-1" transform="translate(-777.204 -2918.356)"/>
            <path id="Path_3287" d="M2507.835 3040.6c-.377.025-.755.05-1.132.077-2.24.161-1.7.564-2.762-1.661-.253-.531-.437-1.095-.652-1.644l.21-.179 4.447 3.177z" class="cls-1" transform="translate(-2323.119 -2918.487)"/>
            <path id="Path_3288" d="M1015.662 2310.876c-.419-.955-.79-1.762-1.123-2.585a1.611 1.611 0 0 1 .009-.6 1.771 1.771 0 0 1 .614.056c.713.348 1.406.734 2.224 1.168z" class="cls-1" transform="translate(-955.427 -2248.319)"/>
            <path id="Path_3289" d="M2333.359 2310.4l-1.729-1.943c.849-.441 1.619-.85 2.4-1.236.116-.057.4-.037.414 0a1 1 0 0 1 .039.6c-.334.831-.708 1.64-1.124 2.579z" class="cls-1" transform="translate(-2165.422 -2247.86)"/>
            <path id="Path_3290" d="M2408.337 2615.421h3.351l-2.359 2.212z" class="cls-1" transform="translate(-2235.891 -2531.021)"/>
            <path id="Path_3291" d="M934.755 2615.537l-.978 2.207-2.353-2.207z" class="cls-1" transform="translate(-879.099 -2531.127)"/>
            <path id="Path_3292" d="M1299.115 2147.726l2.283-1.778.777 2.767z" class="cls-1" transform="translate(-1216.885 -2099.731)"/>
            <path id="Path_3293" d="M2043.313 2145.709l2.266 1.788-3.008 1.014.742-2.802z" class="cls-1" transform="translate(-1899.873 -2099.512)"/>
            <path id="Path_3294" d="M1964.535 2378.3c-.1.736-.208 1.566-.334 2.522l-1.844-.587z" class="cls-1" transform="translate(-1826.183 -2313.183)"/>
            <path id="Path_3295" d="M1392.833 2379.765l-.315-2.652 1.881 2.108z" class="cls-1" transform="translate(-1302.691 -2312.095)"/>
        </g>
    </g>
</svg>
