<svg xmlns="http://www.w3.org/2000/svg" width="179.918" height="199.975" viewBox="0 0 179.918 199.975">
    <defs>
        <style>
            .cls-2{fill:#dedede}.cls-3{fill:#c4c924}.cls-4{fill:#b7bf39}
        </style>
    </defs>
    <g id="Group_689" transform="translate(-219.801 -4516.262)">
        <g id="Group_372" transform="rotate(21 -19321.655 1089.8)">
            <rect id="Rectangle_167" width="105.709" height="147.195" fill="#ebebeb" rx="12" transform="translate(225.635 -2743.464)"/>
            <g id="Group_371" transform="translate(233.127 -2737.47)">
                <circle id="Ellipse_196" cx="21.471" cy="21.471" r="21.471" class="cls-2"/>
                <circle id="Ellipse_197" cx="21.471" cy="21.471" r="21.471" class="cls-2" transform="translate(48.947)"/>
                <circle id="Ellipse_198" cx="21.471" cy="21.471" r="21.471" class="cls-2" transform="translate(0 45.956)"/>
                <circle id="Ellipse_199" cx="21.471" cy="21.471" r="21.471" class="cls-2" transform="translate(48.947 45.956)"/>
                <circle id="Ellipse_200" cx="21.471" cy="21.471" r="21.471" class="cls-2" transform="translate(0 91.906)"/>
                <circle id="Ellipse_201" cx="21.471" cy="21.471" r="21.471" class="cls-2" transform="translate(48.947 91.906)"/>
            </g>
        </g>
        <g id="Group_373" transform="rotate(180 135.15 2285.131)">
            <path id="Path_884" d="M.457 14.028c1.9.09 9.062 1.172 9.259 12.426a.484.484 0 0 0 .482.478.483.483 0 0 0 .482-.478c.2-11.254 7.363-12.336 9.26-12.426a.48.48 0 0 0 .457-.482v-.161a.481.481 0 0 0-.457-.482c-1.9-.089-9.063-1.172-9.26-12.425A.483.483 0 0 0 10.2 0a.485.485 0 0 0-.482.479C9.519 11.732 2.353 12.815.457 12.9a.481.481 0 0 0-.457.486v.161a.48.48 0 0 0 .457.481z" class="cls-3" transform="translate(8.884 -1.466)"/>
        </g>
        <path id="Path_2171" d="M.853 26.2c3.543.167 16.927 2.189 17.3 23.208a.9.9 0 0 0 .9.893.9.9 0 0 0 .9-.893C20.318 28.389 33.7 26.366 37.244 26.2a.9.9 0 0 0 .853-.9V25a.9.9 0 0 0-.853-.9C33.7 23.935 20.318 21.912 19.95.893a.9.9 0 0 0-.9-.893.9.9 0 0 0-.9.893C17.78 21.912 4.4 23.935.853 24.1A.9.9 0 0 0 0 25v.3a.9.9 0 0 0 .853.9z" class="cls-3" transform="rotate(180 199.86 2336.372)"/>
        <g id="Group_378" transform="rotate(56.01 -6141.229 918.988)">
            <g id="Group_377" transform="translate(525.556 -2307.591)">
                <path id="Path_2173" d="M525.556-2096.165l7.959-.476a5.332 5.332 0 0 1 5.986 5.168 5.284 5.284 0 0 1-2.826 5.243l3.747 6.784-3.8.227-3.418-6.327-3.479.208.388 6.483-3.5.209zm8.169 7.223c1.5-.09 2.356-.919 2.273-2.321-.082-1.377-1.03-2.1-2.531-2.009l-4.2.251.259 4.33z" class="cls-4" transform="translate(-525.556 2127.767)"/>
                <path id="Path_2174" d="M642.394-2109.15l3.432-.739 3.7 17.158-3.432.739z" class="cls-4" transform="translate(-625.16 2139.05)"/>
                <path id="Path_2175" d="M692.346-2149.3l4.137-1.74 11.728 7.961-4.611-10.951 3.236-1.361 6.806 16.18-3.7 1.556-12.4-8.387 4.838 11.567-3.236 1.361z" class="cls-4" transform="translate(-667.745 2177.841)"/>
                <path id="Path_2176" d="M829.994-2195.6c1.973 1.635 4.013 1.742 5.74.368 1.668-1.327 2.076-2.869 1.186-3.987-.7-.883-2.078-.718-4.31.7-3.488 2.262-6.236 2.109-8.25-.422-1.826-2.3-.991-5.556 1.893-7.851a6.821 6.821 0 0 1 4.179-1.594 6.139 6.139 0 0 1 4.061 1.319l-1.732 3.14a3.512 3.512 0 0 0-4.4-.216c-1.334 1.062-1.816 2.309-1.207 3.075.687.864 1.654.831 3.6-.428 3.888-2.484 6.79-2.582 8.85.008 2.154 2.708 1.5 6.274-1.779 8.881a7.206 7.206 0 0 1-9.633-.026z" class="cls-4" transform="translate(-779.463 2223.02)"/>
                <path id="Path_2177" d="M894.659-2297.624l7.647-9.967 2.666 2.046-5.51 7.182 2.8 2.152 4.884-6.366 2.666 2.045-4.885 6.366 3.123 2.4 5.51-7.182 2.666 2.045-7.647 9.967z" class="cls-4" transform="translate(-840.217 2307.591)"/>
            </g>
        </g>
    </g>
</svg>
