<?xml version="1.0" encoding="utf-8"?>
<!-- Generator: Adobe Illustrator 23.0.1, SVG Export Plug-In . SVG Version: 6.00 Build 0)  -->
<svg version="1.1" id="Layer_1" xmlns="http://www.w3.org/2000/svg" xmlns:xlink="http://www.w3.org/1999/xlink" x="0px" y="0px"
	 viewBox="0 0 30 30" style="enable-background:new 0 0 30 30;" xml:space="preserve">
<style type="text/css">
	.st0{fill:#FB4F2B;}
	.st1{fill:#FBD7E1;}
</style>
<g id="Group_33" transform="translate(399.566 3822.841)">
	<ellipse id="Ellipse_6" class="st0" cx="-384.6" cy="-3807.8" rx="14.4" ry="14.2"/>
	<path id="Path_178" class="st1" d="M-386.4-3809.9v2.9h-0.3c-1.7,0-3,1.3-3,3c0,0,0,0.1,0,0.1c0,1.7,1.4,3,3.1,3c0.1,0,0.2,0,0.3,0
		c1.6-0.1,2.9-1.5,2.9-3.1c0-2.8,0-5.7,0-8.5c0-1.6,0-3.1,0-4.7v-0.2c0.1,0,0.1,0,0.2,0h2.4c0.1,0,0.2,0,0.2,0.2
		c0.2,2,1.6,3.6,3.5,4.2c0.4,0.1,0.8,0.2,1.2,0.3v3.2c-1.9,0.1-3.7-0.7-4.8-2.3v8c0,2.5-1.5,4.7-3.8,5.6c-3.1,1.1-6.5-0.4-7.6-3.5
		c-0.1-0.3-0.2-0.5-0.2-0.8c-0.7-3.1,1.3-6.2,4.4-7C-387.6-3809.9-387-3810-386.4-3809.9L-386.4-3809.9z"/>
</g>
</svg>
