<?xml version="1.0" encoding="utf-8"?>
<!-- Generator: Adobe Illustrator 23.0.1, SVG Export Plug-In . SVG Version: 6.00 Build 0)  -->
<svg version="1.1" id="Layer_1" xmlns="http://www.w3.org/2000/svg" xmlns:xlink="http://www.w3.org/1999/xlink" x="0px" y="0px"
	 viewBox="0 0 30 25" style="enable-background:new 0 0 30 25;" xml:space="preserve">
<style type="text/css">
	.st0{fill:#FB4F2B;}
</style>
<g id="XMLID_826_" transform="translate(320 3824.837)">
	<path id="XMLID_827_" class="st0" d="M-290.9-3821.6c-0.5,0.2-0.9,0.4-1.4,0.5c0.6-0.7,1-1.4,1.3-2.3c0.1-0.3-0.1-0.5-0.3-0.6
		c-0.1,0-0.3,0-0.4,0c-1,0.6-2.1,1.1-3.3,1.3c-2.5-2.4-6.5-2.4-8.9,0.1c-1.2,1.2-1.8,2.8-1.8,4.4c0,0.3,0,0.5,0.1,0.8
		c-4.3-0.4-8.3-2.5-11.1-5.9c-0.2-0.2-0.5-0.2-0.7-0.1c0,0-0.1,0.1-0.1,0.1c-1.3,2.3-1.1,5.2,0.6,7.3c-0.3-0.1-0.6-0.2-0.8-0.4
		c-0.2-0.1-0.5,0-0.6,0.2c0,0.1-0.1,0.1-0.1,0.2v0.1c0,2.2,1.2,4.3,3.1,5.4c-0.2,0-0.3,0-0.5-0.1c-0.3,0-0.5,0.1-0.6,0.4
		c0,0.1,0,0.2,0,0.2c0.7,2.1,2.4,3.7,4.6,4.2c-1.8,1.1-3.9,1.7-6,1.7c-0.4,0-0.9,0-1.3-0.1c-0.3,0-0.5,0.2-0.5,0.4
		c0,0.2,0.1,0.4,0.2,0.5c2.8,1.8,5.9,2.7,9.2,2.7c4.9,0.1,9.5-1.9,12.7-5.6c2.8-3.2,4.4-7.3,4.4-11.5c0-0.2,0-0.3,0-0.5
		c1.1-0.8,2.1-1.8,2.8-3c0.1-0.2,0.1-0.5-0.1-0.7C-290.6-3821.7-290.8-3821.7-290.9-3821.6L-290.9-3821.6z"/>
</g>
</svg>
