<?xml version="1.0" standalone="no"?>
<!DOCTYPE svg PUBLIC "-//W3C//DTD SVG 1.1//EN" "http://www.w3.org/Graphics/SVG/1.1/DTD/svg11.dtd" >
<svg xmlns="http://www.w3.org/2000/svg" xmlns:xlink="http://www.w3.org/1999/xlink" version="1.1">
<metadata>
Created by FontForge 20190801 at Fri Apr 29 06:38:56 2016
 By www-data
Copyright (c) 2014 by Luzi Gantenbein. All rights reserved.
</metadata>
<defs>
<font id="BuenosAiresRegular" horiz-adv-x="780" >
  <font-face 
    font-family="BuenosAiresRegular"
    font-weight="400"
    font-stretch="normal"
    units-per-em="1000"
    panose-1="0 0 8 0 0 0 0 0 0 0"
    ascent="800"
    descent="-200"
    x-height="474"
    cap-height="658"
    bbox="-80 -250 1293 948"
    underline-thickness="50"
    underline-position="-200"
    unicode-range="U+000D-FB03"
  />
<missing-glyph horiz-adv-x="290" 
 />
    <glyph glyph-name="ff" unicode="ff" horiz-adv-x="683" 
d="M600 584q-30 0 -47 -18.5t-17 -53.5v-38h123v-96h-123v-378h-104v378h-216v-378h-104v378h-92v96h92v43q0 76 43 117t112 41q56 0 109 -32l-40 -81q-28 22 -60 22q-60 0 -60 -72v-38h216v43q0 75 44.5 116.5t114.5 41.5q59 0 112 -32l-40 -81q-28 22 -63 22z" />
    <glyph glyph-name="fi" unicode="fi" horiz-adv-x="605" 
d="M545 474v-474h-104v378h-225v-378h-104v378h-92v96h92v43q0 75 44.5 116.5t114.5 41.5q59 0 112 -32l-40 -81q-28 22 -63 22q-30 0 -47 -18.5t-17 -53.5v-38h329z" />
    <glyph glyph-name="fl" unicode="fl" horiz-adv-x="680" 
d="M646 89l34 -78q-44 -21 -92 -21q-66 0 -106.5 40.5t-40.5 117.5v230h-225v-378h-104v378h-92v96h92v43q0 75 43.5 116.5t112.5 41.5q57 0 110 -32l-40 -81q-28 22 -61 22q-61 0 -61 -72v-38h225v184h104v-505q0 -72 60 -72q17 0 41 8z" />
    <glyph glyph-name="ffi" unicode="ffi" horiz-adv-x="934" 
d="M874 474v-474h-104v378h-224v-378h-104v378h-226v-378h-104v378h-92v96h92v43q0 76 42.5 117t111.5 41q56 0 109 -32l-40 -81q-28 22 -60 22q-59 0 -59 -72v-38h226v43q0 75 44.5 116.5t114.5 41.5q59 0 112 -32l-40 -81q-28 22 -63 22q-30 0 -47 -18.5t-17 -53.5v-38
h328z" />
    <glyph glyph-name="f_t" unicode="ft" horiz-adv-x="732" 
d="M674 99l38 -77q-53 -32 -115 -32q-69 0 -112.5 41.5t-43.5 116.5v230h-225v-378h-104v378h-92v96h92v43q0 75 44.5 116.5t114.5 41.5q59 0 112 -32l-40 -81q-28 22 -63 22q-30 0 -47 -18.5t-17 -53.5v-38h225v121h104v-121h123v-96h-123v-225q0 -36 18 -54t48 -18t63 18z
" />
    <glyph glyph-name="t_t" unicode="tt" horiz-adv-x="743" 
d="M685 99l38 -77q-53 -32 -115 -32q-69 0 -112.5 41.5t-43.5 116.5v230h-226v-225q0 -72 63 -72q28 0 61 18l38 -77q-53 -32 -113 -32q-68 0 -110.5 41.5t-42.5 116.5v230h-102v96h102v121h104v-121h226v121h104v-121h123v-96h-123v-225q0 -36 18 -54t48 -18t63 18z" />
    <glyph glyph-name="tz" unicode="tz" horiz-adv-x="775" 
d="M725 474v-99l-188 -200q92 -12 138 -61.5t46 -124.5q0 -96 -69 -153q-70 -56 -164 -56q-67 0 -125.5 29.5t-93.5 85.5l85 65q23 -40 62 -62t82 -22q51 0 85.5 28t34.5 72q0 53 -51.5 83t-144.5 30v99l173 190h-358v-378h-104v378h-113v96h113v121h104v-121h488z" />
    <glyph glyph-name=".notdef" horiz-adv-x="290" 
 />
    <glyph glyph-name=".null" horiz-adv-x="0" 
 />
    <glyph glyph-name="nonmarkingreturn" horiz-adv-x="333" 
 />
    <glyph glyph-name="CR" unicode="&#xd;" horiz-adv-x="270" 
 />
    <glyph glyph-name="space" unicode=" " horiz-adv-x="220" 
 />
    <glyph glyph-name="exclam" unicode="!" horiz-adv-x="307" 
d="M237 63q2 -31 -21 -52.5t-52 -21t-52 21.5q-21 23 -22 52t20.5 52.5t53.5 21.5q31 0 52 -21t21 -53zM208 199h-89l-12 493h113z" />
    <glyph glyph-name="quotedbl" unicode="&#x22;" horiz-adv-x="315" 
d="M285 675v-201h-99v201h99zM127 675v-201h-97v201h97z" />
    <glyph glyph-name="numbersign" unicode="#" horiz-adv-x="666" 
d="M391 254l26 167h-146l-26 -167h146zM636 421h-128l-25 -167h119v-92h-134l-20 -131h-92l20 131h-146l-20 -131h-91l20 131h-109v92h124l26 167h-123v92h137l21 132h91l-21 -132h146l21 132h91l-20 -132h113v-92z" />
    <glyph glyph-name="dollar" unicode="$" horiz-adv-x="559" 
d="M514 180q0 -77 -48 -126t-129 -64v-88h-77v84q-128 8 -215 95l72 85q30 -39 76 -60.5t95 -21.5q51 0 83 22t32 62q-4 29 -15.5 45.5t-39.5 31.5q-31 15 -76 30q-66 24 -105 47q-32 18 -48 37q-44 50 -44 121q0 86 54 135q52 49 131 58v85h77v-87q85 -14 143 -71l-58 -76
q-24 26 -62 42t-74 16q-46 0 -75.5 -25.5t-29.5 -69.5q0 -45 30.5 -70t100.5 -48q98 -34 134 -57q68 -47 68 -132z" />
    <glyph glyph-name="percent" unicode="%" horiz-adv-x="933" 
d="M639 157q0 -34 22.5 -56.5t56.5 -22.5q33 0 54.5 22.5t21.5 56.5q0 35 -21.5 57.5t-54.5 22.5t-56 -22.5t-23 -57.5zM544 158q0 73 50 125q50 51 123 51t125 -51q51 -53 51 -125q0 -74 -51 -123q-52 -50 -125 -50t-123 50t-50 123zM135 498q0 -34 22.5 -56.5t56.5 -22.5
q33 0 54.5 22.5t21.5 56.5q0 35 -21.5 57.5t-54.5 22.5t-56 -22.5t-23 -57.5zM288 43l-69 57l449 544l70 -55zM40 499q0 73 50 125q50 51 123 51t125 -51q51 -52 51 -125t-51 -123q-52 -50 -125 -50t-123 50t-50 123z" />
    <glyph glyph-name="ampersand" unicode="&#x26;" horiz-adv-x="660" 
d="M296 80q72 0 122 51l-154 167q-43 -9 -66 -38t-23 -67q0 -48 33 -80.5t88 -32.5zM306 587q-33 0 -52.5 -21t-19.5 -54q0 -27 14.5 -51.5t48.5 -58.5q39 11 61.5 41t22.5 66q0 34 -20 56t-55 22zM630 53l-78 -68l-73 79q-29 -26 -44 -36q-22 -15 -59 -29q-42 -14 -85 -14
q-100 0 -161 59q-60 58 -60 138q0 61 36.5 109t100.5 66q-40 45 -58.5 80t-18.5 78q0 67 48 114q47 46 127 46q79 0 128 -47q48 -46 48 -112q0 -52 -32 -98.5t-90 -72.5l119 -130q23 44 30 86l86 -17q-10 -55 -52 -138z" />
    <glyph glyph-name="quotesingle" unicode="'" horiz-adv-x="162" 
d="M132 675v-201h-102v201h102z" />
    <glyph glyph-name="parenleft" unicode="(" horiz-adv-x="297" 
d="M218 782l79 -65q-86 -93 -131 -188q-43 -90 -43 -212t43 -212q45 -95 131 -188l-79 -65q-100 103 -149 215t-49 250t49 250t149 215z" />
    <glyph glyph-name="parenright" unicode=")" horiz-adv-x="297" 
d="M0 717l79 65q100 -103 149 -215t49 -250t-49 -250t-149 -215l-79 65q86 93 131 188q43 90 43 212t-43 212q-45 95 -131 188z" />
    <glyph glyph-name="asterisk" unicode="*" horiz-adv-x="462" 
d="M299 474l73 -94l-73 -52l-68 102l-67 -103l-75 54l74 93l-113 39l25 77l115 -36l-2 121h90l-6 -121l115 36l25 -77z" />
    <glyph glyph-name="plus" unicode="+" horiz-adv-x="424" 
d="M163 85v126h-123v95h123v126h98v-126h123v-95h-123v-126h-98z" />
    <glyph glyph-name="comma" unicode="," horiz-adv-x="243" 
d="M20 -144l92 274l111 -44l-117 -265z" />
    <glyph glyph-name="hyphen" unicode="-" horiz-adv-x="377" 
d="M50 307h277v-96h-277v96z" />
    <glyph glyph-name="period" unicode="." horiz-adv-x="227" 
d="M40 63q0 32 21 53t52 21t52.5 -21.5t21.5 -52.5t-21.5 -52t-52.5 -21t-52 21t-21 52z" />
    <glyph glyph-name="slash" unicode="/" horiz-adv-x="344" 
d="M344 643l-261 -658l-83 33l261 657z" />
    <glyph glyph-name="zero" unicode="0" horiz-adv-x="578" 
d="M182 154q34 -69 107 -69q72 0 108 69q35 68 35 175q0 106 -35 176q-36 68 -108 68t-107 -68q-36 -69 -36 -176t36 -175zM431 33q-59 -48 -142 -48q-84 0 -141 48q-57 47 -83 124q-25 74 -25 172t25 173q26 76 83 123q57 48 141 48q83 0 142 -48q56 -47 82 -123
q25 -75 25 -173t-25 -172q-25 -76 -82 -124z" />
    <glyph glyph-name="one" unicode="1" horiz-adv-x="333" 
d="M139 0v563h-89v95h193v-658h-104z" />
    <glyph glyph-name="two" unicode="2" horiz-adv-x="499" 
d="M459 0h-421v99l211 221q90 92 90 166q0 44 -28.5 69t-72.5 25q-46 0 -80.5 -27.5t-43.5 -77.5l-94 32q20 81 83 125q61 43 139 43q84 0 143 -50q58 -49 58 -138q0 -59 -28 -109.5t-90 -115.5l-158 -163h292v-99z" />
    <glyph glyph-name="three" unicode="3" horiz-adv-x="492" 
d="M322 349q130 -48 130 -168q0 -89 -66 -141q-65 -53 -156 -55h-3q-68 0 -126 32t-91 92l90 57q18 -40 54.5 -62t80.5 -22q50 0 82 26.5t32 72.5q0 107 -175 107v99q70 0 108.5 27.5t38.5 75.5q0 40 -27.5 64t-70.5 24q-73 0 -115 -65l-74 56q31 51 85.5 78.5t115.5 27.5
q79 0 136 -45q56 -47 56 -124q0 -110 -105 -157z" />
    <glyph glyph-name="four" unicode="4" horiz-adv-x="540" 
d="M303 517l-181 -260h181v260zM407 658v-401h103v-99h-103v-158h-104v158h-293v99l279 401h118z" />
    <glyph glyph-name="five" unicode="5" horiz-adv-x="550" 
d="M40 123l95 53q31 -94 131 -94q66 0 104 42q37 41 37 98q0 53 -33 88t-89 35q-78 0 -128 -53h-74v366h377v-99h-277v-161q52 38 121 38q98 0 152 -61t54 -148q0 -96 -64 -169t-177 -73q-75 0 -136 35.5t-93 102.5z" />
    <glyph glyph-name="six" unicode="6" horiz-adv-x="570" 
d="M196 119q33 -39 96 -39q64 0 98 39q34 38 34 92q0 57 -33.5 93.5t-94.5 36.5t-97.5 -37t-36.5 -93q0 -54 34 -92zM314 435q102 0 159 -62q57 -63 57 -151q0 -94 -62 -165q-63 -72 -172 -72h-7q-119 3 -184 89t-65 218q0 154 87 265q43 55 115.5 86.5t161.5 31.5l6 -95
q-110 0 -178 -57.5t-83 -171.5q51 84 165 84z" />
    <glyph glyph-name="seven" unicode="7" horiz-adv-x="490" 
d="M480 658v-108l-277 -550h-115l284 548l-362 1v109h470z" />
    <glyph glyph-name="eight" unicode="8" horiz-adv-x="558" 
d="M282 78q55 0 91.5 26.5t36.5 71.5q0 92 -155 133q-46 -12 -76.5 -46.5t-30.5 -78.5q0 -49 38 -77.5t96 -28.5zM279 586q-46 0 -75.5 -24t-29.5 -65q0 -49 44 -73q33 -20 76 -32q38 12 65 42t27 65q0 40 -30.5 63.5t-76.5 23.5zM381 350q46 -21 84 -54q48 -43 48 -119
q0 -90 -69 -141t-164 -51q-93 -3 -164 50t-71 145q0 127 138 169q-112 55 -112 156q0 80 63 125q61 45 146 45q87 0 148 -46t61 -127q0 -102 -108 -152z" />
    <glyph glyph-name="nine" unicode="9" horiz-adv-x="550" 
d="M355 539q-34 39 -97 39q-62 0 -97 -39q-35 -40 -35 -92q0 -57 33.5 -93.5t94.5 -36.5t97.5 37t36.5 93q0 53 -33 92zM236 223q-102 0 -159 63q-57 62 -57 150q0 94 63 166q62 71 171 71h7q120 -3 185 -89q64 -85 64 -218q0 -153 -86 -264q-43 -56 -116 -87.5t-162 -31.5
l-6 95q110 0 178 57.5t83 171.5q-51 -84 -165 -84z" />
    <glyph glyph-name="colon" unicode=":" horiz-adv-x="257" 
d="M70 112q0 32 21 53t52 21t52.5 -21t21.5 -53q0 -31 -21.5 -52t-52.5 -21t-52 21t-21 52zM70 412q0 32 21 53t52 21t52.5 -21t21.5 -53q0 -31 -21.5 -52t-52.5 -21t-52 21t-21 52z" />
    <glyph glyph-name="semicolon" unicode=";" horiz-adv-x="306" 
d="M40 -144l92 274l111 -44l-117 -265zM119 420q0 32 21 53t52 21q32 0 53 -21t21 -53q0 -31 -21.5 -52t-52.5 -21t-52 21t-21 52z" />
    <glyph glyph-name="less" unicode="&#x3c;" horiz-adv-x="383" 
d="M40 238l228 253l75 -71l-164 -182l164 -182l-75 -71z" />
    <glyph glyph-name="equal" unicode="=" horiz-adv-x="424" 
d="M40 126v95h344v-95h-344zM40 296v95h344v-95h-344z" />
    <glyph glyph-name="greater" unicode="&#x3e;" horiz-adv-x="383" 
d="M343 238l-228 -253l-75 71l164 182l-164 182l75 71z" />
    <glyph glyph-name="question" unicode="?" horiz-adv-x="494" 
d="M214 137q32 2 53.5 -21.5t21 -52.5t-21.5 -52q-24 -21 -53 -21.5t-52 21t-21 52.5q0 32 21 53t52 21zM251 675q94 0 149 -53q54 -52 54 -125q0 -72 -49 -127q-51 -57 -140 -67v-105h-105v173h42q69 0 109 33.5t40 81.5q0 39 -28.5 65t-76.5 26q-79 0 -127 -75l-79 60
q36 53 91.5 83t119.5 30z" />
    <glyph glyph-name="at" unicode="@" horiz-adv-x="733" 
d="M344 160q36 0 57.5 25.5t21.5 65.5q0 39 -21 63t-57 24q-37 0 -60 -25.5t-23 -61.5q0 -37 22.5 -64t59.5 -27zM373 566q176 0 265 -131q45 -67 45 -159q0 -82 -34.5 -132t-94.5 -50q-37 0 -62.5 19.5t-32.5 54.5q-16 -36 -48.5 -57t-76.5 -21q-70 0 -110 48
q-41 49 -41 112t41 112q41 47 110 47q76 0 110 -61v49h74v-176q0 -65 43 -65q28 0 44.5 29t16.5 80q0 109 -74 174q-74 63 -176 63q-106 0 -186 -68q-79 -67 -79 -187q0 -100 59 -171t162 -71q79 0 134 41l36 -49q-63 -57 -174 -57q-130 0 -207 90q-77 89 -77 217
q0 98 50 174q50 75 124 110q75 35 159 35z" />
    <glyph glyph-name="A" unicode="A" horiz-adv-x="659" 
d="M423 265l-94 252l-93 -252h187zM459 166h-260l-61 -166h-118l257 658h106l256 -658h-118z" />
    <glyph glyph-name="B" unicode="B" horiz-adv-x="578" 
d="M188 292v-193h114q54 0 85.5 27.5t31.5 68.5t-32 69t-85 28h-114zM188 559v-169h102q46 0 73.5 26t27.5 64q0 79 -95 79h-108zM80 0v658h229q93 0 142 -51q50 -52 50 -120q0 -45 -21.5 -82.5t-60.5 -57.5q53 -21 81 -61.5t28 -92.5q0 -75 -57 -134q-59 -59 -160 -59h-231
z" />
    <glyph glyph-name="C" unicode="C" horiz-adv-x="714" 
d="M598 238l86 -47q-43 -99 -125.5 -152.5t-183.5 -53.5q-132 0 -229 92q-96 91 -96 248q0 106 48.5 188.5t128.5 122.5q77 39 166 39q161 0 257 -113l-73 -79q-71 89 -188 89q-95 0 -162 -64t-67 -178q0 -112 66 -177q65 -65 158 -65q69 0 126.5 39t87.5 111z" />
    <glyph glyph-name="D" unicode="D" horiz-adv-x="692" 
d="M308 559h-120v-460h115q109 0 169 68q60 67 60 162q0 94 -59 162t-165 68zM80 0v658h229q156 0 245 -95q88 -94 88 -227q0 -130 -85 -229q-43 -50 -112 -78.5t-152 -28.5h-213z" />
    <glyph glyph-name="E" unicode="E" horiz-adv-x="535" 
d="M467 559h-279v-181h223v-99h-223v-180h287v-99h-395v658h387v-99z" />
    <glyph glyph-name="F" unicode="F" horiz-adv-x="527" 
d="M188 279v-279h-108v658h387v-99h-279v-181h223v-99h-223z" />
    <glyph glyph-name="G" unicode="G" horiz-adv-x="721" 
d="M389 357h260v-283q-116 -89 -255 -89q-142 0 -243 93t-101 253q0 81 28.5 147.5t77 109t109.5 65t128 22.5q157 0 258 -113l-72 -79q-70 90 -191 90q-95 0 -162 -62q-66 -62 -66 -176q0 -118 71 -183q71 -66 169 -66q77 0 141 38v133h-152v100z" />
    <glyph glyph-name="H" unicode="H" horiz-adv-x="689" 
d="M80 0v658h107v-278h315v278h107v-658h-107v280h-315v-280h-107z" />
    <glyph glyph-name="I" unicode="I" horiz-adv-x="268" 
d="M80 0v658h108v-658h-108z" />
    <glyph glyph-name="J" unicode="J" horiz-adv-x="497" 
d="M319 658h108v-462q0 -100 -60 -155q-61 -56 -142 -56q-73 0 -132 45q-60 46 -73 126l108 25q14 -92 96 -92q42 0 68.5 28.5t26.5 77.5v463z" />
    <glyph glyph-name="K" unicode="K" horiz-adv-x="631" 
d="M462 0l-274 285v-285h-108v658h108v-279l267 279h139l-309 -320l326 -338h-149z" />
    <glyph glyph-name="L" unicode="L" horiz-adv-x="493" 
d="M80 658h108v-559h275v-99h-383v658z" />
    <glyph glyph-name="M" unicode="M" horiz-adv-x="828" 
d="M748 658v-658h-108v456l-177 -308h-98l-177 308v-456h-108v658h120l214 -372l214 372h120z" />
    <glyph glyph-name="N" unicode="N" horiz-adv-x="706" 
d="M80 0v658h108l330 -465v465h108v-658h-108l-330 461v-461h-108z" />
    <glyph glyph-name="O" unicode="O" 
d="M390 570q-97 0 -163 -69q-67 -68 -67 -172t67 -172q66 -69 163 -69q96 0 163 69q67 68 67 172t-67 172q-68 69 -163 69zM148 574q98 99 242 99q146 0 243 -99q97 -98 97 -245t-97 -245q-97 -99 -243 -99q-144 0 -242 99q-98 100 -98 245t98 245z" />
    <glyph glyph-name="P" unicode="P" horiz-adv-x="541" 
d="M188 559v-190h109q47 0 76 29t29 70q0 39 -28 65t-75 26h-111zM80 0v658h234q92 0 145 -57q52 -56 52 -134q0 -79 -54 -137q-55 -58 -148 -58h-121v-272h-108z" />
    <glyph glyph-name="Q" unicode="Q" 
d="M227 501q-67 -68 -67 -172t67 -172q66 -69 163 -69q96 0 163 69q67 68 67 172t-67 172q-68 69 -163 69q-97 0 -163 -69zM563 30q44 -56 136 -83l-39 -98q-129 42 -186 146q-37 -10 -84 -10q-144 0 -242 99q-98 100 -98 245t98 245q98 99 242 99q146 0 243 -99
q97 -98 97 -245q0 -95 -44.5 -174.5t-122.5 -124.5z" />
    <glyph glyph-name="R" unicode="R" horiz-adv-x="583" 
d="M188 559v-189h109q49 0 77 27.5t28 68.5q0 39 -29 66t-76 27h-109zM558 0h-132l-151 272h-87v-272h-108v658h234q93 0 145 -55q53 -56 53 -132q0 -59 -32 -108t-89 -72z" />
    <glyph glyph-name="S" unicode="S" horiz-adv-x="559" 
d="M480 600l-58 -76q-24 26 -62 42t-74 16q-46 0 -75.5 -25.5t-29.5 -69.5q0 -45 30.5 -70t100.5 -48q98 -34 134 -57q68 -47 68 -132q0 -93 -67 -144t-165 -51q-141 0 -237 96l72 85q30 -39 76 -60.5t95 -21.5q51 0 83 22t32 62q-4 29 -15.5 45.5t-39.5 31.5q-31 15 -76 30
q-66 24 -105 47q-32 18 -48 37q-44 50 -44 121q0 95 65 145t153 50q111 0 187 -75z" />
    <glyph glyph-name="T" unicode="T" horiz-adv-x="578" 
d="M343 559v-559h-108v559h-215v99h538v-99h-215z" />
    <glyph glyph-name="U" unicode="U" horiz-adv-x="648" 
d="M324 -15q-101 -3 -177 63.5t-77 181.5v428h108v-407q0 -76 41.5 -119t104.5 -43q64 0 105 42.5t41 119.5v407h108v-428q0 -116 -75 -181q-76 -64 -179 -64z" />
    <glyph glyph-name="V" unicode="V" horiz-adv-x="647" 
d="M627 658l-255 -658h-103l-249 658h115l187 -500l185 500h120z" />
    <glyph glyph-name="W" unicode="W" horiz-adv-x="964" 
d="M954 658l-219 -658h-103l-150 470l-150 -470h-103l-219 658h119l148 -474l149 474h112l149 -474l148 474h119z" />
    <glyph glyph-name="X" unicode="X" horiz-adv-x="666" 
d="M646 658l-243 -329l243 -329h-138l-175 243l-176 -243h-137l246 333l-241 325h136l175 -242l175 242h135z" />
    <glyph glyph-name="Y" unicode="Y" horiz-adv-x="618" 
d="M363 283v-283h-108v284l-245 374h133l166 -271l167 271h132z" />
    <glyph glyph-name="Z" unicode="Z" horiz-adv-x="554" 
d="M40 0v89l325 470h-317v99h450v-88l-325 -471h341v-99h-474z" />
    <glyph glyph-name="bracketleft" unicode="[" horiz-adv-x="272" 
d="M262 -147h-192v888h192v-96h-90v-695h90v-97z" />
    <glyph glyph-name="backslash" unicode="\" horiz-adv-x="344" 
d="M0 643l83 32l261 -657l-83 -33z" />
    <glyph glyph-name="bracketright" unicode="]" horiz-adv-x="272" 
d="M10 -147v97h90v695h-90v96h192v-888h-192z" />
    <glyph glyph-name="asciicircum" unicode="^" horiz-adv-x="479" 
d="M382 364l-142 148l-143 -148l-77 77l220 234l219 -234z" />
    <glyph glyph-name="underscore" unicode="_" horiz-adv-x="440" 
d="M40 96h360v-96h-360v96z" />
    <glyph glyph-name="grave" unicode="`" horiz-adv-x="263" 
d="M263 653l-28 -90l-235 71l25 92z" />
    <glyph glyph-name="a" unicode="a" horiz-adv-x="643" 
d="M185 125q28 -30 71 -37t81.5 7.5t65 53t24.5 91.5q0 72 -42 113q-43 40 -101 40q-60 0 -100 -41t-40 -113q0 -73 41 -114zM603 97l30 -70q-31 -36 -85 -36q-37 0 -66.5 19.5t-40.5 56.5q-71 -77 -174 -77q-91 0 -159 66t-68 181q0 118 71 184q71 65 167 65q100 0 151 -67
v55h102v-346q0 -43 35 -43q22 0 37 12z" />
    <glyph glyph-name="b" unicode="b" horiz-adv-x="601" 
d="M318 85q59 0 99.5 41.5t40.5 111.5q0 74 -42 115q-41 40 -99 40q-57 0 -100 -41q-43 -40 -43 -113q0 -71 41.5 -112.5t102.5 -41.5zM328 486q92 0 163 -66q70 -66 70 -181q0 -112 -68 -180q-67 -69 -161 -69q-105 0 -160 69v-59h-102v658h104v-243q56 71 154 71z" />
    <glyph glyph-name="c" unicode="c" horiz-adv-x="515" 
d="M419 173l76 -53q-32 -61 -90.5 -95.5t-126.5 -34.5q-97 0 -167 67q-71 66 -71 181q0 116 72 182t170 66q57 0 108 -24.5t86 -69.5l-70 -66q-40 64 -119 64q-58 0 -101 -40t-43 -111q0 -70 43 -110q43 -41 99 -41q41 0 77 21.5t57 63.5z" />
    <glyph glyph-name="d" unicode="d" horiz-adv-x="601" 
d="M283 85q57 0 101 41q43 40 43 113t-42 113q-44 41 -101 41q-61 0 -101 -41.5t-40 -113.5q0 -71 39.5 -112t100.5 -41zM531 658v-658h-102v61q-65 -71 -163 -71q-93 0 -159 68q-67 67 -67 181q0 115 72 181q70 66 165 66q46 0 86 -16.5t64 -46.5v235h104z" />
    <glyph glyph-name="e" unicode="e" horiz-adv-x="538" 
d="M359 363q-24 23 -59.5 28t-67.5 -6t-55.5 -39.5t-26.5 -68.5h244q-2 57 -35 86zM498 250q0 -38 -4 -59h-341q11 -50 48 -77t89 -27q86 0 134 67l67 -65q-79 -99 -204 -99q-100 0 -173 67q-74 68 -74 183t72 181q71 65 170 65q94 0 155 -61t61 -175z" />
    <glyph glyph-name="f" unicode="f" horiz-adv-x="363" 
d="M112 0v378h-92v96h92v43q0 75 44.5 116.5t114.5 41.5q59 0 112 -32l-40 -81q-28 22 -63 22q-30 0 -47 -18.5t-17 -53.5v-38h123v-96h-123v-378h-104z" />
    <glyph glyph-name="g" unicode="g" horiz-adv-x="595" 
d="M188 148q40 -39 99 -39q57 0 101 38q43 37 43 105q0 66 -42 104q-30 28 -73.5 34.5t-81 -7t-63.5 -48.5t-24 -83q0 -66 41 -104zM431 474h104v-450q0 -116 -72 -180q-73 -64 -174 -64q-86 0 -156 46q-71 47 -93 131l98 38q14 -56 56.5 -87.5t97.5 -31.5q60 0 100.5 37.5
t40.5 101.5v74q-60 -75 -162 -75q-91 0 -159 65t-68 172q0 110 71 173q71 62 164 62t152 -62v50z" />
    <glyph glyph-name="h" unicode="h" horiz-adv-x="563" 
d="M322 486q72 0 121 -46q50 -47 50 -131v-309h-104v273q0 55 -26 84t-70 29q-52 0 -85.5 -38t-33.5 -103v-245h-104v658h104v-253q50 81 148 81z" />
    <glyph glyph-name="i" unicode="i" horiz-adv-x="270" 
d="M83 0v474h104v-474h-104zM81 567q-20 24 -21 53t21 53t53 22q32 0 54 -21.5t22 -53.5q2 -31 -22.5 -52.5t-54 -21.5t-52.5 21z" />
    <glyph glyph-name="j" unicode="j" horiz-adv-x="264" 
d="M77 474h104v-537q0 -75 -43 -116t-111 -41q-57 0 -107 32l39 80q27 -21 59 -21q27 0 43 18t16 52v533zM75 567q-20 24 -21 53t21 53t53 22q32 0 54 -21.5t22 -53.5q2 -31 -22.5 -52.5t-54 -21.5t-52.5 21z" />
    <glyph glyph-name="k" unicode="k" horiz-adv-x="563" 
d="M401 0l-226 214l-1 -214h-104v658h104v-384l202 200h149l-235 -223l263 -251h-152z" />
    <glyph glyph-name="l" unicode="l" horiz-adv-x="309" 
d="M275 89l34 -78q-43 -21 -92 -21q-66 0 -106.5 40.5t-40.5 117.5v510h104v-505q0 -72 60 -72q17 0 41 8z" />
    <glyph glyph-name="m" unicode="m" horiz-adv-x="813" 
d="M582 486q70 0 115.5 -46t45.5 -126v-314h-104v285q0 48 -22.5 74.5t-59.5 26.5q-43 0 -70.5 -32.5t-27.5 -88.5v-265h-104v285q0 48 -22.5 74.5t-60.5 26.5q-43 0 -70.5 -32.5t-27.5 -88.5v-265h-104v474h102v-63q44 75 133 75t131 -82q46 82 146 82z" />
    <glyph glyph-name="n" unicode="n" horiz-adv-x="563" 
d="M70 0v474h102v-68q50 80 150 80q72 0 121 -46q50 -47 50 -131v-309h-104v273q0 55 -26 84t-70 29q-52 0 -85.5 -38t-33.5 -103v-245h-104z" />
    <glyph glyph-name="o" unicode="o" horiz-adv-x="576" 
d="M392 348q-40 42 -104 42t-104 -42q-41 -44 -41 -109t41 -109q40 -43 104 -43q65 0 105 43t40 109q0 65 -41 109zM111 415q71 71 177 71q107 0 178 -71q70 -70 70 -177t-70 -177q-71 -71 -178 -71q-106 0 -177 71t-71 177t71 177z" />
    <glyph glyph-name="p" unicode="p" horiz-adv-x="601" 
d="M318 85q59 0 99.5 41.5t40.5 111.5q0 72 -42 112q-42 39 -99 39q-58 0 -100 -39q-43 -40 -43 -111t41.5 -112.5t102.5 -41.5zM329 482q91 0 162 -65q70 -64 70 -180q0 -115 -68 -181q-69 -66 -162 -66q-99 0 -157 67v-265h-104v682h102v-65q55 73 157 73z" />
    <glyph glyph-name="q" unicode="q" horiz-adv-x="601" 
d="M184 125q29 -30 72 -37.5t81.5 7t65 53t24.5 91.5q0 71 -42 111q-43 39 -101 39q-60 0 -100.5 -40.5t-40.5 -110.5q0 -72 41 -113zM531 474v-682h-104v268q-61 -70 -161 -70q-92 0 -159 66t-67 183q0 113 72 178q71 65 165 65q92 0 152 -65v57h102z" />
    <glyph glyph-name="r" unicode="r" horiz-adv-x="364" 
d="M292 480q32 0 62 -11l-23 -105q-30 12 -60 12q-44 0 -70.5 -29t-26.5 -85v-262h-104v474h102v-58q34 64 120 64z" />
    <glyph glyph-name="s" unicode="s" horiz-adv-x="480" 
d="M450 145q0 -71 -58 -113t-142 -42q-64 0 -124 25t-96 69l77 72q58 -73 152 -73q37 0 61.5 14t24.5 35q-4 23 -25.5 33.5t-74.5 21.5l-10 2q-69 15 -114 41q-60 33 -60 109q0 70 52.5 108.5t136.5 38.5q102 0 175 -55l-59 -77q-50 41 -116 41q-37 0 -60.5 -14t-23.5 -40
t25 -39t87 -25q57 -11 94 -25q26 -10 42 -23q36 -32 36 -84z" />
    <glyph glyph-name="t" unicode="t" horiz-adv-x="413" 
d="M355 99l38 -77q-53 -32 -115 -32q-69 0 -112.5 41.5t-43.5 116.5v230h-102v96h102v121h104v-121h123v-96h-123v-225q0 -36 18 -54t48 -18t63 18z" />
    <glyph glyph-name="u" unicode="u" horiz-adv-x="549" 
d="M479 474v-474h-102v63q-51 -73 -140 -73q-71 0 -124 48q-53 47 -53 138v298h104v-272q0 -51 25 -80t68 -29q50 0 84 38t34 101v242h104z" />
    <glyph glyph-name="v" unicode="v" horiz-adv-x="521" 
d="M501 474l-189 -474h-102l-190 474h116l125 -344l124 344h116z" />
    <glyph glyph-name="w" unicode="w" horiz-adv-x="835" 
d="M815 474l-176 -474h-102l-120 310l-120 -310h-102l-175 474h116l109 -327l119 327h106l120 -327l109 327h116z" />
    <glyph glyph-name="x" unicode="x" horiz-adv-x="538" 
d="M334 238l194 -238h-137l-122 155l-122 -155h-137l194 238l-194 236h138l121 -153l121 153h138z" />
    <glyph glyph-name="y" unicode="y" horiz-adv-x="580" 
d="M406 474h104v-461q0 -110 -70 -171q-71 -62 -166 -62q-81 0 -147 45q-66 47 -87 133l99 34q11 -53 50 -84.5t90 -31.5q56 0 92.5 37t36.5 100v75q-48 -83 -142 -83q-74 0 -131 51t-57 145v273h104v-257q0 -52 27.5 -82t73.5 -30q53 0 88 38.5t35 102.5v228z" />
    <glyph glyph-name="z" unicode="z" horiz-adv-x="498" 
d="M40 0v98l266 278h-255v98h392v-99l-258 -277h273v-98h-418z" />
    <glyph glyph-name="braceleft" unicode="{" horiz-adv-x="332" 
d="M201 198v-184q0 -31 20.5 -47t50.5 -16l-12 -84q-64 0 -112 33q-49 34 -49 107v181q0 67 -69 67v92q69 0 69 67v181q0 73 49 107q48 33 112 33l12 -84q-30 0 -50.5 -16t-20.5 -47v-184q0 -41 -24 -69t-59 -34q35 -6 59 -34t24 -69z" />
    <glyph glyph-name="bar" unicode="|" horiz-adv-x="282" 
d="M192 700v-827h-102v827h102z" />
    <glyph glyph-name="braceright" unicode="}" horiz-adv-x="332" 
d="M131 14v184q0 41 24 69t59 34q-35 6 -59 34t-24 69v184q0 31 -20.5 47t-50.5 16l12 84q64 0 113 -33q48 -34 48 -107v-181q0 -67 69 -67v-92q-69 0 -69 -67v-181q0 -73 -48 -107q-50 -33 -113 -33l-12 84q30 0 50.5 16t20.5 47z" />
    <glyph glyph-name="asciitilde" unicode="~" horiz-adv-x="610" 
d="M115 198l-85 53q25 62 70.5 99.5t102.5 37.5q34 2 79 -19t83 -42t56 -20q41 0 73 68l86 -50q-20 -61 -63.5 -100t-101.5 -39q-34 -2 -76.5 20t-79 43.5t-56.5 20.5q-47 0 -88 -72z" />
    <glyph glyph-name="exclamdown" unicode="&#xa1;" horiz-adv-x="297" 
d="M178 376l12 -493h-113l12 493h89zM207 512q0 -32 -21 -53t-52 -21q-32 0 -53 21t-21 53q0 31 21.5 52t52.5 21t52 -21t21 -52z" />
    <glyph glyph-name="cent" unicode="&#xa2;" horiz-adv-x="515" 
d="M419 173l76 -53q-55 -102 -169 -125v-93h-77v90q-88 10 -148 75q-61 64 -61 171t61 171q60 65 148 75v84h77v-86q94 -16 150 -90l-70 -66q-40 64 -119 64q-58 0 -101 -40t-43 -111q0 -70 43 -110q43 -41 99 -41q41 0 77 21.5t57 63.5z" />
    <glyph glyph-name="sterling" unicode="&#xa3;" horiz-adv-x="603" 
d="M142 74q21 0 39 13.5t27 35.5q-29 30 -65 30q-27 0 -38 -19.5t0 -39.5t37 -20zM514 165l79 -47q-60 -133 -168 -133q-73 0 -155 70q-45 -70 -130 -70q-59 0 -94.5 35.5t-35.5 87.5q0 51 32.5 87t86.5 36q47 0 90 -30q3 37 3 84l1 73h-112v76h112v83q0 75 44.5 116.5
t114.5 41.5q59 0 112 -32l-40 -81q-28 22 -63 22q-30 0 -47 -18.5t-17 -53.5v-78h143v-76h-143v-107q0 -80 -14 -119l18 -12t16 -11q10 -6 22 -13q20 -12 46 -12q61 0 99 81z" />
    <glyph glyph-name="currency" unicode="&#xa4;" horiz-adv-x="625" 
d="M227 183q33 -35 85 -35q51 0 86 35q33 35 33 88t-33 88q-35 35 -86 35q-52 0 -85 -35q-34 -34 -34 -88t34 -88zM519 271q0 -67 -33 -119l109 -108l-55 -55l-106 106q-51 -39 -122 -39q-70 0 -122 39l-105 -106l-55 55l108 107q-33 52 -33 120t34 120l-109 108l55 55
l106 -107q51 39 121 39t122 -39l106 107l55 -55l-109 -108q33 -53 33 -120z" />
    <glyph glyph-name="yen" unicode="&#xa5;" horiz-adv-x="618" 
d="M608 658l-242 -370h141v-75h-144v-75h144v-75h-144v-63h-108v63h-144v75h144v75h-144v75h141l-242 370h133l166 -271l167 271h132z" />
    <glyph glyph-name="brokenbar" unicode="&#xa6;" horiz-adv-x="282" 
d="M192 240v-367h-102v367h102zM192 700v-367h-102v367h102z" />
    <glyph glyph-name="section" unicode="&#xa7;" horiz-adv-x="559" 
d="M293 266q28 0 47.5 20t19.5 48t-19.5 47.5t-47.5 19.5t-48 -19.5t-20 -47.5t19.5 -48t48.5 -20zM440 311q74 -51 74 -132q0 -92 -67 -143t-165 -51q-141 0 -237 96l68 80q30 -41 77.5 -64t97.5 -23t81.5 22t31.5 62q0 32 -23 53q-36 -27 -85 -27q-62 0 -106 44t-44 106
v11q-68 56 -68 135q0 94 66 145q65 50 153 50q110 0 186 -75l-54 -71q-23 28 -62.5 45.5t-76.5 17.5q-47 0 -78.5 -26t-31.5 -69q0 -30 15 -52q46 38 101 38q63 0 106 -43t43 -106q0 -13 -2 -23z" />
    <glyph glyph-name="dieresis" unicode="&#xa8;" horiz-adv-x="356" 
d="M356 633q0 -28 -20 -47.5t-49 -19.5q-28 0 -48 19.5t-20 47.5q0 29 19.5 48.5t48.5 19.5t49 -19.5t20 -48.5zM136 633q0 -28 -20 -47.5t-48 -19.5t-48 19.5t-20 47.5q0 29 20 48.5t48 19.5t48 -19.5t20 -48.5z" />
    <glyph glyph-name="copyright" unicode="&#xa9;" horiz-adv-x="794" 
d="M501 288l57 -39q-24 -45 -67.5 -71t-92.5 -26q-71 0 -124 50t-53 134q0 86 53 136q53 48 127 48q89 0 143 -70l-52 -49q-29 47 -88 47q-44 0 -75.5 -30.5t-31.5 -80.5t30.5 -81t74.5 -31q68 0 99 63zM194 121q82 -84 203 -84t203 84q82 82 82 212t-82 213q-83 83 -203 83
t-203 -83q-82 -83 -82 -213t82 -212zM149 584q99 100 248 100t248 -100q99 -101 99 -251q0 -151 -99 -251t-248 -100t-248 100t-99 251q0 150 99 251z" />
    <glyph glyph-name="ordfeminine" unicode="&#xaa;" horiz-adv-x="544" 
d="M158 399q20 -22 50 -27t57 5t46 37t17 64q0 48 -29 77t-71 29q-43 0 -71 -28.5t-28 -78.5q0 -49 29 -78zM497 390l27 -77q-27 -37 -78 -37q-33 0 -60 18t-38 51q-22 -32 -57.5 -50t-75.5 -18q-73 0 -129 54t-56 145q0 92 58 146q59 53 131 53q66 0 111 -42v36h98v-255
q0 -39 34 -39q18 0 35 15z" />
    <glyph glyph-name="guillemotleft" unicode="&#xab;" horiz-adv-x="568" 
d="M404 261l124 -147l-77 -65l-181 212l181 212l77 -65zM154 261l124 -147l-77 -65l-181 212l181 212l77 -65z" />
    <glyph glyph-name="logicalnot" unicode="&#xac;" horiz-adv-x="460" 
d="M50 307h360v-187h-99v92h-261v95z" />
    <glyph glyph-name="registered" unicode="&#xae;" horiz-adv-x="794" 
d="M350 438v-88h62q23 0 35.5 12.5t12.5 32.5q0 19 -12 31t-35 12h-63zM528 399q0 -35 -18 -61t-52 -37l82 -124h-83l-66 105h-41v-105h-69v327h131q52 0 84 -30.5t32 -74.5zM194 121q82 -84 203 -84t203 84q82 82 82 212t-82 213q-83 83 -203 83t-203 -83q-82 -83 -82 -213
t82 -212zM149 584q99 100 248 100t248 -100q99 -101 99 -251q0 -151 -99 -251t-248 -100t-248 100t-99 251q0 150 99 251z" />
    <glyph glyph-name="overscore" unicode="&#xaf;" horiz-adv-x="279" 
d="M0 666h279v-102h-279v102z" />
    <glyph glyph-name="degree" unicode="&#xb0;" horiz-adv-x="429" 
d="M135 498q0 -34 22.5 -56.5t56.5 -22.5q33 0 54.5 22.5t21.5 56.5q0 35 -21.5 57.5t-54.5 22.5t-56 -22.5t-23 -57.5zM40 499q0 73 50 125q50 51 123 51t125 -51q51 -52 51 -125t-51 -123q-52 -50 -125 -50t-123 50t-50 123z" />
    <glyph glyph-name="plusminus" unicode="&#xb1;" horiz-adv-x="424" 
d="M40 71v95h344v-95h-344zM163 255v126h-123v95h123v126h98v-126h123v-95h-123v-126h-98z" />
    <glyph glyph-name="twosuperior" unicode="&#xb2;" horiz-adv-x="366" 
d="M313 413v-96h-235v67l67 66q4 4 23.5 21t24.5 22q25 25 25 48q0 15 -10 25.5t-27 10.5q-38 0 -55 -47l-76 36q16 47 56 75t89 28q51 0 86 -27t35 -73q0 -13 -8 -42q-2 -5 -6.5 -12.5t-9.5 -15t-6 -9.5q-4 -7 -29 -32q-2 -1 -17 -16l-14 -13l-17 -16h104z" />
    <glyph glyph-name="threesuperior" unicode="&#xb3;" horiz-adv-x="373" 
d="M263 501q60 -29 60 -82q0 -42 -38 -74q-37 -33 -98 -33q-92 0 -137 70l66 55q28 -40 68 -40q17 0 28 8.5t11 20.5q0 15 -14.5 25t-37.5 10h-14v61h14q39 0 45 25q4 20 -18 29q-9 4 -19 4q-33 0 -55 -30l-60 48q49 70 135 70q49 0 79 -27t30 -65q0 -51 -45 -75z" />
    <glyph glyph-name="acute" unicode="&#xb4;" horiz-adv-x="263" 
d="M0 653l238 73l25 -92l-235 -71z" />
    <glyph glyph-name="paragraph" unicode="&#xb6;" horiz-adv-x="547" 
d="M261 369v190h-19q-47 0 -75 -26t-28 -65q0 -41 29 -70t76 -29h17zM477 658v-658h-75v559h-66v-559h-75v272h-29q-93 0 -147 58q-55 58 -55 137q0 78 52 134q52 57 145 57h250z" />
    <glyph glyph-name="middot" unicode="&#xb7;" horiz-adv-x="234" 
d="M63 370q32 37 83 15.5t48 -70.5q0 -32 -22.5 -54.5t-54.5 -22.5q-31 0 -54 23t-23 54q0 32 23 55z" />
    <glyph glyph-name="cedilla" unicode="&#xb8;" horiz-adv-x="254" 
d="M115 37h56l-25 -75q51 -8 79.5 -35.5t28.5 -63.5q0 -43 -34.5 -73t-89.5 -30q-81 0 -130 58l45 48q37 -43 83 -43q25 0 42 12t17 33q0 48 -106 61z" />
    <glyph glyph-name="onesuperior" unicode="&#xb9;" horiz-adv-x="239" 
d="M103 318v250h-63v96h159v-346h-96z" />
    <glyph glyph-name="ordmasculine" unicode="&#xba;" horiz-adv-x="462" 
d="M304 551q-28 30 -73 30t-73 -30q-29 -31 -29 -76t29 -76q28 -31 73 -31t73 31q29 31 29 76t-29 76zM88 617q57 58 143 58t144 -58q57 -59 57 -143t-57 -143q-58 -58 -144 -58t-143 58q-58 58 -58 143t58 143z" />
    <glyph glyph-name="guillemotright" unicode="&#xbb;" horiz-adv-x="568" 
d="M434 261l-124 147l77 65l181 -212l-181 -212l-77 65zM184 261l-124 147l77 65l181 -212l-181 -212l-77 65z" />
    <glyph glyph-name="onequarter" unicode="&#xbc;" horiz-adv-x="800" 
d="M610 276l-98 -131h98v131zM700 344v-199h60v-89h-60v-56h-90v56h-188v76l163 212h115zM189 43l-69 57l449 544l70 -55zM103 318v250h-63v96h159v-346h-96z" />
    <glyph glyph-name="onehalf" unicode="&#xbd;" horiz-adv-x="765" 
d="M722 96v-96h-235v67l67 66q4 4 23.5 21t24.5 22q25 25 25 48q0 14 -10.5 25t-26.5 11q-38 0 -55 -47l-76 36q16 47 56 75t89 28q51 0 86 -27t35 -73q0 -13 -8 -42q-2 -5 -6.5 -12.5t-9.5 -15t-6 -9.5q-4 -7 -29 -32q-4 -2 -17 -15l-14 -14l-17 -16h104zM189 43l-69 57
l449 544l70 -55zM103 318v250h-63v96h159v-346h-96z" />
    <glyph glyph-name="threequarters" unicode="&#xbe;" horiz-adv-x="850" 
d="M660 276l-98 -131h98v131zM750 344v-199h60v-89h-60v-56h-90v56h-188v76l163 212h115zM239 43l-69 57l449 544l70 -55zM263 501q60 -29 60 -82q0 -42 -38 -74q-37 -33 -98 -33q-92 0 -137 70l66 55q28 -40 68 -40q17 0 28 8.5t11 20.5q0 15 -14.5 25t-37.5 10h-14v61h14
q39 0 45 25q4 20 -18 29q-9 4 -19 4q-33 0 -55 -30l-60 48q49 70 135 70q49 0 79 -27t30 -65q0 -51 -45 -75z" />
    <glyph glyph-name="questiondown" unicode="&#xbf;" horiz-adv-x="474" 
d="M233 -117q-94 0 -149 53q-54 53 -54 125t49 127q51 57 140 67v105h105v-173h-42q-69 0 -109 -33.5t-40 -81.5q0 -39 28.5 -65t76.5 -26q79 0 127 75l79 -60q-36 -53 -91.5 -83t-119.5 -30zM270 421q-32 -2 -53.5 21.5t-20.5 52.5t22 52q23 21 52 21.5t52 -21t21 -52.5
q0 -32 -21 -53t-52 -21z" />
    <glyph glyph-name="Agrave" unicode="&#xc0;" horiz-adv-x="659" 
d="M423 265l-94 252l-93 -252h187zM459 166h-260l-61 -166h-118l257 658h106l256 -658h-118zM442 803l-28 -90l-235 71l25 92z" />
    <glyph glyph-name="Aacute" unicode="&#xc1;" horiz-adv-x="659" 
d="M423 265l-94 252l-93 -252h187zM459 166h-260l-61 -166h-118l257 658h106l256 -658h-118zM220 804l238 73l25 -92l-235 -71z" />
    <glyph glyph-name="Acircumflex" unicode="&#xc2;" horiz-adv-x="659" 
d="M423 265l-94 252l-93 -252h187zM459 166h-260l-61 -166h-118l257 658h106l256 -658h-118zM506 783l-57 -68l-118 90l-120 -90l-57 68l176 131z" />
    <glyph glyph-name="Atilde" unicode="&#xc3;" horiz-adv-x="659" 
d="M423 265l-94 252l-93 -252h187zM459 166h-260l-61 -166h-118l257 658h106l256 -658h-118zM443 852l58 -46q-35 -56 -63 -76q-21 -15 -42 -15q-24 0 -61 24q-38 24 -53 24q-24 0 -64 -45l-60 50q62 93 121 93q26 0 64 -23t51 -23q22 0 49 37z" />
    <glyph glyph-name="Adieresis" unicode="&#xc4;" horiz-adv-x="659" 
d="M423 265l-94 252l-93 -252h187zM459 166h-260l-61 -166h-118l257 658h106l256 -658h-118zM508 782q0 -28 -20 -47.5t-49 -19.5q-28 -2 -48 19.5t-20 47.5t20 48q21 19 48 20t49 -19t20 -49zM268 830q20 -20 20 -48t-20 -47t-48 -19t-48 19t-20 47t20 48t48 20t48 -20z
" />
    <glyph glyph-name="Aring" unicode="&#xc5;" horiz-adv-x="659" 
d="M423 265l-94 252l-93 -252h187zM459 166h-260l-61 -166h-118l257 658h106l256 -658h-118zM291 869q-24 -25 -11 -59.5t49 -34.5q22 0 37.5 16t15.5 39t-15.5 39t-37.5 16q-23 0 -38 -16zM212 830q0 49 33.5 83.5t83.5 34.5t84 -34q35 -35 35 -84q0 -48 -35 -82t-84 -34
q-50 0 -83.5 33t-33.5 83z" />
    <glyph glyph-name="AE" unicode="&#xc6;" horiz-adv-x="905" 
d="M460 265v298h-36l-148 -298h184zM845 99v-99h-385v166h-234l-83 -166h-123l341 658h476v-99h-269v-181h213v-99h-213v-180h277z" />
    <glyph glyph-name="Ccedilla" unicode="&#xc7;" horiz-adv-x="714" 
d="M598 238l86 -47q-40 -90 -113.5 -143t-164.5 -62l-11 -34q51 -8 79.5 -35.5t28.5 -63.5q0 -43 -34.5 -73t-89.5 -30q-81 0 -130 58l45 48q37 -43 83 -43q25 0 42 12t17 33q0 48 -106 61l21 67q-126 9 -213 99q-88 89 -88 240q0 106 48.5 188.5t128.5 122.5q77 39 166 39
q161 0 257 -113l-73 -79q-71 89 -188 89q-95 0 -162 -64t-67 -178q0 -112 66 -177q65 -65 158 -65q69 0 126.5 39t87.5 111z" />
    <glyph glyph-name="Egrave" unicode="&#xc8;" horiz-adv-x="535" 
d="M467 559h-279v-181h223v-99h-223v-180h287v-99h-395v658h387v-99zM401 803l-28 -90l-235 71l25 92z" />
    <glyph glyph-name="Eacute" unicode="&#xc9;" horiz-adv-x="535" 
d="M467 559h-279v-181h223v-99h-223v-180h287v-99h-395v658h387v-99zM170 804l238 73l25 -92l-235 -71z" />
    <glyph glyph-name="Ecircumflex" unicode="&#xca;" horiz-adv-x="535" 
d="M467 559h-279v-181h223v-99h-223v-180h287v-99h-395v658h387v-99zM454 783l-57 -68l-118 90l-120 -90l-57 68l176 131z" />
    <glyph glyph-name="Edieresis" unicode="&#xcb;" horiz-adv-x="535" 
d="M467 559h-279v-181h223v-99h-223v-180h287v-99h-395v658h387v-99zM456 782q0 -28 -20 -47.5t-49 -19.5q-28 -2 -48 19.5t-20 47.5t20 48q21 19 48 20t49 -19t20 -49zM216 830q20 -20 20 -48t-20 -47t-48 -19t-48 19t-20 47t20 48t48 20t48 -20z" />
    <glyph glyph-name="Igrave" unicode="&#xcc;" horiz-adv-x="268" 
d="M80 0v658h108v-658h-108zM252 803l-28 -90l-235 71l25 92z" />
    <glyph glyph-name="Iacute" unicode="&#xcd;" horiz-adv-x="268" 
d="M80 0v658h108v-658h-108zM20 804l238 73l25 -92l-235 -71z" />
    <glyph glyph-name="Icircumflex" unicode="&#xce;" horiz-adv-x="265" 
d="M79 0v658h108v-658h-108zM309 783l-57 -68l-118 90l-120 -90l-57 68l176 131z" />
    <glyph glyph-name="Idieresis" unicode="&#xcf;" horiz-adv-x="268" 
d="M81 0v658h108v-658h-108zM313 782q0 -28 -20 -47.5t-49 -19.5q-28 0 -48 19.5t-20 47.5t20 48t48 20q29 0 49 -19.5t20 -48.5zM74 830q20 -20 19.5 -48t-20.5 -47t-48 -19t-48 19t-20.5 47t19.5 48t49 20t49 -20z" />
    <glyph glyph-name="Eth" unicode="&#xd0;" horiz-adv-x="692" 
d="M188 292v-193h115q109 0 169 68q60 67 60 162q0 94 -59 162t-165 68h-120v-192h142v-75h-142zM80 367v291h229q156 0 245 -95q88 -94 88 -227q0 -130 -85 -229q-43 -50 -112 -78.5t-152 -28.5h-213v292h-115v75h115z" />
    <glyph glyph-name="Ntilde" unicode="&#xd1;" horiz-adv-x="706" 
d="M80 0v658h108l330 -465v465h108v-658h-108l-330 461v-461h-108zM470 852l58 -46q-35 -56 -63 -76q-21 -15 -42 -15q-25 0 -62 24q-38 24 -52 24q-23 0 -64 -45l-60 50q61 93 121 93q26 0 64 -23t51 -23q22 0 49 37z" />
    <glyph glyph-name="Ograve" unicode="&#xd2;" 
d="M390 570q-97 0 -163 -69q-67 -68 -67 -172t67 -172q66 -69 163 -69q96 0 163 69q67 68 67 172t-67 172q-68 69 -163 69zM148 574q98 99 242 99q146 0 243 -99q97 -98 97 -245t-97 -245q-97 -99 -243 -99q-144 0 -242 99q-98 100 -98 245t98 245zM487 803l-28 -90l-235 71
l25 92z" />
    <glyph glyph-name="Oacute" unicode="&#xd3;" 
d="M390 570q-97 0 -163 -69q-67 -68 -67 -172t67 -172q66 -69 163 -69q96 0 163 69q67 68 67 172t-67 172q-68 69 -163 69zM148 574q98 99 242 99q146 0 243 -99q97 -98 97 -245t-97 -245q-97 -99 -243 -99q-144 0 -242 99q-98 100 -98 245t98 245zM300 804l238 73l25 -92
l-235 -71z" />
    <glyph glyph-name="Ocircumflex" unicode="&#xd4;" 
d="M390 570q-97 0 -163 -69q-67 -68 -67 -172t67 -172q66 -69 163 -69q96 0 163 69q67 68 67 172t-67 172q-68 69 -163 69zM148 574q98 99 242 99q146 0 243 -99q97 -98 97 -245t-97 -245q-97 -99 -243 -99q-144 0 -242 99q-98 100 -98 245t98 245zM566 783l-57 -68l-118 90
l-120 -90l-57 68l176 131z" />
    <glyph glyph-name="Otilde" unicode="&#xd5;" 
d="M390 570q-97 0 -163 -69q-67 -68 -67 -172t67 -172q66 -69 163 -69q96 0 163 69q67 68 67 172t-67 172q-68 69 -163 69zM148 574q98 99 242 99q146 0 243 -99q97 -98 97 -245t-97 -245q-97 -99 -243 -99q-144 0 -242 99q-98 100 -98 245t98 245zM504 852l58 -46
q-35 -56 -63 -76q-21 -15 -42 -15q-25 0 -62 24q-38 24 -52 24q-23 0 -64 -45l-60 50q61 93 121 93q26 0 64 -23t51 -23q22 0 49 37z" />
    <glyph glyph-name="Odieresis" unicode="&#xd6;" 
d="M390 570q-97 0 -163 -69q-67 -68 -67 -172t67 -172q66 -69 163 -69q96 0 163 69q67 68 67 172t-67 172q-68 69 -163 69zM148 574q98 99 242 99q146 0 243 -99q97 -98 97 -245t-97 -245q-97 -99 -243 -99q-144 0 -242 99q-98 100 -98 245t98 245zM568 782q0 -28 -20 -47.5
t-49 -19.5q-28 -2 -48 19.5t-20 47.5t20 48q21 19 48 20t49 -19t20 -49zM328 830q20 -20 20 -48t-20 -47t-48 -19t-48 19t-20 47t20 48t48 20t48 -20z" />
    <glyph glyph-name="multiply" unicode="&#xd7;" horiz-adv-x="372" 
d="M342 341l-86 -89l86 -88l-68 -66l-87 87l-88 -88l-69 68l89 88l-89 88l68 66l87 -87l90 89z" />
    <glyph glyph-name="Oslash" unicode="&#xd8;" 
d="M390 88q96 0 163 69q67 68 67 172q0 67 -30 122.5t-82 86.5l-172 -444q26 -6 54 -6zM160 329q0 -68 30.5 -123.5t84.5 -86.5l172 444q-24 7 -57 7q-97 0 -163 -69q-67 -68 -67 -172zM524 762l61 -24l-39 -101q85 -43 134.5 -125t49.5 -183q0 -147 -97 -245
q-97 -99 -243 -99q-48 0 -92 12l-42 -108l-61 24l41 107q-86 42 -136 124.5t-50 184.5q0 145 98 245q98 99 242 99q53 0 95 -13z" />
    <glyph glyph-name="Ugrave" unicode="&#xd9;" horiz-adv-x="648" 
d="M324 -15q-101 -3 -177 63.5t-77 181.5v428h108v-407q0 -76 41.5 -119t104.5 -43q64 0 105 42.5t41 119.5v407h108v-428q0 -116 -75 -181q-76 -64 -179 -64zM433 803l-28 -90l-235 71l25 92z" />
    <glyph glyph-name="Uacute" unicode="&#xda;" horiz-adv-x="648" 
d="M324 -15q-101 -3 -177 63.5t-77 181.5v428h108v-407q0 -76 41.5 -119t104.5 -43q64 0 105 42.5t41 119.5v407h108v-428q0 -116 -75 -181q-76 -64 -179 -64zM227 804l238 73l25 -92l-235 -71z" />
    <glyph glyph-name="Ucircumflex" unicode="&#xdb;" horiz-adv-x="648" 
d="M324 -15q-101 -3 -177 63.5t-77 181.5v428h108v-407q0 -76 41.5 -119t104.5 -43q64 0 105 42.5t41 119.5v407h108v-428q0 -116 -75 -181q-76 -64 -179 -64zM500 783l-57 -68l-118 90l-120 -90l-57 68l176 131z" />
    <glyph glyph-name="Udieresis" unicode="&#xdc;" horiz-adv-x="648" 
d="M324 -15q-101 -3 -177 63.5t-77 181.5v428h108v-407q0 -76 41.5 -119t104.5 -43q64 0 105 42.5t41 119.5v407h108v-428q0 -116 -75 -181q-76 -64 -179 -64zM502 782q0 -28 -20 -47.5t-49 -19.5q-28 -2 -48 19.5t-20 47.5t20 48q21 19 48 20t49 -19t20 -49zM262 830
q20 -20 20 -48t-20 -47t-48 -19t-48 19t-20 47t20 48t48 20t48 -20z" />
    <glyph glyph-name="Yacute" unicode="&#xdd;" horiz-adv-x="618" 
d="M363 283v-283h-108v284l-245 374h133l166 -271l167 271h132zM230 804l238 73l25 -92l-235 -71z" />
    <glyph glyph-name="Thorn" unicode="&#xde;" horiz-adv-x="541" 
d="M188 459v-190h109q47 0 76 29t29 70q0 39 -28 65t-75 26h-111zM188 658v-100h126q92 0 145 -57q52 -56 52 -134q0 -79 -54 -137q-55 -58 -148 -58h-121v-172h-108v658h108z" />
    <glyph glyph-name="germandbls" unicode="&#xdf;" horiz-adv-x="546" 
d="M378 355q57 -21 87.5 -64t30.5 -98q0 -77 -54 -135q-55 -58 -161 -58h-53v94h62q45 0 74 29t29 69q0 44 -33 73.5t-91 29.5h-31v88h20q43 0 72.5 31.5t29.5 73.5t-28 68.5t-70 26.5q-47 0 -72.5 -30.5t-25.5 -89.5v-463h-104v472q0 98 60 151q58 52 142 52q83 0 142 -46
q59 -47 59 -128q0 -95 -85 -146z" />
    <glyph glyph-name="agrave" unicode="&#xe0;" horiz-adv-x="643" 
d="M185 125q28 -30 71 -37t81.5 7.5t65 53t24.5 91.5q0 72 -42 113q-43 40 -101 40q-60 0 -100 -41t-40 -113q0 -73 41 -114zM603 97l30 -70q-31 -36 -85 -36q-37 0 -66.5 19.5t-40.5 56.5q-71 -77 -174 -77q-91 0 -159 66t-68 181q0 118 71 184q71 65 167 65q100 0 151 -67
v55h102v-346q0 -43 35 -43q22 0 37 12zM408 653l-28 -90l-235 71l25 92z" />
    <glyph glyph-name="aacute" unicode="&#xe1;" horiz-adv-x="643" 
d="M185 125q28 -30 71 -37t81.5 7.5t65 53t24.5 91.5q0 72 -42 113q-43 40 -101 40q-60 0 -100 -41t-40 -113q0 -73 41 -114zM603 97l30 -70q-31 -36 -85 -36q-37 0 -66.5 19.5t-40.5 56.5q-71 -77 -174 -77q-91 0 -159 66t-68 181q0 118 71 184q71 65 167 65q100 0 151 -67
v55h102v-346q0 -43 35 -43q22 0 37 12zM210 653l238 73l25 -92l-235 -71z" />
    <glyph glyph-name="acircumflex" unicode="&#xe2;" horiz-adv-x="643" 
d="M185 125q28 -30 71 -37t81.5 7.5t65 53t24.5 91.5q0 72 -42 113q-43 40 -101 40q-60 0 -100 -41t-40 -113q0 -73 41 -114zM603 97l30 -70q-31 -36 -85 -36q-37 0 -66.5 19.5t-40.5 56.5q-71 -77 -174 -77q-91 0 -159 66t-68 181q0 118 71 184q71 65 167 65q100 0 151 -67
v55h102v-346q0 -43 35 -43q22 0 37 12zM476 623l-57 -68l-118 90l-120 -90l-57 68l176 131z" />
    <glyph glyph-name="atilde" unicode="&#xe3;" horiz-adv-x="643" 
d="M185 125q28 -30 71 -37t81.5 7.5t65 53t24.5 91.5q0 72 -42 113q-43 40 -101 40q-60 0 -100 -41t-40 -113q0 -73 41 -114zM603 97l30 -70q-31 -36 -85 -36q-37 0 -66.5 19.5t-40.5 56.5q-71 -77 -174 -77q-91 0 -159 66t-68 181q0 118 71 184q71 65 167 65q100 0 151 -67
v55h102v-346q0 -43 35 -43q22 0 37 12zM404 701l58 -46q-35 -56 -63 -76q-21 -15 -42 -15q-25 0 -62 24q-38 24 -52 24q-23 0 -64 -45l-60 50q61 93 121 93q26 0 64 -23t51 -23q22 0 49 37z" />
    <glyph glyph-name="adieresis" unicode="&#xe4;" horiz-adv-x="643" 
d="M185 125q28 -30 71 -37t81.5 7.5t65 53t24.5 91.5q0 72 -42 113q-43 40 -101 40q-60 0 -100 -41t-40 -113q0 -73 41 -114zM603 97l30 -70q-31 -36 -85 -36q-37 0 -66.5 19.5t-40.5 56.5q-71 -77 -174 -77q-91 0 -159 66t-68 181q0 118 71 184q71 65 167 65q100 0 151 -67
v55h102v-346q0 -43 35 -43q22 0 37 12zM480 633q0 -28 -20 -47.5t-49 -19.5q-28 0 -48 19.5t-20 47.5q0 29 19.5 48.5t48.5 19.5t49 -19.5t20 -48.5zM260 633q0 -28 -20 -47.5t-48 -19.5t-48 19.5t-20 47.5q0 29 20 48.5t48 19.5t48 -19.5t20 -48.5z" />
    <glyph glyph-name="aring" unicode="&#xe5;" horiz-adv-x="643" 
d="M185 125q28 -30 71 -37t81.5 7.5t65 53t24.5 91.5q0 72 -42 113q-43 40 -101 40q-60 0 -100 -41t-40 -113q0 -73 41 -114zM603 97l30 -70q-31 -36 -85 -36q-37 0 -66.5 19.5t-40.5 56.5q-71 -77 -174 -77q-91 0 -159 66t-68 181q0 118 71 184q71 65 167 65q100 0 151 -67
v55h102v-346q0 -43 35 -43q22 0 37 12zM256 719q-24 -25 -11 -59.5t49 -34.5q22 0 37.5 16t15.5 39t-15.5 39t-37.5 16q-23 0 -38 -16zM177 680q0 49 33.5 83.5t83.5 34.5t84 -34q35 -35 35 -84q0 -48 -35 -82t-84 -34q-50 0 -83.5 33t-33.5 83z" />
    <glyph glyph-name="ae" unicode="&#xe6;" horiz-adv-x="874" 
d="M215 84q55 0 99 36q43 34 43 99h-137q-42 0 -65 -18t-23 -49t22 -49.5t61 -18.5zM486 277h244q-1 54 -34 85t-83 31q-49 0 -85 -31.5t-42 -84.5zM834 250q0 -38 -4 -59h-341q11 -50 48 -77t89 -27q86 0 134 67l67 -65q-79 -99 -203 -99q-70 0 -128 32.5t-88 91.5
q-63 -124 -197 -124q-87 0 -133 48q-48 46 -48 115q0 72 57 108.5t161 36.5h112q-11 95 -121 95q-75 0 -123 -58l-64 69q85 82 196 82q59 0 107 -25.5t72 -72.5q60 98 187 98q99 0 159.5 -62t60.5 -174z" />
    <glyph glyph-name="ccedilla" unicode="&#xe7;" horiz-adv-x="515" 
d="M419 173l76 -53q-30 -58 -85.5 -92.5t-120.5 -37.5l-9 -28q51 -8 79.5 -35.5t28.5 -63.5q0 -43 -34.5 -73t-89.5 -30q-81 0 -130 58l45 48q37 -43 83 -43q25 0 42 12t17 33q0 48 -106 61l20 65q-84 14 -139 78q-56 65 -56 166q0 116 72 182t170 66q57 0 108 -24.5
t86 -69.5l-70 -66q-40 64 -119 64q-58 0 -101 -40t-43 -111q0 -70 43 -110q43 -41 99 -41q41 0 77 21.5t57 63.5z" />
    <glyph glyph-name="egrave" unicode="&#xe8;" horiz-adv-x="538" 
d="M359 363q-24 23 -59.5 28t-67.5 -6t-55.5 -39.5t-26.5 -68.5h244q-2 57 -35 86zM498 250q0 -38 -4 -59h-341q11 -50 48 -77t89 -27q86 0 134 67l67 -65q-79 -99 -204 -99q-100 0 -173 67q-74 68 -74 183t72 181q71 65 170 65q94 0 155 -61t61 -175zM391 653l-28 -90
l-235 71l25 92z" />
    <glyph glyph-name="eacute" unicode="&#xe9;" horiz-adv-x="538" 
d="M359 363q-24 23 -59.5 28t-67.5 -6t-55.5 -39.5t-26.5 -68.5h244q-2 57 -35 86zM498 250q0 -38 -4 -59h-341q11 -50 48 -77t89 -27q86 0 134 67l67 -65q-79 -99 -204 -99q-100 0 -173 67q-74 68 -74 183t72 181q71 65 170 65q94 0 155 -61t61 -175zM182 653l238 73
l25 -92l-235 -71z" />
    <glyph glyph-name="ecircumflex" unicode="&#xea;" horiz-adv-x="538" 
d="M359 363q-24 23 -59.5 28t-67.5 -6t-55.5 -39.5t-26.5 -68.5h244q-2 57 -35 86zM498 250q0 -38 -4 -59h-341q11 -50 48 -77t89 -27q86 0 134 67l67 -65q-79 -99 -204 -99q-100 0 -173 67q-74 68 -74 183t72 181q71 65 170 65q94 0 155 -61t61 -175zM462 623l-57 -68
l-118 90l-120 -90l-57 68l176 131z" />
    <glyph glyph-name="edieresis" unicode="&#xeb;" horiz-adv-x="538" 
d="M359 363q-24 23 -59.5 28t-67.5 -6t-55.5 -39.5t-26.5 -68.5h244q-2 57 -35 86zM498 250q0 -38 -4 -59h-341q11 -50 48 -77t89 -27q86 0 134 67l67 -65q-79 -99 -204 -99q-100 0 -173 67q-74 68 -74 183t72 181q71 65 170 65q94 0 155 -61t61 -175zM464 633
q0 -28 -20 -47.5t-49 -19.5q-28 0 -48 19.5t-20 47.5q0 29 19.5 48.5t48.5 19.5t49 -19.5t20 -48.5zM244 633q0 -28 -20 -47.5t-48 -19.5t-48 19.5t-20 47.5q0 29 20 48.5t48 19.5t48 -19.5t20 -48.5z" />
    <glyph glyph-name="igrave" unicode="&#xec;" horiz-adv-x="270" 
d="M60 0v474h104v-474h-104zM253 653l-28 -90l-235 71l25 92z" />
    <glyph glyph-name="iacute" unicode="&#xed;" horiz-adv-x="224" 
d="M60 0v474h104v-474h-104zM23 653l238 73l25 -92l-235 -71z" />
    <glyph glyph-name="icircumflex" unicode="&#xee;" horiz-adv-x="312" 
d="M81 0v474h104v-474h-104zM332 623l-57 -68l-118 90l-120 -90l-57 68l176 131z" />
    <glyph glyph-name="idieresis" unicode="&#xef;" horiz-adv-x="296" 
d="M73 0v474h104v-474h-104zM326 633q0 -28 -20 -47.5t-49 -19.5q-28 0 -48 19.5t-20 47.5q0 29 19.5 48.5t48.5 19.5t49 -19.5t20 -48.5zM106 633q0 -28 -20 -47.5t-48 -19.5t-48 19.5t-20 47.5q0 29 20 48.5t48 19.5t48 -19.5t20 -48.5z" />
    <glyph glyph-name="eth" unicode="&#xf0;" horiz-adv-x="550" 
d="M171 119q35 -39 97 -39t97 39q33 39 33 92q0 56 -36.5 93t-97.5 37t-94.5 -36.5t-33.5 -93.5q0 -52 35 -92zM288 724l58 -19l-24 -63q98 -45 148 -140t50 -210q0 -133 -64 -218q-65 -86 -185 -89h-7q-110 0 -171 72q-63 71 -63 165q0 88 57 151q57 62 159 62
q114 0 165 -84q-19 144 -124 199l-22 -58l-55 19l22 60q-39 9 -82 9l6 95q57 0 109 -13z" />
    <glyph glyph-name="ntilde" unicode="&#xf1;" horiz-adv-x="563" 
d="M70 0v474h102v-68q50 80 150 80q72 0 121 -46q50 -47 50 -131v-309h-104v273q0 55 -26 84t-70 29q-52 0 -85.5 -38t-33.5 -103v-245h-104zM407 701l58 -46q-35 -56 -63 -76q-21 -15 -42 -15q-24 0 -61 24t-53 24q-24 0 -64 -45l-60 50q62 93 121 93q26 0 64 -23t51 -23
q22 0 49 37z" />
    <glyph glyph-name="ograve" unicode="&#xf2;" horiz-adv-x="576" 
d="M392 348q-40 42 -104 42t-104 -42q-41 -44 -41 -109t41 -109q40 -43 104 -43q65 0 105 43t40 109q0 65 -41 109zM111 415q71 71 177 71q107 0 178 -71q70 -70 70 -177t-70 -177q-71 -71 -178 -71q-106 0 -177 71t-71 177t71 177zM393 653l-28 -90l-235 71l25 92z" />
    <glyph glyph-name="oacute" unicode="&#xf3;" horiz-adv-x="576" 
d="M392 348q-40 42 -104 42t-104 -42q-41 -44 -41 -109t41 -109q40 -43 104 -43q65 0 105 43t40 109q0 65 -41 109zM111 415q71 71 177 71q107 0 178 -71q70 -70 70 -177t-70 -177q-71 -71 -178 -71q-106 0 -177 71t-71 177t71 177zM180 653l238 73l25 -92l-235 -71z" />
    <glyph glyph-name="ocircumflex" unicode="&#xf4;" horiz-adv-x="576" 
d="M392 348q-40 42 -104 42t-104 -42q-41 -44 -41 -109t41 -109q40 -43 104 -43q65 0 105 43t40 109q0 65 -41 109zM111 415q71 71 177 71q107 0 178 -71q70 -70 70 -177t-70 -177q-71 -71 -178 -71q-106 0 -177 71t-71 177t71 177zM464 623l-57 -68l-118 90l-120 -90
l-57 68l176 131z" />
    <glyph glyph-name="otilde" unicode="&#xf5;" horiz-adv-x="576" 
d="M392 348q-40 42 -104 42t-104 -42q-41 -44 -41 -109t41 -109q40 -43 104 -43q65 0 105 43t40 109q0 65 -41 109zM111 415q71 71 177 71q107 0 178 -71q70 -70 70 -177t-70 -177q-71 -71 -178 -71q-106 0 -177 71t-71 177t71 177zM407 701l58 -46q-35 -56 -63 -76
q-21 -15 -42 -15q-24 0 -61 24t-53 24q-24 0 -64 -45l-60 50q62 93 121 93q26 0 64 -23t51 -23q22 0 49 37z" />
    <glyph glyph-name="odieresis" unicode="&#xf6;" horiz-adv-x="576" 
d="M392 348q-40 42 -104 42t-104 -42q-41 -44 -41 -109t41 -109q40 -43 104 -43q65 0 105 43t40 109q0 65 -41 109zM111 415q71 71 177 71q107 0 178 -71q70 -70 70 -177t-70 -177q-71 -71 -178 -71q-106 0 -177 71t-71 177t71 177zM466 633q0 -28 -20 -47.5t-49 -19.5
q-28 0 -48 19.5t-20 47.5q0 29 19.5 48.5t48.5 19.5t49 -19.5t20 -48.5zM246 633q0 -28 -20 -47.5t-48 -19.5t-48 19.5t-20 47.5q0 29 20 48.5t48 19.5t48 -19.5t20 -48.5z" />
    <glyph glyph-name="divide" unicode="&#xf7;" horiz-adv-x="424" 
d="M139 92q0 32 21 53t52 21q32 0 53 -21t21 -53q0 -31 -21.5 -52t-52.5 -21t-52 21t-21 52zM40 217v95h344v-95h-344zM139 432q0 32 21 53t52 21q32 0 53 -21t21 -53q0 -31 -21.5 -52t-52.5 -21t-52 21t-21 52z" />
    <glyph glyph-name="oslash" unicode="&#xf8;" horiz-adv-x="576" 
d="M288 87q64 0 104.5 43t40.5 109q0 83 -61 125l-107 -275q18 -2 23 -2zM143 239q0 -84 61 -127l107 276q-18 2 -23 2q-63 0 -104 -42.5t-41 -108.5zM389 588l61 -24l-41 -107q59 -31 93 -89t34 -130q0 -107 -70 -177q-71 -71 -178 -71q-31 0 -58 6l-42 -107l-61 24l41 105
q-59 31 -93.5 89.5t-34.5 130.5q0 106 71 177t177 71q30 0 59 -6z" />
    <glyph glyph-name="ugrave" unicode="&#xf9;" horiz-adv-x="549" 
d="M479 474v-474h-102v63q-51 -73 -140 -73q-71 0 -124 48q-53 47 -53 138v298h104v-272q0 -51 25 -80t68 -29q50 0 84 38t34 101v242h104zM373 653l-28 -90l-235 71l25 92z" />
    <glyph glyph-name="uacute" unicode="&#xfa;" horiz-adv-x="549" 
d="M479 474v-474h-102v63q-51 -73 -140 -73q-71 0 -124 48q-53 47 -53 138v298h104v-272q0 -51 25 -80t68 -29q50 0 84 38t34 101v242h104zM172 653l238 73l25 -92l-235 -71z" />
    <glyph glyph-name="ucircumflex" unicode="&#xfb;" horiz-adv-x="549" 
d="M479 474v-474h-102v63q-51 -73 -140 -73q-71 0 -124 48q-53 47 -53 138v298h104v-272q0 -51 25 -80t68 -29q50 0 84 38t34 101v242h104zM445 623l-57 -68l-118 90l-120 -90l-57 68l176 131z" />
    <glyph glyph-name="udieresis" unicode="&#xfc;" horiz-adv-x="549" 
d="M479 474v-474h-102v63q-51 -73 -140 -73q-71 0 -124 48q-53 47 -53 138v298h104v-272q0 -51 25 -80t68 -29q50 0 84 38t34 101v242h104zM445 633q0 -28 -20 -47.5t-49 -19.5q-28 0 -48 19.5t-20 47.5q0 29 20 48.5t48 19.5q29 0 49 -19.5t20 -48.5zM225 633
q0 -28 -20 -47.5t-48 -19.5t-48 19.5t-20 47.5q0 29 19.5 48.5t48.5 19.5t48.5 -19.5t19.5 -48.5z" />
    <glyph glyph-name="yacute" unicode="&#xfd;" horiz-adv-x="580" 
d="M406 474h104v-461q0 -110 -70 -171q-71 -62 -166 -62q-81 0 -147 45q-66 47 -87 133l99 34q11 -53 50 -84.5t90 -31.5q56 0 92.5 37t36.5 100v75q-48 -83 -142 -83q-74 0 -131 51t-57 145v273h104v-257q0 -52 27.5 -82t73.5 -30q53 0 88 38.5t35 102.5v228zM189 653
l238 73l25 -92l-235 -71z" />
    <glyph glyph-name="thorn" unicode="&#xfe;" horiz-adv-x="601" 
d="M318 85q59 0 99.5 41.5t40.5 111.5q0 72 -42 112q-42 39 -99 39q-58 0 -100 -39q-43 -40 -43 -111t41.5 -112.5t102.5 -41.5zM329 482q91 0 162 -65q70 -64 70 -180q0 -115 -68 -181q-69 -66 -162 -66q-99 0 -157 67v-265h-104v866h104v-246q55 70 155 70z" />
    <glyph glyph-name="ydieresis" unicode="&#xff;" horiz-adv-x="580" 
d="M406 474h104v-461q0 -110 -70 -171q-71 -62 -166 -62q-81 0 -147 45q-66 47 -87 133l99 34q11 -53 50 -84.5t90 -31.5q56 0 92.5 37t36.5 100v75q-48 -83 -142 -83q-74 0 -131 51t-57 145v273h104v-257q0 -52 27.5 -82t73.5 -30q53 0 88 38.5t35 102.5v228zM467 633
q0 -28 -20 -47.5t-49 -19.5q-28 0 -48 19.5t-20 47.5q0 29 20 48.5t48 19.5q29 0 49 -19.5t20 -48.5zM247 633q0 -28 -20 -47.5t-48 -19.5t-48 19.5t-20 47.5q0 29 19.5 48.5t48.5 19.5t48.5 -19.5t19.5 -48.5z" />
    <glyph glyph-name="dotlessi" unicode="&#x131;" horiz-adv-x="224" 
d="M60 0v474h104v-474h-104z" />
    <glyph glyph-name="Lslash" unicode="&#x141;" horiz-adv-x="493" 
d="M188 99h275v-99h-383v295l-73 -42l-34 61l107 60v284h108v-223l109 62l33 -60l-142 -81v-257z" />
    <glyph glyph-name="lslash" unicode="&#x142;" horiz-adv-x="320" 
d="M234 81q17 0 41 8l34 -78q-43 -21 -92 -21q-66 0 -106.5 40.5t-40.5 117.5v147l-73 -42l-34 61l107 60v284h104v-225l113 64l33 -60l-146 -83v-201q0 -72 60 -72z" />
    <glyph glyph-name="OE" unicode="&#x152;" horiz-adv-x="878" 
d="M433 99v460h-56q-93 0 -154 -64q-62 -65 -62 -166t62 -166q61 -64 154 -64h56zM818 99v-99h-441q-138 0 -233 95q-94 94 -94 234q0 141 94 235t233 94h433v-99h-269v-181h213v-99h-213v-180h277z" />
    <glyph glyph-name="oe" unicode="&#x153;" horiz-adv-x="927" 
d="M184 130q40 -43 104 -43q65 0 105 43t40 109q0 65 -41 109q-40 42 -104 42t-104 -42q-41 -44 -41 -109t41 -109zM539 277h244q-1 54 -34 85t-83 31q-49 0 -85 -31.5t-42 -84.5zM887 250q0 -38 -4 -59h-341q11 -50 48 -77t89 -27q86 0 134 67l67 -65q-80 -99 -204 -99
q-60 0 -110.5 26.5t-83.5 74.5q-71 -101 -194 -101q-106 0 -177 71t-71 177t71 177t177 71q123 0 193 -100q67 100 190 100q94 0 155 -61t61 -175z" />
    <glyph glyph-name="Scaron" unicode="&#x160;" horiz-adv-x="559" 
d="M480 600l-58 -76q-24 26 -62 42t-74 16q-46 0 -75.5 -25.5t-29.5 -69.5q0 -45 30.5 -70t100.5 -48q98 -34 134 -57q68 -47 68 -132q0 -93 -67 -144t-165 -51q-141 0 -237 96l72 85q30 -39 76 -60.5t95 -21.5q51 0 83 22t32 62q-4 29 -15.5 45.5t-39.5 31.5q-31 15 -76 30
q-66 24 -105 47q-32 18 -48 37q-44 50 -44 121q0 95 65 145t153 50q111 0 187 -75zM468 845l-176 -131l-176 131l57 68l120 -90l118 90z" />
    <glyph glyph-name="scaron" unicode="&#x161;" horiz-adv-x="480" 
d="M450 145q0 -71 -58 -113t-142 -42q-64 0 -124 25t-96 69l77 72q58 -73 152 -73q37 0 61.5 14t24.5 35q-4 23 -25.5 33.5t-74.5 21.5l-10 2q-69 15 -114 41q-60 33 -60 109q0 70 52.5 108.5t136.5 38.5q102 0 175 -55l-59 -77q-50 41 -116 41q-37 0 -60.5 -14t-23.5 -40
t25 -39t87 -25q57 -11 94 -25q26 -10 42 -23q36 -32 36 -84zM416 684l-176 -131l-176 131l57 68l120 -90l118 90z" />
    <glyph glyph-name="Ydieresis" unicode="&#x178;" horiz-adv-x="618" 
d="M363 283v-283h-108v284l-245 374h133l166 -271l167 271h132zM487 782q0 -28 -20 -47.5t-49 -19.5q-28 0 -48 19.5t-20 47.5t20 48t48 20q29 0 49 -19.5t20 -48.5zM248 830q20 -20 19.5 -48t-20.5 -47t-48 -19t-48 19q-20 20 -20 47.5t20 47.5t48.5 20t48.5 -20z" />
    <glyph glyph-name="Zcaron" unicode="&#x17d;" horiz-adv-x="554" 
d="M40 0v89l325 470h-317v99h450v-88l-325 -471h341v-99h-474zM450 845l-176 -131l-176 131l57 68l120 -90l118 90z" />
    <glyph glyph-name="zcaron" unicode="&#x17e;" horiz-adv-x="498" 
d="M40 0v98l266 278h-255v98h392v-99l-258 -277h273v-98h-418zM421 684l-176 -131l-176 131l57 68l120 -90l118 90z" />
    <glyph glyph-name="florin" unicode="&#x192;" horiz-adv-x="328" 
d="M245 584q-30 0 -47 -18.5t-17 -53.5v-38h123v-96h-123v-441q0 -75 -43 -116t-111 -41q-57 0 -107 32l39 80q27 -21 59 -21q27 0 43 18t16 52v437h-92v96h92v43q0 75 44.5 116.5t114.5 41.5q59 0 112 -32l-40 -81q-28 22 -63 22z" />
    <glyph glyph-name="circumflex" unicode="&#x2c6;" horiz-adv-x="352" 
d="M352 623l-57 -68l-118 90l-120 -90l-57 68l176 131z" />
    <glyph glyph-name="caron" unicode="&#x2c7;" horiz-adv-x="352" 
d="M352 684l-176 -131l-176 131l57 68l120 -90l118 90z" />
    <glyph glyph-name="breve" unicode="&#x2d8;" horiz-adv-x="250" 
d="M165 692h85q0 -57 -32 -92.5t-93 -35.5t-93 35.5t-32 92.5h85q0 -19 10.5 -33t29.5 -14t29.5 14t10.5 33z" />
    <glyph glyph-name="dotaccent" unicode="&#x2d9;" horiz-adv-x="135" 
d="M19 583q-19 21 -19 48t19.5 48.5t47.5 19.5q29 0 48.5 -19.5t19.5 -48.5q2 -28 -19.5 -47.5t-48.5 -19.5t-48 19z" />
    <glyph glyph-name="ring" unicode="&#x2da;" horiz-adv-x="236" 
d="M79 719q-24 -25 -11 -59.5t49 -34.5q22 0 37.5 16t15.5 39t-15.5 39t-37.5 16q-23 0 -38 -16zM0 680q0 49 33.5 83.5t83.5 34.5t84 -34q35 -35 35 -84q0 -48 -35 -82t-84 -34q-50 0 -83.5 33t-33.5 83z" />
    <glyph glyph-name="ogonek" unicode="&#x2db;" horiz-adv-x="155" 
d="M155 -121v-69q-67 7 -111 43t-44 86q0 47 42 72h64q-39 -29 -39 -69q0 -25 25.5 -44t62.5 -19z" />
    <glyph glyph-name="tilde" unicode="&#x2dc;" horiz-adv-x="343" 
d="M285 701l58 -46q-35 -56 -63 -76q-21 -15 -42 -15q-24 0 -61 24q-38 24 -53 24q-24 0 -64 -45l-60 50q62 93 121 93q26 0 64 -23t51 -23q22 0 49 37z" />
    <glyph glyph-name="hungarumlaut" unicode="&#x2dd;" horiz-adv-x="393" 
d="M393 712l-115 -148h-112l88 148h139zM202 712l-90 -148h-112l63 148h139z" />
    <glyph glyph-name="mu" unicode="&#x3bc;" horiz-adv-x="549" 
d="M479 474v-474h-102v57q-42 -68 -122 -68q-53 0 -91 25v-222h-104v682h104v-271q0 -52 27 -81.5t68 -29.5q49 0 82.5 39t33.5 101v242h104z" />
    <glyph glyph-name="endash" unicode="&#x2013;" horiz-adv-x="455" 
d="M50 307h355v-96h-355v96z" />
    <glyph glyph-name="emdash" unicode="&#x2014;" horiz-adv-x="635" 
d="M50 307h535v-96h-535v96z" />
    <glyph glyph-name="quoteleft" unicode="&#x2018;" horiz-adv-x="243" 
d="M223 643l-92 -274l-111 44l117 265z" />
    <glyph glyph-name="quoteright" unicode="&#x2019;" horiz-adv-x="243" 
d="M20 425l92 274l111 -44l-117 -265z" />
    <glyph glyph-name="quotesinglbase" unicode="&#x201a;" horiz-adv-x="243" 
d="M20 -144l92 274l111 -44l-117 -265z" />
    <glyph glyph-name="quotedblleft" unicode="&#x201c;" horiz-adv-x="453" 
d="M433 643l-92 -274l-111 44l117 265zM223 643l-92 -274l-111 44l117 265z" />
    <glyph glyph-name="quotedblright" unicode="&#x201d;" horiz-adv-x="453" 
d="M230 425l92 274l111 -44l-117 -265zM20 425l92 274l111 -44l-117 -265z" />
    <glyph glyph-name="quotedblbase" unicode="&#x201e;" horiz-adv-x="453" 
d="M230 -144l92 274l111 -44l-117 -265zM20 -144l92 274l111 -44l-117 -265z" />
    <glyph glyph-name="dagger" unicode="&#x2020;" horiz-adv-x="418" 
d="M261 658v-165h127v-96h-127v-397h-104v397h-127v96h127v165h104z" />
    <glyph glyph-name="daggerdbl" unicode="&#x2021;" horiz-adv-x="418" 
d="M157 261v136h-127v96h127v165h104v-165h127v-96h-127v-136h127v-96h-127v-165h-104v165h-127v96h127z" />
    <glyph glyph-name="bullet" unicode="&#x2022;" horiz-adv-x="207" 
d="M156 306q35 -30 14.5 -78.5t-65.5 -46.5q-31 0 -53 22t-22 52t22 51t53 21q29 0 51 -21z" />
    <glyph glyph-name="ellipsis" unicode="&#x2026;" horiz-adv-x="801" 
d="M594 63q0 32 21 53t52 21t52.5 -21.5t21.5 -52.5t-21.5 -52t-52.5 -21t-52 21t-21 52zM327 63q0 32 21 53t52 21q48 3 68 -46t-15 -80q-24 -21 -53 -21.5t-52 21t-21 52.5zM60 63q0 32 21 53t52 21t52.5 -21.5t21.5 -52.5t-21.5 -52t-52.5 -21t-52 21t-21 52z" />
    <glyph glyph-name="perthousand" unicode="&#x2030;" horiz-adv-x="1323" 
d="M1039 157q0 -34 22.5 -56.5t56.5 -22.5q33 0 54.5 22.5t21.5 56.5q0 35 -21.5 57.5t-54.5 22.5t-56 -22.5t-23 -57.5zM639 157q0 -34 22.5 -56.5t56.5 -22.5q33 0 54.5 22.5t21.5 56.5q0 35 -21.5 57.5t-54.5 22.5t-56 -22.5t-23 -57.5zM944 158q0 73 50 125
q50 51 123 51t125 -51q51 -53 51 -125q0 -74 -51 -123q-52 -50 -125 -50t-123 50t-50 123zM544 158q0 73 50 125q50 51 123 51t125 -51q51 -53 51 -125q0 -74 -51 -123q-52 -50 -125 -50t-123 50t-50 123zM135 498q0 -34 22.5 -56.5t56.5 -22.5q33 0 54.5 22.5t21.5 56.5
q0 35 -21.5 57.5t-54.5 22.5t-56 -22.5t-23 -57.5zM288 43l-69 57l449 544l70 -55zM40 499q0 73 50 125q50 51 123 51t125 -51q51 -52 51 -125t-51 -123q-52 -50 -125 -50t-123 50t-50 123z" />
    <glyph glyph-name="guilsinglleft" unicode="&#x2039;" horiz-adv-x="318" 
d="M154 261l124 -147l-77 -65l-181 212l181 212l77 -65z" />
    <glyph glyph-name="guilsinglright" unicode="&#x203a;" horiz-adv-x="318" 
d="M174 261l-124 147l77 65l181 -212l-181 -212l-77 65z" />
    <glyph glyph-name="fraction" unicode="&#x2044;" horiz-adv-x="519" 
d="M69 43l-69 57l449 544l70 -55z" />
    <glyph glyph-name="foursuperior" unicode="&#x2074;" horiz-adv-x="418" 
d="M228 590l-98 -131h98v131zM318 658v-199h60v-89h-60v-56h-90v56h-188v76l163 212h115z" />
    <glyph glyph-name="Euro" unicode="&#x20ac;" horiz-adv-x="774" 
d="M658 238l86 -47q-43 -99 -125.5 -152.5t-183.5 -53.5q-109 0 -198 65q-88 64 -116 179h-101v65h91q-1 7 -1 31q0 6 2 44h-92v65h104q33 113 125 178q91 63 204 63q161 0 257 -113l-73 -79q-71 89 -188 89q-71 0 -127.5 -36.5t-82.5 -101.5h317v-65h-334q-2 -32 -2 -39
q0 -4 2 -36h334v-65h-319q24 -67 80 -104t127 -37q69 0 126.5 39t87.5 111z" />
    <glyph glyph-name="numero" unicode="&#x2116;" horiz-adv-x="1089" 
d="M795 498q0 -34 22.5 -56.5t56.5 -22.5q33 0 54.5 22.5t21.5 56.5q0 35 -21.5 57.5t-54.5 22.5t-56 -22.5t-23 -57.5zM80 0v658h108l330 -465v465h108v-658h-108l-330 461v-461h-108zM700 499q0 73 50 125q50 51 123 51t125 -51q51 -52 51 -125t-51 -123q-52 -50 -125 -50
t-123 50t-50 123z" />
    <glyph glyph-name="trademark" unicode="&#x2122;" horiz-adv-x="735" 
d="M360 325v333h73l94 -177l93 177h75v-333h-64v204l-78 -132h-51l-78 132v-204h-64zM141 325v272h-101v61h268v-61h-101v-272h-66z" />
    <glyph glyph-name="minus" unicode="&#x2212;" horiz-adv-x="424" 
d="M40 211v95h344v-95h-344z" />
    <glyph glyph-name="infinity" unicode="&#x221e;" horiz-adv-x="802" 
d="M564 157q43 0 72 31t29 83q0 51 -27.5 80t-69.5 29q-46 0 -81.5 -33t-42.5 -87q15 -47 48 -75t72 -28zM234 162q46 0 81.5 33t42.5 87q-15 47 -48 75t-72 28q-43 0 -72 -31t-29 -83q0 -51 27.5 -80t69.5 -29zM573 486q80 0 139 -58q60 -58 60 -156t-60 -156
q-62 -60 -142 -60q-109 0 -174 104q-60 -104 -167 -104q-78 0 -139 59q-60 59 -60 155q0 97 60 157q61 59 141 59q110 0 175 -104q60 104 167 104z" />
    <glyph glyph-name="null" horiz-adv-x="0" 
 />
    <glyph glyph-name="acute.cap" horiz-adv-x="263" 
d="M0 804l238 73l25 -92l-235 -71z" />
    <glyph glyph-name="breve.cap" horiz-adv-x="250" 
d="M165 842h85q0 -57 -32 -92.5t-93 -35.5t-93 35.5t-32 92.5h85q0 -19 10.5 -33t29.5 -14t29.5 14t10.5 33z" />
    <glyph glyph-name="caron.cap" horiz-adv-x="352" 
d="M352 845l-176 -131l-176 131l57 68l120 -90l118 90z" />
    <glyph glyph-name="cedilla.cap" horiz-adv-x="254" 
d="M115 27h56l-25 -75q51 -8 79.5 -35.5t28.5 -63.5q0 -43 -34.5 -73t-89.5 -30q-81 0 -130 58l45 48q37 -43 83 -43q25 0 42 12t17 33q0 48 -106 61z" />
    <glyph glyph-name="circumflex.cap" horiz-adv-x="352" 
d="M352 783l-57 -68l-118 90l-120 -90l-57 68l176 131z" />
    <glyph glyph-name="dieresis.cap" horiz-adv-x="356" 
d="M356 782q0 -28 -20 -47.5t-49 -19.5q-28 -2 -48 19.5t-20 47.5t20 48q21 19 48 20t49 -19t20 -49zM116 830q20 -20 20 -48t-20 -47t-48 -19t-48 19t-20 47t20 48t48 20t48 -20z" />
    <glyph glyph-name="dotaccent.cap" horiz-adv-x="135" 
d="M19 733q-19 21 -19 48t19.5 48.5t47.5 19.5q29 0 48.5 -19.5t19.5 -48.5q2 -28 -19.5 -47.5t-48.5 -19.5t-48 19z" />
    <glyph glyph-name="grave.cap" horiz-adv-x="263" 
d="M263 803l-28 -90l-235 71l25 92z" />
    <glyph glyph-name="hungarumlaut.cap" horiz-adv-x="393" 
d="M393 862l-115 -148h-112l88 148h139zM202 862l-90 -148h-112l63 148h139z" />
    <glyph glyph-name="macron.cap" horiz-adv-x="279" 
d="M0 816h279v-102h-279v102z" />
    <glyph glyph-name="ogonek.cap" horiz-adv-x="155" 
d="M155 -121v-69q-67 7 -111 43t-44 86q0 47 42 72h64q-39 -29 -39 -69q0 -25 25.5 -44t62.5 -19z" />
    <glyph glyph-name="ring.cap" horiz-adv-x="236" 
d="M79 869q-24 -25 -11 -59.5t49 -34.5q22 0 37.5 16t15.5 39t-15.5 39t-37.5 16q-23 0 -38 -16zM0 830q0 49 33.5 83.5t83.5 34.5t84 -34q35 -35 35 -84q0 -48 -35 -82t-84 -34q-50 0 -83.5 33t-33.5 83z" />
    <glyph glyph-name="tilde.cap" horiz-adv-x="343" 
d="M285 852l58 -46q-35 -56 -63 -76q-21 -15 -42 -15q-24 0 -61 24q-38 24 -53 24q-24 0 -64 -45l-60 50q62 93 121 93q26 0 64 -23t51 -23q22 0 49 37z" />
    <glyph glyph-name="null001" horiz-adv-x="20" 
 />
    </font>
</defs>
</svg>
